<svg width="75" height="96" viewBox="0 0 75 96" fill="none" xmlns="http://www.w3.org/2000/svg">
<path d="M33.831 0H49.533V72.657C41.487 74.187 35.565 74.799 29.142 74.799C9.987 74.799 0 66.144 0 49.518C0 33.519 10.593 23.127 27 23.127C29.547 23.127 31.485 23.331 33.828 23.94L33.831 0ZM33.831 36.579C32.127 36 30.33 35.721 28.533 35.751C20.58 35.751 16.002 40.641 16.002 49.221C16.002 57.579 20.376 62.16 28.44 62.16C30.174 62.16 31.596 62.067 33.831 61.755V36.567V36.579ZM74.505 24.234V60.624C74.505 73.155 73.599 79.188 70.848 84.375C68.301 89.376 64.926 92.532 58.005 96L43.428 89.061C50.349 85.794 53.724 82.953 55.866 78.561C58.101 74.076 58.818 68.874 58.818 55.218V24.234H74.505ZM58.818 0.078H74.505V16.188H58.818V0.078Z" fill="#007655"/>
</svg>
