<svg width="113" height="95" viewBox="0 0 113 95" fill="none" xmlns="http://www.w3.org/2000/svg">
<g clip-path="url(#clip0_325_2871)">
<path d="M89.9568 84.9585H83.9673V94.9585H89.9568V84.9585Z" fill="#F3F5FD"/>
<path d="M77.9612 76.7256H71.9717V94.9586H77.9612V76.7256Z" fill="#F3F5FD"/>
<path d="M65.9669 67.9268H59.9758V94.9582H65.9669V67.9268Z" fill="#F3F5FD"/>
<path d="M53.9712 59.4587H47.9814V94.9586H53.9712V59.4587Z" fill="#F3F5FD"/>
<path d="M41.9769 50.4209H35.9858V94.9585H41.9769V50.4209Z" fill="#F3F5FD"/>
<path d="M29.981 41.9697H23.9915V94.9585H29.981V41.9697Z" fill="#F3F5FD"/>
<path d="M17.9853 33.3044H11.9956V94.9583H17.9853V33.3044Z" fill="#F3F5FD"/>
<path d="M5.99107 25.1829H0V94.9585H5.99107V25.1829Z" fill="#F3F5FD"/>
<path d="M105.192 84.8267L101.524 89.9723L97.1204 86.8089L0.000488281 17.0753V9.29834L100.68 81.5864L105.192 84.8267Z" fill="#FD5D76"/>
<path d="M106.069 73.6775L113 94.9999L91.5652 94.9585L106.069 73.6775Z" fill="#FD5D76"/>
<path d="M81.6766 44.8547C89.4922 44.8547 95.828 38.4965 95.828 30.6533C95.828 22.8101 89.4922 16.4519 81.6766 16.4519C73.861 16.4519 67.5251 22.8101 67.5251 30.6533C67.5251 38.4965 73.861 44.8547 81.6766 44.8547Z" fill="#0CBC8B"/>
<g opacity="0.29">
<path d="M81.6765 39.8594C86.743 39.8594 90.8503 35.7376 90.8503 30.6532C90.8503 25.5688 86.743 21.447 81.6765 21.447C76.6099 21.447 72.5027 25.5688 72.5027 30.6532C72.5027 35.7376 76.6099 39.8594 81.6765 39.8594Z" fill="white"/>
</g>
<path d="M78.675 33.9415L79.5306 32.6101C80.2089 33.1316 80.8022 33.3976 81.4331 33.3976C82.1895 33.3976 82.5221 33.0826 82.5221 32.4732C82.5221 31.0956 79.0004 31.1204 79.0004 28.7041C79.0004 27.1507 80.0722 26.1613 81.7636 26.1613C82.2438 26.1543 82.7198 26.2522 83.1584 26.4484C83.5971 26.6445 83.9879 26.9342 84.3038 27.2972L83.3223 28.4253C82.8373 27.9835 82.426 27.7497 81.8689 27.7497C81.2269 27.7497 80.8786 28.0096 80.8786 28.6119C80.8786 29.889 84.4003 29.7774 84.4003 32.337C84.4003 33.8736 83.3859 34.9876 81.4336 34.9876C80.4222 34.9646 79.4489 34.5956 78.675 33.9415ZM81.0218 24.8489H82.3246V26.7773H81.0218V24.8489ZM81.0218 34.1822H82.3246V36.2983H81.0218V34.1822Z" fill="white"/>
<path d="M25.844 7.55907C25.9014 8.26378 25.1695 8.9199 25.0488 9.58408C24.924 10.2713 25.3715 11.1441 25.0796 11.7606C24.7835 12.386 23.8234 12.5889 23.3796 13.113C22.9357 13.6372 22.8908 14.6206 22.3235 15.0145C21.7642 15.4031 20.8337 15.1004 20.1781 15.3347C19.5444 15.5612 19.0169 16.3911 18.3147 16.4487C17.6125 16.5063 16.9587 15.7717 16.2968 15.6507C15.612 15.5254 14.7423 15.9745 14.1279 15.6814C13.5047 15.3843 13.3024 14.4208 12.7803 13.9754C12.2582 13.53 11.278 13.4849 10.8855 12.9156C10.4985 12.3543 10.7999 11.4205 10.5664 10.7626C10.3408 10.1267 9.51375 9.59753 9.45633 8.89262C9.39891 8.18772 10.131 7.5318 10.2516 6.86761C10.3764 6.18038 9.92888 5.30761 10.2208 4.69106C10.517 4.06567 11.4769 3.86284 11.9209 3.33868C12.365 2.81452 12.4098 1.83111 12.9771 1.43717C13.5363 1.04861 14.4667 1.35131 15.1224 1.11699C15.7561 0.890533 16.2834 0.0605915 16.9858 0.00296996C17.6883 -0.0546516 18.3419 0.680023 19.0037 0.801028C19.6883 0.926259 20.5582 0.477195 21.1726 0.770296C21.7956 1.06743 21.9979 2.03086 22.5202 2.47628C23.0425 2.92169 24.0225 2.96683 24.415 3.53613C24.802 4.09736 24.5006 5.03122 24.7341 5.68906C24.9598 6.32501 25.7872 6.85417 25.844 7.55907Z" fill="#0F1011"/>
<path d="M14.5496 15.8457C14.5496 15.8457 16.0302 15.0596 15.7035 11.0149L18.7618 10.4485C18.7618 10.4485 18.415 14.0742 19.9609 15.2268L14.5496 15.8457Z" fill="#E98862"/>
<g opacity="0.2">
<path d="M19.3351 14.4682L16.7964 12.5158L18.7917 12.4966C18.8488 13.182 19.0331 13.8507 19.3351 14.4682Z" fill="black"/>
</g>
<path d="M13.9697 9.44504C14.1803 10.6724 14.8465 11.8348 15.9248 12.2322C17.1001 12.7015 18.3719 12.8751 19.6293 12.7379C22.977 12.4654 22.3217 4.82648 20.7337 3.34138C19.1457 1.85628 14.4808 2.79167 13.9112 5.27286C13.6166 6.55589 13.7693 8.27686 13.9697 9.44504Z" fill="#E98862"/>
<path d="M18.7593 8.50389C18.9124 8.50389 19.0366 8.37929 19.0366 8.22558C19.0366 8.07187 18.9124 7.94727 18.7593 7.94727C18.6061 7.94727 18.4819 8.07187 18.4819 8.22558C18.4819 8.37929 18.6061 8.50389 18.7593 8.50389Z" fill="#0F1011"/>
<path d="M20.9475 8.32591C21.1007 8.32591 21.2248 8.20131 21.2248 8.0476C21.2248 7.89389 21.1007 7.76929 20.9475 7.76929C20.7943 7.76929 20.6702 7.89389 20.6702 8.0476C20.6702 8.20131 20.7943 8.32591 20.9475 8.32591Z" fill="#0F1011"/>
<path d="M21.4285 7.45504H21.4267L20.6923 7.44506C20.6752 7.44483 20.6583 7.44122 20.6426 7.43444C20.6269 7.42766 20.6126 7.41783 20.6007 7.40553C20.5887 7.39322 20.5793 7.37867 20.573 7.36271C20.5667 7.34676 20.5635 7.3297 20.5637 7.31253C20.5637 7.2953 20.5671 7.27824 20.5738 7.26236C20.5804 7.24648 20.5902 7.23211 20.6025 7.22009C20.6148 7.20807 20.6294 7.19865 20.6454 7.19239C20.6614 7.18613 20.6784 7.18316 20.6956 7.18365L21.4302 7.19344C21.4647 7.19367 21.4978 7.20767 21.5221 7.23236C21.5464 7.25706 21.5599 7.29042 21.5597 7.32511C21.5594 7.3598 21.5455 7.39298 21.5209 7.41734C21.4963 7.44171 21.463 7.45527 21.4285 7.45504Z" fill="#0F1011"/>
<path d="M18.1613 7.72104C18.1295 7.72091 18.0987 7.70908 18.075 7.68778C18.0512 7.66648 18.0361 7.63718 18.0324 7.60543C18.0287 7.57367 18.0367 7.54166 18.0549 7.51543C18.0731 7.48921 18.1003 7.47058 18.1313 7.46309L18.8557 7.28888C18.8726 7.28421 18.8902 7.28301 18.9075 7.28533C18.9249 7.28765 18.9416 7.29345 18.9566 7.30238C18.9717 7.31131 18.9848 7.3232 18.9952 7.33733C19.0056 7.35146 19.013 7.36754 19.0171 7.38462C19.0212 7.40169 19.0218 7.41942 19.0188 7.43673C19.0159 7.45404 19.0096 7.47059 19.0002 7.48539C18.9907 7.50018 18.9785 7.51293 18.964 7.52286C18.9496 7.53278 18.9333 7.5397 18.9162 7.54318L18.1917 7.71739C18.1818 7.71983 18.1716 7.72106 18.1613 7.72104Z" fill="#0F1011"/>
<path d="M20.6244 11.0949C20.6244 11.0949 19.6335 10.8153 18.884 10.9413C18.884 10.9413 19.0031 10.2751 19.8129 10.3458C20.6227 10.4165 20.6244 11.0949 20.6244 11.0949Z" fill="white"/>
<path d="M16.225 6.26788C16.4257 9.14395 16.1103 12.0328 15.2936 14.797C15.2936 14.797 12.9599 10.7587 12.599 7.39649C12.2606 4.24459 14.5765 2.38572 16.1404 2.03577C22.0836 0.707785 22.5113 5.06436 22.5113 5.06436C21.4286 7.32427 15.5817 7.31428 15.5817 7.31428" fill="#0F1011"/>
<path d="M17.3579 9.42401C17.3723 9.57942 17.3558 9.73615 17.3093 9.88511C17.2629 10.0341 17.1875 10.1723 17.0874 10.2918C16.9874 10.4113 16.8647 10.5097 16.7265 10.5813C16.5883 10.6529 16.4373 10.6962 16.2822 10.7088C16.1272 10.7215 15.9712 10.7031 15.8233 10.6548C15.6755 10.6065 15.5386 10.5292 15.4206 10.4274C15.3027 10.3257 15.2061 10.2015 15.1363 10.0619C15.0666 9.92244 15.0251 9.77044 15.0143 9.61473C14.9992 9.4598 15.0153 9.30339 15.0616 9.15482C15.1079 9.00625 15.1836 8.86856 15.2841 8.74994C15.3845 8.63132 15.5078 8.5342 15.6464 8.46436C15.7851 8.39452 15.9363 8.35339 16.0911 8.34341C16.9292 8.31652 17.3055 8.77461 17.3579 9.42401Z" fill="#E98862"/>
<g opacity="0.2">
<path d="M19.9893 9.77064C19.9664 9.77065 19.9442 9.76241 19.9268 9.7474C19.9095 9.7324 19.898 9.71163 19.8946 9.68888C19.8912 9.66612 19.8961 9.6429 19.9083 9.62343C19.9205 9.60396 19.9393 9.58954 19.9612 9.58279L20.5254 9.40993L20.1317 8.52793C20.1266 8.51642 20.1237 8.504 20.1234 8.49139C20.123 8.47878 20.1251 8.46622 20.1296 8.45443C20.1341 8.44264 20.1409 8.43185 20.1495 8.42268C20.1581 8.41351 20.1685 8.40613 20.1799 8.40097C20.1914 8.39582 20.2038 8.39298 20.2164 8.39262C20.2289 8.39226 20.2414 8.39439 20.2532 8.39888C20.2649 8.40338 20.2757 8.41015 20.2848 8.41881C20.294 8.42748 20.3013 8.43786 20.3065 8.44938L20.7446 9.43086C20.7501 9.44328 20.7529 9.45674 20.7529 9.47035C20.7528 9.48395 20.7499 9.49739 20.7443 9.50977C20.7387 9.52216 20.7305 9.53321 20.7203 9.54219C20.7102 9.55116 20.6982 9.55787 20.6852 9.56186L20.0173 9.76699C20.0082 9.7696 19.9988 9.77083 19.9893 9.77064Z" fill="black"/>
</g>
<path d="M27.0603 92.88L23.0691 92.4038C23.2486 90.8878 23.4519 89.0668 23.4657 88.7683C23.4657 88.7875 23.4657 88.8031 23.4657 88.8152H27.485C27.4844 88.9362 27.4844 89.3042 27.0603 92.88Z" fill="#E98862"/>
<path d="M11.0452 93.3623L7.02588 93.3492C7.02588 93.3492 7.03947 89.1842 7.03947 88.8152H11.0588C11.0588 89.1853 11.0452 93.3623 11.0452 93.3623Z" fill="#E98862"/>
<path d="M21.4624 91.6066L28.544 91.4854C28.2114 83.0283 28.1911 74.1571 28.0873 65.6793C26.7053 56.5418 25.9776 46.5074 24.2719 37.4353L9.5103 36.7068C9.5103 36.7068 9.08923 42.6854 8.94377 45.0719C8.23331 56.6502 6.85487 78.098 5.99072 91.3775L13.0471 91.9758C14.3178 78.956 16.2853 59.9851 17.4955 46.3083C18.8852 52.9672 19.8305 59.8624 21.039 66.4643C21.2806 74.7278 21.4852 83.367 21.4624 91.6066Z" fill="#262626"/>
<path d="M15.9309 94.9217C16.039 94.9212 16.1459 94.8983 16.2448 94.8545C16.3437 94.8107 16.4325 94.7469 16.5057 94.6671C16.579 94.5873 16.635 94.4933 16.6704 94.3907C16.7057 94.2882 16.7196 94.1795 16.7113 94.0713C16.6996 93.9215 16.6454 93.778 16.5553 93.658C16.4651 93.5379 16.3427 93.4461 16.2023 93.3935L11.524 91.821C11.4334 91.7909 11.3374 91.7808 11.2425 91.7914C11.1476 91.8021 11.0562 91.8331 10.9744 91.8825C10.3312 92.3303 9.56186 92.5591 8.77943 92.5355C8.17007 92.492 7.58514 92.2776 7.09132 91.9167C7.04794 91.8809 6.99531 91.8583 6.93959 91.8515C6.88386 91.8446 6.82735 91.8538 6.77663 91.878C6.72592 91.9021 6.68311 91.9403 6.65319 91.9879C6.62327 92.0356 6.60748 92.0908 6.60767 92.1472V94.4428C6.60767 94.5105 6.62099 94.5776 6.64687 94.6401C6.67274 94.7026 6.71067 94.7594 6.75847 94.8072C6.80627 94.855 6.863 94.8928 6.9254 94.9186C6.98781 94.9443 7.05467 94.9574 7.12214 94.9572L15.9309 94.9217Z" fill="#C1D8ED"/>
<path d="M31.9575 94.9217C32.0656 94.9212 32.1724 94.8983 32.2713 94.8545C32.3702 94.8107 32.459 94.7469 32.5322 94.6671C32.6054 94.5873 32.6615 94.4932 32.6968 94.3907C32.7321 94.2882 32.746 94.1795 32.7376 94.0713C32.726 93.9215 32.6719 93.778 32.5818 93.658C32.4917 93.5379 32.3692 93.4461 32.2289 93.3935L27.5506 91.821C27.46 91.7909 27.3639 91.7808 27.2691 91.7914C27.1742 91.8021 27.0827 91.8331 27.0009 91.8825C26.3577 92.3303 25.5884 92.5591 24.806 92.5355C24.1966 92.4921 23.6117 92.2776 23.1179 91.9167C23.0745 91.881 23.0218 91.8584 22.9661 91.8515C22.9104 91.8447 22.8539 91.8539 22.8032 91.878C22.7524 91.9022 22.7096 91.9403 22.6797 91.988C22.6497 92.0356 22.6339 92.0908 22.634 92.1472V94.4428C22.634 94.5105 22.6474 94.5776 22.6733 94.6401C22.6991 94.7027 22.7371 94.7595 22.7849 94.8073C22.8327 94.8551 22.8895 94.8929 22.9519 94.9186C23.0143 94.9444 23.0812 94.9575 23.1487 94.9572L31.9575 94.9217Z" fill="#C1D8ED"/>
<path d="M34.8191 15.8504C34.8191 15.8504 34.8478 13.5437 36.4909 13.6637C37.5277 13.7394 42.4531 13.5101 42.5264 13.9601C42.7078 15.0741 38.2026 15.3464 37.7936 16.3846L34.8191 15.8504Z" fill="#E98862"/>
<path d="M35.9092 13.7377C35.9092 13.7377 38.1962 12.9886 38.7581 13.1231C39.2557 13.2418 38.2186 14.0546 38.2186 14.0546L35.9092 13.7377Z" fill="#E98862"/>
<path d="M25.1931 36.9789C24.3911 38.8285 9.62727 39.5968 9.41673 36.3431C9.28276 34.2726 11.0859 32.4652 11.0859 28.4298C11.0859 24.3943 7.37799 20.2149 10.3929 17.1901C11.2677 16.3124 11.8073 14.7719 13.6485 14.77C13.7863 15.8475 20.3052 15.8514 20.355 14.795C20.6038 14.7988 20.7971 14.8027 20.9177 14.8084C27.2682 15.0831 23.8794 22.3357 23.8183 27.6638C23.7433 33.8981 26.0199 35.0735 25.1931 36.9789Z" fill="white"/>
<path d="M20.3547 14.7947C20.3049 15.8511 19.7327 17.405 17.9661 17.5222C15.6119 17.6777 13.786 15.8473 13.6482 14.7698H13.6539C15.9717 14.7702 19.0034 14.7736 20.3547 14.7947Z" fill="#E98862"/>
<path d="M34.6259 14.5029L30.5289 22.1798L24.2201 16.0038C23.6507 15.2785 22.7537 14.8262 21.3815 14.7659C21.2772 14.7615 20.201 14.7275 20.1375 14.7916C19.7528 15.1777 19.5405 21.9795 19.7319 25.7589C19.9411 29.85 19.7262 34.9591 19.9204 37.8965C19.933 38.0892 19.9854 38.2773 20.0741 38.4487C20.1629 38.6201 20.2861 38.7711 20.436 38.8923C20.5859 39.0135 20.7592 39.1021 20.945 39.1526C21.1308 39.2031 21.325 39.2144 21.5153 39.1857C23.579 38.8693 25.1882 38.3298 25.4229 37.7887C26.2497 35.8834 24.3417 33.897 24.4163 27.6623C24.4355 25.9844 24.7193 24.109 24.9172 22.3204L29.6355 26.9394C29.8585 27.1577 30.1291 27.321 30.4258 27.4164C30.7225 27.5117 31.0373 27.5366 31.3452 27.4889C31.6531 27.4412 31.9458 27.3224 32.2 27.1417C32.4543 26.961 32.6633 26.7235 32.8104 26.4479L38.1694 16.4066L34.6259 14.5029Z" fill="#21082D"/>
<path d="M28.5701 29.0795L17.903 29.406L15.618 24.6057C15.2493 20.9283 14.7607 17.7945 14.5366 16.1505C14.2495 14.628 14.4026 14.7359 13.6826 14.7354C11.8415 14.7373 10.2976 15.3377 9.42288 16.2155C6.40839 19.2406 10.1079 24.3958 10.1079 28.4293C10.1079 32.4628 8.28962 34.2721 8.4236 36.3427C8.50609 37.6359 9.16468 39.2719 14.1318 39.6225C14.5339 39.6509 14.9316 39.5232 15.2427 39.2659C15.5538 39.0085 15.7545 38.6411 15.8034 38.2396C15.9807 36.6868 16.0736 35.1255 16.0817 33.5626C16.253 33.6086 16.4294 33.6324 16.6067 33.6335C16.6282 33.6335 16.6494 33.6335 16.6706 33.6323L28.6976 33.2643L28.5701 29.0795Z" fill="#21082D"/>
<path d="M13.1731 19.329L13.6478 17.7675L12.7329 17.1663L13.4851 14.7404C13.9452 14.7214 14.4061 14.731 14.8651 14.7692C15.3168 16.2847 15.8029 22.7921 15.979 25.3332L13.1731 19.329Z" fill="#21082D"/>
<path d="M21.0968 17.7673L21.805 20.0971L19.759 26.3548C19.759 26.3548 19.3513 16.9011 19.893 14.7825C20.0839 14.7567 20.2761 14.7423 20.4687 14.7393C20.8618 14.7337 21.266 14.7606 21.266 14.7606L22.0125 17.1661L21.0968 17.7673Z" fill="#21082D"/>
<g opacity="0.24">
<path d="M13.1731 19.329L13.6478 17.7675L12.7329 17.1663L13.4851 14.7404C13.9452 14.7214 14.4061 14.731 14.8651 14.7692C15.3168 16.2847 15.8029 22.7921 15.979 25.3332L13.1731 19.329Z" fill="white"/>
</g>
<g opacity="0.24">
<path d="M21.0968 17.7673L21.805 20.0971L19.759 26.3548C19.759 26.3548 19.3513 16.9011 19.893 14.7825C20.0839 14.7567 20.2761 14.7423 20.4687 14.7393C20.8618 14.7337 21.266 14.7606 21.266 14.7606L22.0125 17.1661L21.0968 17.7673Z" fill="white"/>
</g>
<path d="M27.7121 19.0941L25.3882 28.8842C25.3521 29.0365 25.3508 29.1951 25.3844 29.348C25.4181 29.5009 25.4858 29.6442 25.5825 29.7671C25.6792 29.89 25.8024 29.9893 25.9428 30.0576C26.0832 30.1259 26.2372 30.1614 26.3932 30.1615H40.0941C40.3204 30.1615 40.5405 30.0868 40.7205 29.9491C40.9005 29.8114 41.0305 29.6182 41.0905 29.3992L43.7685 19.6091C43.8105 19.4552 43.8166 19.2936 43.7863 19.137C43.756 18.9803 43.69 18.8328 43.5936 18.7059C43.4972 18.579 43.3729 18.4762 43.2304 18.4054C43.0879 18.3345 42.9311 18.2977 42.7721 18.2976H28.7173C28.4849 18.2976 28.2593 18.3763 28.0769 18.5208C27.8946 18.6653 27.766 18.8673 27.7121 19.0941Z" fill="#21082D"/>
<path d="M37.0703 28.9429H20.5109C20.1756 28.9429 19.9038 29.2156 19.9038 29.5521C19.9038 29.8886 20.1756 30.1614 20.5109 30.1614H37.0703C37.4056 30.1614 37.6774 29.8886 37.6774 29.5521C37.6774 29.2156 37.4056 28.9429 37.0703 28.9429Z" fill="#21082D"/>
<path d="M35.1394 25.7587C36.0343 25.7587 36.7598 25.0307 36.7598 24.1327C36.7598 23.2346 36.0343 22.5066 35.1394 22.5066C34.2445 22.5066 33.519 23.2346 33.519 24.1327C33.519 25.0307 34.2445 25.7587 35.1394 25.7587Z" fill="white"/>
<path d="M32.0187 31.4465C31.1594 31.9785 29.8292 32.2301 28.6693 32.3223L28.6042 30.2018C29.1497 30.1865 29.988 30.1288 30.8091 30.1615C31.1801 29.858 31.3937 29.7677 31.7745 29.3855C32.1799 28.9787 33.2437 28.7344 33.4446 29.3855C33.6456 30.0366 32.7728 30.9778 32.0187 31.4465Z" fill="#E98862"/>
<path d="M60.8312 86.917H45.6388C44.9101 86.917 44.3193 87.5098 44.3193 88.2411V89.6342C44.3193 90.3655 44.9101 90.9584 45.6388 90.9584H60.8312C61.56 90.9584 62.1507 90.3655 62.1507 89.6342V88.2411C62.1507 87.5098 61.56 86.917 60.8312 86.917Z" fill="#0CBC8B"/>
<path d="M58.4662 82.8755H43.2738C42.5451 82.8755 41.9543 83.4683 41.9543 84.1996V85.5927C41.9543 86.324 42.5451 86.9169 43.2738 86.9169H58.4662C59.195 86.9169 59.7857 86.324 59.7857 85.5927V84.1996C59.7857 83.4683 59.195 82.8755 58.4662 82.8755Z" fill="#0CBC8B"/>
<path d="M60.8312 78.8337H45.6388C44.9101 78.8337 44.3193 79.4266 44.3193 80.1579V81.551C44.3193 82.2823 44.9101 82.8751 45.6388 82.8751H60.8312C61.56 82.8751 62.1507 82.2823 62.1507 81.551V80.1579C62.1507 79.4266 61.56 78.8337 60.8312 78.8337Z" fill="#0CBC8B"/>
<path d="M59.6489 74.8657H44.4564C43.7277 74.8657 43.137 75.4586 43.137 76.1899V77.583C43.137 78.3143 43.7277 78.9071 44.4564 78.9071H59.6489C60.3776 78.9071 60.9683 78.3143 60.9683 77.583V76.1899C60.9683 75.4586 60.3776 74.8657 59.6489 74.8657Z" fill="#0CBC8B"/>
<path d="M57.2836 70.8242H42.0912C41.3625 70.8242 40.7717 71.4171 40.7717 72.1484V73.5415C40.7717 74.2728 41.3625 74.8656 42.0912 74.8656H57.2836C58.0124 74.8656 58.6031 74.2728 58.6031 73.5415V72.1484C58.6031 71.4171 58.0124 70.8242 57.2836 70.8242Z" fill="#0CBC8B"/>
<path d="M59.4076 90.9583H44.2152C43.4865 90.9583 42.8958 91.5511 42.8958 92.2824V93.6755C42.8958 94.4068 43.4865 94.9996 44.2152 94.9996H59.4076C60.1364 94.9996 60.7271 94.4068 60.7271 93.6755V92.2824C60.7271 91.5511 60.1364 90.9583 59.4076 90.9583Z" fill="#0CBC8B"/>
<path d="M83.1537 90.9585H67.9613C67.2326 90.9585 66.6418 91.5513 66.6418 92.2826V93.6757C66.6418 94.407 67.2326 94.9999 67.9613 94.9999H83.1537C83.8825 94.9999 84.4732 94.407 84.4732 93.6757V92.2826C84.4732 91.5513 83.8825 90.9585 83.1537 90.9585Z" fill="#0CBC8B"/>
<path d="M82.3198 86.917H67.1273C66.3986 86.917 65.8079 87.5098 65.8079 88.2411V89.6342C65.8079 90.3655 66.3986 90.9584 67.1273 90.9584H82.3198C83.0485 90.9584 83.6392 90.3655 83.6392 89.6342V88.2411C83.6392 87.5098 83.0485 86.917 82.3198 86.917Z" fill="#0CBC8B"/>
<path d="M83.1537 82.8755H67.9613C67.2326 82.8755 66.6418 83.4683 66.6418 84.1996V85.5927C66.6418 86.324 67.2326 86.9169 67.9613 86.9169H83.1537C83.8825 86.9169 84.4732 86.324 84.4732 85.5927V84.1996C84.4732 83.4683 83.8825 82.8755 83.1537 82.8755Z" fill="#0CBC8B"/>
</g>
<defs>
<clipPath id="clip0_325_2871">
<rect width="113" height="95" fill="white"/>
</clipPath>
</defs>
</svg>
