<svg width="108" height="96" viewBox="0 0 108 96" fill="none" xmlns="http://www.w3.org/2000/svg">
<path d="M53.9489 38.3792C48.6451 38.3792 44.3258 42.6984 44.3258 48.0023C44.3258 53.3062 48.6451 57.6254 53.9489 57.6254C59.2528 57.6254 63.5721 53.3062 63.5721 48.0023C63.5721 42.6984 59.2528 38.3792 53.9489 38.3792ZM27.0082 67.1272L24.884 66.6012C9.07691 62.5955 0 55.8181 0 47.9854C0 40.1527 9.08028 33.3754 24.884 29.3697L27.0082 28.8437L27.605 30.9511C29.2032 36.464 31.2567 41.8386 33.735 47.038L34.1901 47.9854L33.735 48.9498C31.26 54.1289 29.2032 59.5035 27.605 65.0367L27.0082 67.1272ZM23.9028 34.2858C11.889 37.6576 4.51485 42.8367 4.51485 47.9854C4.51485 53.1342 11.8924 58.2931 23.9028 61.6851C25.3796 56.9949 27.1532 52.4295 29.2235 47.9854C27.1498 43.5414 25.3762 38.976 23.9028 34.2858ZM80.8897 67.1272L80.2929 65.0198C78.6947 59.5069 76.6412 54.1322 74.1629 48.9498L73.7077 47.9854L74.1629 47.0211C76.6379 41.842 78.6947 36.4673 80.2929 30.9342L80.8897 28.8437L83.0139 29.3697C98.821 33.3754 107.898 40.1527 107.898 47.9854C107.898 55.8181 98.8176 62.5955 83.0139 66.6012L80.8897 67.1272ZM78.6744 47.9854C80.8358 52.6554 82.6262 57.2411 83.9951 61.6851C96.0258 58.2964 103.383 53.1342 103.383 47.9854C103.383 42.8367 96.0055 37.6778 83.9951 34.2858C82.5183 38.9557 80.7447 43.5414 78.6744 47.9854ZM23.8657 34.2689L23.2689 32.1615C18.8248 16.4961 20.1769 5.25787 26.9745 1.33983C33.6473 -2.5074 44.3427 2.04117 55.564 13.5626L57.0915 15.1272L55.564 16.6917C51.5786 20.8356 47.9438 25.2965 44.6765 30.0373L44.0628 30.8971L43.0074 30.9848C37.2652 31.44 31.5736 32.3537 25.9899 33.7261L23.8657 34.2689ZM32.3997 4.46887C31.1892 4.46887 30.117 4.71501 29.2201 5.24101C24.7592 7.82382 23.9702 16.7793 27.0419 28.8605C31.8366 27.7883 36.6819 27.033 41.5845 26.5947C44.3932 22.589 47.4852 18.762 50.8031 15.1609C43.7964 8.32959 37.1573 4.46887 32.3997 4.46887ZM75.515 95.9966C75.4982 95.9966 75.4982 95.9966 75.515 95.9966C69.1052 95.9966 60.8679 91.1851 52.3339 82.4049L50.8064 80.8403L52.3339 79.2758C56.3193 75.1319 59.9541 70.671 63.2214 65.9302L63.8182 65.0704L64.8736 64.9659C70.6158 64.5275 76.3074 63.6138 81.908 62.2246L84.0322 61.6986L84.629 63.806C89.0731 79.4714 87.721 90.6928 80.9234 94.6074C79.2712 95.5549 77.41 96.0337 75.515 95.9966ZM57.0915 80.8066C64.0981 87.6379 70.7372 91.502 75.4948 91.502H75.5117C76.7053 91.502 77.7775 91.239 78.6744 90.7299C83.1353 88.1471 83.9446 79.1915 80.8526 67.1103C76.0579 68.1826 71.1924 68.9379 66.31 69.3593C63.5013 73.3819 60.4093 77.1887 57.0915 80.8066ZM84.0322 34.2689L81.908 33.7261C76.3074 32.3571 70.6158 31.4433 64.8736 30.9848L63.8182 30.8971L63.2214 30.0373C59.9541 25.2965 56.3193 20.8356 52.3339 16.6917L50.8064 15.1272L52.3339 13.5626C63.5552 2.04117 74.2506 -2.5074 80.9234 1.33983C87.721 5.2545 89.0731 16.4961 84.629 32.1615L84.0322 34.2689ZM66.3134 26.5947C71.4419 27.0701 76.3243 27.8254 80.856 28.8605C83.9479 16.7793 83.1387 7.82045 78.6778 5.24101C74.2337 2.67844 65.875 6.60997 57.0948 15.1642C60.4127 18.7822 63.4878 22.5923 66.3134 26.5981V26.5947ZM32.3997 95.9966C30.5014 96.0303 28.6233 95.5583 26.9745 94.6108C20.1769 90.6961 18.8248 79.4714 23.2689 63.8093L23.8657 61.702L25.9899 62.228C31.1892 63.5463 36.9146 64.4567 43.0074 64.9692L44.0628 65.0738L44.6596 65.9336C47.9269 70.6743 51.5617 75.1352 55.5472 79.2792L57.0746 80.8437L55.5472 82.4082C47.03 91.1884 38.7927 96 32.3997 96V95.9966ZM27.0453 67.1103C23.9533 79.1915 24.7626 88.1504 29.2235 90.7299C33.6675 93.2587 42.0094 89.3609 50.8064 80.8066C47.4886 77.1887 44.3966 73.3785 41.5879 69.356C36.6887 68.9345 31.84 68.1826 27.0453 67.1103ZM53.9489 69.9359C50.2433 69.9359 46.45 69.7774 42.6399 69.4605L41.5845 69.3728L40.9709 68.4961C38.8298 65.4042 36.7898 62.228 34.9117 58.9607C33.0134 55.6934 31.2769 52.3587 29.6618 48.9498L29.2066 47.9854L29.6618 47.0211C31.2769 43.6156 33.0168 40.2775 34.9117 37.0102C36.773 33.7969 38.8095 30.5835 40.9709 27.4747L41.5845 26.5981L42.6399 26.5104C50.1725 25.8765 57.7422 25.8765 65.258 26.5104L66.3134 26.5981L66.927 27.4747C71.2295 33.6552 75.0228 40.2067 78.2361 47.0211L78.6913 47.9854L78.2361 48.9498C75.0228 55.7642 71.2463 62.3156 66.927 68.4961L66.3134 69.3728L65.258 69.4605C61.4647 69.7774 57.6546 69.9359 53.9489 69.9359ZM44.0797 65.0535C50.7188 65.5627 57.1791 65.5627 63.8351 65.0535C67.5407 59.6283 70.8417 53.9198 73.7044 47.9821C70.8586 42.0477 67.5576 36.3392 63.8182 30.9106C57.25 30.4015 50.6479 30.4015 44.0797 30.9106C40.3403 36.3358 37.036 42.0443 34.1935 47.9821C37.0562 53.9165 40.3572 59.6249 44.0797 65.0535Z" fill="#82EFF5"/>
</svg>
