<svg width="98" height="109" viewBox="0 0 98 109" fill="none" xmlns="http://www.w3.org/2000/svg">
<g clip-path="url(#clip0_325_2946)">
<g clip-path="url(#clip1_325_2946)">
<path d="M85.2859 7.09595H68.1165V29.7834H85.2859V7.09595Z" fill="#F4F4F4"/>
<path d="M85.2858 29.7834H85.8428V7.09595H85.2858V29.7834Z" fill="#F4F4F4"/>
<path opacity="0.05" d="M85.2858 29.7834H85.8428V7.09595H85.2858V29.7834Z" fill="#292A2E"/>
<path opacity="0.05" d="M82.1583 11.2288H71.2441V25.6507H82.1583V11.2288Z" fill="#292A2E"/>
<path opacity="0.03" d="M82.1581 11.2288H81.5894V25.6507H82.1581V11.2288Z" fill="#292A2E"/>
<path d="M99.3277 35.3628H85.2859V49.7488H99.3277V35.3628Z" fill="#F4F4F4"/>
<path opacity="0.05" d="M96.7698 37.9834H87.8438V47.1282H96.7698V37.9834Z" fill="#292A2E"/>
<path opacity="0.03" d="M96.7697 37.9834H96.2009V47.1282H96.7697V37.9834Z" fill="#292A2E"/>
<path d="M48.6392 5.63794H1.86353V53.1242H48.6392V5.63794Z" fill="#F4F4F4"/>
<path d="M49.1753 5.63794H48.6392V53.1242H49.1753V5.63794Z" fill="#F4F4F4"/>
<path opacity="0.05" d="M49.1753 5.63794H48.6392V53.1242H49.1753V5.63794Z" fill="#292A2E"/>
<path opacity="0.05" d="M37.3075 38.3597V25.9358H27.2827V33.1538H11.7543V45.9343H5.15454V53.124H11.7543H13.0258H46.3891V38.3597H37.3075Z" fill="#292A2E"/>
<path opacity="0.34" d="M35.8698 27.2849H28.5696V28.6339H35.8698V27.2849Z" fill="#FFFFFA"/>
<path opacity="0.34" d="M35.8698 30.0803H28.5696V31.4293H35.8698V30.0803Z" fill="#FFFFFA"/>
<path opacity="0.34" d="M35.8698 32.8755H28.5696V34.2244H35.8698V32.8755Z" fill="#FFFFFA"/>
<path opacity="0.34" d="M45.0945 39.6692H43.749V41.0181H45.0945V39.6692Z" fill="#FFFFFA"/>
<path opacity="0.34" d="M45.0945 42.4646H43.749V43.8135H45.0945V42.4646Z" fill="#FFFFFA"/>
<path opacity="0.34" d="M45.0945 45.2598H43.749V46.6087H45.0945V45.2598Z" fill="#FFFFFA"/>
<path opacity="0.34" d="M42.6053 39.6692H41.2598V41.0181H42.6053V39.6692Z" fill="#FFFFFA"/>
<path opacity="0.34" d="M42.6053 42.4646H41.2598V43.8135H42.6053V42.4646Z" fill="#FFFFFA"/>
<path opacity="0.34" d="M42.6053 45.2598H41.2598V46.6087H42.6053V45.2598Z" fill="#FFFFFA"/>
<path opacity="0.34" d="M40.1834 39.6692H38.8379V41.0181H40.1834V39.6692Z" fill="#FFFFFA"/>
<path opacity="0.34" d="M40.1834 42.4646H38.8379V43.8135H40.1834V42.4646Z" fill="#FFFFFA"/>
<path opacity="0.34" d="M40.1834 45.2598H38.8379V46.6087H40.1834V45.2598Z" fill="#FFFFFA"/>
<path d="M48.6392 29.1147H39.2272V5.63794H38.4488V29.1147H13.0259V5.63794H12.2474V29.1147H1.86353V29.9049H12.2474V53.1242H13.0259V29.9049H38.4488V53.1242H39.2272V29.9049H48.6392V29.1147Z" fill="white"/>
<path d="M50.5026 53.0669H0V54.6461H50.5026V53.0669Z" fill="#F4F4F4"/>
<path opacity="0.1" d="M50.5026 53.0669H0V54.6461H50.5026V53.0669Z" fill="#292A2E"/>
<path opacity="0.1" d="M51.2316 53.0669H50.5024V54.6461H51.2316V53.0669Z" fill="#292A2E"/>
<path opacity="0.1" d="M51.2316 53.0669H50.5024V54.6461H51.2316V53.0669Z" fill="#292A2E"/>
<path opacity="0.05" d="M75.194 101.354H72.5957V103.116H75.194V101.354Z" fill="#292A2E"/>
<path opacity="0.05" d="M91.5056 101.354H88.9072V103.116H91.5056V101.354Z" fill="#292A2E"/>
<path d="M93.8872 74.5139H70.2139V101.354H93.8872V74.5139Z" fill="#F4F4F4"/>
<path opacity="0.03" d="M93.8872 74.5139H70.2139V101.354H93.8872V74.5139Z" fill="#292A2E"/>
<path d="M87.6001 74.5139H63.9268V101.354H87.6001V74.5139Z" fill="#F4F4F4"/>
<path opacity="0.05" d="M68.9069 101.354H66.3086V103.116H68.9069V101.354Z" fill="#292A2E"/>
<path opacity="0.05" d="M85.2182 101.354H82.6199V103.116H85.2182V101.354Z" fill="#292A2E"/>
<path opacity="0.7" d="M86.3263 76.1733H65.2002V82.9807H86.3263V76.1733Z" fill="white"/>
<path opacity="0.7" d="M86.3263 84.647H65.2002V91.4543H86.3263V84.647Z" fill="white"/>
<path opacity="0.7" d="M86.3263 93.1204H65.2002V99.9277H86.3263V93.1204Z" fill="white"/>
<path opacity="0.05" d="M75.7632 80.5296C76.2815 80.5296 76.7015 80.1031 76.7015 79.5771C76.7015 79.051 76.2815 78.6245 75.7632 78.6245C75.245 78.6245 74.825 79.051 74.825 79.5771C74.825 80.1031 75.245 80.5296 75.7632 80.5296Z" fill="#292A2E"/>
<path opacity="0.05" d="M75.7632 89.0032C76.2815 89.0032 76.7015 88.5768 76.7015 88.0507C76.7015 87.5246 76.2815 87.0981 75.7632 87.0981C75.245 87.0981 74.825 87.5246 74.825 88.0507C74.825 88.5768 75.245 89.0032 75.7632 89.0032Z" fill="#292A2E"/>
<path opacity="0.05" d="M75.7632 97.4769C76.2815 97.4769 76.7015 97.0504 76.7015 96.5243C76.7015 95.9982 76.2815 95.5718 75.7632 95.5718C75.245 95.5718 74.825 95.9982 74.825 96.5243C74.825 97.0504 75.245 97.4769 75.7632 97.4769Z" fill="#292A2E"/>
<path d="M11.1262 90.0772C11.1131 90.0772 11.1001 90.0746 11.088 90.0695C11.0759 90.0644 11.0649 90.0569 11.0556 90.0475C10.915 89.9048 10.6858 87.2861 10.0686 79.4894C9.81599 76.2992 9.5774 73.2859 9.40327 71.4546C9.3909 71.3238 9.34091 71.3086 9.32454 71.3036C9.08615 71.2306 8.3614 71.8108 7.95676 72.3189C7.94012 72.3398 7.91597 72.3532 7.88964 72.356C7.86331 72.3588 7.83695 72.3509 7.81636 72.334C7.79577 72.3171 7.78264 72.2926 7.77985 72.2659C7.77706 72.2392 7.78485 72.2124 7.8015 72.1915C8.06912 71.8556 8.94126 70.975 9.38192 71.1096C9.47073 71.1366 9.58149 71.2151 9.60145 71.4352C9.77578 73.268 10.0144 76.2821 10.267 79.4732C10.6421 84.2111 11.067 89.5788 11.2067 89.9168C11.2174 89.9319 11.2238 89.9498 11.2252 89.9683C11.2265 89.9869 11.2228 90.0055 11.2144 90.0221C11.2061 90.0387 11.1933 90.0526 11.1777 90.0623C11.162 90.072 11.144 90.0771 11.1257 90.0772H11.1262Z" fill="#494949"/>
<path d="M9.14688 74.8152C10.8027 73.4677 11.3515 71.3704 10.3727 70.1307C9.39384 68.891 7.25801 68.9784 5.60217 70.3258C3.94633 71.6733 3.39752 73.7706 4.37636 75.0103C5.35521 76.25 7.49104 76.1626 9.14688 74.8152Z" fill="#0CBC8B"/>
<path opacity="0.2" d="M9.14688 74.8152C10.8027 73.4677 11.3515 71.3704 10.3727 70.1307C9.39384 68.891 7.25801 68.9784 5.60217 70.3258C3.94633 71.6733 3.39752 73.7706 4.37636 75.0103C5.35521 76.25 7.49104 76.1626 9.14688 74.8152Z" fill="white"/>
<path d="M4.84042 75.3252C4.83095 75.3252 4.82167 75.3225 4.81368 75.3173C4.80568 75.3122 4.7993 75.3048 4.79527 75.2961C4.79124 75.2874 4.78973 75.2778 4.79092 75.2682C4.79212 75.2587 4.79596 75.2497 4.802 75.2423L9.52102 69.4651C9.5252 69.46 9.53034 69.4557 9.53614 69.4526C9.54194 69.4495 9.54828 69.4476 9.55481 69.447C9.56134 69.4464 9.56792 69.4471 9.57419 69.449C9.58045 69.451 9.58627 69.4542 9.59131 69.4585C9.59636 69.4627 9.60053 69.4679 9.60359 69.4738C9.60665 69.4797 9.60854 69.4861 9.60914 69.4928C9.60975 69.4994 9.60906 69.5061 9.60713 69.5124C9.60519 69.5188 9.60204 69.5247 9.59785 69.5298L4.87884 75.3069C4.87416 75.3126 4.86829 75.3173 4.86164 75.3204C4.855 75.3236 4.84776 75.3252 4.84042 75.3252Z" fill="white"/>
<path d="M12.1552 88.8386C12.144 88.8386 12.1329 88.8367 12.1224 88.8328C12.0974 88.824 12.0769 88.8055 12.0654 88.7813C12.0539 88.7571 12.0523 88.7292 12.061 88.7039L13.8336 83.5287C13.8858 83.3767 13.9747 83.2404 14.0922 83.1323C14.2098 83.0241 14.3521 82.9477 14.5063 82.9099C14.6605 82.8721 14.8215 82.8742 14.9747 82.916C15.1279 82.9578 15.2683 83.0379 15.3831 83.1491L16.3203 84.0578C16.3394 84.0764 16.3505 84.1019 16.3511 84.1288C16.3517 84.1557 16.3418 84.1817 16.3235 84.2011C16.3052 84.2206 16.2801 84.2318 16.2536 84.2325C16.2271 84.2331 16.2015 84.223 16.1823 84.2044L15.2453 83.2955C15.1546 83.2078 15.0438 83.1445 14.9229 83.1116C14.802 83.0786 14.6748 83.0769 14.5531 83.1067C14.4314 83.1366 14.319 83.1969 14.2262 83.2823C14.1334 83.3676 14.0632 83.4753 14.022 83.5953L12.2495 88.7705C12.2427 88.7904 12.2299 88.8077 12.213 88.8199C12.1961 88.8321 12.1759 88.8386 12.1552 88.8386Z" fill="#494949"/>
<path d="M18.9383 86.9229C20.1655 85.9368 20.0925 83.768 18.7754 82.0788C17.4583 80.3896 15.3958 79.8195 14.1687 80.8056C12.9416 81.7917 13.0145 83.9605 14.3316 85.6497C15.6487 87.3389 17.7112 87.909 18.9383 86.9229Z" fill="#0CBC8B"/>
<path d="M10.3207 89.7471C10.2983 89.7471 10.2765 89.7394 10.2589 89.7253C10.2413 89.7112 10.2289 89.6915 10.2237 89.6694L7.24895 77.0425C7.2286 76.9565 7.18527 76.8778 7.12374 76.8151C7.0622 76.7525 6.98484 76.7082 6.90015 76.6873C6.81546 76.6664 6.72672 76.6695 6.64369 76.6965C6.56066 76.7234 6.48654 76.773 6.4295 76.8399L5.51246 77.9157C5.50402 77.9261 5.49359 77.9348 5.4818 77.9411C5.47 77.9474 5.45708 77.9513 5.4438 77.9524C5.43051 77.9536 5.41713 77.9521 5.40445 77.9479C5.39177 77.9437 5.38003 77.937 5.36995 77.9281C5.35987 77.9193 5.35163 77.9085 5.34574 77.8963C5.33984 77.8842 5.3364 77.871 5.33562 77.8574C5.33484 77.8439 5.33674 77.8304 5.34119 77.8176C5.34565 77.8049 5.35259 77.7932 5.36158 77.7832L6.27852 76.7074C6.35958 76.6123 6.46491 76.5417 6.58293 76.5034C6.70095 76.4651 6.82708 76.4606 6.94747 76.4904C7.06785 76.5201 7.17781 76.583 7.26526 76.6722C7.35271 76.7613 7.41426 76.8731 7.44313 76.9954L10.4177 89.6223C10.4238 89.6484 10.4195 89.676 10.4057 89.6988C10.3918 89.7217 10.3696 89.7381 10.3438 89.7444C10.3363 89.7462 10.3285 89.7471 10.3207 89.7471Z" fill="#494949"/>
<path d="M9.223 80.7208C9.58461 78.598 8.6276 76.6575 7.08545 76.3868C5.54331 76.1161 4.00001 77.6175 3.6384 79.7404C3.27679 81.8633 4.2338 83.8037 5.77594 84.0744C7.31809 84.3452 8.86139 82.8437 9.223 80.7208Z" fill="#0CBC8B"/>
<path d="M11.1261 90.0769C11.122 90.077 11.1179 90.0767 11.1138 90.0762C11.1008 90.0746 11.0882 90.0704 11.0768 90.0639C11.0654 90.0573 11.0553 90.0485 11.0473 90.038C11.0392 90.0275 11.0332 90.0156 11.0297 90.0027C11.0262 89.9899 11.0253 89.9765 11.0269 89.9633L12.9264 74.3062C12.9471 74.1356 13.0159 73.9748 13.1245 73.843C13.2331 73.7111 13.3769 73.614 13.5386 73.5631C13.7003 73.5123 13.873 73.5099 14.036 73.5564C14.199 73.6028 14.3453 73.696 14.4573 73.8248L16.6285 76.3212C16.6372 76.3312 16.6438 76.3428 16.6481 76.3554C16.6523 76.3679 16.6541 76.3813 16.6533 76.3945C16.6525 76.4078 16.6491 76.4208 16.6433 76.4328C16.6376 76.4447 16.6295 76.4554 16.6197 76.4642C16.6099 76.473 16.5985 76.4798 16.5861 76.4841C16.5737 76.4884 16.5605 76.4902 16.5475 76.4894C16.5344 76.4886 16.5216 76.4851 16.5098 76.4793C16.498 76.4734 16.4875 76.4653 16.4788 76.4553L14.3077 73.9589C14.2211 73.8593 14.108 73.7873 13.982 73.7514C13.8561 73.7155 13.7226 73.7173 13.5976 73.7566C13.4726 73.7959 13.3615 73.8711 13.2776 73.973C13.1936 74.0748 13.1405 74.1992 13.1245 74.331L11.225 89.988C11.222 90.0125 11.2103 90.0351 11.1921 90.0515C11.1739 90.0678 11.1504 90.0769 11.1261 90.0769Z" fill="#494949"/>
<path d="M18.8552 77.7086C19.6127 76.3184 18.7214 74.346 16.8644 73.3032C15.0074 72.2604 12.8879 72.5421 12.1304 73.9324C11.3729 75.3227 12.2642 77.2951 14.1212 78.3378C15.9781 79.3806 18.0976 79.0989 18.8552 77.7086Z" fill="#0CBC8B"/>
<path opacity="0.2" d="M18.9383 86.9229C20.1655 85.9368 20.0925 83.768 18.7754 82.0788C17.4583 80.3896 15.3958 79.8195 14.1687 80.8056C12.9416 81.7917 13.0145 83.9605 14.3316 85.6497C15.6487 87.3389 17.7112 87.909 18.9383 86.9229Z" fill="white"/>
<path opacity="0.5" d="M9.223 80.7208C9.58461 78.598 8.6276 76.6575 7.08545 76.3868C5.54331 76.1161 4.00001 77.6175 3.6384 79.7404C3.27679 81.8633 4.2338 83.8037 5.77594 84.0744C7.31809 84.3452 8.86139 82.8437 9.223 80.7208Z" fill="white"/>
<path opacity="0.5" d="M18.8552 77.7086C19.6127 76.3184 18.7214 74.346 16.8644 73.3032C15.0074 72.2604 12.8879 72.5421 12.1304 73.9324C11.3729 75.3227 12.2642 77.2951 14.1212 78.3378C15.9781 79.3806 18.0976 79.0989 18.8552 77.7086Z" fill="white"/>
<path d="M13.5556 103.362H8.69639L7.89111 87.5786H14.3608L13.5556 103.362Z" fill="#292A2E"/>
<path opacity="0.3" d="M13.5556 103.362H8.69639L7.89111 87.5786H14.3608L13.5556 103.362Z" fill="white"/>
<path d="M18.9386 86.9737C18.9311 86.9737 18.9236 86.972 18.9169 86.9687C18.9101 86.9653 18.9042 86.9605 18.8995 86.9545L14.1297 80.8372C14.1256 80.832 14.1226 80.826 14.1208 80.8196C14.119 80.8132 14.1185 80.8066 14.1192 80.7999C14.12 80.7933 14.122 80.7869 14.1252 80.7811C14.1284 80.7753 14.1327 80.7702 14.1378 80.7661C14.1429 80.7619 14.1488 80.7589 14.1551 80.7571C14.1614 80.7552 14.168 80.7547 14.1745 80.7555C14.1811 80.7562 14.1874 80.7583 14.1931 80.7615C14.1988 80.7648 14.2038 80.7691 14.2079 80.7743L18.9777 86.8916C18.9836 86.899 18.9872 86.908 18.9882 86.9175C18.9893 86.927 18.9877 86.9365 18.9836 86.9451C18.9795 86.9537 18.9731 86.9609 18.9651 86.966C18.9572 86.9711 18.948 86.9737 18.9386 86.9737Z" fill="white"/>
<path d="M18.5382 78.1989C18.5276 78.1987 18.5173 78.1952 18.5088 78.1887L12.4052 73.6644C12.3946 73.6564 12.3874 73.6445 12.3854 73.6312C12.3833 73.618 12.3866 73.6044 12.3944 73.5935C12.4022 73.5827 12.4139 73.5754 12.427 73.5734C12.4401 73.5713 12.4534 73.5746 12.4641 73.5825L18.5677 78.107C18.5761 78.1134 18.5822 78.1222 18.5854 78.1324C18.5885 78.1425 18.5884 78.1534 18.5851 78.1635C18.5818 78.1736 18.5754 78.1824 18.5669 78.1886C18.5584 78.1948 18.5482 78.1981 18.5377 78.1981L18.5382 78.1989Z" fill="white"/>
<path d="M5.52807 84.0082C5.52372 84.0082 5.51939 84.0077 5.5152 84.0065C5.50252 84.003 5.49172 83.9945 5.48516 83.9829C5.47861 83.9713 5.47681 83.9576 5.48017 83.9447L7.42312 76.5543C7.42472 76.5478 7.42759 76.5416 7.43155 76.5362C7.43551 76.5308 7.44049 76.5263 7.44619 76.5229C7.4519 76.5195 7.45821 76.5172 7.46477 76.5163C7.47134 76.5154 7.47801 76.5159 7.48441 76.5176C7.49081 76.5193 7.4968 76.5223 7.50204 76.5264C7.50728 76.5305 7.51166 76.5357 7.51493 76.5415C7.5182 76.5474 7.52029 76.5538 7.52107 76.5605C7.52186 76.5672 7.52133 76.5739 7.51952 76.5804L5.57657 83.9706C5.57372 83.9815 5.56741 83.991 5.55864 83.9978C5.54986 84.0046 5.53911 84.0083 5.52807 84.0082Z" fill="white"/>
<path d="M74.0578 11.2134H16.7116C15.0583 11.2134 13.718 12.574 13.718 14.2525V78.4757C13.718 80.1541 15.0583 81.5147 16.7116 81.5147H74.0578C75.7112 81.5147 77.0515 80.1541 77.0515 78.4757V14.2525C77.0515 12.574 75.7112 11.2134 74.0578 11.2134Z" fill="white"/>
<path d="M74.0011 81.5301H16.6544C15.8343 81.5291 15.048 81.198 14.4681 80.6092C13.8882 80.0205 13.562 79.2223 13.561 78.3897V14.1665C13.562 13.3339 13.8882 12.5357 14.4681 11.947C15.048 11.3583 15.8343 11.0271 16.6544 11.0261H74.0011C74.8212 11.0271 75.6075 11.3582 76.1874 11.947C76.7673 12.5357 77.0935 13.3339 77.0944 14.1665V78.3897C77.0935 79.2223 76.7673 80.0205 76.1874 80.6093C75.6075 81.198 74.8212 81.5291 74.0011 81.5301ZM16.6544 11.2287C15.8872 11.2296 15.1517 11.5394 14.6092 12.0902C14.0667 12.6409 13.7615 13.3876 13.7606 14.1665V78.3897C13.7615 79.1686 14.0666 79.9153 14.6092 80.466C15.1517 81.0168 15.8872 81.3266 16.6544 81.3275H74.0011C74.7683 81.3266 75.5038 81.0168 76.0463 80.466C76.5888 79.9153 76.894 79.1686 76.8949 78.3897V14.1665C76.894 13.3876 76.5888 12.6409 76.0463 12.0902C75.5038 11.5394 74.7683 11.2296 74.0011 11.2287H16.6544Z" fill="#292A2E"/>
<path d="M76.9947 14.166V16.515H13.6616V14.166C13.6616 13.36 13.977 12.587 14.5384 12.0171C15.0998 11.4471 15.8613 11.127 16.6552 11.127H74.0011C74.795 11.127 75.5564 11.4471 76.1178 12.0171C76.6793 12.587 76.9947 13.36 76.9947 14.166Z" fill="#292A2E"/>
<path opacity="0.1" d="M24.2214 35.1716C28.2635 35.1716 31.5403 31.845 31.5403 27.7416C31.5403 23.6381 28.2635 20.3115 24.2214 20.3115C20.1794 20.3115 16.9026 23.6381 16.9026 27.7416C16.9026 31.845 20.1794 35.1716 24.2214 35.1716Z" fill="#21082D"/>
<path opacity="0.2" d="M24.2215 27.4219C25.6255 27.4219 26.7636 26.2664 26.7636 24.8412C26.7636 23.4159 25.6255 22.2605 24.2215 22.2605C22.8176 22.2605 21.6794 23.4159 21.6794 24.8412C21.6794 26.2664 22.8176 27.4219 24.2215 27.4219Z" fill="#21082D"/>
<path opacity="0.2" d="M29.7235 32.6411C29.0366 33.4362 28.1904 34.0733 27.2414 34.5097C26.2925 34.9461 25.2628 35.1718 24.221 35.1717C23.1793 35.1716 22.1495 34.9457 21.2007 34.5091C20.2519 34.0725 19.4058 33.4353 18.719 32.6401C19.0708 31.4358 19.7966 30.3791 20.7883 29.6277C21.7799 28.8763 22.9842 28.4703 24.2216 28.4705C25.459 28.4706 26.6632 28.8767 27.6547 29.6283C28.6462 30.3799 29.3719 31.4367 29.7235 32.6411Z" fill="#21082D"/>
<path opacity="0.2" d="M27.6783 40.2402H17.7581C17.4001 40.2402 17.1099 40.5349 17.1099 40.8983C17.1099 41.2617 17.4001 41.5564 17.7581 41.5564H27.6783C28.0363 41.5564 28.3265 41.2617 28.3265 40.8983C28.3265 40.5349 28.0363 40.2402 27.6783 40.2402Z" fill="#21082D"/>
<path opacity="0.1" d="M51.2498 20.8105H35.657C35.0748 20.8105 34.6028 21.2897 34.6028 21.8808V24.1006C34.6028 24.6917 35.0748 25.1709 35.657 25.1709H51.2498C51.832 25.1709 52.304 24.6917 52.304 24.1006V21.8808C52.304 21.2897 51.832 20.8105 51.2498 20.8105Z" fill="#21082D"/>
<path opacity="0.2" d="M58.4733 27.5815H35.1017C34.8262 27.5815 34.6028 27.8083 34.6028 28.0881C34.6028 28.3678 34.8262 28.5946 35.1017 28.5946H58.4733C58.7488 28.5946 58.9722 28.3678 58.9722 28.0881C58.9722 27.8083 58.7488 27.5815 58.4733 27.5815Z" fill="#21082D"/>
<path opacity="0.2" d="M58.4733 30.6206H35.1017C34.8262 30.6206 34.6028 30.8474 34.6028 31.1271C34.6028 31.4069 34.8262 31.6336 35.1017 31.6336H58.4733C58.7488 31.6336 58.9722 31.4069 58.9722 31.1271C58.9722 30.8474 58.7488 30.6206 58.4733 30.6206Z" fill="#21082D"/>
<path opacity="0.2" d="M54.4818 33.6597H35.1017C34.8262 33.6597 34.6028 33.8864 34.6028 34.1662C34.6028 34.4459 34.8262 34.6727 35.1017 34.6727H54.4818C54.7573 34.6727 54.9807 34.4459 54.9807 34.1662C54.9807 33.8864 54.7573 33.6597 54.4818 33.6597Z" fill="#21082D"/>
<path opacity="0.1" d="M42.4105 43.4548H18.047C17.5294 43.4548 17.1099 43.8808 17.1099 44.4062V46.7566C17.1099 47.282 17.5294 47.7079 18.047 47.7079H42.4105C42.928 47.7079 43.3476 47.282 43.3476 46.7566V44.4062C43.3476 43.8808 42.928 43.4548 42.4105 43.4548Z" fill="#21082D"/>
<path opacity="0.2" d="M57.5501 40.2402H47.6299C47.2719 40.2402 46.9817 40.5349 46.9817 40.8983C46.9817 41.2617 47.2719 41.5564 47.6299 41.5564H57.5501C57.9081 41.5564 58.1983 41.2617 58.1983 40.8983C58.1983 40.5349 57.9081 40.2402 57.5501 40.2402Z" fill="#21082D"/>
<path opacity="0.1" d="M72.2823 43.4548H47.9188C47.4012 43.4548 46.9817 43.8808 46.9817 44.4062V46.7566C46.9817 47.282 47.4012 47.7079 47.9188 47.7079H72.2823C72.7999 47.7079 73.2194 47.282 73.2194 46.7566V44.4062C73.2194 43.8808 72.7999 43.4548 72.2823 43.4548Z" fill="#21082D"/>
<path opacity="0.2" d="M27.6783 51.2241H17.7581C17.4001 51.2241 17.1099 51.5187 17.1099 51.8822C17.1099 52.2456 17.4001 52.5402 17.7581 52.5402H27.6783C28.0363 52.5402 28.3265 52.2456 28.3265 51.8822C28.3265 51.5187 28.0363 51.2241 27.6783 51.2241Z" fill="#21082D"/>
<path opacity="0.1" d="M42.4105 54.4385H18.047C17.5294 54.4385 17.1099 54.8644 17.1099 55.3898V57.7402C17.1099 58.2656 17.5294 58.6916 18.047 58.6916H42.4105C42.928 58.6916 43.3476 58.2656 43.3476 57.7402V55.3898C43.3476 54.8644 42.928 54.4385 42.4105 54.4385Z" fill="#21082D"/>
<path opacity="0.2" d="M57.5501 51.2241H47.6299C47.2719 51.2241 46.9817 51.5187 46.9817 51.8822C46.9817 52.2456 47.2719 52.5402 47.6299 52.5402H57.5501C57.9081 52.5402 58.1983 52.2456 58.1983 51.8822C58.1983 51.5187 57.9081 51.2241 57.5501 51.2241Z" fill="#21082D"/>
<path opacity="0.1" d="M72.2823 54.4385H47.9188C47.4012 54.4385 46.9817 54.8644 46.9817 55.3898V57.7402C46.9817 58.2656 47.4012 58.6916 47.9188 58.6916H72.2823C72.7999 58.6916 73.2194 58.2656 73.2194 57.7402V55.3898C73.2194 54.8644 72.7999 54.4385 72.2823 54.4385Z" fill="#21082D"/>
<path opacity="0.2" d="M27.6783 62.2078H17.7581C17.4001 62.2078 17.1099 62.5024 17.1099 62.8658C17.1099 63.2293 17.4001 63.5239 17.7581 63.5239H27.6783C28.0363 63.5239 28.3265 63.2293 28.3265 62.8658C28.3265 62.5024 28.0363 62.2078 27.6783 62.2078Z" fill="#21082D"/>
<path opacity="0.1" d="M42.4105 65.4224H18.047C17.5294 65.4224 17.1099 65.8483 17.1099 66.3737V68.7241C17.1099 69.2495 17.5294 69.6754 18.047 69.6754H42.4105C42.928 69.6754 43.3476 69.2495 43.3476 68.7241V66.3737C43.3476 65.8483 42.928 65.4224 42.4105 65.4224Z" fill="#21082D"/>
<path opacity="0.2" d="M57.5501 62.2078H47.6299C47.2719 62.2078 46.9817 62.5024 46.9817 62.8658C46.9817 63.2293 47.2719 63.5239 47.6299 63.5239H57.5501C57.9081 63.5239 58.1983 63.2293 58.1983 62.8658C58.1983 62.5024 57.9081 62.2078 57.5501 62.2078Z" fill="#21082D"/>
<path opacity="0.1" d="M72.2823 65.4224H47.9188C47.4012 65.4224 46.9817 65.8483 46.9817 66.3737V68.7241C46.9817 69.2495 47.4012 69.6754 47.9188 69.6754H72.2823C72.7999 69.6754 73.2194 69.2495 73.2194 68.7241V66.3737C73.2194 65.8483 72.7999 65.4224 72.2823 65.4224Z" fill="#21082D"/>
<path opacity="0.2" d="M52.9422 72.9893H37.7135C37.099 72.9893 36.6008 73.495 36.6008 74.1188V76.204C36.6008 76.8278 37.099 77.3335 37.7135 77.3335H52.9422C53.5567 77.3335 54.0548 76.8278 54.0548 76.204V74.1188C54.0548 73.495 53.5567 72.9893 52.9422 72.9893Z" fill="#21082D"/>
<path d="M47.9844 23.8001L49.5971 25.7336L49.4973 25.4016C49.4671 25.2938 49.4784 25.1784 49.5289 25.0788C49.5793 24.9791 49.6652 24.9026 49.7691 24.8647C49.8234 24.8471 49.8807 24.8409 49.9374 24.8464C49.9941 24.852 50.0492 24.8692 50.0991 24.8971C50.1491 24.9249 50.1929 24.9628 50.228 25.0085C50.2631 25.0541 50.2886 25.1065 50.3031 25.1625L51.0403 27.9806C51.1333 28.3363 51.0858 28.7149 50.9078 29.0356C50.7298 29.3562 50.4354 29.5936 50.0874 29.697C49.6834 29.817 49.2533 29.8118 48.8522 29.6821C48.4512 29.5524 48.0974 29.3041 47.8362 28.9689L46.6559 27.4483C46.593 27.3705 46.5586 27.273 46.5584 27.1724C46.5582 27.0718 46.5922 26.9742 46.6548 26.8962C46.7127 26.8268 46.791 26.7781 46.8781 26.7571C46.9653 26.7362 47.0568 26.7441 47.1392 26.7797C47.1409 26.773 47.1444 26.7669 47.1492 26.762C47.154 26.7577 47.1598 26.7547 47.1661 26.7533C47.1723 26.7518 47.1788 26.752 47.185 26.7537L46.9664 26.4731C46.8994 26.3909 46.864 26.2868 46.8667 26.1801C46.8694 26.0734 46.91 25.9713 46.9811 25.8926C47.0539 25.8172 47.1517 25.7718 47.2555 25.7654C47.3594 25.759 47.4619 25.792 47.5432 25.858C47.5437 25.8535 47.5451 25.8492 47.5472 25.8452L47.4573 25.7302C47.3987 25.6513 47.3667 25.5555 47.3659 25.4567C47.3651 25.358 47.3957 25.2616 47.4531 25.1818C47.5232 25.096 47.6236 25.0414 47.7329 25.0299C47.8422 25.0183 47.9515 25.0506 48.0376 25.1199L48.0433 25.1141L47.3657 24.3018C47.331 24.2601 47.305 24.2117 47.2893 24.1595C47.2736 24.1073 47.2685 24.0524 47.2744 23.9981C47.2802 23.9439 47.297 23.8914 47.3235 23.8439C47.35 23.7964 47.3858 23.7549 47.4286 23.7219C47.5137 23.661 47.6185 23.6352 47.7217 23.6497C47.8249 23.6642 47.9188 23.718 47.9844 23.8001Z" fill="#E98862"/>
<path opacity="0.2" d="M48.0212 25.1654C48.0229 25.1698 48.0253 25.1738 48.0283 25.1774L48.696 25.959C48.6994 25.963 48.7035 25.9663 48.7081 25.9687C48.7128 25.971 48.7178 25.9725 48.723 25.9728C48.7282 25.9732 48.7334 25.9726 48.7383 25.9709C48.7432 25.9693 48.7478 25.9667 48.7517 25.9632C48.7557 25.9598 48.7589 25.9556 48.7612 25.9509C48.7636 25.9462 48.765 25.9411 48.7653 25.9358C48.7657 25.9306 48.7651 25.9253 48.7635 25.9203C48.7618 25.9153 48.7593 25.9106 48.7559 25.9067L48.0888 25.1253C48.0825 25.1188 48.0743 25.1146 48.0654 25.1134C48.0564 25.1122 48.0474 25.1141 48.0397 25.1188C48.032 25.1235 48.026 25.1307 48.0228 25.1392C48.0197 25.1478 48.0194 25.1571 48.0221 25.1658L48.0212 25.1654Z" fill="#0C0C0C"/>
<path opacity="0.2" d="M47.5441 25.8766C47.5457 25.8809 47.548 25.8848 47.5509 25.8883L48.0706 26.5062C48.0775 26.5136 48.087 26.518 48.0971 26.5186C48.1071 26.5191 48.117 26.5157 48.1247 26.509C48.1323 26.5024 48.1372 26.493 48.1383 26.4829C48.1393 26.4727 48.1366 26.4625 48.1305 26.4544L47.6108 25.8364C47.6047 25.8292 47.5964 25.8244 47.5871 25.8228C47.5779 25.8213 47.5685 25.8231 47.5604 25.8279C47.5524 25.8328 47.5464 25.8404 47.5434 25.8494C47.5404 25.8584 47.5406 25.8681 47.544 25.8769L47.5441 25.8766Z" fill="#0C0C0C"/>
<path opacity="0.2" d="M47.1385 26.8066C47.1403 26.8112 47.1428 26.8154 47.146 26.819L47.3987 27.1051C47.4021 27.109 47.4063 27.1122 47.4109 27.1145C47.4156 27.1168 47.4207 27.1181 47.4258 27.1184C47.431 27.1187 47.4361 27.1179 47.441 27.1162C47.4459 27.1144 47.4504 27.1117 47.4542 27.1083C47.4581 27.1048 47.4612 27.1005 47.4635 27.0958C47.4657 27.0911 47.467 27.0859 47.4673 27.0807C47.4676 27.0754 47.4669 27.0702 47.4651 27.0653C47.4634 27.0603 47.4608 27.0557 47.4573 27.0518L47.2052 26.7656C47.199 26.7588 47.1907 26.7544 47.1817 26.7531C47.1727 26.7518 47.1636 26.7537 47.1558 26.7584C47.148 26.7632 47.1421 26.7706 47.139 26.7793C47.136 26.788 47.136 26.7975 47.139 26.8062L47.1385 26.8066Z" fill="#0C0C0C"/>
<path d="M67.5171 43.1924L53.4385 42.1922C52.9305 42.1561 52.4431 41.9747 52.0326 41.6689C51.622 41.3631 51.3053 40.9454 51.119 40.4644L46.6677 28.9689L51.6825 26.9675L55.5112 36.8558L67.8928 37.7355L67.5171 43.1924Z" fill="#21082D"/>
<path d="M75.6916 98.7559C75.6916 98.7559 75.241 101.126 73.0544 101.259C70.8678 101.392 71.342 103.159 71.342 103.159H79.698V98.9212L75.6916 98.7559Z" fill="#21082D"/>
<path d="M78.2691 55.5068C78.2691 55.5068 78.2428 54.794 78.2484 56.4108C78.2691 62.4412 78.3722 69.3294 78.624 73.3601C79.029 79.8398 80.0669 100.269 80.0669 100.269L74.5761 100.222L69.2542 55.2617L78.2691 55.5068Z" fill="#262626"/>
<path d="M65.9164 98.7559C65.9164 98.7559 65.4659 101.126 63.2793 101.259C61.0926 101.392 61.5668 103.159 61.5668 103.159H69.9229V98.9212L65.9164 98.7559Z" fill="#21082D"/>
<path d="M63.2579 55.9751C63.2579 55.9751 62.7716 76.5857 62.8428 77.5931L64.8849 100.113L70.2849 100.214L69.7587 76.7782C69.7587 76.7782 70.1299 70.3135 71.6685 64.3106C72.4557 61.2297 72.9295 58.0749 73.0823 54.8958L63.2579 55.9751Z" fill="#262626"/>
<path d="M78.3286 55.5061L78.3466 55.5071C78.3466 55.5071 78.3336 55.1556 78.3286 55.5061Z" fill="#333333"/>
<path d="M62.4848 44.5348C62.5981 45.8854 63.1489 54.3115 63.2578 55.975H78.2627C78.3475 54.4746 78.7281 47.9138 79.0495 44.9798C79.3564 42.18 79.9584 40.7782 79.5171 39.9506C78.7961 38.5978 76.8257 37.816 75.4821 37.6313C74.6617 37.5186 73.4278 37.4377 73.4278 37.4377C73.4278 37.4377 73.3234 39.5834 70.8321 39.7029C67.4408 39.8649 67.6672 37.4377 67.6505 37.4377C67.1011 37.4377 63.9019 37.7 63.1947 38.2528C61.9575 39.2197 62.2444 41.6727 62.4848 44.5348Z" fill="#21082D"/>
<path d="M62.2777 42.8424C62.2649 42.8424 62.2527 42.8375 62.2434 42.8286C62.2341 42.8197 62.2285 42.8076 62.2278 42.7946L62.1073 40.65C62.1065 40.6366 62.111 40.6234 62.1198 40.6134C62.1286 40.6033 62.141 40.5973 62.1542 40.5965C62.1673 40.5959 62.1802 40.6005 62.1901 40.6094C62.1999 40.6184 62.2059 40.6308 62.2068 40.6442L62.3279 42.7888C62.3287 42.8022 62.3241 42.8153 62.3153 42.8254C62.3065 42.8354 62.2942 42.8415 62.281 42.8423L62.2777 42.8424Z" fill="#0C0C0C"/>
<path d="M81.507 55.8868C81.9483 55.8868 82.3831 55.7784 82.7743 55.5711C83.1656 55.3638 83.5017 55.0635 83.754 54.696C84.0064 54.3284 84.1676 53.9044 84.2238 53.46C84.28 53.0156 84.2296 52.564 84.077 52.1436C83.922 51.7168 80.2878 41.9469 79.5958 40.1367L74.4729 42.2438C74.8621 43.2617 76.2714 47.1197 77.4037 50.2276L75.5226 50.02L74.9304 55.5497L81.2105 55.8704C81.309 55.8813 81.4079 55.8868 81.507 55.8868Z" fill="#21082D"/>
<path d="M65.863 37.2528C65.8799 37.2506 66.3401 39.009 69.9321 38.7354C72.4188 38.5462 73.0255 36.8278 73.0822 36.8278C72.8141 36.77 72.3787 36.7099 72.2596 36.6455C71.868 36.4319 71.5828 36.1719 71.4392 35.6139C71.327 35.1775 71.2696 33.4976 71.2696 32.6548L67.443 33.5277C67.4963 34.4785 67.8696 36.6826 66.5612 37.0727C66.3437 37.1371 66.1092 37.1965 65.863 37.2528Z" fill="#E98862"/>
<path d="M67.5756 35.3967C69.0842 35.5176 71.022 34.871 71.3901 32.8278L71.7222 30.9841C72.0903 28.9409 71.3316 27.0883 69.4371 26.7365C67.5421 26.3847 65.8273 27.778 65.4593 29.8212L65.3122 30.6374C65.1708 31.4214 64.8842 35.1812 67.5756 35.3967Z" fill="#E98862"/>
<path d="M66.1769 33.5209C66.4477 32.1398 66.5718 31.2182 66.5574 30.246C66.176 29.5673 66.2763 28.7873 66.363 28.4505C66.1004 28.6199 65.7916 28.7003 65.4811 28.6802C65.4811 28.6802 66.1117 26.1103 68.2552 25.4188C68.6493 25.263 69.6559 25.0663 70.9923 25.2524C72.1291 25.4106 74.931 26.2735 75.3313 29.476V29.4778C75.3446 29.584 75.6136 32.5346 76.1496 33.9503C76.8706 35.8535 77.8829 36.4448 77.8572 38.6406C77.8242 41.4651 72.7094 41.841 69.6248 41.6298C66.5402 41.4186 64.8177 40.3886 64.7951 38.3531C64.7716 36.0725 65.6352 36.2843 66.1769 33.5209Z" fill="#0A0A0A"/>
<path d="M78.5835 45.0365L78.2148 55.9736L78.3146 55.9771L78.6833 45.04L78.5835 45.0365Z" fill="#0C0C0C"/>
<path d="M6.03572 103.362H94.3583C94.3682 103.363 94.3781 103.361 94.3873 103.357C94.3965 103.354 94.405 103.348 94.4121 103.341C94.4192 103.334 94.4249 103.326 94.4287 103.317C94.4326 103.308 94.4346 103.298 94.4346 103.288C94.4346 103.278 94.4326 103.268 94.4287 103.258C94.4249 103.249 94.4192 103.241 94.4121 103.234C94.405 103.227 94.3965 103.221 94.3873 103.218C94.3781 103.214 94.3682 103.213 94.3583 103.213H6.03572C6.02585 103.213 6.01599 103.214 6.00676 103.218C5.99753 103.221 5.9891 103.227 5.98198 103.234C5.97486 103.241 5.9692 103.249 5.96533 103.258C5.96147 103.268 5.95947 103.278 5.95947 103.288C5.95947 103.298 5.96147 103.308 5.96533 103.317C5.9692 103.326 5.97486 103.334 5.98198 103.341C5.9891 103.348 5.99753 103.354 6.00676 103.357C6.01599 103.361 6.02585 103.363 6.03572 103.362Z" fill="#292A2E"/>
<path d="M72.0684 62.6179C72.0684 62.6179 71.8408 66.9942 71.799 68.0216C71.7014 70.3976 71.6675 72.8577 71.6675 75.6469L70.802 68.3349C70.802 68.3349 71.4349 66.0434 72.0684 62.6179Z" fill="#0A0A0A"/>
</g>
</g>
<defs>
<clipPath id="clip0_325_2946">
<rect width="98" height="109" fill="white"/>
</clipPath>
<clipPath id="clip1_325_2946">
<rect width="99.8846" height="97.7241" fill="white" transform="translate(0 5.63794)"/>
</clipPath>
</defs>
</svg>
