<svg width="95" height="103" viewBox="0 0 95 103" fill="none" xmlns="http://www.w3.org/2000/svg">
<path d="M87.7076 29.0276L61.4025 29.0276C60.9025 29.0276 60.423 28.8374 60.0695 28.4988C59.716 28.1602 59.5173 27.701 59.5173 27.2221V8.88258C59.5173 8.40397 59.7159 7.94496 60.0692 7.60653C60.4226 7.2681 60.9019 7.07798 61.4017 7.07798L87.7085 7.07798C88.2082 7.07798 88.6875 7.2681 89.0409 7.60653C89.3942 7.94496 89.5928 8.40397 89.5928 8.88258V27.2221C89.5928 27.701 89.3942 28.1602 89.0406 28.4988C88.6871 28.8374 88.2076 29.0276 87.7076 29.0276Z" fill="white"/>
<path d="M59.4387 27.2218V8.88223C59.4387 8.38362 59.6455 7.90542 60.0137 7.55285C60.3818 7.20027 60.8812 7.0022 61.4018 7.0022H87.7086C88.2292 7.0022 88.7286 7.20027 89.0967 7.55285C89.4649 7.90542 89.6717 8.38362 89.6717 8.88223V27.2218C89.6717 27.4688 89.6209 27.7134 89.5222 27.9416C89.4235 28.1698 89.2788 28.3771 89.0965 28.5518C88.9141 28.7264 88.6976 28.865 88.4593 28.9595C88.221 29.054 87.9656 29.1027 87.7077 29.1027H61.4027C61.1448 29.1027 60.8894 29.054 60.6511 28.9595C60.4128 28.865 60.1963 28.7264 60.014 28.5518C59.8316 28.3771 59.6869 28.1698 59.5882 27.9416C59.4895 27.7134 59.4387 27.4688 59.4387 27.2218ZM61.4018 7.15306C60.923 7.15319 60.4639 7.33543 60.1254 7.6597C59.7869 7.98396 59.5968 8.42371 59.5968 8.88223V27.2218C59.5968 27.6806 59.7871 28.1207 60.1258 28.4451C60.4646 28.7695 60.9241 28.9518 61.4032 28.9518H87.7077C88.1868 28.9518 88.6463 28.7695 88.9851 28.4451C89.3238 28.1207 89.5142 27.6806 89.5142 27.2218V8.88223C89.5142 8.42363 89.3239 7.98381 88.9853 7.65953C88.6467 7.33524 88.1875 7.15306 87.7086 7.15306H61.4018Z" fill="#292A2E"/>
<path d="M59.5176 8.882V10.4101H89.5926V8.882C89.5926 8.40339 89.3941 7.94438 89.0407 7.60595C88.6874 7.26752 88.2081 7.07739 87.7083 7.07739H61.4018C61.1543 7.07739 60.9093 7.12407 60.6807 7.21476C60.4521 7.30545 60.2444 7.43838 60.0694 7.60596C59.8944 7.77353 59.7556 7.97247 59.661 8.19141C59.5663 8.41036 59.5176 8.64502 59.5176 8.882Z" fill="#292A2E"/>
<path d="M69.7886 12.8802H68.3694C68.3527 12.8802 68.3367 12.8739 68.3248 12.8625C68.313 12.8512 68.3064 12.8359 68.3064 12.8199C68.3064 12.8039 68.313 12.7885 68.3248 12.7772C68.3367 12.7659 68.3527 12.7595 68.3694 12.7595H69.7886C69.8053 12.7595 69.8213 12.7659 69.8331 12.7772C69.8449 12.7885 69.8516 12.8039 69.8516 12.8199C69.8516 12.8359 69.8449 12.8512 69.8331 12.8625C69.8213 12.8739 69.8053 12.8802 69.7886 12.8802Z" fill="#292A2E"/>
<path d="M67.3461 12.8802H66.8091C66.7924 12.8802 66.7764 12.8739 66.7645 12.8625C66.7527 12.8512 66.7461 12.8359 66.7461 12.8199C66.7461 12.8039 66.7527 12.7885 66.7645 12.7772C66.7764 12.7659 66.7924 12.7595 66.8091 12.7595H67.3461C67.3628 12.7595 67.3788 12.7659 67.3907 12.7772C67.4025 12.7885 67.4091 12.8039 67.4091 12.8199C67.4091 12.8359 67.4025 12.8512 67.3907 12.8625C67.3788 12.8739 67.3628 12.8802 67.3461 12.8802Z" fill="#21082D"/>
<path d="M67.3461 13.9688H66.8091C66.7924 13.9688 66.7764 13.9625 66.7645 13.9512C66.7527 13.9398 66.7461 13.9245 66.7461 13.9085C66.7461 13.8925 66.7527 13.8771 66.7645 13.8658C66.7764 13.8545 66.7924 13.8481 66.8091 13.8481H67.3461C67.3628 13.8481 67.3788 13.8545 67.3907 13.8658C67.4025 13.8771 67.4091 13.8925 67.4091 13.9085C67.4091 13.9245 67.4025 13.9398 67.3907 13.9512C67.3788 13.9625 67.3628 13.9688 67.3461 13.9688Z" fill="#21082D"/>
<path d="M67.3461 15.0577H66.8091C66.7924 15.0577 66.7764 15.0513 66.7645 15.04C66.7527 15.0287 66.7461 15.0134 66.7461 14.9974C66.7461 14.9814 66.7527 14.966 66.7645 14.9547C66.7764 14.9434 66.7924 14.937 66.8091 14.937H67.3461C67.3628 14.937 67.3788 14.9434 67.3907 14.9547C67.4025 14.966 67.4091 14.9814 67.4091 14.9974C67.4091 15.0134 67.4025 15.0287 67.3907 15.04C67.3788 15.0513 67.3628 15.0577 67.3461 15.0577Z" fill="#21082D"/>
<path d="M67.3461 16.1461H66.8091C66.7924 16.1461 66.7764 16.1397 66.7645 16.1284C66.7527 16.1171 66.7461 16.1017 66.7461 16.0857C66.7461 16.0697 66.7527 16.0544 66.7645 16.0431C66.7764 16.0317 66.7924 16.0254 66.8091 16.0254H67.3461C67.3628 16.0254 67.3788 16.0317 67.3907 16.0431C67.4025 16.0544 67.4091 16.0697 67.4091 16.0857C67.4091 16.1017 67.4025 16.1171 67.3907 16.1284C67.3788 16.1397 67.3628 16.1461 67.3461 16.1461Z" fill="#21082D"/>
<path d="M67.3461 17.235H66.8091C66.7924 17.235 66.7764 17.2286 66.7645 17.2173C66.7527 17.206 66.7461 17.1906 66.7461 17.1746C66.7461 17.1586 66.7527 17.1432 66.7645 17.1319C66.7764 17.1206 66.7924 17.1143 66.8091 17.1143H67.3461C67.3628 17.1143 67.3788 17.1206 67.3907 17.1319C67.4025 17.1432 67.4091 17.1586 67.4091 17.1746C67.4091 17.1906 67.4025 17.206 67.3907 17.2173C67.3788 17.2286 67.3628 17.235 67.3461 17.235Z" fill="#21082D"/>
<path d="M67.3461 18.3233H66.8091C66.7924 18.3233 66.7764 18.317 66.7645 18.3057C66.7527 18.2943 66.7461 18.279 66.7461 18.263C66.7461 18.247 66.7527 18.2316 66.7645 18.2203C66.7764 18.209 66.7924 18.2026 66.8091 18.2026H67.3461C67.3628 18.2026 67.3788 18.209 67.3907 18.2203C67.4025 18.2316 67.4091 18.247 67.4091 18.263C67.4091 18.279 67.4025 18.2943 67.3907 18.3057C67.3788 18.317 67.3628 18.3233 67.3461 18.3233Z" fill="#21082D"/>
<path d="M67.3461 19.4122H66.8091C66.7924 19.4122 66.7764 19.4058 66.7645 19.3945C66.7527 19.3832 66.7461 19.3679 66.7461 19.3519C66.7461 19.3358 66.7527 19.3205 66.7645 19.3092C66.7764 19.2979 66.7924 19.2915 66.8091 19.2915H67.3461C67.3628 19.2915 67.3788 19.2979 67.3907 19.3092C67.4025 19.3205 67.4091 19.3358 67.4091 19.3519C67.4091 19.3679 67.4025 19.3832 67.3907 19.3945C67.3788 19.4058 67.3628 19.4122 67.3461 19.4122Z" fill="#21082D"/>
<path d="M67.3461 20.5006H66.8091C66.7924 20.5006 66.7764 20.4942 66.7645 20.4829C66.7527 20.4716 66.7461 20.4562 66.7461 20.4402C66.7461 20.4242 66.7527 20.4089 66.7645 20.3976C66.7764 20.3862 66.7924 20.3799 66.8091 20.3799H67.3461C67.3628 20.3799 67.3788 20.3862 67.3907 20.3976C67.4025 20.4089 67.4091 20.4242 67.4091 20.4402C67.4091 20.4562 67.4025 20.4716 67.3907 20.4829C67.3788 20.4942 67.3628 20.5006 67.3461 20.5006Z" fill="#21082D"/>
<path d="M67.3461 21.5894H66.8091C66.7924 21.5894 66.7764 21.5831 66.7645 21.5718C66.7527 21.5604 66.7461 21.5451 66.7461 21.5291C66.7461 21.5131 66.7527 21.4977 66.7645 21.4864C66.7764 21.4751 66.7924 21.4688 66.8091 21.4688H67.3461C67.3628 21.4688 67.3788 21.4751 67.3907 21.4864C67.4025 21.4977 67.4091 21.5131 67.4091 21.5291C67.4091 21.5451 67.4025 21.5604 67.3907 21.5718C67.3788 21.5831 67.3628 21.5894 67.3461 21.5894Z" fill="#21082D"/>
<path d="M67.3461 22.6781H66.8091C66.7924 22.6781 66.7764 22.6717 66.7645 22.6604C66.7527 22.6491 66.7461 22.6337 66.7461 22.6177C66.7461 22.6017 66.7527 22.5864 66.7645 22.575C66.7764 22.5637 66.7924 22.5574 66.8091 22.5574H67.3461C67.3628 22.5574 67.3788 22.5637 67.3907 22.575C67.4025 22.5864 67.4091 22.6017 67.4091 22.6177C67.4091 22.6337 67.4025 22.6491 67.3907 22.6604C67.3788 22.6717 67.3628 22.6781 67.3461 22.6781Z" fill="#21082D"/>
<path d="M67.3461 23.7669H66.8091C66.7924 23.7669 66.7764 23.7606 66.7645 23.7493C66.7527 23.7379 66.7461 23.7226 66.7461 23.7066C66.7461 23.6906 66.7527 23.6752 66.7645 23.6639C66.7764 23.6526 66.7924 23.6462 66.8091 23.6462H67.3461C67.3628 23.6462 67.3788 23.6526 67.3907 23.6639C67.4025 23.6752 67.4091 23.6906 67.4091 23.7066C67.4091 23.7226 67.4025 23.7379 67.3907 23.7493C67.3788 23.7606 67.3628 23.7669 67.3461 23.7669Z" fill="#21082D"/>
<path d="M67.3461 24.8553H66.8091C66.7924 24.8553 66.7764 24.849 66.7645 24.8376C66.7527 24.8263 66.7461 24.811 66.7461 24.795C66.7461 24.779 66.7527 24.7636 66.7645 24.7523C66.7764 24.741 66.7924 24.7346 66.8091 24.7346H67.3461C67.3628 24.7346 67.3788 24.741 67.3907 24.7523C67.4025 24.7636 67.4091 24.779 67.4091 24.795C67.4091 24.811 67.4025 24.8263 67.3907 24.8376C67.3788 24.849 67.3628 24.8553 67.3461 24.8553Z" fill="#21082D"/>
<path d="M67.3461 25.9442H66.8091C66.7924 25.9442 66.7764 25.9378 66.7645 25.9265C66.7527 25.9152 66.7461 25.8998 66.7461 25.8838C66.7461 25.8678 66.7527 25.8525 66.7645 25.8412C66.7764 25.8298 66.7924 25.8235 66.8091 25.8235H67.3461C67.3628 25.8235 67.3788 25.8298 67.3907 25.8412C67.4025 25.8525 67.4091 25.8678 67.4091 25.8838C67.4091 25.8998 67.4025 25.9152 67.3907 25.9265C67.3788 25.9378 67.3628 25.9442 67.3461 25.9442Z" fill="#21082D"/>
<path d="M67.3461 27.033H66.8091C66.7924 27.033 66.7764 27.0267 66.7645 27.0154C66.7527 27.0041 66.7461 26.9887 66.7461 26.9727C66.7461 26.9567 66.7527 26.9413 66.7645 26.93C66.7764 26.9187 66.7924 26.9124 66.8091 26.9124H67.3461C67.3628 26.9124 67.3788 26.9187 67.3907 26.93C67.4025 26.9413 67.4091 26.9567 67.4091 26.9727C67.4091 26.9887 67.4025 27.0041 67.3907 27.0154C67.3788 27.0267 67.3628 27.033 67.3461 27.033Z" fill="#21082D"/>
<path d="M70.9228 13.9691H69.6297C69.613 13.9691 69.5969 13.9627 69.5851 13.9514C69.5733 13.9401 69.5667 13.9247 69.5667 13.9087C69.5667 13.8927 69.5733 13.8774 69.5851 13.8661C69.5969 13.8547 69.613 13.8484 69.6297 13.8484H70.9228C70.9395 13.8484 70.9555 13.8547 70.9673 13.8661C70.9792 13.8774 70.9858 13.8927 70.9858 13.9087C70.9858 13.9247 70.9792 13.9401 70.9673 13.9514C70.9555 13.9627 70.9395 13.9691 70.9228 13.9691Z" fill="#292A2E"/>
<path d="M69.7886 20.5011H68.3694C68.3527 20.5011 68.3367 20.4947 68.3248 20.4834C68.313 20.4721 68.3064 20.4567 68.3064 20.4407C68.3064 20.4247 68.313 20.4094 68.3248 20.398C68.3367 20.3867 68.3527 20.3804 68.3694 20.3804H69.7886C69.8053 20.3804 69.8213 20.3867 69.8331 20.398C69.8449 20.4094 69.8516 20.4247 69.8516 20.4407C69.8516 20.4567 69.8449 20.4721 69.8331 20.4834C69.8213 20.4947 69.8053 20.5011 69.7886 20.5011Z" fill="#292A2E"/>
<path d="M70.9228 21.5894H69.6297C69.613 21.5894 69.5969 21.5831 69.5851 21.5718C69.5733 21.5604 69.5667 21.5451 69.5667 21.5291C69.5667 21.5131 69.5733 21.4977 69.5851 21.4864C69.5969 21.4751 69.613 21.4688 69.6297 21.4688H70.9228C70.9395 21.4688 70.9555 21.4751 70.9673 21.4864C70.9792 21.4977 70.9858 21.5131 70.9858 21.5291C70.9858 21.5451 70.9792 21.5604 70.9673 21.5718C70.9555 21.5831 70.9395 21.5894 70.9228 21.5894Z" fill="#292A2E"/>
<path d="M78.2321 15.0575H70.5117C70.495 15.0575 70.479 15.0511 70.4672 15.0398C70.4554 15.0285 70.4487 15.0131 70.4487 14.9971C70.4487 14.9811 70.4554 14.9658 70.4672 14.9544C70.479 14.9431 70.495 14.9368 70.5117 14.9368H78.2321C78.2488 14.9368 78.2648 14.9431 78.2767 14.9544C78.2885 14.9658 78.2951 14.9811 78.2951 14.9971C78.2951 15.0131 78.2885 15.0285 78.2767 15.0398C78.2648 15.0511 78.2488 15.0575 78.2321 15.0575Z" fill="#292A2E"/>
<path d="M85.0485 15.0575H79.5967C79.58 15.0575 79.564 15.0511 79.5522 15.0398C79.5403 15.0285 79.5337 15.0131 79.5337 14.9971C79.5337 14.9811 79.5403 14.9658 79.5522 14.9544C79.564 14.9431 79.58 14.9368 79.5967 14.9368H85.0485C85.0652 14.9368 85.0813 14.9431 85.0931 14.9544C85.1049 14.9658 85.1115 14.9811 85.1115 14.9971C85.1115 15.0131 85.1049 15.0285 85.0931 15.0398C85.0813 15.0511 85.0652 15.0575 85.0485 15.0575Z" fill="#0CBC8B"/>
<path d="M87.9741 15.0575H86.303C86.2863 15.0575 86.2703 15.0511 86.2585 15.0398C86.2466 15.0285 86.24 15.0131 86.24 14.9971C86.24 14.9811 86.2466 14.9658 86.2585 14.9544C86.2703 14.9431 86.2863 14.9368 86.303 14.9368H87.9741C87.9908 14.9368 88.0068 14.9431 88.0186 14.9544C88.0305 14.9658 88.0371 14.9811 88.0371 14.9971C88.0371 15.0131 88.0305 15.0285 88.0186 15.0398C88.0068 15.0511 87.9908 15.0575 87.9741 15.0575Z" fill="#292A2E"/>
<path d="M82.0128 17.235H70.5117C70.495 17.235 70.479 17.2286 70.4672 17.2173C70.4554 17.206 70.4487 17.1906 70.4487 17.1746C70.4487 17.1586 70.4554 17.1432 70.4672 17.1319C70.479 17.1206 70.495 17.1143 70.5117 17.1143H82.0128C82.0296 17.1143 82.0456 17.1206 82.0574 17.1319C82.0692 17.1432 82.0759 17.1586 82.0759 17.1746C82.0759 17.1906 82.0692 17.206 82.0574 17.2173C82.0456 17.2286 82.0296 17.235 82.0128 17.235Z" fill="#292A2E"/>
<path d="M85.0485 17.2352H83.3775C83.3608 17.2352 83.3447 17.2288 83.3329 17.2175C83.3211 17.2062 83.3145 17.1909 83.3145 17.1748C83.3145 17.1588 83.3211 17.1435 83.3329 17.1322C83.3447 17.1209 83.3608 17.1145 83.3775 17.1145H85.0485C85.0653 17.1145 85.0813 17.1209 85.0931 17.1322C85.1049 17.1435 85.1116 17.1588 85.1116 17.1748C85.1116 17.1909 85.1049 17.2062 85.0931 17.2175C85.0813 17.2288 85.0653 17.2352 85.0485 17.2352Z" fill="#21082D"/>
<path d="M71.9309 16.1463H70.5117C70.495 16.1463 70.479 16.14 70.4672 16.1287C70.4554 16.1173 70.4487 16.102 70.4487 16.086C70.4487 16.07 70.4554 16.0546 70.4672 16.0433C70.479 16.032 70.495 16.0256 70.5117 16.0256H71.9309C71.9476 16.0256 71.9636 16.032 71.9755 16.0433C71.9873 16.0546 71.9939 16.07 71.9939 16.086C71.9939 16.102 71.9873 16.1173 71.9755 16.1287C71.9636 16.14 71.9476 16.1463 71.9309 16.1463Z" fill="#0CBC8B"/>
<path d="M81.268 16.1463H73.2957C73.279 16.1463 73.2629 16.14 73.2511 16.1287C73.2393 16.1173 73.2327 16.102 73.2327 16.086C73.2327 16.07 73.2393 16.0546 73.2511 16.0433C73.2629 16.032 73.279 16.0256 73.2957 16.0256H81.268C81.2847 16.0256 81.3007 16.032 81.3125 16.0433C81.3244 16.0546 81.331 16.07 81.331 16.086C81.331 16.102 81.3244 16.1173 81.3125 16.1287C81.3007 16.14 81.2847 16.1463 81.268 16.1463Z" fill="#21082D"/>
<path d="M87.9853 16.1463H82.7852C82.7685 16.1463 82.7524 16.14 82.7406 16.1287C82.7288 16.1173 82.7222 16.102 82.7222 16.086C82.7222 16.07 82.7288 16.0546 82.7406 16.0433C82.7524 16.032 82.7685 16.0256 82.7852 16.0256H87.9851C88.0018 16.0256 88.0178 16.032 88.0296 16.0433C88.0414 16.0546 88.0481 16.07 88.0481 16.086C88.0481 16.102 88.0414 16.1173 88.0296 16.1287C88.0178 16.14 88.0018 16.1463 87.9851 16.1463H87.9853Z" fill="#292A2E"/>
<path d="M78.2321 18.3238H70.5117C70.495 18.3238 70.479 18.3175 70.4672 18.3061C70.4554 18.2948 70.4487 18.2795 70.4487 18.2635C70.4487 18.2475 70.4554 18.2321 70.4672 18.2208C70.479 18.2095 70.495 18.2031 70.5117 18.2031H78.2321C78.2488 18.2031 78.2648 18.2095 78.2767 18.2208C78.2885 18.2321 78.2951 18.2475 78.2951 18.2635C78.2951 18.2795 78.2885 18.2948 78.2767 18.3061C78.2648 18.3175 78.2488 18.3238 78.2321 18.3238Z" fill="#292A2E"/>
<path d="M82.528 18.3238H79.5967C79.58 18.3238 79.564 18.3175 79.5522 18.3061C79.5403 18.2948 79.5337 18.2795 79.5337 18.2635C79.5337 18.2475 79.5403 18.2321 79.5522 18.2208C79.564 18.2095 79.58 18.2031 79.5967 18.2031H82.528C82.5447 18.2031 82.5608 18.2095 82.5726 18.2208C82.5844 18.2321 82.591 18.2475 82.591 18.2635C82.591 18.2795 82.5844 18.2948 82.5726 18.3061C82.5608 18.3175 82.5447 18.3238 82.528 18.3238Z" fill="#0CBC8B"/>
<path d="M87.9743 18.3238H83.7827C83.766 18.3238 83.75 18.3175 83.7382 18.3061C83.7264 18.2948 83.7197 18.2795 83.7197 18.2635C83.7197 18.2475 83.7264 18.2321 83.7382 18.2208C83.75 18.2095 83.766 18.2031 83.7827 18.2031H87.9743C87.991 18.2031 88.007 18.2095 88.0189 18.2208C88.0307 18.2321 88.0373 18.2475 88.0373 18.2635C88.0373 18.2795 88.0307 18.2948 88.0189 18.3061C88.007 18.3175 87.991 18.3238 87.9743 18.3238Z" fill="#292A2E"/>
<path d="M71.9309 19.4122H70.5117C70.495 19.4122 70.479 19.4058 70.4672 19.3945C70.4554 19.3832 70.4487 19.3679 70.4487 19.3519C70.4487 19.3358 70.4554 19.3205 70.4672 19.3092C70.479 19.2979 70.495 19.2915 70.5117 19.2915H71.9309C71.9476 19.2915 71.9636 19.2979 71.9755 19.3092C71.9873 19.3205 71.9939 19.3358 71.9939 19.3519C71.9939 19.3679 71.9873 19.3832 71.9755 19.3945C71.9636 19.4058 71.9476 19.4122 71.9309 19.4122Z" fill="#21082D"/>
<path d="M81.268 19.4122H73.2957C73.279 19.4122 73.2629 19.4058 73.2511 19.3945C73.2393 19.3832 73.2327 19.3679 73.2327 19.3519C73.2327 19.3358 73.2393 19.3205 73.2511 19.3092C73.2629 19.2979 73.279 19.2915 73.2957 19.2915H81.268C81.2847 19.2915 81.3007 19.2979 81.3125 19.3092C81.3244 19.3205 81.331 19.3358 81.331 19.3519C81.331 19.3679 81.3244 19.3832 81.3125 19.3945C81.3007 19.4058 81.2847 19.4122 81.268 19.4122Z" fill="#0CBC8B"/>
<path d="M77.9804 23.7667H70.26C70.2433 23.7667 70.2273 23.7603 70.2155 23.749C70.2037 23.7377 70.197 23.7223 70.197 23.7063C70.197 23.6903 70.2037 23.675 70.2155 23.6637C70.2273 23.6524 70.2433 23.646 70.26 23.646H77.9804C77.9971 23.646 78.0131 23.6524 78.025 23.6637C78.0368 23.675 78.0434 23.6903 78.0434 23.7063C78.0434 23.7223 78.0368 23.7377 78.025 23.749C78.0131 23.7603 77.9971 23.7667 77.9804 23.7667Z" fill="#292A2E"/>
<path d="M84.7968 23.7667H79.345C79.3283 23.7667 79.3123 23.7603 79.3004 23.749C79.2886 23.7377 79.282 23.7223 79.282 23.7063C79.282 23.6903 79.2886 23.675 79.3004 23.6637C79.3123 23.6524 79.3283 23.646 79.345 23.646H84.7968C84.8135 23.646 84.8295 23.6524 84.8414 23.6637C84.8532 23.675 84.8598 23.6903 84.8598 23.7063C84.8598 23.7223 84.8532 23.7377 84.8414 23.749C84.8295 23.7603 84.8135 23.7667 84.7968 23.7667Z" fill="#21082D"/>
<path d="M74.1997 22.6783H70.26C70.2433 22.6783 70.2273 22.672 70.2155 22.6606C70.2037 22.6493 70.197 22.634 70.197 22.618C70.197 22.602 70.2037 22.5866 70.2155 22.5753C70.2273 22.564 70.2433 22.5576 70.26 22.5576H74.1997C74.2164 22.5576 74.2324 22.564 74.2442 22.5753C74.256 22.5866 74.2627 22.602 74.2627 22.618C74.2627 22.634 74.256 22.6493 74.2442 22.6606C74.2324 22.672 74.2164 22.6783 74.1997 22.6783Z" fill="#0CBC8B"/>
<path d="M81.016 22.6783H75.5642C75.5475 22.6783 75.5315 22.672 75.5197 22.6606C75.5079 22.6493 75.5012 22.634 75.5012 22.618C75.5012 22.602 75.5079 22.5866 75.5197 22.5753C75.5315 22.564 75.5475 22.5576 75.5642 22.5576H81.016C81.0328 22.5576 81.0488 22.564 81.0606 22.5753C81.0724 22.5866 81.0791 22.602 81.0791 22.618C81.0791 22.634 81.0724 22.6493 81.0606 22.6606C81.0488 22.672 81.0328 22.6783 81.016 22.6783Z" fill="#21082D"/>
<path d="M87.7336 22.6783H82.5335C82.5168 22.6783 82.5007 22.672 82.4889 22.6606C82.4771 22.6493 82.4705 22.634 82.4705 22.618C82.4705 22.602 82.4771 22.5866 82.4889 22.5753C82.5007 22.564 82.5168 22.5576 82.5335 22.5576H87.7334C87.7501 22.5576 87.7661 22.564 87.7779 22.5753C87.7897 22.5866 87.7964 22.602 87.7964 22.618C87.7964 22.634 87.7897 22.6493 87.7779 22.6606C87.7661 22.672 87.7501 22.6783 87.7334 22.6783H87.7336Z" fill="#292A2E"/>
<path d="M81.7611 25.9442H70.26C70.2433 25.9442 70.2273 25.9378 70.2155 25.9265C70.2037 25.9152 70.197 25.8998 70.197 25.8838C70.197 25.8678 70.2037 25.8525 70.2155 25.8412C70.2273 25.8298 70.2433 25.8235 70.26 25.8235H81.7611C81.7778 25.8235 81.7939 25.8298 81.8057 25.8412C81.8175 25.8525 81.8241 25.8678 81.8241 25.8838C81.8241 25.8998 81.8175 25.9152 81.8057 25.9265C81.7939 25.9378 81.7778 25.9442 81.7611 25.9442Z" fill="#21082D"/>
<path d="M84.7966 25.9442H83.1255C83.1088 25.9442 83.0928 25.9378 83.081 25.9265C83.0691 25.9152 83.0625 25.8998 83.0625 25.8838C83.0625 25.8678 83.0691 25.8525 83.081 25.8412C83.0928 25.8298 83.1088 25.8235 83.1255 25.8235H84.7966C84.8133 25.8235 84.8293 25.8298 84.8412 25.8412C84.853 25.8525 84.8596 25.8678 84.8596 25.8838C84.8596 25.8998 84.853 25.9152 84.8412 25.9265C84.8293 25.9378 84.8133 25.9442 84.7966 25.9442Z" fill="#292A2E"/>
<path d="M71.6792 24.8556H70.26C70.2433 24.8556 70.2273 24.8492 70.2155 24.8379C70.2037 24.8266 70.197 24.8112 70.197 24.7952C70.197 24.7792 70.2037 24.7639 70.2155 24.7525C70.2273 24.7412 70.2433 24.7349 70.26 24.7349H71.6792C71.6959 24.7349 71.7119 24.7412 71.7237 24.7525C71.7356 24.7639 71.7422 24.7792 71.7422 24.7952C71.7422 24.8112 71.7356 24.8266 71.7237 24.8379C71.7119 24.8492 71.6959 24.8556 71.6792 24.8556Z" fill="#21082D"/>
<path d="M81.016 24.8556H73.0437C73.027 24.8556 73.011 24.8492 72.9992 24.8379C72.9874 24.8266 72.9807 24.8112 72.9807 24.7952C72.9807 24.7792 72.9874 24.7639 72.9992 24.7525C73.011 24.7412 73.027 24.7349 73.0437 24.7349H81.016C81.0327 24.7349 81.0488 24.7412 81.0606 24.7525C81.0724 24.7639 81.079 24.7792 81.079 24.7952C81.079 24.8112 81.0724 24.8266 81.0606 24.8379C81.0488 24.8492 81.0327 24.8556 81.016 24.8556Z" fill="#292A2E"/>
<path d="M87.7336 24.8556H82.5335C82.5168 24.8556 82.5007 24.8492 82.4889 24.8379C82.4771 24.8266 82.4705 24.8112 82.4705 24.7952C82.4705 24.7792 82.4771 24.7639 82.4889 24.7525C82.5007 24.7412 82.5168 24.7349 82.5335 24.7349H87.7334C87.7501 24.7349 87.7661 24.7412 87.7779 24.7525C87.7897 24.7639 87.7964 24.7792 87.7964 24.7952C87.7964 24.8112 87.7897 24.8266 87.7779 24.8379C87.7661 24.8492 87.7501 24.8556 87.7334 24.8556H87.7336Z" fill="#0CBC8B"/>
<path d="M77.9804 27.033H70.26C70.2433 27.033 70.2273 27.0267 70.2155 27.0154C70.2037 27.0041 70.197 26.9887 70.197 26.9727C70.197 26.9567 70.2037 26.9413 70.2155 26.93C70.2273 26.9187 70.2433 26.9124 70.26 26.9124H77.9804C77.9971 26.9124 78.0131 26.9187 78.025 26.93C78.0368 26.9413 78.0434 26.9567 78.0434 26.9727C78.0434 26.9887 78.0368 27.0041 78.025 27.0154C78.0131 27.0267 77.9971 27.033 77.9804 27.033Z" fill="#0CBC8B"/>
<path d="M82.2763 27.033H79.345C79.3283 27.033 79.3123 27.0267 79.3004 27.0154C79.2886 27.0041 79.282 26.9887 79.282 26.9727C79.282 26.9567 79.2886 26.9413 79.3004 26.93C79.3123 26.9187 79.3283 26.9124 79.345 26.9124H82.2763C82.293 26.9124 82.3091 26.9187 82.3209 26.93C82.3327 26.9413 82.3393 26.9567 82.3393 26.9727C82.3393 26.9887 82.3327 27.0041 82.3209 27.0154C82.3091 27.0267 82.293 27.033 82.2763 27.033Z" fill="#292A2E"/>
<path d="M87.7224 27.033H83.5308C83.5141 27.033 83.4981 27.0267 83.4862 27.0154C83.4744 27.0041 83.4678 26.9887 83.4678 26.9727C83.4678 26.9567 83.4744 26.9413 83.4862 26.93C83.4981 26.9187 83.5141 26.9124 83.5308 26.9124H87.7224C87.7391 26.9124 87.7551 26.9187 87.7669 26.93C87.7787 26.9413 87.7854 26.9567 87.7854 26.9727C87.7854 26.9887 87.7787 27.0041 87.7669 27.0154C87.7551 27.0267 87.7391 27.033 87.7224 27.033Z" fill="#21082D"/>
<path d="M66.2107 28.1977C66.194 28.1977 66.178 28.1914 66.1662 28.1801C66.1543 28.1687 66.1477 28.1534 66.1477 28.1374V10.9798C66.1477 10.9638 66.1543 10.9484 66.1662 10.9371C66.178 10.9258 66.194 10.9194 66.2107 10.9194C66.2274 10.9194 66.2435 10.9258 66.2553 10.9371C66.2671 10.9484 66.2737 10.9638 66.2737 10.9798V28.1374C66.2737 28.1534 66.2671 28.1687 66.2553 28.1801C66.2435 28.1914 66.2274 28.1977 66.2107 28.1977Z" fill="#292A2E"/>
<path d="M87.3142 9.83288C87.8725 9.83288 88.3252 9.39941 88.3252 8.86468C88.3252 8.32996 87.8725 7.89648 87.3142 7.89648C86.7559 7.89648 86.3032 8.32996 86.3032 8.86468C86.3032 9.39941 86.7559 9.83288 87.3142 9.83288Z" fill="white"/>
<path d="M63.3286 11.7335H60.5999C60.5832 11.7335 60.5671 11.7271 60.5553 11.7158C60.5435 11.7045 60.5369 11.6891 60.5369 11.6731C60.5369 11.6571 60.5435 11.6418 60.5553 11.6305C60.5671 11.6192 60.5832 11.6128 60.5999 11.6128H63.3286C63.3453 11.6128 63.3613 11.6192 63.3731 11.6305C63.3849 11.6418 63.3916 11.6571 63.3916 11.6731C63.3916 11.6891 63.3849 11.7045 63.3731 11.7158C63.3613 11.7271 63.3453 11.7335 63.3286 11.7335Z" fill="#292A2E"/>
<path d="M62.5065 12.9237H60.5999C60.5832 12.9237 60.5671 12.9173 60.5553 12.906C60.5435 12.8947 60.5369 12.8793 60.5369 12.8633C60.5369 12.8473 60.5435 12.832 60.5553 12.8207C60.5671 12.8093 60.5832 12.803 60.5999 12.803H62.5065C62.5232 12.803 62.5392 12.8093 62.5511 12.8207C62.5629 12.832 62.5695 12.8473 62.5695 12.8633C62.5695 12.8793 62.5629 12.8947 62.5511 12.906C62.5392 12.9173 62.5232 12.9237 62.5065 12.9237Z" fill="#292A2E"/>
<path d="M64.1833 14.1141H60.5999C60.5832 14.1141 60.5671 14.1077 60.5553 14.0964C60.5435 14.0851 60.5369 14.0698 60.5369 14.0538C60.5369 14.0377 60.5435 14.0224 60.5553 14.0111C60.5671 13.9998 60.5832 13.9934 60.5999 13.9934H64.1833C64.2 13.9934 64.216 13.9998 64.2278 14.0111C64.2396 14.0224 64.2463 14.0377 64.2463 14.0538C64.2463 14.0698 64.2396 14.0851 64.2278 14.0964C64.216 14.1077 64.2 14.1141 64.1833 14.1141Z" fill="#292A2E"/>
<path d="M64.8519 15.3043H61.8601C61.8434 15.3043 61.8274 15.2979 61.8156 15.2866C61.8038 15.2753 61.7971 15.2599 61.7971 15.2439C61.7971 15.2279 61.8038 15.2126 61.8156 15.2013C61.8274 15.19 61.8434 15.1836 61.8601 15.1836H64.8519C64.8687 15.1836 64.8847 15.19 64.8965 15.2013C64.9083 15.2126 64.915 15.2279 64.915 15.2439C64.915 15.2599 64.9083 15.2753 64.8965 15.2866C64.8847 15.2979 64.8687 15.3043 64.8519 15.3043Z" fill="#292A2E"/>
<path d="M63.4052 16.4947H61.8601C61.8434 16.4947 61.8274 16.4884 61.8156 16.477C61.8038 16.4657 61.7971 16.4504 61.7971 16.4344C61.7971 16.4184 61.8038 16.403 61.8156 16.3917C61.8274 16.3804 61.8434 16.374 61.8601 16.374H63.4052C63.4219 16.374 63.4379 16.3804 63.4497 16.3917C63.4616 16.403 63.4682 16.4184 63.4682 16.4344C63.4682 16.4504 63.4616 16.4657 63.4497 16.477C63.4379 16.4884 63.4219 16.4947 63.4052 16.4947Z" fill="#292A2E"/>
<path d="M64.5888 17.6849H61.8601C61.8434 17.6849 61.8274 17.6785 61.8156 17.6672C61.8038 17.6559 61.7971 17.6406 61.7971 17.6246C61.7971 17.6086 61.8038 17.5932 61.8156 17.5819C61.8274 17.5706 61.8434 17.5642 61.8601 17.5642H64.5888C64.6055 17.5642 64.6215 17.5706 64.6334 17.5819C64.6452 17.5932 64.6518 17.6086 64.6518 17.6246C64.6518 17.6406 64.6452 17.6559 64.6334 17.6672C64.6215 17.6785 64.6055 17.6849 64.5888 17.6849Z" fill="#292A2E"/>
<path d="M62.7039 18.8753H60.5999C60.5832 18.8753 60.5671 18.869 60.5553 18.8577C60.5435 18.8463 60.5369 18.831 60.5369 18.815C60.5369 18.799 60.5435 18.7836 60.5553 18.7723C60.5671 18.761 60.5832 18.7546 60.5999 18.7546H62.7039C62.7206 18.7546 62.7366 18.761 62.7484 18.7723C62.7602 18.7836 62.7669 18.799 62.7669 18.815C62.7669 18.831 62.7602 18.8463 62.7484 18.8577C62.7366 18.869 62.7206 18.8753 62.7039 18.8753Z" fill="#292A2E"/>
<path d="M61.9806 20.065H60.5999C60.5832 20.065 60.5671 20.0587 60.5553 20.0474C60.5435 20.036 60.5369 20.0207 60.5369 20.0047C60.5369 19.9887 60.5435 19.9733 60.5553 19.962C60.5671 19.9507 60.5832 19.9443 60.5999 19.9443H61.9806C61.9973 19.9443 62.0133 19.9507 62.0252 19.962C62.037 19.9733 62.0436 19.9887 62.0436 20.0047C62.0436 20.0207 62.037 20.036 62.0252 20.0474C62.0133 20.0587 61.9973 20.065 61.9806 20.065Z" fill="#292A2E"/>
<path d="M67.2604 11.4782V11.5L68.048 11.78C68.0593 11.7844 68.0689 11.7919 68.0756 11.8016C68.0824 11.8112 68.0859 11.8226 68.0858 11.8343V11.8548C68.086 11.8639 68.0838 11.8728 68.0794 11.8808C68.075 11.8889 68.0685 11.8957 68.0606 11.9007C68.0526 11.906 68.0434 11.9094 68.0337 11.9105C68.0239 11.9115 68.0141 11.9102 68.0051 11.9067L67.1154 11.5736C67.1043 11.5693 67.0948 11.562 67.0881 11.5525C67.0813 11.5431 67.0777 11.5319 67.0776 11.5205V11.4589C67.0775 11.4474 67.0811 11.4362 67.0879 11.4267C67.0946 11.4172 67.1042 11.4099 67.1154 11.4058L68.0051 11.0715C68.0124 11.0691 68.02 11.0679 68.0277 11.0679C68.0394 11.0681 68.0508 11.0714 68.0606 11.0775C68.0686 11.0828 68.075 11.0898 68.0794 11.098C68.0838 11.1062 68.086 11.1154 68.0858 11.1246V11.1451C68.0861 11.1566 68.0826 11.1679 68.0758 11.1775C68.069 11.187 68.0593 11.1942 68.048 11.1982L67.2604 11.4782Z" fill="#21082D"/>
<path d="M68.8218 10.8253L68.3505 12.2073C68.3466 12.2188 68.3391 12.2289 68.3289 12.236C68.3187 12.2432 68.3064 12.2471 68.2937 12.2471C68.2846 12.2472 68.2756 12.2452 68.2674 12.2412C68.2593 12.2372 68.2523 12.2314 68.2471 12.2242C68.2415 12.217 68.2376 12.2087 68.2359 12.1999C68.2342 12.1911 68.2346 12.1821 68.2372 12.1735L68.7084 10.7927C68.7124 10.781 68.7201 10.7707 68.7305 10.7634C68.7409 10.756 68.7534 10.7519 68.7663 10.7517C68.7755 10.7517 68.7845 10.7537 68.7926 10.7577C68.8007 10.7617 68.8077 10.7675 68.813 10.7746C68.8186 10.7818 68.8224 10.7901 68.8239 10.7989C68.8254 10.8078 68.8247 10.8168 68.8218 10.8253Z" fill="#21082D"/>
<path d="M69.9792 11.4589V11.5205C69.9793 11.5318 69.9759 11.5429 69.9694 11.5524C69.9629 11.5619 69.9536 11.5693 69.9426 11.5736L69.0516 11.9067C69.0428 11.9102 69.0332 11.9115 69.0237 11.9104C69.0142 11.9094 69.0052 11.906 68.9974 11.9007C68.9894 11.8957 68.9827 11.889 68.9781 11.881C68.9735 11.8729 68.971 11.8639 68.971 11.8548V11.8343C68.9709 11.8225 68.9746 11.8109 68.9815 11.8012C68.9885 11.7915 68.9985 11.7841 69.01 11.78L69.7977 11.5V11.4782L69.01 11.1982C68.9984 11.1945 68.9884 11.1874 68.9814 11.1778C68.9743 11.1683 68.9707 11.1568 68.971 11.1451V11.1246C68.971 11.1153 68.9734 11.1061 68.9781 11.0979C68.9827 11.0897 68.9893 11.0827 68.9974 11.0775C69.0072 11.0715 69.0186 11.0681 69.0302 11.0679C69.0375 11.0678 69.0448 11.069 69.0516 11.0715L69.9426 11.4058C69.9537 11.41 69.9631 11.4173 69.9696 11.4268C69.9762 11.4363 69.9795 11.4475 69.9792 11.4589Z" fill="#21082D"/>
<path d="M52.1614 0.368408H7.77246V42.8795H52.1614V0.368408Z" fill="#F4F4F4"/>
<path d="M7.77243 0.368408H7.26367V42.8795H7.77243V0.368408Z" fill="#F4F4F4"/>
<path opacity="0.05" d="M7.77243 0.368408H7.26367V42.8795H7.77243V0.368408Z" fill="#292A2E"/>
<path opacity="0.05" d="M18.5255 29.6621V18.5398H28.0388V25.0017H42.7748V36.443H49.0379V42.8796H42.7748H41.5683H9.90747V29.6621H18.5255Z" fill="#292A2E"/>
<path opacity="0.34" d="M26.8176 19.7471H19.8899V20.9547H26.8176V19.7471Z" fill="#FFFFFA"/>
<path opacity="0.34" d="M26.8176 22.2498H19.8899V23.4574H26.8176V22.2498Z" fill="#FFFFFA"/>
<path opacity="0.34" d="M26.8176 24.752H19.8899V25.9596H26.8176V24.752Z" fill="#FFFFFA"/>
<path opacity="0.34" d="M12.4131 30.834H11.1362V32.0416H12.4131V30.834Z" fill="#FFFFFA"/>
<path opacity="0.34" d="M12.4131 33.3364H11.1362V34.5441H12.4131V33.3364Z" fill="#FFFFFA"/>
<path opacity="0.34" d="M12.4131 35.8391H11.1362V37.0468H12.4131V35.8391Z" fill="#FFFFFA"/>
<path opacity="0.34" d="M14.7754 30.834H13.4985V32.0416H14.7754V30.834Z" fill="#FFFFFA"/>
<path opacity="0.34" d="M14.7754 33.3364H13.4985V34.5441H14.7754V33.3364Z" fill="#FFFFFA"/>
<path opacity="0.34" d="M14.7754 35.8391H13.4985V37.0468H14.7754V35.8391Z" fill="#FFFFFA"/>
<path opacity="0.34" d="M17.0738 30.834H15.7969V32.0416H17.0738V30.834Z" fill="#FFFFFA"/>
<path opacity="0.34" d="M17.0738 33.3364H15.7969V34.5441H17.0738V33.3364Z" fill="#FFFFFA"/>
<path opacity="0.34" d="M17.0738 35.8391H15.7969V37.0468H17.0738V35.8391Z" fill="#FFFFFA"/>
<path d="M7.77246 21.3855H16.7043V0.368408H17.4429V21.3855H41.5686V0.368408H42.3073V21.3855H52.1614V22.0929H42.3073V42.8795H41.5686V22.0929H17.4429V42.8795H16.7043V22.0929H7.77246V21.3855Z" fill="white"/>
<path d="M53.9297 42.8284H6.00415V44.2422H53.9297V42.8284Z" fill="#F4F4F4"/>
<path opacity="0.1" d="M53.9297 42.8284H6.00415V44.2422H53.9297V42.8284Z" fill="#292A2E"/>
<path opacity="0.1" d="M6.00401 42.8284H5.31201V44.2422H6.00401V42.8284Z" fill="#292A2E"/>
<path opacity="0.1" d="M6.00401 42.8284H5.31201V44.2422H6.00401V42.8284Z" fill="#292A2E"/>
<path d="M7.26347 2.17847L52.1611 2.17847V1.12735L7.26347 1.12735V2.17847Z" fill="white"/>
<path d="M7.26347 4.14185L52.1611 4.14185V3.09073L7.26347 3.09073V4.14185Z" fill="white"/>
<path d="M7.26347 6.10498L52.1611 6.10498V5.05386L7.26347 5.05386V6.10498Z" fill="white"/>
<path d="M7.26347 8.06836L52.1611 8.06836V7.01724L7.26347 7.01724V8.06836Z" fill="white"/>
<path d="M7.26347 10.0317L52.1611 10.0317V8.98062L7.26347 8.98062V10.0317Z" fill="white"/>
<path d="M12.032 11.2173H12.7048L12.7048 0.368541H12.032L12.032 11.2173Z" fill="white"/>
<path d="M12.3116 12.7752C12.8221 12.7752 13.236 12.3789 13.236 11.8899C13.236 11.401 12.8221 11.0046 12.3116 11.0046C11.8011 11.0046 11.3872 11.401 11.3872 11.8899C11.3872 12.3789 11.8011 12.7752 12.3116 12.7752Z" fill="white"/>
<path d="M7.65571 101.97L7.4082 101.924L11.2766 65.1091L11.5242 65.1548L7.65571 101.97Z" fill="#494949"/>
<path d="M22.06 101.97L21.8125 101.924L25.6808 65.1091L25.9283 65.1548L22.06 101.97Z" fill="#494949"/>
<path d="M53.8994 101.97L54.147 101.924L50.2785 65.1091L50.031 65.1548L53.8994 101.97Z" fill="#494949"/>
<path d="M39.4953 101.97L39.7428 101.924L35.8745 65.1091L35.627 65.1548L39.4953 101.97Z" fill="#494949"/>
<path d="M34.3656 48.9063L34.1157 48.9382L36.3756 65.1478L36.6254 65.1159L34.3656 48.9063Z" fill="#494949"/>
<path d="M8.42659 48.9063L8.17676 48.9382L10.4366 65.1478L10.6864 65.1159L8.42659 48.9063Z" fill="#494949"/>
<path d="M36.6031 63.9448H11.2319C10.5474 63.9448 9.99243 64.4763 9.99243 65.1318V65.132C9.99243 65.7875 10.5474 66.319 11.2319 66.319H36.6031C37.2876 66.319 37.8425 65.7875 37.8425 65.132V65.1318C37.8425 64.4763 37.2876 63.9448 36.6031 63.9448Z" fill="#292A2E"/>
<path opacity="0.8" d="M36.6031 63.9448H11.2319C10.5474 63.9448 9.99243 64.4763 9.99243 65.1318V65.132C9.99243 65.7875 10.5474 66.319 11.2319 66.319H36.6031C37.2876 66.319 37.8425 65.7875 37.8425 65.132V65.1318C37.8425 64.4763 37.2876 63.9448 36.6031 63.9448Z" fill="white"/>
<path d="M36.6032 66.4396H11.2322C11.0529 66.4396 10.8753 66.4058 10.7096 66.3401C10.544 66.2744 10.3934 66.1781 10.2666 66.0566C10.1398 65.9352 10.0393 65.791 9.97064 65.6324C9.90202 65.4737 9.8667 65.3037 9.8667 65.1319C9.8667 64.9602 9.90202 64.7902 9.97064 64.6315C10.0393 64.4728 10.1398 64.3287 10.2666 64.2072C10.3934 64.0858 10.544 63.9895 10.7096 63.9238C10.8753 63.858 11.0529 63.8242 11.2322 63.8242H36.6032C36.7826 63.8242 36.9601 63.858 37.1258 63.9238C37.2915 63.9895 37.442 64.0858 37.5688 64.2072C37.6956 64.3287 37.7962 64.4728 37.8648 64.6315C37.9334 64.7902 37.9687 64.9602 37.9687 65.1319C37.9687 65.3037 37.9334 65.4737 37.8648 65.6324C37.7962 65.791 37.6956 65.9352 37.5688 66.0566C37.442 66.1781 37.2915 66.2744 37.1258 66.3401C36.9601 66.4058 36.7826 66.4396 36.6032 66.4396ZM11.2322 64.0656C11.086 64.0656 10.9412 64.0932 10.8061 64.1468C10.671 64.2004 10.5483 64.2789 10.4449 64.3779C10.3415 64.4769 10.2595 64.5945 10.2035 64.7239C10.1475 64.8532 10.1187 64.9919 10.1187 65.1319C10.1187 65.272 10.1475 65.4106 10.2035 65.54C10.2595 65.6694 10.3415 65.7869 10.4449 65.8859C10.5483 65.9849 10.671 66.0635 10.8061 66.1171C10.9412 66.1707 11.086 66.1983 11.2322 66.1983H36.6032C36.7495 66.1983 36.8943 66.1707 37.0293 66.1171C37.1644 66.0635 37.2872 65.9849 37.3906 65.8859C37.4939 65.7869 37.576 65.6694 37.6319 65.54C37.6879 65.4106 37.7167 65.272 37.7167 65.1319C37.7167 64.9919 37.6879 64.8532 37.6319 64.7239C37.576 64.5945 37.4939 64.4769 37.3906 64.3779C37.2872 64.2789 37.1644 64.2004 37.0293 64.1468C36.8943 64.0932 36.7495 64.0656 36.6032 64.0656H11.2322Z" fill="#292A2E"/>
<path d="M50.5289 63.9448H25.1577C24.4731 63.9448 23.9182 64.4763 23.9182 65.1318V65.132C23.9182 65.7875 24.4731 66.319 25.1577 66.319H50.5289C51.2134 66.319 51.7683 65.7875 51.7683 65.132V65.1318C51.7683 64.4763 51.2134 63.9448 50.5289 63.9448Z" fill="white"/>
<path d="M50.5287 66.4396H25.1575C24.9781 66.4396 24.8006 66.4058 24.6349 66.3401C24.4693 66.2744 24.3187 66.1781 24.1919 66.0566C24.0651 65.9352 23.9646 65.791 23.8959 65.6324C23.8273 65.4737 23.792 65.3037 23.792 65.1319C23.792 64.9602 23.8273 64.7902 23.8959 64.6315C23.9646 64.4728 24.0651 64.3287 24.1919 64.2072C24.3187 64.0858 24.4693 63.9895 24.6349 63.9238C24.8006 63.858 24.9781 63.8242 25.1575 63.8242H50.5287C50.708 63.8242 50.8855 63.858 51.0512 63.9238C51.2169 63.9895 51.3674 64.0858 51.4942 64.2072C51.621 64.3287 51.7216 64.4728 51.7902 64.6315C51.8588 64.7902 51.8941 64.9602 51.8941 65.1319C51.8941 65.3037 51.8588 65.4737 51.7902 65.6324C51.7216 65.791 51.621 65.9352 51.4942 66.0566C51.3674 66.1781 51.2169 66.2744 51.0512 66.3401C50.8855 66.4058 50.708 66.4396 50.5287 66.4396ZM25.1575 64.0656C25.0112 64.0656 24.8665 64.0932 24.7314 64.1468C24.5963 64.2004 24.4735 64.2789 24.3702 64.3779C24.2668 64.4769 24.1847 64.5945 24.1288 64.7239C24.0728 64.8532 24.044 64.9919 24.044 65.1319C24.044 65.272 24.0728 65.4106 24.1288 65.54C24.1847 65.6694 24.2668 65.7869 24.3702 65.8859C24.4735 65.9849 24.5963 66.0635 24.7314 66.1171C24.8665 66.1707 25.0112 66.1983 25.1575 66.1983H50.5287C50.6749 66.1983 50.8197 66.1707 50.9548 66.1171C51.0898 66.0635 51.2126 65.9849 51.316 65.8859C51.4194 65.7869 51.5014 65.6694 51.5573 65.54C51.6133 65.4106 51.6421 65.272 51.6421 65.1319C51.6421 64.9919 51.6133 64.8532 51.5573 64.7239C51.5014 64.5945 51.4194 64.4769 51.316 64.3779C51.2126 64.2789 51.0898 64.2004 50.9548 64.1468C50.8197 64.0932 50.6749 64.0656 50.5287 64.0656H25.1575Z" fill="#292A2E"/>
<path d="M32.9757 48.9221H8.36989C7.96758 48.922 7.57903 48.7818 7.27675 48.5276C6.97447 48.2733 6.77912 47.9224 6.72716 47.5404L5.09956 35.5701C5.06914 35.3464 5.08891 35.119 5.15756 34.9031C5.22622 34.6872 5.34216 34.4879 5.49766 34.3183C5.65316 34.1488 5.84464 34.0129 6.05931 33.9199C6.27398 33.8269 6.50691 33.7788 6.74253 33.7788H31.3481C31.7504 33.7788 32.139 33.919 32.4413 34.1732C32.7435 34.4275 32.9389 34.7783 32.9909 35.1604L34.6183 47.1307C34.6488 47.3545 34.629 47.5819 34.5604 47.7977C34.4918 48.0136 34.3759 48.2129 34.2204 48.3825C34.0649 48.552 33.8735 48.6878 33.6589 48.7809C33.4442 48.8739 33.2113 48.9221 32.9757 48.9221Z" fill="#292A2E"/>
<path opacity="0.8" d="M32.9757 48.9221H8.36989C7.96758 48.922 7.57903 48.7818 7.27675 48.5276C6.97447 48.2733 6.77912 47.9224 6.72716 47.5404L5.09956 35.5701C5.06914 35.3464 5.08891 35.119 5.15756 34.9031C5.22622 34.6872 5.34216 34.4879 5.49766 34.3183C5.65316 34.1488 5.84464 34.0129 6.05931 33.9199C6.27398 33.8269 6.50691 33.7788 6.74253 33.7788H31.3481C31.7504 33.7788 32.139 33.919 32.4413 34.1732C32.7435 34.4275 32.9389 34.7783 32.9909 35.1604L34.6183 47.1307C34.6488 47.3545 34.629 47.5819 34.5604 47.7977C34.4918 48.0136 34.3759 48.2129 34.2204 48.3825C34.0649 48.552 33.8735 48.6878 33.6589 48.7809C33.4442 48.8739 33.2113 48.9221 32.9757 48.9221Z" fill="white"/>
<path d="M32.9755 49.043H8.36964C7.93699 49.042 7.51938 48.8908 7.1943 48.6174C6.86922 48.344 6.65873 47.9669 6.6019 47.5561L4.97442 35.5859C4.94165 35.3451 4.9629 35.1004 5.03675 34.8681C5.11061 34.6358 5.23536 34.4212 5.40269 34.2388C5.57001 34.0563 5.77606 33.9102 6.00707 33.81C6.23808 33.7099 6.48873 33.6582 6.74229 33.6582H31.3479C31.7805 33.6591 32.1981 33.8103 32.5232 34.0838C32.8483 34.3572 33.0587 34.7343 33.1155 35.145L34.7431 47.1154C34.7759 47.3561 34.7546 47.6008 34.6808 47.8331C34.6069 48.0654 34.4822 48.2799 34.3149 48.4623C34.1476 48.6448 33.9416 48.7909 33.7106 48.8911C33.4796 48.9912 33.229 49.043 32.9755 49.043ZM6.74229 33.8996C6.52461 33.8996 6.30944 33.9441 6.11113 34.03C5.91282 34.116 5.73595 34.2415 5.5923 34.3982C5.44866 34.5548 5.34156 34.739 5.27815 34.9384C5.21474 35.1378 5.19648 35.3479 5.22458 35.5547L6.85218 47.525C6.90094 47.8777 7.08164 48.2014 7.36075 48.4362C7.63986 48.671 7.99842 48.8008 8.36989 48.8016H32.9755C33.1931 48.8015 33.4083 48.757 33.6065 48.671C33.8048 48.585 33.9816 48.4595 34.1252 48.3029C34.2688 48.1462 34.3759 47.9621 34.4393 47.7627C34.5027 47.5633 34.5209 47.3532 34.4928 47.1465L32.8656 35.1763C32.8168 34.8236 32.6361 34.4999 32.357 34.2651C32.0779 34.0303 31.7194 33.9005 31.3479 33.8997L6.74229 33.8996Z" fill="#292A2E"/>
<path d="M34.3667 48.9221H9.76089C9.3586 48.922 8.97006 48.7818 8.66781 48.5276C8.36555 48.2733 8.17022 47.9224 8.11829 47.5404L6.49018 35.5701C6.45976 35.3464 6.47953 35.119 6.54817 34.9031C6.61681 34.6873 6.73273 34.4879 6.8882 34.3184C7.04368 34.1489 7.23512 34.013 7.44976 33.92C7.6644 33.8269 7.8973 33.7788 8.13291 33.7788H32.7393C33.1415 33.7788 33.5301 33.919 33.8323 34.1732C34.1346 34.4275 34.3299 34.7783 34.3819 35.1604L36.0095 47.1307C36.0399 47.3545 36.0201 47.5819 35.9515 47.7977C35.8828 48.0136 35.7669 48.2129 35.6114 48.3825C35.456 48.552 35.2645 48.6878 35.0499 48.7809C34.8352 48.8739 34.6024 48.9221 34.3667 48.9221Z" fill="white"/>
<path d="M34.3666 49.043H9.76072C9.32808 49.042 8.91049 48.8908 8.58543 48.6174C8.26037 48.344 8.04991 47.9669 7.9931 47.5561L6.3655 35.5859C6.33277 35.3451 6.35405 35.1004 6.42791 34.8682C6.50177 34.6359 6.62652 34.4213 6.79382 34.2389C6.96112 34.0565 7.16714 33.9103 7.39811 33.8102C7.62908 33.71 7.8797 33.6582 8.13324 33.6582H32.739C33.1716 33.6591 33.5892 33.8103 33.9143 34.0838C34.2394 34.3572 34.4499 34.7343 34.5067 35.145L36.1343 47.1154C36.167 47.3561 36.1457 47.6008 36.0719 47.8331C35.998 48.0654 35.8733 48.2799 35.706 48.4623C35.5386 48.6447 35.3326 48.7909 35.1017 48.891C34.8707 48.9911 34.6201 49.0429 34.3666 49.043ZM8.13324 33.8996C7.9156 33.8997 7.70048 33.9442 7.50223 34.0302C7.30399 34.1163 7.12717 34.2418 6.98359 34.3984C6.84001 34.5551 6.73295 34.7392 6.66957 34.9386C6.60619 35.138 6.58794 35.3481 6.61604 35.5548L8.24301 47.525C8.29182 47.8777 8.47253 48.2014 8.75163 48.4361C9.03073 48.6709 9.38926 48.8007 9.76072 48.8016H34.3666C34.5843 48.8016 34.7994 48.7571 34.9977 48.6711C35.196 48.5851 35.3729 48.4596 35.5166 48.303C35.6602 48.1464 35.7673 47.9622 35.8307 47.7628C35.8941 47.5633 35.9124 47.3532 35.8843 47.1465L34.2567 35.1763C34.2079 34.8236 34.0272 34.4998 33.7481 34.2651C33.469 34.0303 33.1104 33.9005 32.739 33.8997L8.13324 33.8996Z" fill="#292A2E"/>
<path d="M53.4939 51.6554L53.2432 51.6797L58.556 102.051L58.8068 102.027L53.4939 51.6554Z" fill="#494949"/>
<path d="M31.7149 15.4025C31.7149 15.4025 33.35 14.2205 33.7551 11.4999C34.0688 9.39342 32.0398 10.7581 32.0398 10.7581C32.0398 10.7581 32.2503 9.23917 31.0946 9.38992C29.939 9.54066 29.2925 11.1362 29.2925 11.1362" fill="#0C0C0C"/>
<path d="M25.1224 9.56738C25.1224 9.56738 19.389 10.1565 21.4617 17.5965L21.9691 17.6291L22.9989 17.6952" fill="#0C0C0C"/>
<path d="M30.7548 25.3672C30.7296 25.3641 30.4499 29.8087 25.0578 29.4217C21.325 29.1539 19.994 25.361 19.9084 25.361C20.311 25.2791 20.8083 25.1547 21.006 25.1121C21.4368 25.0163 21.8269 24.7972 22.1245 24.4839C22.422 24.1706 22.6129 23.7779 22.6718 23.3582C22.781 22.7282 22.5962 19.5047 22.6527 18.8672L28.3827 20.092C28.3027 21.4384 27.7422 24.5597 29.7059 25.1121C30.0332 25.2035 30.3852 25.2875 30.7548 25.3672Z" fill="#E98862"/>
<path opacity="0.52" d="M28.4632 23.8362C28.3735 23.5591 28.3157 23.2735 28.2908 22.9845C28.2279 22.3248 28.2406 21.6605 28.3286 21.0035C27.164 20.853 26.0668 20.3927 25.1618 19.6748C25.0554 20.0511 24.4703 21.6954 24.6325 22.0531C24.9381 22.7292 26.3769 23.8362 28.4632 23.8362Z" fill="#0C0C0C"/>
<path d="M27.2804 22.9566C25.0198 22.7624 22.3142 21.3945 22.2752 18.4558L22.24 15.8042C22.201 12.8655 23.781 10.4636 26.6702 10.4284C29.5593 10.3932 31.7505 12.7492 31.7894 15.6879L31.8051 16.8618C31.8031 17.265 31.7724 17.6675 31.7132 18.0667C31.565 19.1227 31.3351 20.7283 30.5869 21.8144C29.8802 22.8398 28.7245 23.0805 27.2804 22.9566Z" fill="#E98862"/>
<path d="M28.3294 20.2704C28.7959 20.2907 29.2609 20.2056 29.6867 20.0222C29.6955 20.0186 29.7035 20.0133 29.7102 20.0068C29.7169 20.0002 29.7222 19.9925 29.7258 19.984C29.7293 19.9755 29.7311 19.9664 29.731 19.9572C29.7309 19.9481 29.7289 19.939 29.7252 19.9306C29.7214 19.9221 29.7159 19.9145 29.7091 19.9081C29.7023 19.9017 29.6942 19.8966 29.6853 19.8932C29.6764 19.8898 29.6669 19.8881 29.6573 19.8882C29.6478 19.8882 29.6383 19.8902 29.6295 19.8937C28.7121 20.2685 27.8789 20.2136 27.2203 19.735C27.207 19.7249 27.1932 19.7155 27.1788 19.7069C27.1623 19.6996 27.1435 19.6984 27.1261 19.7037C27.1087 19.709 27.094 19.7203 27.0849 19.7355C27.0758 19.7506 27.073 19.7685 27.0769 19.7855C27.0809 19.8026 27.0914 19.8176 27.1064 19.8276C27.1117 19.8307 27.1201 19.8371 27.1316 19.846C27.4779 20.0985 27.8949 20.2463 28.3294 20.2704Z" fill="#0C0C0C"/>
<path d="M28.3075 20.9318C28.3918 20.9368 28.4764 20.9348 28.5603 20.926C28.5795 20.9241 28.5972 20.9149 28.6093 20.9006C28.6215 20.8862 28.6271 20.8678 28.6251 20.8495C28.6231 20.8311 28.6135 20.8143 28.5984 20.8027C28.5834 20.7911 28.5642 20.7856 28.545 20.7876C28.04 20.8389 27.799 20.6179 27.7888 20.6083C27.7752 20.5953 27.7566 20.5879 27.7373 20.5879C27.718 20.5879 27.6994 20.5952 27.6857 20.6082C27.672 20.6213 27.6643 20.639 27.6643 20.6574C27.6643 20.6759 27.6719 20.6936 27.6856 20.7067C27.8595 20.8481 28.0792 20.9277 28.3075 20.9318Z" fill="#0C0C0C"/>
<path d="M30.8354 17.4268C31.0319 17.4268 31.1913 17.2742 31.1913 17.086C31.1913 16.8977 31.0319 16.7451 30.8354 16.7451C30.6388 16.7451 30.4795 16.8977 30.4795 17.086C30.4795 17.2742 30.6388 17.4268 30.8354 17.4268Z" fill="#0C0C0C"/>
<path d="M27.3588 17.2178C27.5554 17.2178 27.7147 17.0652 27.7147 16.877C27.7147 16.6887 27.5554 16.5361 27.3588 16.5361C27.1623 16.5361 27.0029 16.6887 27.0029 16.877C27.0029 17.0652 27.1623 17.2178 27.3588 17.2178Z" fill="#0C0C0C"/>
<path d="M22.4665 19.3487C21.5885 19.3594 20.8649 18.4685 20.8534 17.6276C20.8419 16.7867 21.5478 16.3143 22.4258 16.3037L22.8857 16.8616L23.2212 19.3395L22.4665 19.3487Z" fill="#E98862"/>
<path d="M23.3396 17.9979C23.3396 17.9979 23.6362 13.8397 24.9527 13.5829C25.8296 13.4118 27.956 14.6031 29.9255 14.2433C30.7873 14.0864 31.6053 14.2901 31.6885 14.68C31.7214 14.8343 32.2582 12.6161 30.9089 10.9332C29.8345 9.59287 26.3187 9.21449 24.7192 9.65382C20.2903 10.8706 22.2447 16.4871 22.2447 16.4871L22.4422 17.9207L23.3396 17.9979Z" fill="#0C0C0C"/>
<path d="M28.8595 19.2895H28.8651C29.1481 19.2867 29.6223 19.252 29.6204 19.0492C29.6185 18.8812 29.1195 17.0729 29.0624 16.8672C29.0569 16.8501 29.0448 16.8357 29.0285 16.8271C29.0122 16.8184 28.993 16.8161 28.975 16.8207C28.9569 16.8252 28.9415 16.8363 28.9318 16.8516C28.9221 16.8669 28.919 16.8851 28.9231 16.9026C29.1448 17.7035 29.475 18.9365 29.4764 19.0509C29.449 19.0992 29.1568 19.1489 28.8638 19.1518C28.8453 19.1522 28.8277 19.1593 28.8145 19.1718C28.8014 19.1843 28.7938 19.2011 28.7932 19.2188C28.7927 19.2365 28.7993 19.2537 28.8116 19.2669C28.8239 19.28 28.8411 19.2882 28.8595 19.2896V19.2895Z" fill="#0C0C0C"/>
<path d="M29.8253 15.2377C30.1226 15.1594 30.4366 15.1594 30.7339 15.2377C30.88 15.2753 31.0193 15.3338 31.1473 15.4111C31.2737 15.4867 31.3897 15.5774 31.4925 15.6809C31.5121 15.6992 31.5236 15.7241 31.5243 15.7504C31.525 15.7766 31.515 15.8021 31.4964 15.8213C31.4778 15.8406 31.452 15.8521 31.4246 15.8533C31.3972 15.8546 31.3704 15.8456 31.3499 15.8282L31.3435 15.8229C31.2483 15.7385 31.1425 15.666 31.0284 15.6069C30.9165 15.5482 30.796 15.5061 30.6709 15.4819C30.4247 15.4325 30.1692 15.4462 29.9303 15.5216L29.9202 15.525C29.8808 15.5383 29.8374 15.5361 29.7997 15.5189C29.7619 15.5016 29.7329 15.4707 29.719 15.433C29.705 15.3952 29.7073 15.3537 29.7254 15.3176C29.7434 15.2814 29.7756 15.2536 29.8151 15.2403L29.8253 15.2377Z" fill="#0C0C0C"/>
<path d="M27.7198 15.4092C27.4935 15.3039 27.2422 15.2577 26.9914 15.2754C26.864 15.2833 26.7387 15.3097 26.6196 15.3536C26.4985 15.3976 26.3837 15.456 26.2778 15.5274L26.271 15.5317C26.2483 15.5457 26.2208 15.5507 26.1943 15.5458C26.1678 15.5408 26.1443 15.5263 26.1287 15.5052C26.1131 15.4841 26.1066 15.458 26.1105 15.4325C26.1144 15.4069 26.1285 15.3837 26.1498 15.3678C26.266 15.2783 26.3936 15.2032 26.5295 15.1443C26.6671 15.0841 26.8133 15.044 26.9633 15.0253C27.2689 14.9854 27.5801 15.0253 27.864 15.1409C27.9024 15.1569 27.9326 15.1869 27.948 15.2242C27.9633 15.2616 27.9626 15.3032 27.9459 15.34C27.9292 15.3769 27.8979 15.4058 27.8589 15.4205C27.8199 15.4352 27.7764 15.4345 27.7379 15.4185L27.7292 15.4145L27.7198 15.4092Z" fill="#0C0C0C"/>
<path d="M29.4022 12.3754C30.0521 12.2454 30.4169 11.3973 30.217 10.4813C30.0172 9.56518 29.3283 8.92796 28.6784 9.058C28.0286 9.18804 27.6637 10.0361 27.8636 10.9522C28.0634 11.8683 28.7523 12.5055 29.4022 12.3754Z" fill="#0C0C0C"/>
<path d="M65.6487 95.6843C65.6487 95.6843 66.3245 99.0387 69.6039 99.2257C72.8833 99.4127 72.1723 101.915 72.1723 101.915H59.6399V95.9182L65.6487 95.6843Z" fill="#21082D"/>
<path d="M41.8061 93.5667C41.8061 93.5667 40.8664 96.8623 43.723 98.4164C46.5796 99.9704 44.7881 101.915 44.7881 101.915L33.5427 96.6166L36.3066 91.2358L41.8061 93.5667Z" fill="#21082D"/>
<path d="M34.8412 92.6357L44.3244 63.9843H27.1347C23.6816 63.9843 22.2422 61.18 22.2422 57.8733C22.2422 54.5665 25.6368 51.6677 29.0896 51.6677H52.2894C54.3954 51.6677 56.7568 52.9012 57.9127 54.5873C59.0686 56.2734 58.7561 58.886 57.9186 60.7367L42.7327 96.0595" fill="#262626"/>
<path opacity="0.8" d="M34.8412 92.6357L44.3244 63.9843H27.1347C23.6816 63.9843 22.2422 61.18 22.2422 57.8733C22.2422 54.5665 25.6368 51.6677 29.0896 51.6677H52.2894C54.3954 51.6677 56.7568 52.9012 57.9127 54.5873C59.0686 56.2734 58.7561 58.886 57.9186 60.7367L42.7327 96.0595" fill="#0A0A0A"/>
<path d="M58.9191 98.7997L43.0624 63.9843L22.2421 63.983C17.3636 63.6167 15.1293 61.0562 15.2004 57.7502C15.2704 54.486 16.9962 51.262 20.3892 51.262H48.4512C50.9616 51.3113 52.9367 53.9683 53.868 56.2013L67.0502 96.6683" fill="#262626"/>
<path d="M13.7802 51.3019C13.7802 51.3019 12.8555 57.0766 14.3212 60.2872C16.151 64.2954 23.0102 63.983 23.0102 63.983L22.6237 51.262L13.7802 51.3019Z" fill="#262626"/>
<path d="M54.4647 51.188L39.7577 48.2694C39.1448 48.1477 38.5739 47.8801 38.0978 47.4911C37.6216 47.1021 37.2556 46.6044 37.0335 46.044L31.249 31.4458C31.0729 31.0077 30.9889 30.5406 31.0018 30.0713C31.0147 29.602 31.1243 29.1397 31.3243 28.7111C31.5244 28.2825 31.8108 27.896 32.1673 27.5737C32.5237 27.2514 32.9432 26.9998 33.4015 26.8332C33.8598 26.6666 34.348 26.5884 34.8379 26.6031C35.3279 26.6177 35.81 26.7249 36.2566 26.9185C36.7032 27.1121 37.1054 27.3883 37.4402 27.7313C37.775 28.0742 38.0357 28.4771 38.2074 28.9168L43.2676 41.6862L55.9752 44.2079C55.9752 44.2079 54.7198 51.2385 54.4647 51.188Z" fill="#21082D"/>
<path d="M37.4545 35.1531C37.2847 37.0641 36.0808 48.9858 35.917 51.3395H13.7902C13.663 49.2167 13.2503 40.2036 12.7681 36.0524C12.308 32.091 12.141 29.8304 12.6711 28.5995C13.6059 26.4282 15.9453 25.647 17.9604 25.3857C19.1908 25.2262 21.0415 25.1118 21.0415 25.1118C21.0415 25.1118 21.1983 28.1476 24.9346 28.3166C30.0208 28.5459 29.6812 25.1118 29.7064 25.1118C30.5303 25.1118 35.0156 25.6857 36.137 26.3857C37.7212 27.3746 38.1892 28.722 38.2077 29.9599C38.229 31.3854 37.6471 32.986 37.4545 35.1531Z" fill="#21082D"/>
<path d="M36.5851 44.8946H36.5798C36.5715 44.894 36.5635 44.8918 36.5561 44.8881C36.5488 44.8845 36.5422 44.8795 36.5369 44.8735C36.5315 44.8674 36.5275 44.8604 36.525 44.8529C36.5224 44.8453 36.5215 44.8374 36.5222 44.8295L37.0966 38.221C37.0971 38.2131 37.0992 38.2053 37.1029 38.1981C37.1067 38.191 37.1118 38.1846 37.1182 38.1795C37.1246 38.1743 37.1319 38.1704 37.1399 38.1681C37.1479 38.1658 37.1563 38.165 37.1645 38.1659C37.1728 38.1665 37.1808 38.1687 37.1882 38.1724C37.1955 38.176 37.2021 38.181 37.2074 38.187C37.2128 38.1931 37.2168 38.2001 37.2194 38.2076C37.2219 38.2152 37.2228 38.2231 37.2221 38.231L36.6477 44.8395C36.6464 44.8545 36.6392 44.8685 36.6276 44.8787C36.616 44.8889 36.6008 44.8946 36.5851 44.8946Z" fill="#0C0C0C"/>
<path d="M47.1231 48.8609L51.9781 34.5679C52.0634 34.3167 52.2295 34.0979 52.4526 33.9427C52.6758 33.7874 52.9445 33.7039 53.2203 33.7039H74.2603C74.4665 33.7038 74.6697 33.7506 74.8534 33.8402C75.0372 33.9299 75.1961 34.0599 75.3173 34.2197C75.4384 34.3795 75.5184 34.5645 75.5506 34.7595C75.5828 34.9546 75.5663 35.1541 75.5025 35.3419L69.3873 49.6353C69.302 49.8865 69.1359 50.1054 68.9127 50.2606C68.6896 50.4158 68.4209 50.4994 68.1451 50.4994H48.3653C48.1591 50.4994 47.9557 50.4527 47.772 50.363C47.5882 50.2733 47.4292 50.1432 47.3081 49.9834C47.1869 49.8236 47.107 49.6385 47.0748 49.4434C47.0427 49.2483 47.0592 49.0487 47.1231 48.8609Z" fill="#292A2E"/>
<path d="M47.1231 48.8609L51.9781 34.5679C52.0634 34.3167 52.2295 34.0979 52.4526 33.9427C52.6758 33.7874 52.9445 33.7039 53.2203 33.7039H74.2603C74.4665 33.7038 74.6697 33.7506 74.8534 33.8402C75.0372 33.9299 75.1961 34.0599 75.3173 34.2197C75.4384 34.3795 75.5184 34.5645 75.5506 34.7595C75.5828 34.9546 75.5663 35.1541 75.5025 35.3419L69.3873 49.6353C69.302 49.8865 69.1359 50.1054 68.9127 50.2606C68.6896 50.4158 68.4209 50.4994 68.1451 50.4994H48.3653C48.1591 50.4994 47.9557 50.4527 47.772 50.363C47.5882 50.2733 47.4292 50.1432 47.3081 49.9834C47.1869 49.8236 47.107 49.6385 47.0748 49.4434C47.0427 49.2483 47.0592 49.0487 47.1231 48.8609Z" fill="#292A2E"/>
<path d="M51.0836 49.3401H37.843C37.5131 49.3401 37.2456 49.5962 37.2456 49.9122V49.9269C37.2456 50.2429 37.5131 50.499 37.843 50.499H51.0836C51.4135 50.499 51.6809 50.2429 51.6809 49.9269V49.9122C51.6809 49.5962 51.4135 49.3401 51.0836 49.3401Z" fill="#292A2E"/>
<path d="M51.0836 49.3401H37.843C37.5131 49.3401 37.2456 49.5962 37.2456 49.9122V49.9269C37.2456 50.2429 37.5131 50.499 37.843 50.499H51.0836C51.4135 50.499 51.6809 50.2429 51.6809 49.9269V49.9122C51.6809 49.5962 51.4135 49.3401 51.0836 49.3401Z" fill="#292A2E"/>
<path d="M60.6826 44.7852C61.8283 44.7852 62.7571 43.8957 62.7571 42.7985C62.7571 41.7013 61.8283 40.8118 60.6826 40.8118C59.5369 40.8118 58.6082 41.7013 58.6082 42.7985C58.6082 43.8957 59.5369 44.7852 60.6826 44.7852Z" fill="white"/>
<path d="M46.0164 45.5127L42.7119 44.4035L43.1863 44.3721C43.3392 44.359 43.4813 44.2909 43.5838 44.1814C43.6862 44.0718 43.7414 43.9291 43.7383 43.7821C43.7339 43.7063 43.7134 43.6322 43.6781 43.5642C43.6428 43.4962 43.5934 43.4358 43.5329 43.3867C43.4724 43.3376 43.4022 43.3009 43.3263 43.2786C43.2505 43.2564 43.1708 43.2492 43.092 43.2575L37.2456 43.8525L37.3968 45.6518C37.444 46.2106 37.6644 46.7432 38.0297 47.1813C38.395 47.6195 38.8886 47.9431 39.4472 48.1108L41.9791 48.8661C42.1098 48.9078 42.2516 48.9049 42.3804 48.858C42.5092 48.8111 42.6172 48.723 42.6859 48.6086C42.7457 48.5041 42.7691 48.384 42.7526 48.2659C42.7361 48.1478 42.6806 48.0378 42.5942 47.952C42.5998 47.9482 42.6045 47.9433 42.6081 47.9377C42.6117 47.9321 42.614 47.9258 42.615 47.9193C42.6159 47.9128 42.6155 47.9062 42.6137 47.8998C42.6118 47.8935 42.6087 47.8876 42.6044 47.8824L43.0707 48.0226C43.2162 48.0694 43.3749 48.0615 43.5146 48.0006C43.6543 47.9396 43.7647 47.8302 43.8233 47.6943C43.8713 47.571 43.8723 47.4356 43.8262 47.3117C43.7801 47.1878 43.6898 47.0835 43.5713 47.0171C43.5767 47.0143 43.5816 47.0105 43.5856 47.006L43.7774 47.0635C43.9082 47.1053 44.05 47.1024 44.1788 47.0555C44.3077 47.0085 44.4156 46.9204 44.4843 46.806C44.5568 46.6792 44.5752 46.5305 44.5358 46.391C44.4963 46.2515 44.402 46.1321 44.2726 46.0577C44.2737 46.054 44.2743 46.0502 44.2744 46.0463L45.6505 46.5082C45.719 46.5319 45.7916 46.5424 45.8643 46.5391C45.937 46.5357 46.0082 46.5186 46.0739 46.4887C46.1397 46.4588 46.1986 46.4168 46.2472 46.365C46.2959 46.3131 46.3333 46.2526 46.3574 46.1868C46.3814 46.1211 46.3916 46.0514 46.3874 45.9818C46.3832 45.9123 46.3646 45.8442 46.3327 45.7816C46.3008 45.7189 46.2563 45.663 46.2017 45.6169C46.1471 45.5708 46.0835 45.5356 46.0146 45.5132L46.0164 45.5127Z" fill="#E98862"/>
<path opacity="0.2" d="M44.222 46.0972C44.2156 46.0972 44.2093 46.0961 44.2032 46.0941L42.8722 45.6305C42.8585 45.6257 42.8474 45.6159 42.8413 45.6032C42.8351 45.5906 42.8345 45.5761 42.8395 45.563C42.8446 45.5499 42.8548 45.5393 42.868 45.5334C42.8812 45.5276 42.8963 45.527 42.91 45.5318L44.2412 45.9954C44.2533 45.9996 44.2635 46.0077 44.27 46.0184C44.2764 46.0291 44.2787 46.0417 44.2765 46.0539C44.2743 46.066 44.2676 46.077 44.2577 46.085C44.2478 46.0929 44.2353 46.0973 44.2224 46.0972H44.222Z" fill="#0A0A0A"/>
<path opacity="0.2" d="M43.5489 47.0242C43.5426 47.0242 43.5364 47.0232 43.5305 47.0212L42.4813 46.6646C42.4744 46.6625 42.468 46.659 42.4625 46.6544C42.457 46.6498 42.4525 46.6442 42.4492 46.6379C42.446 46.6316 42.4441 46.6248 42.4437 46.6178C42.4433 46.6108 42.4443 46.6038 42.4467 46.5973C42.4492 46.5907 42.453 46.5846 42.4579 46.5794C42.4628 46.5742 42.4687 46.5701 42.4754 46.5671C42.482 46.5642 42.4892 46.5625 42.4965 46.5623C42.5038 46.562 42.5111 46.5632 42.5179 46.5657L43.5672 46.9222C43.5793 46.9263 43.5896 46.9345 43.5961 46.9451C43.6027 46.9558 43.6051 46.9684 43.6029 46.9806C43.6007 46.9928 43.5941 47.0038 43.5842 47.0118C43.5743 47.0198 43.5618 47.0242 43.5489 47.0242Z" fill="#0A0A0A"/>
<path opacity="0.2" d="M42.5612 47.964C42.5545 47.9639 42.5479 47.9628 42.5416 47.9605L42.0501 47.7815C42.0366 47.7765 42.0256 47.7666 42.0197 47.7539C42.0137 47.7412 42.0133 47.7268 42.0185 47.7138C42.0237 47.7009 42.0341 47.6904 42.0474 47.6847C42.0607 47.6791 42.0758 47.6787 42.0893 47.6836L42.5808 47.8626C42.5929 47.867 42.6029 47.8752 42.6092 47.8859C42.6155 47.8966 42.6177 47.909 42.6154 47.9211C42.6131 47.9332 42.6064 47.9441 42.5965 47.9519C42.5866 47.9598 42.5741 47.964 42.5613 47.964H42.5612Z" fill="#0A0A0A"/>
<path d="M39.8332 42.7876L25.9705 42.7787L20.7262 30.5269L12.9028 33.6769L19.4458 48.2179L19.5097 48.3628C19.8298 49.0695 20.369 49.665 21.0543 50.0685C21.7395 50.472 22.5378 50.6641 23.3408 50.6186L40.0425 49.6737L39.8332 42.7876Z" fill="#21082D"/>
<path d="M23.1111 50.6853C22.3339 50.684 21.574 50.4659 20.9242 50.0576C20.2743 49.6494 19.7628 49.0687 19.452 48.3865L19.3879 48.2417L13.8123 35.8521L13.9279 35.8038L19.5675 48.3391C19.884 49.0334 20.4149 49.6183 21.0887 50.015C21.7626 50.4117 22.5472 50.6013 23.3369 50.5583L39.9775 49.6169L39.7714 42.8481L25.9278 42.8391L21.8951 33.4187L22.0118 33.373L26.0122 42.7184L39.8937 42.7275L40.1071 49.7305L40.046 49.734L23.3447 50.6786C23.2667 50.6831 23.1885 50.6853 23.1111 50.6853Z" fill="#0C0C0C"/>
<path d="M7.692 51.656L2.37549 102.027L2.62626 102.051L7.94277 51.6803L7.692 51.656Z" fill="#494949"/>
<path d="M29.6578 51.656L24.3413 102.027L24.5921 102.051L29.9086 51.6803L29.6578 51.656Z" fill="#494949"/>
<path d="M75.4593 51.6554L75.2085 51.6797L80.5213 102.051L80.7721 102.027L75.4593 51.6554Z" fill="#494949"/>
<path d="M80.2504 50.6787H3.2492C2.67888 50.6787 2.21655 51.1215 2.21655 51.6676C2.21655 52.2138 2.67888 52.6565 3.2492 52.6565H80.2504C80.8207 52.6565 81.283 52.2138 81.283 51.6676C81.283 51.1215 80.8207 50.6787 80.2504 50.6787Z" fill="#292A2E"/>
<path opacity="0.8" d="M80.2504 50.6787H3.2492C2.67888 50.6787 2.21655 51.1215 2.21655 51.6676C2.21655 52.2138 2.67888 52.6565 3.2492 52.6565H80.2504C80.8207 52.6565 81.283 52.2138 81.283 51.6676C81.283 51.1215 80.8207 50.6787 80.2504 50.6787Z" fill="white"/>
<path d="M80.2504 52.7771H3.24961C3.09644 52.7786 2.94448 52.7511 2.80251 52.696C2.66054 52.6409 2.53138 52.5594 2.42251 52.4562C2.31363 52.3531 2.2272 52.2302 2.16822 52.0948C2.10923 51.9595 2.07886 51.8142 2.07886 51.6675C2.07886 51.5208 2.10923 51.3756 2.16822 51.2402C2.2272 51.1048 2.31363 50.982 2.42251 50.8788C2.53138 50.7756 2.66054 50.6941 2.80251 50.639C2.94448 50.584 3.09644 50.5564 3.24961 50.5579H80.2504C80.4036 50.5564 80.5556 50.584 80.6975 50.639C80.8395 50.6941 80.9687 50.7756 81.0775 50.8788C81.1864 50.982 81.2729 51.1048 81.3318 51.2402C81.3908 51.3756 81.4212 51.5208 81.4212 51.6675C81.4212 51.8142 81.3908 51.9595 81.3318 52.0948C81.2729 52.2302 81.1864 52.3531 81.0775 52.4562C80.9687 52.5594 80.8395 52.6409 80.6975 52.696C80.5556 52.7511 80.4036 52.7786 80.2504 52.7771ZM3.24961 50.7993C3.12966 50.798 3.01062 50.8194 2.89939 50.8624C2.78816 50.9055 2.68696 50.9692 2.60163 51.0499C2.51631 51.1307 2.44857 51.2269 2.40234 51.3329C2.35611 51.4389 2.3323 51.5526 2.3323 51.6675C2.3323 51.7824 2.35611 51.8961 2.40234 52.0021C2.44857 52.1082 2.51631 52.2043 2.60163 52.2851C2.68696 52.3658 2.78816 52.4296 2.89939 52.4726C3.01062 52.5156 3.12966 52.5371 3.24961 52.5357H80.2504C80.3704 52.5371 80.4894 52.5156 80.6007 52.4726C80.7119 52.4296 80.8131 52.3658 80.8984 52.2851C80.9837 52.2043 81.0515 52.1082 81.0977 52.0021C81.1439 51.8961 81.1678 51.7824 81.1678 51.6675C81.1678 51.5526 81.1439 51.4389 81.0977 51.3329C81.0515 51.2269 80.9837 51.1307 80.8984 51.0499C80.8131 50.9692 80.7119 50.9055 80.6007 50.8624C80.4894 50.8194 80.3704 50.798 80.2504 50.7993H3.24961Z" fill="#292A2E"/>
<path d="M80.2503 50.6787H26.0546C25.4843 50.6787 25.022 51.1215 25.022 51.6676C25.022 52.2138 25.4843 52.6565 26.0546 52.6565H80.2503C80.8206 52.6565 81.283 52.2138 81.283 51.6676C81.283 51.1215 80.8206 50.6787 80.2503 50.6787Z" fill="white"/>
<path d="M80.2506 52.7771H26.0548C25.7496 52.7741 25.458 52.6558 25.2433 52.4481C25.0286 52.2403 24.9082 51.9598 24.9082 51.6675C24.9082 51.3752 25.0286 51.0947 25.2433 50.887C25.458 50.6792 25.7496 50.561 26.0548 50.5579H80.2506C80.4038 50.5564 80.5558 50.584 80.6977 50.639C80.8397 50.6941 80.9689 50.7756 81.0777 50.8788C81.1866 50.982 81.273 51.1048 81.332 51.2402C81.391 51.3756 81.4214 51.5208 81.4214 51.6675C81.4214 51.8142 81.391 51.9595 81.332 52.0948C81.273 52.2302 81.1866 52.3531 81.0777 52.4562C80.9689 52.5594 80.8397 52.6409 80.6977 52.696C80.5558 52.7511 80.4038 52.7786 80.2506 52.7771ZM26.0548 50.7993C25.8162 50.802 25.5883 50.8947 25.4206 51.0572C25.2529 51.2197 25.1589 51.439 25.1589 51.6675C25.1589 51.896 25.2529 52.1153 25.4206 52.2778C25.5883 52.4404 25.8162 52.533 26.0548 52.5357H80.2506C80.3706 52.5371 80.4896 52.5156 80.6008 52.4726C80.7121 52.4296 80.8133 52.3658 80.8986 52.2851C80.9839 52.2043 81.0517 52.1082 81.0979 52.0021C81.1441 51.8961 81.1679 51.7824 81.1679 51.6675C81.1679 51.5526 81.1441 51.4389 81.0979 51.3329C81.0517 51.2269 80.9839 51.1307 80.8986 51.0499C80.8133 50.9692 80.7121 50.9055 80.6008 50.8624C80.4896 50.8194 80.3706 50.798 80.2506 50.7993H26.0548Z" fill="#292A2E"/>
<path d="M82.327 85.9927C82.3105 85.9927 82.2941 85.9896 82.2788 85.9836C82.2635 85.9775 82.2496 85.9686 82.2379 85.9573C82.0603 85.7874 81.7709 82.6675 80.9913 73.3783C80.6723 69.5775 80.371 65.9873 80.1511 63.8056C80.1355 63.6497 80.0723 63.6316 80.0516 63.6257C79.7506 63.5387 78.8353 64.2299 78.3242 64.8353C78.3032 64.8602 78.2727 64.8761 78.2395 64.8795C78.2062 64.8828 78.1729 64.8734 78.1469 64.8533C78.1209 64.8332 78.1043 64.804 78.1008 64.7721C78.0973 64.7403 78.1071 64.7084 78.1281 64.6835C78.4661 64.2833 79.5676 63.2341 80.1241 63.3945C80.2363 63.4268 80.3762 63.5202 80.402 63.7824C80.6222 65.9661 80.9235 69.5572 81.2426 73.359C81.7163 79.0038 82.2529 85.3989 82.4293 85.8016C82.4429 85.8197 82.4509 85.8409 82.4526 85.863C82.4543 85.8852 82.4497 85.9073 82.4391 85.9271C82.4285 85.9468 82.4124 85.9634 82.3927 85.975C82.3729 85.9865 82.3502 85.9927 82.327 85.9927Z" fill="#494949"/>
<path d="M79.8272 67.8093C81.9184 66.2039 82.6115 63.7052 81.3753 62.2282C80.1391 60.7512 77.4417 60.8553 75.3505 62.4606C73.2592 64.066 72.5661 66.5648 73.8023 68.0417C75.0386 69.5187 77.736 69.4147 79.8272 67.8093Z" fill="#0CBC8B"/>
<path opacity="0.2" d="M79.8272 67.8093C81.9184 66.2039 82.6115 63.7052 81.3753 62.2282C80.1391 60.7512 77.4417 60.8553 75.3505 62.4606C73.2592 64.066 72.5661 66.5648 73.8023 68.0417C75.0386 69.5187 77.736 69.4147 79.8272 67.8093Z" fill="white"/>
<path d="M74.3889 68.417C74.377 68.417 74.3653 68.4137 74.3552 68.4076C74.3451 68.4015 74.337 68.3927 74.3319 68.3823C74.3268 68.372 74.3249 68.3604 74.3264 68.3491C74.3279 68.3377 74.3328 68.327 74.3404 68.3182L80.3002 61.4352C80.3109 61.4228 80.3263 61.4151 80.3429 61.4136C80.3596 61.4121 80.3761 61.417 80.389 61.4272C80.4019 61.4375 80.41 61.4522 80.4115 61.4681C80.4131 61.4841 80.4079 61.4999 80.3973 61.5123L74.4375 68.3953C74.4315 68.4021 74.4241 68.4076 74.4157 68.4113C74.4073 68.4151 74.3982 68.417 74.3889 68.417Z" fill="white"/>
<path d="M83.627 84.517C83.6068 84.517 83.587 84.5124 83.5692 84.5036C83.5513 84.4947 83.5359 84.4819 83.5243 84.4662C83.5126 84.4505 83.5051 84.4324 83.5022 84.4133C83.4994 84.3943 83.5014 84.3748 83.508 84.3566L85.7468 78.1909C85.8127 78.0098 85.9251 77.8473 86.0735 77.7185C86.2219 77.5897 86.4017 77.4986 86.5965 77.4536C86.7912 77.4086 86.9946 77.4111 87.188 77.4609C87.3815 77.5107 87.5588 77.6061 87.7037 77.7385L88.8873 78.8213C88.9115 78.8434 88.9255 78.8738 88.9263 78.9058C88.9271 78.9378 88.9145 78.9688 88.8914 78.992C88.8683 79.0152 88.8366 79.0286 88.8031 79.0293C88.7697 79.0301 88.7374 79.018 88.7132 78.9959L87.5297 77.9131C87.4152 77.8085 87.2753 77.7332 87.1225 77.6939C86.9698 77.6546 86.8092 77.6526 86.6555 77.6881C86.5018 77.7237 86.3598 77.7956 86.2426 77.8973C86.1255 77.999 86.0368 78.1272 85.9847 78.2702L83.7462 84.436C83.7376 84.4597 83.7214 84.4803 83.7001 84.4948C83.6787 84.5093 83.6532 84.5171 83.627 84.517Z" fill="#494949"/>
<path d="M92.1939 82.235C93.7437 81.0601 93.6516 78.4762 91.9882 76.4636C90.3248 74.4511 87.72 73.7719 86.1702 74.9468C84.6204 76.1216 84.7125 78.7055 86.3759 80.7181C88.0393 82.7307 90.6441 83.4098 92.1939 82.235Z" fill="#0CBC8B"/>
<path d="M81.3106 85.5997C81.2823 85.5997 81.2548 85.5906 81.2326 85.5738C81.2104 85.557 81.1947 85.5335 81.1881 85.5071L77.4306 70.4634C77.4049 70.3608 77.3501 70.2671 77.2724 70.1924C77.1947 70.1177 77.097 70.065 76.99 70.0401C76.8831 70.0152 76.771 70.0189 76.6661 70.051C76.5613 70.0831 76.4677 70.1423 76.3956 70.222L75.2375 71.5037C75.2267 71.5159 75.2135 71.5259 75.1987 71.5331C75.1839 71.5404 75.1677 71.5447 75.1511 71.546C75.1345 71.5472 75.1178 71.5452 75.102 71.5402C75.0861 71.5352 75.0715 71.5273 75.0589 71.5169C75.0463 71.5064 75.036 71.4937 75.0286 71.4794C75.0212 71.4651 75.0168 71.4496 75.0157 71.4337C75.0145 71.4178 75.0167 71.4018 75.0221 71.3867C75.0275 71.3716 75.0359 71.3577 75.0469 71.3457L76.205 70.0641C76.3074 69.9508 76.4405 69.8667 76.5895 69.8211C76.7386 69.7755 76.898 69.7702 77.05 69.8057C77.2021 69.8412 77.3409 69.9162 77.4513 70.0225C77.5617 70.1287 77.6394 70.2621 77.6758 70.4078L81.4326 85.4515C81.4402 85.4825 81.4346 85.5152 81.4171 85.5423C81.3997 85.5695 81.3717 85.5889 81.3393 85.5963C81.3299 85.5985 81.3203 85.5997 81.3106 85.5997Z" fill="#494949"/>
<path d="M79.9246 74.8456C80.3813 72.3164 79.1726 70.0045 77.225 69.682C75.2774 69.3594 73.3283 71.1483 72.8716 73.6775C72.4149 76.2067 73.6235 78.5186 75.5712 78.8411C77.5188 79.1637 79.4679 77.3748 79.9246 74.8456Z" fill="#0CBC8B"/>
<path d="M82.3271 85.9929C82.322 85.9929 82.3168 85.9926 82.3116 85.992C82.2952 85.9901 82.2793 85.9851 82.2649 85.9773C82.2505 85.9695 82.2378 85.959 82.2276 85.9465C82.2174 85.934 82.2099 85.9197 82.2055 85.9044C82.2011 85.8891 82.1998 85.8732 82.2019 85.8574L84.6009 67.2035C84.627 67.0003 84.7139 66.8086 84.851 66.6516C84.9882 66.4945 85.1698 66.3787 85.374 66.3181C85.5782 66.2575 85.7963 66.2547 86.0022 66.31C86.208 66.3653 86.3928 66.4764 86.5343 66.6298L89.2764 69.6041C89.2985 69.6281 89.3098 69.6595 89.3077 69.6915C89.3056 69.7234 89.2904 69.7533 89.2653 69.7745C89.2402 69.7957 89.2074 69.8065 89.174 69.8045C89.1406 69.8025 89.1095 69.7879 89.0873 69.7638L86.3453 66.7896C86.2359 66.671 86.0931 66.5851 85.934 66.5424C85.775 66.4996 85.6064 66.5018 85.4485 66.5486C85.2907 66.5955 85.1503 66.6849 85.0443 66.8063C84.9383 66.9277 84.8712 67.0759 84.851 67.2329L82.4522 85.8869C82.4484 85.9161 82.4336 85.943 82.4106 85.9625C82.3876 85.9821 82.3579 85.9928 82.3271 85.9929Z" fill="#494949"/>
<path d="M92.089 71.2565C93.0457 69.6001 91.92 67.2502 89.5748 66.0078C87.2295 64.7654 84.5527 65.101 83.596 66.7574C82.6393 68.4138 83.765 70.7638 86.1102 72.0061C88.4555 73.2485 91.1323 72.9129 92.089 71.2565Z" fill="#0CBC8B"/>
<path opacity="0.2" d="M92.1939 82.235C93.7437 81.0601 93.6516 78.4762 91.9882 76.4636C90.3248 74.4511 87.72 73.7719 86.1702 74.9468C84.6204 76.1216 84.7125 78.7055 86.3759 80.7181C88.0393 82.7307 90.6441 83.4098 92.1939 82.235Z" fill="white"/>
<path opacity="0.5" d="M79.9246 74.8456C80.3813 72.3164 79.1726 70.0045 77.225 69.682C75.2774 69.3594 73.3283 71.1483 72.8716 73.6775C72.4149 76.2067 73.6235 78.5186 75.5712 78.8411C77.5188 79.1637 79.4679 77.3748 79.9246 74.8456Z" fill="white"/>
<path opacity="0.5" d="M92.089 71.2565C93.0457 69.6001 91.92 67.2502 89.5748 66.0078C87.2295 64.7654 84.5527 65.101 83.596 66.7574C82.6393 68.4138 83.765 70.7638 86.1102 72.0061C88.4555 73.2485 91.1323 72.9129 92.089 71.2565Z" fill="white"/>
<path d="M85.3953 101.821H79.2585L78.2415 83.0161H86.4122L85.3953 101.821Z" fill="#292A2E"/>
<path opacity="0.3" d="M85.3953 101.821H79.2585L78.2415 83.0161H86.4122L85.3953 101.821Z" fill="white"/>
<path d="M92.1939 82.2944C92.1844 82.2944 92.175 82.2924 92.1665 82.2884C92.1579 82.2844 92.1504 82.2786 92.1445 82.2715L86.1206 74.9833C86.1102 74.9708 86.1054 74.9548 86.1074 74.9389C86.1093 74.923 86.1177 74.9085 86.1308 74.8985C86.1439 74.8886 86.1606 74.8841 86.1772 74.8859C86.1938 74.8877 86.209 74.8958 86.2194 74.9084L92.2433 82.1966C92.2507 82.2054 92.2553 82.2162 92.2566 82.2274C92.2579 82.2387 92.2559 82.2501 92.2507 82.2603C92.2456 82.2706 92.2375 82.2792 92.2274 82.2852C92.2174 82.2913 92.2058 82.2944 92.1939 82.2944Z" fill="white"/>
<path d="M91.6882 71.8407C91.6748 71.8406 91.6617 71.8363 91.651 71.8286L83.9426 66.4382C83.9291 66.4288 83.9201 66.4146 83.9175 66.3988C83.9149 66.383 83.919 66.3668 83.9289 66.3539C83.9387 66.3409 83.9536 66.3323 83.9701 66.3298C83.9866 66.3274 84.0035 66.3313 84.017 66.3407L91.7254 71.7312C91.736 71.7388 91.7438 71.7494 91.7477 71.7615C91.7517 71.7736 91.7515 71.7866 91.7473 71.7986C91.7432 71.8106 91.7351 71.8211 91.7244 71.8285C91.7137 71.8359 91.7008 71.8399 91.6876 71.8399L91.6882 71.8407Z" fill="white"/>
<path d="M75.2575 78.7624C75.252 78.7624 75.2466 78.7617 75.2413 78.7602C75.2252 78.7561 75.2114 78.746 75.2031 78.7322C75.1947 78.7184 75.1924 78.7019 75.1967 78.6865L77.6505 69.8816C77.6552 69.8665 77.6658 69.8538 77.6801 69.8461C77.6944 69.8384 77.7113 69.8364 77.7271 69.8404C77.743 69.8444 77.7565 69.8543 77.765 69.8677C77.7734 69.8812 77.776 69.8973 77.7722 69.9126L75.3184 78.7175C75.3149 78.7304 75.307 78.7418 75.296 78.7499C75.2849 78.758 75.2714 78.7624 75.2575 78.7624Z" fill="white"/>
<path d="M88.3584 101.99H0.088217C0.0648204 101.99 0.042382 101.981 0.0258382 101.965C0.00929426 101.949 0 101.928 0 101.905C0 101.883 0.00929426 101.862 0.0258382 101.846C0.042382 101.83 0.0648204 101.821 0.088217 101.821H88.3581C88.3815 101.821 88.404 101.83 88.4205 101.846C88.437 101.862 88.4463 101.883 88.4463 101.905C88.4463 101.928 88.437 101.949 88.4205 101.965C88.404 101.981 88.3815 101.99 88.3581 101.99H88.3584Z" fill="#292A2E"/>
<g opacity="0.65">
<path d="M88.3584 101.99H0.088217C0.0648204 101.99 0.042382 101.981 0.0258382 101.965C0.00929426 101.949 0 101.928 0 101.905C0 101.883 0.00929426 101.862 0.0258382 101.846C0.042382 101.83 0.0648204 101.821 0.088217 101.821H88.3581C88.3815 101.821 88.404 101.83 88.4205 101.846C88.437 101.862 88.4463 101.883 88.4463 101.905C88.4463 101.928 88.437 101.949 88.4205 101.965C88.404 101.981 88.3815 101.99 88.3581 101.99H88.3584Z" fill="#292A2E"/>
</g>
</svg>
