<svg width="103" height="113" viewBox="0 0 103 113" fill="none" xmlns="http://www.w3.org/2000/svg">
<g clip-path="url(#clip0_325_3068)">
<path d="M31.841 78.7854L85.6479 78.7854C86.7966 78.7854 87.7278 77.7173 87.7278 76.3996L87.7278 3.7308C87.7278 2.41318 86.7966 1.34505 85.6479 1.34505L31.841 1.34505C30.6923 1.34505 29.7611 2.41318 29.7611 3.7308L29.7611 76.3996C29.7611 77.7173 30.6923 78.7854 31.841 78.7854Z" fill="white"/>
<path d="M29.6333 76.4V3.73082C29.634 3.05942 29.8668 2.41574 30.2807 1.941C30.6946 1.46626 31.2558 1.19922 31.8411 1.19849H85.648C86.2333 1.19922 86.7945 1.46626 87.2084 1.941C87.6223 2.41574 87.8551 3.05942 87.8558 3.73082V76.4C87.8551 77.0714 87.6223 77.7151 87.2084 78.1898C86.7945 78.6646 86.2334 78.9317 85.648 78.9324H31.8411C31.2558 78.9317 30.6946 78.6646 30.2807 78.1898C29.8668 77.7151 29.634 77.0714 29.6333 76.4ZM31.8411 1.49208C31.3236 1.49274 30.8275 1.72883 30.4615 2.14856C30.0956 2.56828 29.8897 3.13737 29.8891 3.73097V76.4C29.8897 76.9936 30.0956 77.5627 30.4615 77.9824C30.8275 78.4022 31.3236 78.6383 31.8411 78.639H85.648C86.1655 78.6383 86.6617 78.4022 87.0276 77.9824C87.3935 77.5627 87.5994 76.9936 87.6 76.4V3.73082C87.5994 3.13722 87.3935 2.56814 87.0276 2.14841C86.6617 1.72869 86.1655 1.4926 85.648 1.49194L31.8411 1.49208Z" fill="#292A2E"/>
<path d="M42.8511 112.941C42.8327 112.941 42.8146 112.936 42.7979 112.927C42.7812 112.919 42.7664 112.906 42.7544 112.89C42.7424 112.874 42.7335 112.855 42.7283 112.835C42.7231 112.815 42.7218 112.794 42.7245 112.773L47.0022 78.9111C47.0043 78.8918 47.0098 78.8732 47.0183 78.8563C47.0268 78.8394 47.0381 78.8247 47.0516 78.8129C47.0651 78.8011 47.0806 78.7925 47.097 78.7876C47.1135 78.7828 47.1306 78.7817 47.1474 78.7845C47.1642 78.7873 47.1804 78.7939 47.1949 78.8039C47.2095 78.8139 47.2221 78.8272 47.2322 78.8429C47.2422 78.8586 47.2494 78.8765 47.2534 78.8954C47.2574 78.9144 47.258 78.934 47.2553 78.9532L42.977 112.815C42.9726 112.85 42.9574 112.882 42.9343 112.905C42.9112 112.928 42.8817 112.941 42.8511 112.941Z" fill="#292A2E"/>
<path d="M74.6384 112.941C74.6077 112.941 74.578 112.928 74.5548 112.905C74.5316 112.882 74.5164 112.85 74.512 112.815L70.2342 78.9529C70.2299 78.9147 70.2389 78.8762 70.2592 78.8455C70.2795 78.8149 70.3095 78.7946 70.3427 78.7891C70.3759 78.7836 70.4097 78.7932 70.4367 78.816C70.4638 78.8388 70.4819 78.8728 70.4873 78.9108L74.7657 112.773C74.7683 112.794 74.767 112.815 74.7618 112.835C74.7566 112.856 74.7478 112.874 74.7357 112.89C74.7237 112.906 74.7089 112.919 74.6922 112.928C74.6755 112.936 74.6574 112.941 74.639 112.941L74.6384 112.941Z" fill="#292A2E"/>
<g opacity="0.1">
<path d="M35.6137 38.6716L81.8756 38.6716C82.6889 38.6716 83.3481 37.9154 83.3481 36.9825V8.63063C83.3481 7.69776 82.6889 6.94152 81.8756 6.94152L35.6137 6.94152C34.8004 6.94152 34.1411 7.69776 34.1411 8.63063V36.9825C34.1411 37.9154 34.8004 38.6716 35.6137 38.6716Z" fill="#21082D"/>
</g>
<g opacity="0.1">
<path d="M34.0891 71.4568V44.1453C34.0896 43.6766 34.2521 43.2273 34.541 42.896C34.8299 42.5646 35.2216 42.3782 35.6302 42.3777H81.7311C82.1396 42.3783 82.5313 42.5647 82.8201 42.8961C83.109 43.2274 83.2715 43.6767 83.2719 44.1453V71.4568C83.2715 71.9254 83.109 72.3748 82.8201 72.7062C82.5312 73.0376 82.1394 73.224 81.7309 73.2245H35.6302C35.2216 73.224 34.8299 73.0376 34.541 72.7062C34.2521 72.3748 34.0896 71.9254 34.0891 71.4568Z" fill="#21082D"/>
</g>
<path d="M77.3775 69.1934H78.2924C78.4301 69.1934 78.5417 69.0653 78.5417 68.9074V48.8587C78.5417 48.7007 78.4301 48.5727 78.2924 48.5727H77.3775C77.2398 48.5727 77.1282 48.7007 77.1282 48.8587V68.9074C77.1282 69.0653 77.2398 69.1934 77.3775 69.1934Z" fill="white"/>
<path opacity="0.3" d="M78.7913 69.1934H79.7063C79.844 69.1934 79.9556 69.0653 79.9556 68.9074V55.3351C79.9556 55.1772 79.844 55.0492 79.7063 55.0492H78.7913C78.6536 55.0492 78.542 55.1772 78.542 55.3351V68.9074C78.542 69.0653 78.6536 69.1934 78.7913 69.1934Z" fill="#21082D"/>
<path d="M66.065 69.1934H66.9799C67.1176 69.1934 67.2292 69.0653 67.2292 68.9074V66.8701C67.2292 66.7122 67.1176 66.5841 66.9799 66.5841H66.065C65.9273 66.5841 65.8157 66.7122 65.8157 66.8701V68.9074C65.8157 69.0653 65.9273 69.1934 66.065 69.1934Z" fill="white"/>
<path opacity="0.3" d="M67.4786 69.1934H68.3935C68.5312 69.1934 68.6428 69.0653 68.6428 68.9074V54.1707C68.6428 54.0128 68.5312 53.8848 68.3935 53.8848H67.4786C67.3409 53.8848 67.2292 54.0128 67.2292 54.1707V68.9074C67.2292 69.0653 67.3409 69.1934 67.4786 69.1934Z" fill="#21082D"/>
<path d="M71.7212 69.1934H72.6362C72.7739 69.1934 72.8855 69.0653 72.8855 68.9074V57.1365C72.8855 56.9786 72.7739 56.8505 72.6362 56.8505H71.7212C71.5835 56.8505 71.4719 56.9786 71.4719 57.1365V68.9074C71.4719 69.0653 71.5835 69.1934 71.7212 69.1934Z" fill="white"/>
<path opacity="0.3" d="M73.135 69.1934H74.05C74.1877 69.1934 74.2993 69.0653 74.2993 68.9074V61.4012C74.2993 61.2433 74.1877 61.1152 74.05 61.1152H73.135C72.9974 61.1152 72.8857 61.2433 72.8857 61.4012V68.9074C72.8857 69.0653 72.9974 69.1934 73.135 69.1934Z" fill="#21082D"/>
<path d="M49.0957 69.1934H50.0107C50.1484 69.1934 50.26 69.0653 50.26 68.9074V52.8467C50.26 52.6887 50.1484 52.5607 50.0107 52.5607H49.0957C48.9581 52.5607 48.8464 52.6887 48.8464 52.8467V68.9074C48.8464 69.0653 48.9581 69.1934 49.0957 69.1934Z" fill="white"/>
<path opacity="0.3" d="M50.5096 69.1936H51.4245C51.5622 69.1936 51.6738 69.0656 51.6738 68.9076V58.9705C51.6738 58.8126 51.5622 58.6845 51.4245 58.6845H50.5096C50.3719 58.6845 50.2603 58.8126 50.2603 58.9705V68.9076C50.2603 69.0656 50.3719 69.1936 50.5096 69.1936Z" fill="#21082D"/>
<path d="M60.4085 69.1934H61.3234C61.4611 69.1934 61.5728 69.0653 61.5728 68.9074V55.4412C61.5728 55.2833 61.4611 55.1553 61.3234 55.1553H60.4085C60.2708 55.1553 60.1592 55.2833 60.1592 55.4412V68.9074C60.1592 69.0653 60.2708 69.1934 60.4085 69.1934Z" fill="white"/>
<path opacity="0.3" d="M61.8221 69.1934H62.737C62.8747 69.1934 62.9863 69.0653 62.9863 68.9074V57.0306C62.9863 56.8726 62.8747 56.7446 62.737 56.7446H61.8221C61.6844 56.7446 61.5728 56.8726 61.5728 57.0306V68.9074C61.5728 69.0653 61.6844 69.1934 61.8221 69.1934Z" fill="#21082D"/>
<path d="M54.7522 69.1934H55.6672C55.8049 69.1934 55.9165 69.0653 55.9165 68.9074V48.8587C55.9165 48.7007 55.8049 48.5727 55.6672 48.5727H54.7522C54.6145 48.5727 54.5029 48.7007 54.5029 48.8587V68.9074C54.5029 69.0653 54.6145 69.1934 54.7522 69.1934Z" fill="white"/>
<path opacity="0.3" d="M56.1658 69.1934H57.0808C57.2185 69.1934 57.3301 69.0653 57.3301 68.9074V49.852C57.3301 49.6941 57.2185 49.566 57.0808 49.566H56.1658C56.0281 49.566 55.9165 49.6941 55.9165 49.852V68.9074C55.9165 69.0653 56.0281 69.1934 56.1658 69.1934Z" fill="#21082D"/>
<path d="M43.4395 69.1934H44.3545C44.4921 69.1934 44.6038 69.0653 44.6038 68.9074V48.8587C44.6038 48.7007 44.4921 48.5727 44.3545 48.5727H43.4395C43.3018 48.5727 43.1902 48.7007 43.1902 48.8587V68.9074C43.1902 69.0653 43.3018 69.1934 43.4395 69.1934Z" fill="white"/>
<path opacity="0.3" d="M44.8531 69.1934H45.768C45.9057 69.1934 46.0173 69.0653 46.0173 68.9074V55.3351C46.0173 55.1772 45.9057 55.0492 45.768 55.0492H44.8531C44.7154 55.0492 44.6038 55.1772 44.6038 55.3351V68.9074C44.6038 69.0653 44.7154 69.1934 44.8531 69.1934Z" fill="#21082D"/>
<path d="M37.7832 69.1934H38.6982C38.8359 69.1934 38.9475 69.0653 38.9475 68.9074V57.1365C38.9475 56.9786 38.8359 56.8505 38.6982 56.8505H37.7832C37.6455 56.8505 37.5339 56.9786 37.5339 57.1365V68.9074C37.5339 69.0653 37.6455 69.1934 37.7832 69.1934Z" fill="white"/>
<path opacity="0.3" d="M39.1968 69.1934H40.1118C40.2495 69.1934 40.3611 69.0653 40.3611 68.9074V61.4012C40.3611 61.2433 40.2495 61.1152 40.1118 61.1152H39.1968C39.0591 61.1152 38.9475 61.2433 38.9475 61.4012V68.9074C38.9475 69.0653 39.0591 69.1934 39.1968 69.1934Z" fill="#21082D"/>
<path opacity="0.2" d="M79.9682 17.1243V34.6767C79.9682 34.7514 79.9423 34.823 79.8963 34.8758C79.8503 34.9286 79.7879 34.9583 79.7228 34.9583H37.7663C37.7013 34.9583 37.6389 34.9286 37.5929 34.8758C37.5468 34.823 37.521 34.7514 37.521 34.6767V25.3585C37.521 25.3091 37.5323 25.2605 37.5538 25.2177C37.5754 25.1749 37.6064 25.1393 37.6437 25.1146L45.0721 20.1949C45.11 20.1699 45.153 20.1569 45.1967 20.1572C45.2404 20.1576 45.2833 20.1714 45.3208 20.1971L48.6648 22.4896C48.7067 22.5183 48.755 22.5321 48.8036 22.5291C48.8523 22.5262 48.8991 22.5067 48.9381 22.4731L52.4494 19.4497C52.4852 19.4188 52.5277 19.3998 52.5722 19.3946C52.6168 19.3894 52.6617 19.3983 52.7022 19.4204L57.0354 21.7844C57.0817 21.8097 57.1337 21.8177 57.1842 21.8073C57.2347 21.797 57.281 21.7687 57.3168 21.7266L62.1278 16.0605C62.1693 16.0115 62.225 15.9814 62.2844 15.976C62.3438 15.9706 62.4029 15.9902 62.4506 16.0312L65.5745 18.7143C65.6198 18.7532 65.6753 18.773 65.7318 18.7704C65.7883 18.7677 65.8423 18.7427 65.8846 18.6997L67.9285 16.6162C67.9697 16.5741 68.0221 16.5492 68.0772 16.5455C68.1323 16.5418 68.1869 16.5595 68.2321 16.5958L71.1329 18.9184C71.1746 18.9518 71.2243 18.9694 71.2751 18.969C71.326 18.9686 71.3755 18.9501 71.4167 18.9161L76.4325 14.7753C76.4711 14.7435 76.5169 14.7251 76.5644 14.7225C76.6119 14.7199 76.659 14.7331 76.7001 14.7607L79.8468 16.8807C79.8838 16.9056 79.9145 16.9411 79.9358 16.9839C79.9571 17.0266 79.9683 17.075 79.9682 17.1243Z" fill="#21082D"/>
<path opacity="0.61" d="M37.6622 25.1164C37.6837 25.1165 37.7049 25.11 37.7235 25.0975L45.1748 20.1625L48.7225 22.5945C48.7434 22.6088 48.7676 22.6157 48.7919 22.6142C48.8162 22.6128 48.8396 22.603 48.8591 22.5863L52.5614 19.3983L57.1204 21.8854C57.1436 21.898 57.1696 21.9019 57.1949 21.8966C57.2201 21.8913 57.2433 21.8772 57.2611 21.8561L62.2695 15.9568L65.6399 18.8517C65.6625 18.8712 65.6903 18.8811 65.7185 18.8797C65.7468 18.8784 65.7738 18.8659 65.7949 18.8444L68.061 16.5337L71.1842 19.0351C71.205 19.0518 71.2298 19.0606 71.2553 19.0604C71.2807 19.0602 71.3054 19.0509 71.326 19.0339L76.5481 14.7237L79.7651 16.8909C79.779 16.9002 79.7944 16.9064 79.8103 16.9089C79.8263 16.9115 79.8426 16.9104 79.8582 16.9058C79.8738 16.9012 79.8884 16.893 79.9013 16.8819C79.9141 16.8708 79.925 16.8568 79.9331 16.8409C79.9413 16.825 79.9467 16.8073 79.9489 16.789C79.9511 16.7707 79.9502 16.7521 79.9462 16.7342C79.9421 16.7163 79.935 16.6995 79.9253 16.6847C79.9156 16.67 79.9035 16.6576 79.8896 16.6482L76.6035 14.4344C76.583 14.4206 76.5594 14.4139 76.5356 14.4152C76.5118 14.4165 76.4889 14.4256 76.4696 14.4416L71.2532 18.7471L68.122 16.24C68.0994 16.2218 68.0722 16.2129 68.0446 16.2148C68.0171 16.2166 67.9909 16.2291 67.9703 16.2501L65.7063 18.5581L62.3293 15.6579C62.3055 15.6374 62.2759 15.6276 62.2462 15.6303C62.2165 15.633 62.1887 15.6481 62.1679 15.6726L57.1458 21.5883L52.5991 19.1077C52.5788 19.0967 52.5564 19.0922 52.5341 19.0948C52.5118 19.0974 52.4906 19.107 52.4727 19.1224L48.7767 22.3049L45.2381 19.8789C45.2194 19.8661 45.1979 19.8592 45.1761 19.8591C45.1542 19.8589 45.1327 19.8654 45.1138 19.8779L37.5999 24.8541C37.5765 24.8696 37.5582 24.8936 37.5479 24.9222C37.5376 24.9509 37.5358 24.9826 37.5428 25.0126C37.5498 25.0425 37.5652 25.0689 37.5867 25.0878C37.6081 25.1067 37.6344 25.1169 37.6614 25.1169L37.6622 25.1164Z" fill="#21082D"/>
<path d="M10.3816 106.416C10.3816 106.416 10.9591 109.85 13.7621 110.042C16.5651 110.233 15.9572 112.794 15.9572 112.794H5.24585V106.656L10.3816 106.416Z" fill="#21082D"/>
<path d="M4.51953 43.7746C4.51953 43.7746 5.32053 42.7422 5.31349 45.0838C5.28701 53.8183 4.77318 108.608 4.77318 108.608L11.8118 108.54L16.0755 43.4197L4.51953 43.7746Z" fill="#262626"/>
<path d="M22.4004 106.416C22.4004 106.416 22.9779 109.85 25.7809 110.042C28.5839 110.233 27.976 112.794 27.976 112.794H17.2646V106.656L22.4004 106.416Z" fill="#21082D"/>
<path d="M23.7618 44.4529C23.7618 44.4529 24.6411 74.305 24.5498 75.7641L23.7229 108.381L16.8008 108.528L15.6845 74.584C15.6845 74.584 14.9528 65.2205 12.9805 56.5259C11.9714 52.0635 11.3642 47.4942 11.1682 42.8896L23.7618 44.4529Z" fill="#262626"/>
<path d="M14.6299 65.6181L15.207 55.4927C15.207 55.4927 15.7999 59.7021 15.7999 63.3303C15.7999 65.1038 15.4815 72.1253 15.4815 72.1253L14.6299 65.6181Z" fill="#0A0A0A"/>
<path d="M4.44295 43.7736L4.41992 43.7751C4.41992 43.7751 4.43655 43.2659 4.44295 43.7736Z" fill="#333333"/>
<path d="M4.47175 43.7736L4.44873 43.7751C4.44873 43.7751 4.46536 43.2659 4.47175 43.7736Z" fill="#333333"/>
<path d="M43.0411 19.5439C42.9987 19.4476 42.9313 19.3688 42.8481 19.3183C42.765 19.2679 42.6702 19.2483 42.577 19.2622C42.5778 19.2558 42.5773 19.2492 42.5754 19.2431C42.5735 19.2369 42.5703 19.2314 42.5661 19.227C42.562 19.2225 42.5569 19.2194 42.5514 19.2177C42.5459 19.216 42.5402 19.2159 42.5346 19.2173L42.8493 18.9587C42.9435 18.8847 43.0113 18.7741 43.0399 18.6474C43.0685 18.5206 43.0562 18.3862 43.0051 18.2691C42.9515 18.1552 42.8629 18.0682 42.7565 18.0251C42.6502 17.982 42.5336 17.9857 42.4295 18.0356C42.4303 18.0306 42.4272 18.0256 42.4266 18.0209L42.5559 17.9146C42.6443 17.8445 42.709 17.7415 42.7389 17.623C42.7687 17.5045 42.762 17.3779 42.7199 17.2644C42.6921 17.1939 42.6511 17.1313 42.5997 17.0812C42.5484 17.0311 42.488 16.9947 42.4228 16.9746C42.3577 16.9545 42.2895 16.9512 42.2232 16.965C42.1568 16.9788 42.0939 17.0093 42.0391 17.0543L41.7407 17.2998C41.7398 17.2977 41.7407 17.2954 41.7395 17.2935C41.7384 17.2916 41.7351 17.2908 41.7334 17.2888C41.8019 17.2004 41.8422 17.0879 41.8477 16.9697C41.8531 16.8516 41.8234 16.7348 41.7633 16.6386C41.6226 16.3786 41.2973 16.4318 41.1043 16.5904L39.3478 17.9822L39.6617 17.3758C39.725 17.2591 39.7473 17.1193 39.7241 16.9845C39.7009 16.8497 39.6339 16.7301 39.5367 16.6498C39.4853 16.6103 39.4275 16.5833 39.3666 16.5703C39.3058 16.5573 39.2434 16.5587 39.183 16.5744C39.1227 16.59 39.0658 16.6196 39.0157 16.6614C38.9657 16.7031 38.9236 16.7561 38.892 16.8171L37.178 20.1276C36.9769 20.516 36.9157 20.979 37.0075 21.4183C37.0992 21.8575 37.3367 22.2385 37.6694 22.4801C38.0553 22.7604 38.5053 22.9021 38.9619 22.887C39.4184 22.872 39.8606 22.7009 40.2318 22.3957L42.8845 20.2148C42.9727 20.1396 43.0361 20.0324 43.0645 19.9106C43.0929 19.7888 43.0847 19.6596 43.0411 19.5439Z" fill="#E98862"/>
<g opacity="0.25">
<path d="M40.0025 18.6748C40.0089 18.685 40.0186 18.6918 40.0294 18.6939C40.0402 18.696 40.0513 18.6931 40.0603 18.686L41.7293 17.36C41.7338 17.3564 41.7377 17.3518 41.7407 17.3465C41.7437 17.3412 41.7457 17.3352 41.7467 17.329C41.7477 17.3228 41.7476 17.3164 41.7464 17.3102C41.7453 17.304 41.7431 17.2982 41.7399 17.293C41.7368 17.2878 41.7328 17.2833 41.7281 17.2799C41.7235 17.2765 41.7183 17.2741 41.7129 17.273C41.7075 17.2719 41.7019 17.272 41.6965 17.2733C41.6911 17.2746 41.686 17.2772 41.6815 17.2808L40.0124 18.6067C40.0033 18.614 39.9971 18.6252 39.9951 18.6378C39.9931 18.6503 39.9955 18.6633 40.0018 18.6738L40.0025 18.6748Z" fill="#0C0C0C"/>
</g>
<g opacity="0.25">
<path d="M40.4922 19.5352C40.4986 19.5455 40.5083 19.5524 40.5191 19.5545C40.5299 19.5566 40.541 19.5537 40.55 19.5465L42.4127 18.0667C42.4218 18.0594 42.4281 18.0482 42.43 18.0356C42.432 18.0231 42.4295 18.0101 42.4232 17.9996C42.4166 17.9895 42.4069 17.9826 42.3961 17.9803C42.3852 17.978 42.374 17.9806 42.3647 17.9874L40.5022 19.4673C40.4931 19.4746 40.4868 19.4858 40.4848 19.4983C40.4828 19.5109 40.4853 19.5239 40.4916 19.5344L40.4922 19.5352Z" fill="#0C0C0C"/>
</g>
<g opacity="0.25">
<path d="M41.0176 20.4709C41.0241 20.4811 41.0338 20.4879 41.0446 20.49C41.0554 20.4921 41.0665 20.4893 41.0756 20.4821L42.5613 19.3017C42.5704 19.2944 42.5767 19.2832 42.5787 19.2707C42.5807 19.2581 42.5782 19.2451 42.5719 19.2346C42.5655 19.2241 42.5558 19.2169 42.5449 19.2146C42.5339 19.2124 42.5226 19.2152 42.5134 19.2224L41.0276 20.4028C41.0184 20.4101 41.0122 20.4213 41.0102 20.4339C41.0082 20.4464 41.0106 20.4594 41.017 20.4699L41.0176 20.4709Z" fill="#0C0C0C"/>
</g>
<path d="M36.1667 19.373L31.1321 29.2083L24.989 19.9658L19.8875 25.2416L28.5998 38.1844L28.6568 38.2766C29.0056 38.8244 29.4702 39.2614 30.0069 39.5463C30.5435 39.8313 31.1346 39.9548 31.7244 39.9053C32.3142 39.8558 32.8833 39.6349 33.3781 39.2633C33.8729 38.8918 34.2771 38.3819 34.5526 37.7817L41.7117 22.9103L36.1667 19.373Z" fill="#21082D"/>
<path d="M30.6388 30.3911C30.6286 30.391 30.6186 30.3883 30.6096 30.383C30.6021 30.3786 30.5955 30.3726 30.59 30.3653C30.5845 30.3579 30.5804 30.3494 30.5778 30.3403C30.5752 30.3311 30.5742 30.3214 30.5749 30.3118C30.5756 30.3022 30.5779 30.2929 30.5817 30.2843L31.0753 29.175C31.0792 29.1664 31.0844 29.1588 31.0908 29.1526C31.0972 29.1463 31.1046 29.1416 31.1126 29.1386C31.1206 29.1356 31.129 29.1345 31.1374 29.1352C31.1458 29.136 31.1539 29.1387 31.1614 29.143C31.1689 29.1474 31.1756 29.1535 31.181 29.1608C31.1865 29.1681 31.1906 29.1766 31.1932 29.1858C31.1958 29.195 31.1968 29.2046 31.1961 29.2142C31.1954 29.2238 31.1931 29.2332 31.1893 29.2418L30.6957 30.351C30.6903 30.3631 30.6822 30.3732 30.6721 30.3803C30.6621 30.3873 30.6506 30.3911 30.6388 30.3911Z" fill="#0C0C0C"/>
<path d="M24.6346 29.1526L24.481 32.259L24.6087 32.2673L24.7624 29.1609L24.6346 29.1526Z" fill="#0C0C0C"/>
<path d="M8.41241 6.67073C8.41241 6.67073 8.17654 10.1285 7.48517 11.3749C5.49483 14.9634 4.88762 19.0218 6.82296 21.172C8.75829 23.3223 21.2388 23.5174 22.233 18.6441C23.0704 14.5412 21.3668 14.0763 20.9853 10.6769C20.8128 9.13909 20.328 5.9126 20.328 5.9126" fill="#0A0A0A"/>
<path d="M19.0559 17.8649C19.0344 17.8617 18.7954 22.4123 14.1868 22.0155C10.9963 21.7413 9.85881 17.8585 9.78564 17.8585C10.1296 17.7747 10.7089 17.6531 10.8617 17.5592C11.364 17.2496 11.9856 16.9274 12.1476 15.8083C12.2409 15.1627 12.0826 11.8634 12.1313 11.2109L17.0286 12.4647C16.9602 13.843 16.4813 17.0383 18.1599 17.6038C18.4393 17.6972 18.7401 17.7834 19.0559 17.8649Z" fill="#E98862"/>
<path opacity="0.52" d="M17.0973 16.2979C17.0206 16.0143 16.9712 15.7219 16.9499 15.426C16.896 14.7507 16.9068 14.0707 16.9819 13.3981C15.9865 13.2441 15.0488 12.7728 14.2752 12.0378C14.1843 12.4231 13.6841 14.1067 13.8227 14.4726C14.0844 15.1646 15.3144 16.2979 17.0973 16.2979Z" fill="#0C0C0C"/>
<path d="M16.4481 14.8656C14.5153 15.0543 12.0261 14.1352 11.5385 11.1791L11.0984 8.51181C10.6106 5.55574 11.5688 2.86553 13.9954 2.33878C16.4218 1.81204 18.6308 3.81469 19.1186 6.77077L19.3134 7.95162C19.5005 9.08595 19.8968 14.529 16.4481 14.8656Z" fill="#E98862"/>
<path d="M18.6218 8.08039C18.7898 8.08039 18.926 7.92418 18.926 7.73148C18.926 7.53878 18.7898 7.38257 18.6218 7.38257C18.4538 7.38257 18.3176 7.53878 18.3176 7.73148C18.3176 7.92418 18.4538 8.08039 18.6218 8.08039Z" fill="#0C0C0C"/>
<path d="M15.5056 8.55793C15.6736 8.55793 15.8098 8.40172 15.8098 8.20902C15.8098 8.01632 15.6736 7.86011 15.5056 7.86011C15.3376 7.86011 15.2014 8.01632 15.2014 8.20902C15.2014 8.40172 15.3376 8.55793 15.5056 8.55793Z" fill="#0C0C0C"/>
<path d="M17.2156 10.7668H17.2203C17.3186 10.7447 17.4158 10.7162 17.5114 10.6817C17.654 10.6291 17.841 10.5421 17.8166 10.3942C17.7888 10.2257 17.0868 8.49583 17.0067 8.29907C16.9997 8.28189 16.9871 8.2686 16.9716 8.26212C16.956 8.25564 16.9389 8.2565 16.9239 8.26452C16.9089 8.27253 16.8973 8.28705 16.8917 8.30486C16.886 8.32268 16.8868 8.34234 16.8938 8.35952C17.1932 9.09623 17.6755 10.3074 17.694 10.4209C17.678 10.4734 17.4411 10.5733 17.1972 10.6263C17.1812 10.6295 17.1669 10.6398 17.1574 10.6549C17.1479 10.67 17.1439 10.6888 17.1463 10.7072C17.1487 10.7257 17.1573 10.7423 17.1703 10.7536C17.1832 10.7649 17.1995 10.7699 17.2156 10.7676V10.7668Z" fill="#0C0C0C"/>
<path d="M16.8564 12.0432C17.2522 11.9842 17.6304 11.8194 17.9605 11.5621C17.9743 11.5518 17.984 11.5355 17.9875 11.517C17.9909 11.4984 17.9878 11.4791 17.9788 11.4632C17.9698 11.4473 17.9556 11.4362 17.9394 11.4322C17.9233 11.4283 17.9064 11.4319 17.8925 11.4422C17.1782 11.9761 16.4684 12.0624 15.8399 11.6916C15.8272 11.6838 15.8141 11.6767 15.8008 11.6704C15.7853 11.6641 15.7682 11.6651 15.7534 11.6732C15.7385 11.6813 15.7271 11.6957 15.7215 11.7135C15.7159 11.7312 15.7166 11.7508 15.7236 11.7679C15.7305 11.785 15.743 11.7982 15.7584 11.8048C15.7634 11.8071 15.7712 11.8121 15.783 11.8194C16.1134 12.0149 16.4872 12.0928 16.8564 12.0432Z" fill="#0C0C0C"/>
<path d="M9.15734 9.44152L11.3319 8.98404C12.9791 8.21945 13.4774 4.94821 13.4774 4.94821C13.4774 4.94821 15.479 7.18533 20.328 5.91322C20.328 5.91322 19.3559 -1.84371 12.192 0.411015C9.88197 1.13833 8.22408 3.80844 8.4313 7.37695C8.57533 9.87818 9.15734 9.44152 9.15734 9.44152Z" fill="#0A0A0A"/>
<path d="M11.8377 12.0472C11.1004 12.2072 10.3533 11.4321 10.2132 10.5862C10.0732 9.74035 10.5945 9.14421 11.332 8.98413L11.8052 9.46832L12.4717 11.9095L11.8377 12.0472Z" fill="#E98862"/>
<path d="M17.4512 6.88479C17.6663 6.72555 17.9147 6.63555 18.1705 6.62421C18.2965 6.61784 18.4226 6.63312 18.5446 6.66955C18.6654 6.70517 18.7818 6.75806 18.8911 6.82698C18.9065 6.83568 18.9183 6.85102 18.9239 6.86964C18.9295 6.88826 18.9284 6.90867 18.921 6.92642C18.9135 6.94416 18.9003 6.95781 18.8841 6.96439C18.8679 6.97096 18.8501 6.96994 18.8345 6.96153L18.8299 6.95904C18.7289 6.90213 18.6221 6.85998 18.5119 6.83359C18.403 6.80685 18.2912 6.79918 18.1803 6.81084C17.9603 6.83195 17.749 6.91948 17.5681 7.06453L17.5622 7.06937C17.5518 7.07804 17.54 7.08428 17.5275 7.08773C17.515 7.09117 17.502 7.09176 17.4893 7.08946C17.4766 7.08716 17.4645 7.08201 17.4535 7.07431C17.4425 7.06661 17.433 7.0565 17.4254 7.04458C17.4179 7.03265 17.4125 7.01913 17.4094 7.0048C17.4064 6.99046 17.4059 6.97558 17.4079 6.96102C17.4099 6.94645 17.4144 6.93248 17.4211 6.91991C17.4279 6.90733 17.4367 6.8964 17.4471 6.88773L17.4512 6.88479Z" fill="#0C0C0C"/>
<path d="M15.5112 7.40839C15.2968 7.34829 15.0723 7.35422 14.8605 7.42555C14.7534 7.46073 14.6516 7.51425 14.5584 7.58431C14.464 7.65474 14.3776 7.73855 14.3014 7.83374L14.298 7.83771C14.2861 7.85143 14.2699 7.85929 14.2531 7.85964C14.2362 7.85999 14.2198 7.8528 14.2075 7.83958C14.1951 7.82637 14.1877 7.80816 14.1869 7.78881C14.186 7.76946 14.1917 7.75048 14.2028 7.73588C14.283 7.62628 14.3749 7.52872 14.4764 7.44551C14.5786 7.36082 14.6913 7.29429 14.8108 7.24816C15.0529 7.15268 15.313 7.13363 15.5638 7.19299C15.5893 7.19926 15.6115 7.21686 15.6256 7.24193C15.6397 7.267 15.6446 7.29748 15.6392 7.32666C15.6337 7.35585 15.6183 7.38135 15.5965 7.39756C15.5746 7.41376 15.5481 7.41935 15.5226 7.41308L15.5187 7.41206L15.5112 7.40839Z" fill="#0C0C0C"/>
<path d="M16.9405 12.7145C17.0121 12.7051 17.083 12.6887 17.1523 12.6656C17.1603 12.6631 17.1677 12.6589 17.1742 12.653C17.1808 12.6472 17.1862 12.64 17.1903 12.6317C17.1943 12.6235 17.1969 12.6144 17.1979 12.605C17.1988 12.5955 17.1981 12.586 17.1959 12.5769C17.1936 12.5678 17.1897 12.5593 17.1846 12.5519C17.1794 12.5445 17.173 12.5384 17.1657 12.5339C17.1585 12.5293 17.1505 12.5265 17.1423 12.5256C17.1341 12.5246 17.1258 12.5255 17.1179 12.5283C16.7007 12.6659 16.4636 12.4835 16.4537 12.4756C16.4402 12.4647 16.4234 12.4604 16.4071 12.4637C16.3908 12.467 16.3763 12.4776 16.3668 12.4932C16.3573 12.5088 16.3535 12.528 16.3564 12.5467C16.3593 12.5654 16.3685 12.5821 16.3821 12.593C16.5504 12.7062 16.7477 12.7491 16.9405 12.7145Z" fill="#0C0C0C"/>
<path d="M11.337 8.95242L11.3154 8.88331C14.0713 7.74839 13.3974 4.64618 13.3903 4.61492L13.4521 4.59644C13.4594 4.62813 14.1487 7.79446 11.337 8.95242Z" fill="#0C0C0C"/>
<path opacity="0.1" d="M15.2601 10.9846C15.5783 10.9454 15.8158 10.6965 15.7907 10.4287C15.7656 10.161 15.4873 9.97581 15.1691 10.0151C14.851 10.0543 14.6134 10.3032 14.6385 10.571C14.6636 10.8387 14.9419 11.0239 15.2601 10.9846Z" fill="#0C0C0C"/>
<path opacity="0.1" d="M18.628 9.96049C18.6536 10.2278 18.9319 10.4127 19.2502 10.374C19.3052 10.3671 19.3594 10.3538 19.412 10.3342C19.4299 10.0161 19.4339 9.70988 19.4286 9.42626C19.3406 9.39986 19.2492 9.3925 19.1588 9.40454C18.8406 9.44328 18.6032 9.69213 18.628 9.96049Z" fill="#0C0C0C"/>
<path d="M24.7816 27.8828C24.6364 29.8389 23.9303 42.0431 23.7908 44.4527H5.32359C5.21486 42.2795 3.95951 32.7768 3.5475 28.5272C3.15417 24.472 2.38247 22.4418 2.9481 21.2429C3.87241 19.2835 6.39819 18.1514 8.12042 17.8839C9.17213 17.7206 10.7538 17.6035 10.7538 17.6035C10.7538 17.6035 10.8877 20.7112 14.0812 20.8842C18.4284 21.1189 18.1381 17.6035 18.1596 17.6035C18.8639 17.6035 22.887 18.1149 23.8713 18.7841C26.5534 20.606 25.0897 23.7374 24.7816 27.8828Z" fill="#21082D"/>
<path d="M36.7688 29.2494L34.9887 39.1739C34.9526 39.3754 34.8572 39.5566 34.7187 39.6873C34.5802 39.8179 34.4067 39.8902 34.2274 39.892L21.9699 40.0117C21.853 40.0128 21.7373 39.9839 21.6314 39.9272C21.5255 39.8704 21.4319 39.7871 21.3577 39.6835C21.2834 39.5799 21.2303 39.4586 21.2022 39.3284C21.1741 39.1982 21.1717 39.0624 21.1953 38.931L22.9753 29.0065C23.0115 28.805 23.1068 28.6239 23.2454 28.4932C23.3839 28.3625 23.5573 28.2903 23.7367 28.2885L35.9941 28.1687C36.1111 28.1676 36.2267 28.1965 36.3327 28.2533C36.4386 28.31 36.5321 28.3933 36.6064 28.4969C36.6807 28.6005 36.7338 28.7218 36.7619 28.852C36.79 28.9822 36.7923 29.118 36.7688 29.2494Z" fill="#292A2E"/>
<path d="M25.339 36.2987C25.3456 36.4294 25.3107 36.5584 25.2409 36.662C25.1711 36.7655 25.071 36.8367 24.9591 36.8623L24.5817 36.9576C24.5885 36.9602 24.5946 36.9646 24.5995 36.9705C24.6044 36.9764 24.608 36.9836 24.6099 36.9914C24.6108 37.0006 24.609 37.0099 24.6048 37.0178C24.6955 37.047 24.776 37.108 24.8352 37.1921C24.8943 37.2762 24.9291 37.3794 24.9348 37.4873C24.9353 37.6131 24.8989 37.7354 24.8313 37.8344C24.7638 37.9334 24.6691 38.0035 24.5626 38.0331L21.3762 38.8445C21.2133 38.8865 21.0469 38.9077 20.8799 38.9076C20.508 38.9075 20.1417 38.8037 19.8126 38.6051C19.4835 38.4065 19.2014 38.1191 18.9906 37.7676C18.7672 37.3957 18.679 36.9385 18.745 36.4932C18.8109 36.0479 19.0257 35.6497 19.3437 35.3833L22.0542 33.1105C22.1138 33.0604 22.1832 33.0277 22.2563 33.0151L22.0068 34.4046L22.0734 34.387L22.0874 34.3841L24.166 33.8984C24.3976 33.8397 24.7148 33.9366 24.7557 34.2388C24.7776 34.3545 24.7648 34.4754 24.7193 34.5817C24.6738 34.6879 24.5983 34.7735 24.505 34.8243C24.5063 34.8257 24.5088 34.8272 24.5088 34.8301C24.5088 34.8331 24.5076 34.8345 24.5076 34.8375L24.867 34.7465C24.9328 34.7298 25.0009 34.73 25.0666 34.7471C25.1323 34.7643 25.1938 34.7979 25.2468 34.8456C25.2998 34.8933 25.3429 34.9539 25.373 35.0231C25.4031 35.0922 25.4194 35.1681 25.4209 35.2454C25.4208 35.3687 25.3836 35.4882 25.3156 35.5837C25.2475 35.6792 25.1527 35.7447 25.0474 35.7692L24.8926 35.8088C24.8913 35.8147 24.8926 35.8205 24.89 35.8249C25.0028 35.8259 25.1112 35.8749 25.1942 35.9625C25.2772 36.0501 25.3288 36.1699 25.339 36.2987Z" fill="#E98862"/>
<g opacity="0.25">
<path d="M22.4384 35.3191C22.4408 35.3313 22.4474 35.342 22.4566 35.3488C22.4658 35.3555 22.477 35.3579 22.4877 35.3554L24.4765 34.8877C24.4821 34.8867 24.4875 34.8843 24.4923 34.8809C24.4971 34.8774 24.5013 34.8728 24.5045 34.8675C24.5077 34.8621 24.51 34.8561 24.5111 34.8497C24.5122 34.8433 24.5122 34.8367 24.5111 34.8303C24.51 34.8239 24.5077 34.8179 24.5045 34.8125C24.5012 34.8072 24.4971 34.8026 24.4923 34.7992C24.4875 34.7957 24.4821 34.7934 24.4765 34.7924C24.4709 34.7913 24.4652 34.7916 24.4597 34.7932L22.4709 35.2611C22.4599 35.2637 22.4504 35.2711 22.4442 35.2818C22.4381 35.2925 22.4359 35.3055 22.4381 35.318L22.4384 35.3191Z" fill="#0C0C0C"/>
</g>
<g opacity="0.25">
<path d="M22.5939 36.3308C22.5963 36.3431 22.6029 36.3538 22.6121 36.3606C22.6213 36.3674 22.6325 36.3698 22.6433 36.3672L24.8628 35.8452C24.8737 35.8426 24.8833 35.8351 24.8894 35.8245C24.8955 35.8138 24.8978 35.8008 24.8956 35.7883C24.893 35.776 24.8864 35.7652 24.8772 35.7583C24.868 35.7513 24.8568 35.7486 24.8459 35.7507L22.6264 36.2729C22.6154 36.2755 22.6059 36.2829 22.5997 36.2936C22.5936 36.3043 22.5914 36.3173 22.5936 36.3298L22.5939 36.3308Z" fill="#0C0C0C"/>
</g>
<g opacity="0.25">
<path d="M22.757 37.4279C22.7594 37.4401 22.766 37.4508 22.7752 37.4576C22.7844 37.4643 22.7956 37.4667 22.8063 37.4642L24.5768 37.0478C24.5824 37.0468 24.5878 37.0445 24.5926 37.041C24.5974 37.0375 24.6015 37.033 24.6047 37.0276C24.608 37.0223 24.6102 37.0162 24.6114 37.0098C24.6125 37.0034 24.6125 36.9969 24.6114 36.9905C24.6102 36.9841 24.608 36.9781 24.6047 36.9727C24.6015 36.9673 24.5973 36.9628 24.5925 36.9593C24.5877 36.9559 24.5824 36.9535 24.5768 36.9525C24.5711 36.9515 24.5654 36.9518 24.5599 36.9533L22.7895 37.3699C22.7841 37.3712 22.7789 37.3736 22.7744 37.3772C22.7698 37.3807 22.7659 37.3852 22.7628 37.3905C22.7598 37.3958 22.7577 37.4017 22.7566 37.4079C22.7556 37.4141 22.7556 37.4205 22.7567 37.4267L22.757 37.4279Z" fill="#0C0C0C"/>
</g>
<path d="M21.1788 40.2909L3.89187 43.874C3.35243 43.9414 2.80671 43.8645 2.29755 43.6493C1.78839 43.4341 1.32963 43.0864 0.957275 42.6337C0.58492 42.1809 0.3091 41.6353 0.151459 41.0397C-0.0061824 40.4442 -0.0413552 39.8148 0.0487004 39.201L2.4687 22.7007C2.62323 21.6471 3.13631 20.707 3.89506 20.0874C4.65382 19.4677 5.5961 19.2192 6.51461 19.3964C7.43313 19.5737 8.25264 20.1622 8.79286 21.0325C9.33308 21.9029 9.54976 22.9837 9.39523 24.0373L7.74514 35.3961L20.4187 33.5708L21.1788 40.2909Z" fill="#21082D"/>
<path d="M3.8917 43.9475C3.87574 43.9475 3.86037 43.9406 3.84861 43.9282C3.83684 43.9159 3.82954 43.8989 3.82813 43.8807C3.82672 43.8624 3.83131 43.8442 3.84099 43.8297C3.85066 43.8151 3.86474 43.8052 3.88044 43.802L21.1075 40.231L20.3638 33.6524L7.75291 35.469C7.74302 35.4705 7.73296 35.4694 7.72355 35.4656C7.71415 35.4618 7.70566 35.4554 7.6988 35.4471C7.69188 35.4389 7.68674 35.4289 7.68378 35.418C7.68083 35.4071 7.68014 35.3955 7.68179 35.3842L8.73068 28.1247C8.73204 28.1152 8.73503 28.106 8.73947 28.0979C8.7439 28.0897 8.7497 28.0826 8.75653 28.077C8.76336 28.0713 8.77109 28.0673 8.77927 28.0651C8.78746 28.063 8.79594 28.0626 8.80423 28.0642C8.81253 28.0658 8.82048 28.0692 8.82763 28.0743C8.83478 28.0794 8.84097 28.0861 8.84587 28.0939C8.85077 28.1018 8.85426 28.1107 8.85616 28.1201C8.85806 28.1295 8.85832 28.1392 8.85693 28.1487L7.82198 35.3111L20.4107 33.4976C20.4275 33.4952 20.4444 33.5005 20.4578 33.5123C20.4712 33.5242 20.4799 33.5416 20.4821 33.5608L21.2422 40.2809C21.2443 40.2996 21.2401 40.3185 21.2304 40.3337C21.2207 40.3489 21.2063 40.3593 21.1901 40.3626L3.90321 43.9465C3.8994 43.9471 3.89555 43.9475 3.8917 43.9475Z" fill="#0C0C0C"/>
<path d="M7.73504 35.3239L6.62305 35.5281L6.64329 35.6731L7.75528 35.4689L7.73504 35.3239Z" fill="#0C0C0C"/>
<path d="M98.4667 113H1.19867C1.17492 113 1.15215 112.989 1.13536 112.97C1.11856 112.951 1.10913 112.925 1.10913 112.897C1.10913 112.87 1.11856 112.844 1.13536 112.825C1.15215 112.806 1.17492 112.795 1.19867 112.795H98.4667C98.4785 112.795 98.4901 112.797 98.501 112.802C98.5119 112.808 98.5217 112.815 98.53 112.825C98.5384 112.834 98.545 112.846 98.5495 112.858C98.554 112.871 98.5563 112.884 98.5563 112.897C98.5563 112.911 98.554 112.924 98.5495 112.937C98.545 112.949 98.5384 112.96 98.53 112.97C98.5217 112.98 98.5119 112.987 98.501 112.992C98.4901 112.997 98.4785 113 98.4667 113Z" fill="#292A2E"/>
<path d="M93.8458 97.1828C93.832 97.1828 93.8183 97.1797 93.8055 97.1736C93.7928 97.1676 93.7812 97.1587 93.7715 97.1474C93.6233 96.9775 93.3818 93.8598 92.7314 84.5769C92.4652 80.7785 92.2137 77.1909 92.0303 75.0104C92.0175 74.8546 91.9647 74.8365 91.9473 74.8305C91.6962 74.7436 90.9324 75.4344 90.5061 76.0394C90.4885 76.0643 90.4631 76.0801 90.4354 76.0835C90.4076 76.0869 90.3798 76.0775 90.3581 76.0573C90.3364 76.0372 90.3226 76.008 90.3197 75.9762C90.3167 75.9444 90.3249 75.9125 90.3425 75.8877C90.6239 75.4877 91.5435 74.4392 92.0078 74.5996C92.0776 74.627 92.1379 74.6795 92.1797 74.7493C92.2215 74.8192 92.2425 74.9026 92.2397 74.9872C92.4233 77.1695 92.6746 80.7581 92.941 84.5574C93.3363 90.1985 93.784 96.5889 93.9312 96.9916C93.9424 97.0097 93.9491 97.0309 93.9504 97.0529C93.9518 97.075 93.9479 97.0971 93.9391 97.1168C93.9303 97.1365 93.9169 97.153 93.9004 97.1646C93.884 97.1761 93.8651 97.1823 93.8458 97.1824V97.1828Z" fill="#494949"/>
<path d="M91.7602 79.0113C93.505 77.407 94.0833 74.9099 93.0519 73.4339C92.0204 71.9579 89.7698 72.0619 88.025 73.6662C86.2802 75.2705 85.7019 77.7676 86.7333 79.2436C87.7648 80.7196 90.0154 80.6156 91.7602 79.0113Z" fill="#0CBC8B"/>
<path opacity="0.2" d="M91.7602 79.0113C93.505 77.407 94.0833 74.9099 93.0519 73.4339C92.0204 71.9579 89.7698 72.0619 88.025 73.6662C86.2802 75.2705 85.7019 77.7676 86.7333 79.2436C87.7648 80.7196 90.0154 80.6156 91.7602 79.0113Z" fill="white"/>
<path d="M87.2226 79.619C87.2126 79.6191 87.2028 79.6158 87.1943 79.6097C87.1859 79.6036 87.1791 79.5948 87.1749 79.5844C87.1706 79.5741 87.1691 79.5625 87.1704 79.5511C87.1716 79.5398 87.1757 79.5291 87.1821 79.5203L92.1548 72.6419C92.1637 72.6296 92.1765 72.6219 92.1904 72.6204C92.2043 72.6189 92.2181 72.6238 92.2288 72.634C92.2396 72.6442 92.2463 72.6589 92.2476 72.6748C92.2489 72.6908 92.2447 72.7066 92.2358 72.719L87.2628 79.5973C87.2579 79.6041 87.2518 79.6096 87.2448 79.6133C87.2378 79.6171 87.2303 79.619 87.2226 79.619Z" fill="white"/>
<path d="M94.9303 95.7082C94.9186 95.7083 94.9069 95.706 94.8958 95.7015C94.8828 95.6963 94.8707 95.6882 94.8604 95.6777C94.8501 95.6672 94.8417 95.6544 94.8357 95.6402C94.8296 95.6259 94.8261 95.6104 94.8254 95.5946C94.8246 95.5788 94.8265 95.563 94.8311 95.548L96.6986 89.3863C96.7536 89.2052 96.8472 89.0428 96.9711 88.914C97.0949 88.7852 97.245 88.6942 97.4075 88.6492C97.57 88.6042 97.7397 88.6067 97.9012 88.6565C98.0626 88.7063 98.2105 88.8018 98.3314 88.9342L99.3189 90.0163C99.3391 90.0384 99.3508 90.0688 99.3514 90.1008C99.3521 90.1328 99.3416 90.1638 99.3223 90.1869C99.3031 90.21 99.2766 90.2234 99.2487 90.2242C99.2208 90.2249 99.1938 90.2129 99.1736 90.1908L98.1861 89.1087C98.0907 89.0041 97.9739 88.9287 97.8465 88.8894C97.719 88.8501 97.585 88.8481 97.4568 88.8836C97.3285 88.9191 97.21 88.991 97.1122 89.0927C97.0145 89.1944 96.9405 89.3225 96.8972 89.4655L95.0296 95.628C95.0223 95.6515 95.0089 95.6718 94.9911 95.6862C94.9733 95.7006 94.9521 95.7083 94.9303 95.7082Z" fill="#494949"/>
<path d="M102.078 93.4281C103.372 92.254 103.295 89.6718 101.907 87.6606C100.519 85.6494 98.3456 84.9707 97.0525 86.1447C95.7594 87.3188 95.8363 89.9009 97.2241 91.9122C98.612 93.9234 100.785 94.6021 102.078 93.4281Z" fill="#0CBC8B"/>
<path d="M92.9973 96.7898C92.9736 96.7898 92.9507 96.7807 92.9321 96.7639C92.9135 96.7471 92.9004 96.7236 92.8949 96.6972L89.761 81.6636C89.7397 81.5611 89.6941 81.4673 89.6293 81.3926C89.5645 81.3179 89.4829 81.2651 89.3937 81.2401C89.3044 81.2151 89.2108 81.2189 89.1233 81.2509C89.0358 81.283 88.9576 81.3421 88.8975 81.4218L87.9312 82.7027C87.913 82.7269 87.8871 82.7418 87.8593 82.7441C87.8315 82.7464 87.804 82.7359 87.7829 82.715C87.7618 82.694 87.7489 82.6644 87.7469 82.6324C87.7449 82.6005 87.754 82.569 87.7722 82.5448L88.7385 81.2641C88.8239 81.1508 88.935 81.0668 89.0593 81.0212C89.1837 80.9757 89.3167 80.9704 89.4435 81.0059C89.5703 81.0414 89.6862 81.1163 89.7783 81.2225C89.8704 81.3287 89.9352 81.4619 89.9656 81.6076L93.0995 96.6412C93.1027 96.6566 93.1032 96.6726 93.1011 96.6882C93.0989 96.7039 93.0941 96.7189 93.0869 96.7324C93.0796 96.7459 93.0702 96.7577 93.059 96.767C93.0478 96.7763 93.0351 96.7829 93.0217 96.7866C93.0137 96.7887 93.0055 96.7898 92.9973 96.7898Z" fill="#494949"/>
<path d="M91.8412 86.0429C92.2223 83.5154 91.2139 81.2051 89.5888 80.8827C87.9638 80.5604 86.3376 82.3481 85.9565 84.8756C85.5755 87.4032 86.5839 89.7135 88.209 90.0358C89.834 90.3581 91.4602 88.5705 91.8412 86.0429Z" fill="#0CBC8B"/>
<path d="M93.8459 97.1829C93.8416 97.1829 93.8373 97.1826 93.8331 97.182C93.8054 97.1781 93.7802 97.1617 93.7631 97.1365C93.7459 97.1113 93.7381 97.0793 93.7415 97.0476L95.7433 78.406C95.7651 78.2029 95.8376 78.0114 95.952 77.8544C96.0665 77.6975 96.218 77.5818 96.3883 77.5212C96.5587 77.4607 96.7407 77.4578 96.9125 77.5131C97.0842 77.5684 97.2384 77.6794 97.3565 77.8327L99.6443 80.8051C99.6538 80.8169 99.6611 80.8308 99.6659 80.8459C99.6706 80.861 99.6727 80.877 99.672 80.893C99.6713 80.909 99.6678 80.9247 99.6617 80.9392C99.6556 80.9537 99.6471 80.9666 99.6366 80.9772C99.6261 80.9878 99.6139 80.9959 99.6006 81.0011C99.5874 81.0062 99.5733 81.0082 99.5594 81.0071C99.5454 81.0059 99.5318 81.0016 99.5193 80.9943C99.5069 80.987 99.4958 80.977 99.4867 80.9647L97.1989 77.9925C97.1075 77.8743 96.9884 77.7888 96.8557 77.7463C96.723 77.7037 96.5825 77.706 96.4509 77.7527C96.3194 77.7995 96.2023 77.8887 96.1138 78.0098C96.0254 78.1309 95.9692 78.2787 95.9521 78.4355L93.9505 97.0769C93.9474 97.1062 93.935 97.1332 93.9157 97.1527C93.8964 97.1722 93.8716 97.183 93.8459 97.1829Z" fill="#494949"/>
<path d="M101.991 82.4567C102.789 80.8014 101.85 78.453 99.8929 77.2114C97.9362 75.9699 95.7028 76.3053 94.9046 77.9606C94.1063 79.6159 95.0455 81.9643 97.0023 83.2058C98.9591 84.4474 101.192 84.112 101.991 82.4567Z" fill="#0CBC8B"/>
<path opacity="0.2" d="M102.078 93.4281C103.372 92.254 103.295 89.6718 101.907 87.6606C100.519 85.6494 98.3456 84.9707 97.0525 86.1447C95.7594 87.3188 95.8363 89.9009 97.2241 91.9122C98.612 93.9234 100.785 94.6021 102.078 93.4281Z" fill="white"/>
<path opacity="0.5" d="M91.8412 86.0429C92.2223 83.5154 91.2139 81.2051 89.5888 80.8827C87.9638 80.5604 86.3376 82.3481 85.9565 84.8756C85.5755 87.4032 86.5839 89.7135 88.209 90.0358C89.834 90.3581 91.4602 88.5705 91.8412 86.0429Z" fill="white"/>
<path opacity="0.5" d="M101.991 82.4567C102.789 80.8014 101.85 78.453 99.8929 77.2114C97.9362 75.9699 95.7028 76.3053 94.9046 77.9606C94.1063 79.6159 95.0455 81.9643 97.0023 83.2058C98.9591 84.4474 101.192 84.112 101.991 82.4567Z" fill="white"/>
<path d="M96.4061 113H91.2857L90.4373 94.2083H97.2545L96.4061 113Z" fill="#292A2E"/>
<path opacity="0.3" d="M96.4061 113H91.2857L90.4373 94.2083H97.2545L96.4061 113Z" fill="white"/>
<path d="M102.078 93.4874C102.07 93.4874 102.062 93.4853 102.055 93.4813C102.048 93.4773 102.042 93.4714 102.037 93.4642L97.0109 86.1807C97.0022 86.1682 96.9982 86.1522 96.9999 86.1363C97.0015 86.1204 97.0085 86.1059 97.0195 86.096C97.0304 86.0861 97.0444 86.0816 97.0582 86.0834C97.0721 86.0853 97.0847 86.0934 97.0934 86.1059L102.119 93.3892C102.126 93.3981 102.129 93.4088 102.13 93.4201C102.132 93.4313 102.13 93.4427 102.126 93.453C102.121 93.4632 102.115 93.4718 102.106 93.4778C102.098 93.4838 102.088 93.487 102.078 93.4869L102.078 93.4874Z" fill="white"/>
<path d="M101.656 83.0402C101.645 83.0403 101.634 83.0362 101.625 83.0286L95.1935 77.6417C95.1877 77.6372 95.1827 77.6313 95.1788 77.6245C95.175 77.6177 95.1724 77.6101 95.1712 77.6021C95.17 77.5941 95.1702 77.586 95.1718 77.5781C95.1734 77.5702 95.1764 77.5627 95.1806 77.5562C95.1847 77.5497 95.19 77.5441 95.1961 77.54C95.2021 77.5359 95.2089 77.5331 95.2159 77.532C95.2229 77.531 95.23 77.5315 95.2368 77.5336C95.2436 77.5357 95.25 77.5394 95.2555 77.5445L101.687 82.9312C101.696 82.9387 101.703 82.9493 101.706 82.9614C101.71 82.9735 101.709 82.9865 101.706 82.9986C101.703 83.0107 101.696 83.0213 101.687 83.0287C101.678 83.0362 101.667 83.0402 101.656 83.0402H101.656Z" fill="white"/>
<path d="M87.9476 89.9575C87.943 89.9575 87.9384 89.9568 87.9339 89.9554C87.9205 89.9513 87.9091 89.9412 87.9022 89.9275C87.8952 89.9138 87.8932 89.8974 87.8967 89.882L89.9442 81.0831C89.948 81.0679 89.9569 81.0551 89.9689 81.0473C89.9808 81.0396 89.995 81.0375 90.0083 81.0416C90.0216 81.0457 90.0329 81.0555 90.0399 81.0691C90.0469 81.0827 90.049 81.0988 90.0458 81.1142L87.9983 89.9124C87.9954 89.9253 87.9888 89.9367 87.9796 89.9448C87.9705 89.953 87.9592 89.9574 87.9476 89.9575Z" fill="white"/>
</g>
<defs>
<clipPath id="clip0_325_3068">
<rect width="103" height="113" fill="white"/>
</clipPath>
</defs>
</svg>
