<svg width="114" height="96" viewBox="0 0 114 96" fill="none" xmlns="http://www.w3.org/2000/svg">
<g clip-path="url(#clip0_405_2307)">
<path d="M105.302 85.271L101.635 90.4166L97.2312 87.2532L0.111328 17.5197V9.74268L100.791 82.0308L105.302 85.271Z" fill="#FD5D76"/>
<path d="M106.18 74.1221L113.111 95.4445L91.6758 95.403L106.18 74.1221Z" fill="#FD5D76"/>
<path d="M81.7881 45.2988C89.6037 45.2988 95.9395 38.9406 95.9395 31.0974C95.9395 23.2542 89.6037 16.896 81.7881 16.896C73.9725 16.896 67.6367 23.2542 67.6367 31.0974C67.6367 38.9406 73.9725 45.2988 81.7881 45.2988Z" fill="#0CBC8B"/>
<g opacity="0.29">
<path d="M81.789 40.3035C86.8556 40.3035 90.9628 36.1817 90.9628 31.0973C90.9628 26.0129 86.8556 21.8911 81.789 21.8911C76.7225 21.8911 72.6152 26.0129 72.6152 31.0973C72.6152 36.1817 76.7225 40.3035 81.789 40.3035Z" fill="white"/>
</g>
<path d="M78.7871 34.3856L79.6426 33.0542C80.321 33.5757 80.9143 33.8417 81.5451 33.8417C82.3015 33.8417 82.6342 33.5267 82.6342 32.9173C82.6342 31.5397 79.1125 31.5645 79.1125 29.1482C79.1125 27.5948 80.1843 26.6054 81.8757 26.6054C82.3559 26.5983 82.8318 26.6963 83.2705 26.8925C83.7092 27.0886 84.1 27.3783 84.4159 27.7413L83.4344 28.8693C82.9494 28.4276 82.5381 28.1938 81.9809 28.1938C81.339 28.1938 80.9906 28.4537 80.9906 29.056C80.9906 30.3331 84.5123 30.2215 84.5123 32.7811C84.5123 34.3176 83.4979 35.4317 81.5457 35.4317C80.5342 35.4087 79.561 35.0397 78.7871 34.3856ZM81.1338 25.293H82.4366V27.2214H81.1338V25.293ZM81.1338 34.6263H82.4366V36.7424H81.1338V34.6263Z" fill="white"/>
<path d="M25.9553 8.00365C26.0128 8.70836 25.2809 9.36448 25.1601 10.0287C25.0353 10.7159 25.4828 11.5887 25.1909 12.2052C24.8948 12.8306 23.9348 13.0334 23.4909 13.5576C23.0471 14.0818 23.0021 15.0652 22.4348 15.4591C21.8755 15.8477 20.945 15.545 20.2894 15.7793C19.6557 16.0057 19.1283 16.8357 18.426 16.8933C17.7238 16.9509 17.07 16.2163 16.4081 16.0952C15.7233 15.97 14.8536 16.4191 14.2392 16.126C13.6161 15.8288 13.4138 14.8654 12.8916 14.42C12.3695 13.9746 11.3894 13.9294 10.9968 13.3601C10.6098 12.7989 10.9113 11.8651 10.6778 11.2072C10.4521 10.5713 9.62507 10.0421 9.56766 9.3372C9.51024 8.6323 10.2423 7.97638 10.3629 7.31219C10.4877 6.62496 10.0402 5.75219 10.3321 5.13564C10.6284 4.51025 11.5882 4.30742 12.0323 3.78326C12.4763 3.2591 12.5211 2.27569 13.0884 1.88175C13.6476 1.49319 14.578 1.79589 15.2337 1.56157C15.8674 1.33511 16.3947 0.505172 17.0972 0.44755C17.7996 0.389929 18.4532 1.1246 19.115 1.24561C19.7997 1.37084 20.6696 0.921775 21.2839 1.21488C21.9069 1.51201 22.1092 2.47544 22.6316 2.92086C23.1539 3.36627 24.1338 3.41141 24.5264 3.98071C24.9134 4.54194 24.6119 5.4758 24.8454 6.13364C25.0711 6.76959 25.8985 7.29875 25.9553 8.00365Z" fill="#0F1011"/>
<path d="M14.6602 16.2903C14.6602 16.2903 16.1408 15.5041 15.8141 11.4595L18.8724 10.8931C18.8724 10.8931 18.5256 14.5188 20.0715 15.6714L14.6602 16.2903Z" fill="#E98862"/>
<g opacity="0.2">
<path d="M19.4469 14.913L16.9082 12.9606L18.9035 12.9414C18.9606 13.6268 19.1449 14.2955 19.4469 14.913Z" fill="black"/>
</g>
<path d="M14.0803 9.88937C14.2909 11.1167 14.9571 12.2791 16.0354 12.6765C17.2107 13.1458 18.4825 13.3194 19.7399 13.1823C23.0876 12.9097 22.4323 5.27082 20.8443 3.78572C19.2562 2.30062 14.5914 3.23601 14.0218 5.71719C13.7272 7.00023 13.8799 8.72119 14.0803 9.88937Z" fill="#E98862"/>
<path d="M18.8711 8.94871C19.0242 8.94871 19.1484 8.82411 19.1484 8.6704C19.1484 8.51669 19.0242 8.39209 18.8711 8.39209C18.7179 8.39209 18.5938 8.51669 18.5938 8.6704C18.5938 8.82411 18.7179 8.94871 18.8711 8.94871Z" fill="#0F1011"/>
<path d="M21.0586 8.77049C21.2117 8.77049 21.3359 8.64589 21.3359 8.49218C21.3359 8.33847 21.2117 8.21387 21.0586 8.21387C20.9054 8.21387 20.7812 8.33847 20.7812 8.49218C20.7812 8.64589 20.9054 8.77049 21.0586 8.77049Z" fill="#0F1011"/>
<path d="M21.5386 7.89987H21.5368L20.8025 7.88988C20.7853 7.88965 20.7684 7.88605 20.7527 7.87926C20.737 7.87248 20.7227 7.86266 20.7108 7.85035C20.6989 7.83804 20.6894 7.8235 20.6831 7.80754C20.6768 7.79158 20.6736 7.77453 20.6738 7.75735C20.6738 7.74012 20.6772 7.72306 20.6839 7.70719C20.6905 7.69131 20.7003 7.67693 20.7126 7.66491C20.7249 7.65289 20.7395 7.64348 20.7555 7.63722C20.7715 7.63096 20.7886 7.62798 20.8057 7.62847L21.5403 7.63827C21.5749 7.63849 21.6079 7.6525 21.6322 7.67719C21.6565 7.70188 21.67 7.73524 21.6698 7.76993C21.6695 7.80462 21.6556 7.8378 21.631 7.86217C21.6064 7.88654 21.5731 7.9001 21.5386 7.89987Z" fill="#0F1011"/>
<path d="M18.2724 8.16586C18.2405 8.16574 18.2098 8.1539 18.1861 8.1326C18.1623 8.1113 18.1472 8.082 18.1435 8.05025C18.1398 8.0185 18.1478 7.98648 18.166 7.96026C18.1842 7.93403 18.2114 7.91541 18.2423 7.90791L18.9668 7.7337C18.9836 7.72904 19.0013 7.72783 19.0186 7.73015C19.036 7.73247 19.0527 7.73827 19.0677 7.7472C19.0828 7.75614 19.0959 7.76802 19.1063 7.78215C19.1167 7.79628 19.1241 7.81236 19.1282 7.82944C19.1322 7.84652 19.1328 7.86424 19.1299 7.88155C19.127 7.89887 19.1207 7.91541 19.1112 7.93021C19.1018 7.94501 19.0895 7.95775 19.0751 7.96768C19.0607 7.97761 19.0444 7.98452 19.0273 7.988L18.3028 8.16221C18.2929 8.16466 18.2827 8.16588 18.2724 8.16586Z" fill="#0F1011"/>
<path d="M20.7345 11.5395C20.7345 11.5395 19.7436 11.2598 18.9941 11.3858C18.9941 11.3858 19.1132 10.7197 19.923 10.7904C20.7328 10.8611 20.7345 11.5395 20.7345 11.5395Z" fill="white"/>
<path d="M16.337 6.71246C16.5378 9.58853 16.2224 12.4774 15.4057 15.2416C15.4057 15.2416 13.072 11.2033 12.711 7.84107C12.3726 4.68917 14.6885 2.8303 16.2524 2.48035C22.1956 1.15237 22.6234 5.50894 22.6234 5.50894C21.5407 7.76885 15.6937 7.75886 15.6937 7.75886" fill="#0F1011"/>
<path d="M17.4683 9.86883C17.4826 10.0242 17.4661 10.181 17.4197 10.3299C17.3732 10.4789 17.2978 10.6171 17.1978 10.7366C17.0977 10.8561 16.975 10.9545 16.8368 11.0261C16.6986 11.0977 16.5476 11.1411 16.3926 11.1537C16.2376 11.1663 16.0816 11.1479 15.9337 11.0996C15.7858 11.0513 15.6489 10.974 15.531 10.8723C15.4131 10.7705 15.3164 10.6463 15.2467 10.5068C15.1769 10.3673 15.1355 10.2153 15.1247 10.0596C15.1095 9.90462 15.1256 9.74821 15.172 9.59964C15.2183 9.45107 15.294 9.31338 15.3944 9.19476C15.4949 9.07614 15.6181 8.97902 15.7568 8.90918C15.8954 8.83934 16.0466 8.79821 16.2014 8.78823C17.0396 8.76134 17.4159 9.21944 17.4683 9.86883Z" fill="#E98862"/>
<g opacity="0.2">
<path d="M20.0997 10.215C20.0767 10.215 20.0546 10.2067 20.0372 10.1917C20.0198 10.1767 20.0084 10.156 20.005 10.1332C20.0016 10.1105 20.0064 10.0872 20.0186 10.0678C20.0308 10.0483 20.0496 10.0339 20.0715 10.0271L20.6358 9.85426L20.2421 8.97227C20.2369 8.96075 20.2341 8.94834 20.2337 8.93573C20.2334 8.92311 20.2355 8.91055 20.24 8.89876C20.2445 8.88698 20.2512 8.87619 20.2598 8.86702C20.2685 8.85784 20.2788 8.85047 20.2903 8.84531C20.3018 8.84015 20.3141 8.83731 20.3267 8.83695C20.3393 8.83659 20.3518 8.83872 20.3635 8.84322C20.3753 8.84771 20.386 8.85448 20.3952 8.86315C20.4043 8.87181 20.4117 8.8822 20.4168 8.89371L20.8549 9.8752C20.8604 9.88762 20.8633 9.90108 20.8632 9.91468C20.8632 9.92829 20.8603 9.94173 20.8547 9.95411C20.849 9.9665 20.8409 9.97754 20.8307 9.98652C20.8205 9.9955 20.8085 10.0022 20.7956 10.0062L20.1276 10.2113C20.1185 10.2139 20.1091 10.2152 20.0997 10.215Z" fill="black"/>
</g>
<path d="M27.1709 93.3246L23.1797 92.8484C23.3592 91.3324 23.5625 89.5114 23.5763 89.2129C23.5763 89.2321 23.5763 89.2477 23.5763 89.2598H27.5956C27.595 89.3808 27.595 89.7488 27.1709 93.3246Z" fill="#E98862"/>
<path d="M11.156 93.8069L7.13672 93.7938C7.13672 93.7938 7.15031 89.6287 7.15031 89.2598H11.1696C11.1696 89.6299 11.156 93.8069 11.156 93.8069Z" fill="#E98862"/>
<path d="M21.5732 92.0512L28.6549 91.93C28.3222 83.4729 28.3019 74.6017 28.1982 66.1238C26.8161 56.9864 26.0884 46.952 24.3827 37.8799L9.62114 37.1514C9.62114 37.1514 9.20007 43.13 9.05461 45.5165C8.34415 57.0947 6.96571 78.5426 6.10156 91.8221L13.1579 92.4204C14.4286 79.4006 16.3962 60.4297 17.6064 46.7528C18.9961 53.4118 19.9414 60.307 21.1499 66.9088C21.3914 75.1723 21.596 83.8115 21.5732 92.0512Z" fill="#6D18EF"/>
<path d="M16.042 95.3662C16.1501 95.3657 16.2569 95.3429 16.3558 95.2991C16.4547 95.2553 16.5436 95.1915 16.6168 95.1117C16.69 95.0319 16.7461 94.9378 16.7815 94.8353C16.8168 94.7328 16.8307 94.6241 16.8223 94.5159C16.8106 94.366 16.7565 94.2226 16.6664 94.1025C16.5762 93.9825 16.4538 93.8907 16.3134 93.8381L11.6351 92.2656C11.5445 92.2355 11.4485 92.2254 11.3536 92.236C11.2587 92.2466 11.1672 92.2777 11.0854 92.3271C10.4423 92.7748 9.67294 93.0037 8.89052 92.9801C8.28115 92.9366 7.69623 92.7222 7.20241 92.3613C7.15902 92.3255 7.10639 92.3029 7.05067 92.296C6.99495 92.2892 6.93843 92.2984 6.88772 92.3225C6.83701 92.3467 6.79419 92.3848 6.76427 92.4325C6.73435 92.4802 6.71857 92.5354 6.71875 92.5918V94.8874C6.71875 94.9551 6.73207 95.0221 6.75795 95.0847C6.78383 95.1472 6.82175 95.204 6.86955 95.2518C6.91735 95.2996 6.97408 95.3374 7.03649 95.3632C7.0989 95.3889 7.16575 95.402 7.23322 95.4018L16.042 95.3662Z" fill="#C1D8ED"/>
<path d="M32.0676 95.3662C32.1757 95.3657 32.2825 95.3429 32.3814 95.2991C32.4803 95.2553 32.5691 95.1915 32.6423 95.1117C32.7155 95.0319 32.7716 94.9378 32.8069 94.8353C32.8423 94.7328 32.8561 94.6241 32.8477 94.5159C32.8361 94.3661 32.782 94.2226 32.6919 94.1025C32.6018 93.9825 32.4793 93.8907 32.339 93.8381L27.6607 92.2656C27.5701 92.2355 27.474 92.2254 27.3792 92.236C27.2843 92.2466 27.1928 92.2777 27.111 92.3271C26.4679 92.7748 25.6985 93.0037 24.9161 92.9801C24.3067 92.9367 23.7218 92.7222 23.228 92.3613C23.1846 92.3255 23.1319 92.3029 23.0762 92.2961C23.0205 92.2892 22.964 92.2984 22.9133 92.3226C22.8625 92.3468 22.8197 92.3849 22.7898 92.4325C22.7598 92.4802 22.744 92.5354 22.7441 92.5918V94.8874C22.7441 94.9551 22.7575 95.0222 22.7834 95.0847C22.8092 95.1473 22.8472 95.2041 22.895 95.2519C22.9428 95.2996 22.9996 95.3375 23.062 95.3632C23.1244 95.3889 23.1913 95.402 23.2588 95.4018L32.0676 95.3662Z" fill="#C1D8ED"/>
<path d="M34.9297 16.2953C34.9297 16.2953 34.9584 13.9885 36.6015 14.1085C37.6383 14.1842 42.5637 13.9549 42.637 14.4049C42.8184 15.5189 38.3132 15.7913 37.9042 16.8294L34.9297 16.2953Z" fill="#E98862"/>
<path d="M36.0195 14.1825C36.0195 14.1825 38.3065 13.4335 38.8685 13.5679C39.3661 13.6866 38.3289 14.4995 38.3289 14.4995L36.0195 14.1825Z" fill="#E98862"/>
<path d="M25.3037 37.4237C24.5017 39.2734 9.73786 40.0416 9.52733 36.788C9.39335 34.7174 11.1965 32.91 11.1965 28.8746C11.1965 24.8392 7.48858 20.6597 10.5034 17.6349C11.3783 16.7572 11.9179 15.2168 13.7591 15.2148C13.8969 16.2924 20.4158 16.2962 20.4656 15.2398C20.7144 15.2437 20.9077 15.2475 21.0283 15.2533C27.3788 15.5279 23.9899 22.7805 23.9289 28.1086C23.8539 34.3429 26.1305 35.5184 25.3037 37.4237Z" fill="white"/>
<path d="M20.4663 15.2393C20.4165 16.2957 19.8442 17.8496 18.0777 17.9667C15.7235 18.1223 13.8976 16.2919 13.7598 15.2144H13.7655C16.0833 15.2147 19.115 15.2182 20.4663 15.2393Z" fill="#E98862"/>
<path d="M34.737 14.9478L30.64 22.6247L24.3312 16.4486C23.7618 15.7233 22.8647 15.271 21.4926 15.2107C21.3883 15.2063 20.3121 15.1723 20.2486 15.2364C19.8639 15.6225 19.6516 22.4243 19.843 26.2037C20.0522 30.2949 19.8373 35.404 20.0315 38.3413C20.0441 38.5341 20.0965 38.7221 20.1852 38.8935C20.2739 39.0649 20.3972 39.216 20.5471 39.3371C20.697 39.4583 20.8703 39.5469 21.0561 39.5974C21.2419 39.6479 21.4361 39.6592 21.6264 39.6305C23.69 39.3142 25.2993 38.7746 25.534 38.2336C26.3608 36.3282 24.4528 34.3418 24.5274 28.1072C24.5465 26.4292 24.8304 24.5538 25.0283 22.7653L29.7466 27.3842C29.9696 27.6025 30.2402 27.7658 30.5369 27.8612C30.8336 27.9566 31.1483 27.9814 31.4563 27.9337C31.7642 27.8861 32.0568 27.7672 32.3111 27.5865C32.5654 27.4058 32.7743 27.1683 32.9214 26.8927L38.2805 16.8514L34.737 14.9478Z" fill="#D0F4E6"/>
<path d="M28.6814 29.5243L18.0144 29.8508L15.7293 25.0506C15.3607 21.3732 14.872 18.2393 14.6479 16.5954C14.3608 15.0728 14.5139 15.1808 13.7939 15.1802C11.9529 15.1821 10.4089 15.7825 9.5342 16.6603C6.51972 19.6854 10.2192 24.8406 10.2192 28.8741C10.2192 32.9076 8.40095 34.717 8.53493 36.7875C8.61742 38.0807 9.27601 39.7168 14.2431 40.0673C14.6453 40.0957 15.0429 39.968 15.354 39.7107C15.6651 39.4534 15.8658 39.086 15.9148 38.6844C16.092 37.1316 16.1849 35.5703 16.1931 34.0074C16.3643 34.0534 16.5408 34.0773 16.718 34.0783C16.7395 34.0783 16.7607 34.0783 16.782 34.0772L28.8089 33.7092L28.6814 29.5243Z" fill="#D0F4E6"/>
<path d="M13.284 19.7738L13.7586 18.2123L12.8438 17.6111L13.5959 15.1853C14.0561 15.1662 14.5169 15.1759 14.9759 15.2141C15.4276 16.7295 15.9137 23.2369 16.0898 25.778L13.284 19.7738Z" fill="#D0F4E6"/>
<path d="M21.2077 18.2124L21.9159 20.5422L19.8698 26.7999C19.8698 26.7999 19.4622 17.3461 20.0038 15.2276C20.1947 15.2018 20.3869 15.1874 20.5795 15.1844C20.9727 15.1788 21.3769 15.2057 21.3769 15.2057L22.1233 17.6112L21.2077 18.2124Z" fill="#D0F4E6"/>
<g opacity="0.24">
<path d="M13.284 19.7738L13.7586 18.2123L12.8438 17.6111L13.5959 15.1853C14.0561 15.1662 14.5169 15.1759 14.9759 15.2141C15.4276 16.7295 15.9137 23.2369 16.0898 25.778L13.284 19.7738Z" fill="white"/>
</g>
<g opacity="0.24">
<path d="M21.2077 18.2124L21.9159 20.5422L19.8698 26.7999C19.8698 26.7999 19.4622 17.3461 20.0038 15.2276C20.1947 15.2018 20.3869 15.1874 20.5795 15.1844C20.9727 15.1788 21.3769 15.2057 21.3769 15.2057L22.1233 17.6112L21.2077 18.2124Z" fill="white"/>
</g>
<path d="M27.8247 19.5392L25.5007 29.3293C25.4646 29.4816 25.4633 29.6402 25.497 29.7931C25.5306 29.946 25.5984 30.0892 25.695 30.2121C25.7917 30.335 25.9149 30.4344 26.0553 30.5027C26.1957 30.571 26.3497 30.6065 26.5057 30.6066H40.2066C40.433 30.6065 40.653 30.5319 40.8331 30.3942C41.0131 30.2565 41.143 30.0633 41.203 29.8442L43.881 20.0541C43.9231 19.9002 43.9292 19.7387 43.8988 19.5821C43.8685 19.4254 43.8026 19.2779 43.7062 19.151C43.6098 19.0241 43.4855 18.9212 43.343 18.8504C43.2005 18.7796 43.0436 18.7427 42.8846 18.7427H28.8299C28.5975 18.7427 28.3719 18.8213 28.1895 18.9658C28.0071 19.1104 27.8786 19.3124 27.8247 19.5392Z" fill="#D0F4E6"/>
<path d="M37.1821 29.3882H20.6227C20.2874 29.3882 20.0156 29.661 20.0156 29.9974C20.0156 30.3339 20.2874 30.6067 20.6227 30.6067H37.1821C37.5174 30.6067 37.7892 30.3339 37.7892 29.9974C37.7892 29.661 37.5174 29.3882 37.1821 29.3882Z" fill="#D0F4E6"/>
<path d="M35.2512 26.2038C36.1461 26.2038 36.8716 25.4758 36.8716 24.5777C36.8716 23.6797 36.1461 22.9517 35.2512 22.9517C34.3563 22.9517 33.6309 23.6797 33.6309 24.5777C33.6309 25.4758 34.3563 26.2038 35.2512 26.2038Z" fill="white"/>
<path d="M32.1293 31.8915C31.27 32.4236 29.9398 32.6752 28.7799 32.7674L28.7148 30.6469C29.2603 30.6315 30.0986 30.5739 30.9197 30.6066C31.2906 30.3031 31.5042 30.2128 31.8851 29.8306C32.2905 29.4238 33.3543 29.1795 33.5552 29.8306C33.7562 30.4817 32.8834 31.4229 32.1293 31.8915Z" fill="#E98862"/>
<path d="M60.9416 87.3613H45.7492C45.0204 87.3613 44.4297 87.9542 44.4297 88.6855V90.0786C44.4297 90.8099 45.0204 91.4027 45.7492 91.4027H60.9416C61.6703 91.4027 62.2611 90.8099 62.2611 90.0786V88.6855C62.2611 87.9542 61.6703 87.3613 60.9416 87.3613Z" fill="#0CBC8B"/>
<path d="M58.5783 83.3198H43.3859C42.6572 83.3198 42.0664 83.9127 42.0664 84.644V86.0371C42.0664 86.7684 42.6572 87.3612 43.3859 87.3612H58.5783C59.307 87.3612 59.8978 86.7684 59.8978 86.0371V84.644C59.8978 83.9127 59.307 83.3198 58.5783 83.3198Z" fill="#0CBC8B"/>
<path d="M60.9416 79.2783H45.7492C45.0204 79.2783 44.4297 79.8712 44.4297 80.6025V81.9956C44.4297 82.7269 45.0204 83.3197 45.7492 83.3197H60.9416C61.6703 83.3197 62.2611 82.7269 62.2611 81.9956V80.6025C62.2611 79.8712 61.6703 79.2783 60.9416 79.2783Z" fill="#0CBC8B"/>
<path d="M59.7599 75.3101H44.5675C43.8388 75.3101 43.248 75.9029 43.248 76.6342V78.0273C43.248 78.7586 43.8388 79.3514 44.5675 79.3514H59.7599C60.4887 79.3514 61.0794 78.7586 61.0794 78.0273V76.6342C61.0794 75.9029 60.4887 75.3101 59.7599 75.3101Z" fill="#0CBC8B"/>
<path d="M57.3947 71.2686H42.2023C41.4736 71.2686 40.8828 71.8614 40.8828 72.5927V73.9858C40.8828 74.7171 41.4736 75.3099 42.2023 75.3099H57.3947C58.1234 75.3099 58.7142 74.7171 58.7142 73.9858V72.5927C58.7142 71.8614 58.1234 71.2686 57.3947 71.2686Z" fill="#0CBC8B"/>
<path d="M59.5197 91.4028H44.3273C43.5986 91.4028 43.0078 91.9957 43.0078 92.727V94.1201C43.0078 94.8514 43.5986 95.4442 44.3273 95.4442H59.5197C60.2484 95.4442 60.8392 94.8514 60.8392 94.1201V92.727C60.8392 91.9957 60.2484 91.4028 59.5197 91.4028Z" fill="#0CBC8B"/>
<path d="M83.2658 91.4028H68.0734C67.3447 91.4028 66.7539 91.9957 66.7539 92.727V94.1201C66.7539 94.8514 67.3447 95.4442 68.0734 95.4442H83.2658C83.9945 95.4442 84.5853 94.8514 84.5853 94.1201V92.727C84.5853 91.9957 83.9945 91.4028 83.2658 91.4028Z" fill="#0CBC8B"/>
<path d="M82.4318 87.3613H67.2394C66.5107 87.3613 65.9199 87.9542 65.9199 88.6855V90.0786C65.9199 90.8099 66.5107 91.4027 67.2394 91.4027H82.4318C83.1605 91.4027 83.7513 90.8099 83.7513 90.0786V88.6855C83.7513 87.9542 83.1605 87.3613 82.4318 87.3613Z" fill="#0CBC8B"/>
<path d="M83.2658 83.3198H68.0734C67.3447 83.3198 66.7539 83.9127 66.7539 84.644V86.0371C66.7539 86.7684 67.3447 87.3612 68.0734 87.3612H83.2658C83.9945 87.3612 84.5853 86.7684 84.5853 86.0371V84.644C84.5853 83.9127 83.9945 83.3198 83.2658 83.3198Z" fill="#0CBC8B"/>
</g>
<defs>
<clipPath id="clip0_405_2307">
<rect width="113" height="95" fill="white" transform="translate(0.111328 0.444336)"/>
</clipPath>
</defs>
</svg>
