<svg width="36" height="36" viewBox="0 0 36 36" fill="none" xmlns="http://www.w3.org/2000/svg">
<path d="M32 0H4C1.79 0 0 1.79 0 4V32C0 34.21 1.79 36 4 36H32C34.21 36 36 34.21 36 32V4C36 1.79 34.21 0 32 0ZM9.476 28C8.082 28 6.952 26.87 6.952 25.476V16.522C6.954 15.13 8.084 14 9.476 14C10.87 14 12 15.13 12 16.524V25.478C12 26.87 10.87 28 9.476 28ZM9.388 11.434C7.846 11.434 6.816 10.406 6.816 9.034C6.816 7.662 7.844 6.634 9.558 6.634C11.1 6.634 12.13 7.662 12.13 9.034C12.13 10.406 11.102 11.434 9.388 11.434ZM27.558 28C26.21 28 25.116 26.906 25.116 25.558V20.348C25.116 18.232 23.814 18 23.326 18C22.838 18 21.21 18.07 21.21 20.348V25.558C21.21 26.906 20.116 28 18.768 28H18.606C17.258 28 16.164 26.906 16.164 25.558V16.524C16.164 15.13 17.294 14 18.688 14C20.082 14 21.212 15.13 21.212 16.524C21.212 16.524 21.776 14 25.608 14C28.046 14 30 15.954 30 20.348V25.558C30 26.906 28.906 28 27.558 28Z" fill="white"/>
</svg>
