<svg width="24" height="24" viewBox="0 0 24 24" fill="none" xmlns="http://www.w3.org/2000/svg">
<path d="M17.8127 22.5005C17.7237 22.5475 17.7287 22.5665 17.8177 22.5215C17.8438 22.5103 17.8675 22.4944 17.8877 22.4745C17.8877 22.4585 17.8857 22.4605 17.8127 22.5005ZM17.9907 22.4065C17.9487 22.4395 17.9487 22.4415 17.9997 22.4155C18.0278 22.4015 18.0518 22.3855 18.0518 22.3805C18.0518 22.3615 18.0398 22.3665 17.9907 22.4065ZM18.1078 22.3355C18.0658 22.3685 18.0658 22.3705 18.1168 22.3445C18.1448 22.3305 18.1688 22.3145 18.1688 22.3095C18.1688 22.2905 18.1568 22.2955 18.1078 22.3355ZM18.2248 22.2655C18.1828 22.2985 18.1828 22.3005 18.2338 22.2745C18.2618 22.2605 18.2858 22.2445 18.2858 22.2395C18.2858 22.2205 18.2738 22.2255 18.2248 22.2655ZM18.3868 22.1605C18.3048 22.2125 18.2788 22.2475 18.3518 22.2075C18.4038 22.1775 18.4878 22.1135 18.4738 22.1115C18.4431 22.1247 18.4139 22.1411 18.3868 22.1605ZM11.2135 0.00356831C11.1615 0.00856852 10.9975 0.0245692 10.8495 0.0365697C7.44131 0.343583 4.24818 2.18266 2.22609 5.00978C1.10821 6.56149 0.381583 8.36021 0.108004 10.253C0.0120005 10.912 0 11.107 0 12.0011C0 12.8951 0.0120005 13.0891 0.108004 13.7491C0.760032 18.2553 3.96717 22.0415 8.31635 23.4445C9.09538 23.6956 9.91641 23.8666 10.8495 23.9696C11.2135 24.0096 12.7845 24.0096 13.1485 23.9696C14.7596 23.7916 16.1257 23.3925 17.4717 22.7055C17.6777 22.5995 17.7177 22.5715 17.6897 22.5485C17.0322 21.6797 16.3808 20.8064 15.7357 19.9284L13.8166 17.3363L11.4125 13.7781C10.6131 12.5875 9.80608 11.4021 8.99137 10.222C8.98237 10.22 8.97237 11.8011 8.96837 13.7311C8.96137 17.1113 8.95937 17.2473 8.91637 17.3273C8.87555 17.4208 8.80242 17.4964 8.71036 17.5403C8.63536 17.5783 8.56936 17.5853 8.21534 17.5853H7.80933L7.70132 17.5173C7.63468 17.4753 7.58048 17.4163 7.54431 17.3463L7.49531 17.2403L7.50031 12.5371L7.50731 7.8319L7.58031 7.74089C7.62936 7.68327 7.68829 7.63484 7.75432 7.59789C7.85033 7.55088 7.88833 7.54588 8.29434 7.54588C8.77336 7.54588 8.85237 7.56488 8.97737 7.70089C9.95056 9.14919 10.9156 10.6029 11.8725 12.0621C13.4306 14.4242 15.5596 17.6493 16.6067 19.2334L18.5068 22.1115L18.6028 22.0485C19.5171 21.4403 20.3461 20.7129 21.0679 19.8854C22.5799 18.155 23.5605 16.025 23.892 13.7511C23.988 13.0921 24 12.8971 24 12.0031C24 11.109 23.988 10.915 23.892 10.255C23.24 5.74881 20.0328 1.96265 15.6837 0.559592C14.8709 0.300828 14.0339 0.125582 13.1855 0.0365697C12.9605 0.0135687 11.4095 -0.0124324 11.2155 0.00656843L11.2135 0.00356831ZM16.1257 7.26187C16.1816 7.28998 16.2314 7.32895 16.2721 7.37652C16.3128 7.42408 16.3436 7.47928 16.3627 7.53888C16.3817 7.59989 16.3857 8.90394 16.3817 11.8431L16.3747 16.0612L15.6306 14.9212L14.8846 13.7811V10.715C14.8846 8.73293 14.8936 7.61889 14.9076 7.56488C14.9246 7.50256 14.9539 7.44426 14.9937 7.39342C15.0335 7.34258 15.0832 7.30023 15.1396 7.26887C15.2356 7.21987 15.2706 7.21487 15.6397 7.21487C15.9867 7.21487 16.0477 7.21987 16.1257 7.26187Z" fill="white"/>
</svg>
