<svg width="99" height="110" viewBox="0 0 99 110" fill="none" xmlns="http://www.w3.org/2000/svg">
<g clip-path="url(#clip0_405_2382)">
<g clip-path="url(#clip1_405_2382)">
<path d="M85.3979 7.54004H68.2285V30.2275H85.3979V7.54004Z" fill="#F4F4F4"/>
<path d="M85.3981 30.2275H85.9551V7.54005H85.3981V30.2275Z" fill="#F4F4F4"/>
<path opacity="0.05" d="M85.3981 30.2275H85.9551V7.54005H85.3981V30.2275Z" fill="#6D18EF"/>
<path opacity="0.05" d="M82.2696 11.6729H71.3555V26.0948H82.2696V11.6729Z" fill="#6D18EF"/>
<path opacity="0.03" d="M82.27 11.6729H81.7012V26.0948H82.27V11.6729Z" fill="#6D18EF"/>
<path d="M99.4402 35.8066H85.3984V50.1926H99.4402V35.8066Z" fill="#F4F4F4"/>
<path opacity="0.05" d="M96.8811 38.4272H87.9551V47.572H96.8811V38.4272Z" fill="#6D18EF"/>
<path opacity="0.03" d="M96.8813 38.4272H96.3125V47.572H96.8813V38.4272Z" fill="#6D18EF"/>
<path d="M48.7503 6.08203H1.97461V53.5683H48.7503V6.08203Z" fill="#F4F4F4"/>
<path d="M49.2862 6.08203H48.75V53.5683H49.2862V6.08203Z" fill="#F4F4F4"/>
<path opacity="0.05" d="M49.2862 6.08203H48.75V53.5683H49.2862V6.08203Z" fill="#6D18EF"/>
<path opacity="0.05" d="M37.4186 38.8038V26.3799H27.3938V33.5979H11.8654V46.3784H5.26562V53.5681H11.8654H13.1369H46.5002V38.8038H37.4186Z" fill="#6D18EF"/>
<path opacity="0.34" d="M35.9818 27.729H28.6816V29.0779H35.9818V27.729Z" fill="#FFFFFA"/>
<path opacity="0.34" d="M35.9818 30.5244H28.6816V31.8734H35.9818V30.5244Z" fill="#FFFFFA"/>
<path opacity="0.34" d="M35.9818 33.3198H28.6816V34.6688H35.9818V33.3198Z" fill="#FFFFFA"/>
<path opacity="0.34" d="M45.2049 40.1133H43.8594V41.4622H45.2049V40.1133Z" fill="#FFFFFA"/>
<path opacity="0.34" d="M45.2049 42.9087H43.8594V44.2576H45.2049V42.9087Z" fill="#FFFFFA"/>
<path opacity="0.34" d="M45.2049 45.7041H43.8594V47.053H45.2049V45.7041Z" fill="#FFFFFA"/>
<path opacity="0.34" d="M42.7166 40.1133H41.3711V41.4622H42.7166V40.1133Z" fill="#FFFFFA"/>
<path opacity="0.34" d="M42.7166 42.9087H41.3711V44.2576H42.7166V42.9087Z" fill="#FFFFFA"/>
<path opacity="0.34" d="M42.7166 45.7041H41.3711V47.053H42.7166V45.7041Z" fill="#FFFFFA"/>
<path opacity="0.34" d="M40.2947 40.1133H38.9492V41.4622H40.2947V40.1133Z" fill="#FFFFFA"/>
<path opacity="0.34" d="M40.2947 42.9087H38.9492V44.2576H40.2947V42.9087Z" fill="#FFFFFA"/>
<path opacity="0.34" d="M40.2947 45.7041H38.9492V47.053H40.2947V45.7041Z" fill="#FFFFFA"/>
<path d="M48.7503 29.5588H39.3382V6.08203H38.5599V29.5588H13.137V6.08203H12.3585V29.5588H1.97461V30.349H12.3585V53.5683H13.137V30.349H38.5599V53.5683H39.3382V30.349H48.7503V29.5588Z" fill="white"/>
<path d="M50.6139 53.5112H0.111328V55.0904H50.6139V53.5112Z" fill="#F4F4F4"/>
<path opacity="0.1" d="M50.6139 53.5112H0.111328V55.0904H50.6139V53.5112Z" fill="#6D18EF"/>
<path opacity="0.1" d="M51.3424 53.5112H50.6133V55.0904H51.3424V53.5112Z" fill="#6D18EF"/>
<path opacity="0.1" d="M51.3424 53.5112H50.6133V55.0904H51.3424V53.5112Z" fill="#6D18EF"/>
<path opacity="0.05" d="M75.3054 101.798H72.707V103.56H75.3054V101.798Z" fill="#6D18EF"/>
<path opacity="0.05" d="M91.6159 101.798H89.0176V103.56H91.6159V101.798Z" fill="#6D18EF"/>
<path d="M93.9975 74.958H70.3242V101.798H93.9975V74.958Z" fill="#F4F4F4"/>
<path opacity="0.03" d="M93.9975 74.958H70.3242V101.798H93.9975V74.958Z" fill="#6D18EF"/>
<path d="M87.7104 74.958H64.0371V101.798H87.7104V74.958Z" fill="#F4F4F4"/>
<path opacity="0.05" d="M69.0163 101.798H66.418V103.56H69.0163V101.798Z" fill="#6D18EF"/>
<path opacity="0.05" d="M85.3269 101.798H82.7285V103.56H85.3269V101.798Z" fill="#6D18EF"/>
<path opacity="0.7" d="M86.4367 76.6177H65.3105V83.425H86.4367V76.6177Z" fill="white"/>
<path opacity="0.7" d="M86.4367 85.0913H65.3105V91.8986H86.4367V85.0913Z" fill="white"/>
<path opacity="0.7" d="M86.4367 93.5645H65.3105V100.372H86.4367V93.5645Z" fill="white"/>
<path opacity="0.05" d="M75.8738 80.9739C76.392 80.9739 76.8121 80.5475 76.8121 80.0214C76.8121 79.4953 76.392 79.0688 75.8738 79.0688C75.3556 79.0688 74.9355 79.4953 74.9355 80.0214C74.9355 80.5475 75.3556 80.9739 75.8738 80.9739Z" fill="#6D18EF"/>
<path opacity="0.05" d="M75.8738 89.4471C76.392 89.4471 76.8121 89.0206 76.8121 88.4945C76.8121 87.9685 76.392 87.542 75.8738 87.542C75.3556 87.542 74.9355 87.9685 74.9355 88.4945C74.9355 89.0206 75.3556 89.4471 75.8738 89.4471Z" fill="#6D18EF"/>
<path opacity="0.05" d="M75.8738 97.9207C76.392 97.9207 76.8121 97.4942 76.8121 96.9682C76.8121 96.4421 76.392 96.0156 75.8738 96.0156C75.3556 96.0156 74.9355 96.4421 74.9355 96.9682C74.9355 97.4942 75.3556 97.9207 75.8738 97.9207Z" fill="#6D18EF"/>
<path d="M11.2375 90.521C11.2244 90.521 11.2114 90.5184 11.1993 90.5133C11.1872 90.5082 11.1762 90.5008 11.167 90.4913C11.0264 90.3487 10.7972 87.7299 10.1799 79.9333C9.92732 76.7431 9.68873 73.7297 9.5146 71.8985C9.50223 71.7677 9.45223 71.7525 9.43587 71.7474C9.19748 71.6745 8.47273 72.2547 8.06809 72.7628C8.05145 72.7837 8.0273 72.797 8.00097 72.7999C7.97464 72.8027 7.94828 72.7948 7.92769 72.7779C7.9071 72.761 7.89397 72.7365 7.89118 72.7097C7.88839 72.683 7.89618 72.6563 7.91282 72.6353C8.18045 72.2994 9.05259 71.4188 9.49325 71.5534C9.58206 71.5805 9.69282 71.659 9.71278 71.879C9.8871 73.7119 10.1257 76.7259 10.3784 79.9171C10.7535 84.655 11.1783 90.0226 11.318 90.3606C11.3287 90.3758 11.3351 90.3936 11.3365 90.4122C11.3378 90.4308 11.3341 90.4494 11.3258 90.4659C11.3174 90.4825 11.3047 90.4964 11.289 90.5061C11.2734 90.5159 11.2554 90.521 11.237 90.521H11.2375Z" fill="#494949"/>
<path d="M9.25772 75.259C10.9136 73.9116 11.4624 71.8143 10.4835 70.5746C9.50468 69.3349 7.36885 69.4222 5.71301 70.7697C4.05717 72.1171 3.50836 74.2144 4.4872 75.4541C5.46605 76.6938 7.60188 76.6065 9.25772 75.259Z" fill="#0CBC8B"/>
<path opacity="0.2" d="M9.25772 75.259C10.9136 73.9116 11.4624 71.8143 10.4835 70.5746C9.50468 69.3349 7.36885 69.4222 5.71301 70.7697C4.05717 72.1171 3.50836 74.2144 4.4872 75.4541C5.46605 76.6938 7.60188 76.6065 9.25772 75.259Z" fill="white"/>
<path d="M4.95028 75.7696C4.94081 75.7696 4.93154 75.7668 4.92354 75.7617C4.91555 75.7565 4.90916 75.7492 4.90513 75.7405C4.9011 75.7318 4.8996 75.7221 4.90079 75.7125C4.90198 75.703 4.90582 75.694 4.91186 75.6866L9.63088 69.9094C9.63507 69.9043 9.6402 69.9001 9.646 69.897C9.6518 69.8939 9.65815 69.8919 9.66467 69.8913C9.6712 69.8907 9.67779 69.8914 9.68405 69.8934C9.69031 69.8953 9.69613 69.8985 9.70118 69.9028C9.70622 69.907 9.71039 69.9123 9.71345 69.9182C9.71651 69.924 9.7184 69.9305 9.71901 69.9371C9.71961 69.9437 9.71893 69.9504 9.71699 69.9568C9.71505 69.9631 9.7119 69.969 9.70771 69.9742L4.9887 75.7512C4.98402 75.757 4.97815 75.7616 4.97151 75.7648C4.96487 75.7679 4.95762 75.7696 4.95028 75.7696Z" fill="white"/>
<path d="M12.2658 89.2827C12.2546 89.2827 12.2435 89.2808 12.233 89.2769C12.208 89.2681 12.1875 89.2496 12.176 89.2254C12.1645 89.2012 12.1629 89.1733 12.1716 89.148L13.9442 83.9728C13.9964 83.8208 14.0853 83.6845 14.2028 83.5763C14.3204 83.4682 14.4627 83.3918 14.6169 83.354C14.7711 83.3162 14.9321 83.3183 15.0853 83.3601C15.2385 83.4019 15.3789 83.482 15.4937 83.5931L16.4309 84.5019C16.45 84.5205 16.4611 84.546 16.4617 84.5729C16.4623 84.5998 16.4524 84.6258 16.4341 84.6452C16.4158 84.6647 16.3907 84.6759 16.3642 84.6765C16.3377 84.6772 16.3121 84.6671 16.2929 84.6485L15.3558 83.7396C15.2652 83.6519 15.1544 83.5886 15.0335 83.5556C14.9125 83.5227 14.7854 83.521 14.6637 83.5508C14.542 83.5807 14.4296 83.641 14.3368 83.7264C14.244 83.8117 14.1738 83.9194 14.1326 84.0394L12.3601 89.2146C12.3532 89.2345 12.3405 89.2518 12.3236 89.264C12.3067 89.2762 12.2865 89.2827 12.2658 89.2827Z" fill="#494949"/>
<path d="M19.0482 87.367C20.2753 86.3809 20.2024 84.2121 18.8853 82.5229C17.5682 80.8336 15.5057 80.2636 14.2786 81.2497C13.0514 82.2358 13.1244 84.4046 14.4414 86.0938C15.7585 87.783 17.821 88.3531 19.0482 87.367Z" fill="#0CBC8B"/>
<path d="M10.4325 90.1912C10.4101 90.1912 10.3883 90.1835 10.3707 90.1694C10.3531 90.1553 10.3407 90.1356 10.3355 90.1135L7.36076 77.4866C7.34041 77.4006 7.29709 77.3219 7.23555 77.2592C7.17402 77.1966 7.09665 77.1523 7.01196 77.1314C6.92727 77.1104 6.83854 77.1136 6.7555 77.1406C6.67247 77.1675 6.59836 77.2171 6.54132 77.284L5.62428 78.3598C5.61583 78.3702 5.60541 78.3789 5.59361 78.3852C5.58182 78.3915 5.5689 78.3954 5.55561 78.3965C5.54233 78.3977 5.52895 78.3961 5.51626 78.392C5.50358 78.3878 5.49185 78.3811 5.48177 78.3722C5.47168 78.3634 5.46345 78.3525 5.45755 78.3404C5.45166 78.3283 5.44822 78.315 5.44744 78.3015C5.44666 78.288 5.44855 78.2745 5.45301 78.2617C5.45747 78.249 5.4644 78.2373 5.4734 78.2273L6.39034 77.1515C6.47139 77.0564 6.57672 76.9858 6.69474 76.9475C6.81276 76.9092 6.9389 76.9047 7.05928 76.9345C7.17966 76.9642 7.28962 77.0271 7.37707 77.1162C7.46452 77.2054 7.52607 77.3172 7.55495 77.4395L10.5295 90.0664C10.5356 90.0925 10.5313 90.12 10.5175 90.1429C10.5036 90.1658 10.4814 90.1822 10.4557 90.1884C10.4481 90.1903 10.4403 90.1912 10.4325 90.1912Z" fill="#494949"/>
<path d="M9.33311 81.1649C9.69472 79.042 8.73771 77.1016 7.19556 76.8309C5.65342 76.5602 4.11012 78.0616 3.7485 80.1845C3.38689 82.3074 4.34391 84.2478 5.88605 84.5185C7.4282 84.7893 8.9715 83.2878 9.33311 81.1649Z" fill="#0CBC8B"/>
<path d="M11.2367 90.521C11.2326 90.521 11.2285 90.5208 11.2244 90.5203C11.2114 90.5187 11.1988 90.5145 11.1874 90.5079C11.176 90.5014 11.1659 90.4926 11.1579 90.4821C11.1498 90.4716 11.1438 90.4596 11.1403 90.4468C11.1368 90.434 11.1359 90.4206 11.1375 90.4074L13.037 74.7503C13.0577 74.5797 13.1265 74.4189 13.2351 74.2871C13.3437 74.1552 13.4875 74.0581 13.6492 74.0072C13.8109 73.9564 13.9836 73.954 14.1466 74.0004C14.3096 74.0469 14.4559 74.1401 14.5679 74.2689L16.7391 76.7653C16.7478 76.7752 16.7544 76.7869 16.7587 76.7995C16.7629 76.812 16.7647 76.8254 16.7639 76.8386C16.7631 76.8519 16.7597 76.8649 16.7539 76.8769C16.7482 76.8888 16.7401 76.8995 16.7303 76.9083C16.7205 76.9171 16.709 76.9239 16.6966 76.9282C16.6842 76.9325 16.6711 76.9343 16.658 76.9335C16.645 76.9327 16.6322 76.9292 16.6204 76.9234C16.6086 76.9175 16.5981 76.9094 16.5894 76.8994L14.4183 74.403C14.3317 74.3034 14.2186 74.2314 14.0926 74.1955C13.9667 74.1596 13.8332 74.1614 13.7082 74.2007C13.5832 74.24 13.4721 74.3152 13.3882 74.417C13.3042 74.5189 13.2511 74.6433 13.2351 74.7751L11.3355 90.4321C11.3326 90.4566 11.3209 90.4792 11.3027 90.4956C11.2845 90.5119 11.261 90.521 11.2367 90.521Z" fill="#494949"/>
<path d="M18.9655 78.1525C19.723 76.7622 18.8317 74.7898 16.9748 73.747C15.1178 72.7042 12.9983 72.9859 12.2408 74.3762C11.4832 75.7665 12.3745 77.7389 14.2315 78.7817C16.0885 79.8245 18.208 79.5428 18.9655 78.1525Z" fill="#0CBC8B"/>
<path opacity="0.2" d="M19.0482 87.367C20.2753 86.3809 20.2024 84.2121 18.8853 82.5229C17.5682 80.8336 15.5057 80.2636 14.2786 81.2497C13.0514 82.2358 13.1244 84.4046 14.4414 86.0938C15.7585 87.783 17.821 88.3531 19.0482 87.367Z" fill="white"/>
<path opacity="0.5" d="M9.33311 81.1649C9.69472 79.042 8.73771 77.1016 7.19556 76.8309C5.65342 76.5602 4.11012 78.0616 3.7485 80.1845C3.38689 82.3074 4.34391 84.2478 5.88605 84.5185C7.4282 84.7893 8.9715 83.2878 9.33311 81.1649Z" fill="white"/>
<path opacity="0.5" d="M18.9655 78.1525C19.723 76.7622 18.8317 74.7898 16.9748 73.747C15.1178 72.7042 12.9983 72.9859 12.2408 74.3762C11.4832 75.7665 12.3745 77.7389 14.2315 78.7817C16.0885 79.8245 18.208 79.5428 18.9655 78.1525Z" fill="white"/>
<path d="M13.6664 103.806H8.80723L8.00195 88.0229H14.4716L13.6664 103.806Z" fill="#6D18EF"/>
<path opacity="0.3" d="M13.6664 103.806H8.80723L8.00195 88.0229H14.4716L13.6664 103.806Z" fill="white"/>
<path d="M19.0502 87.4178C19.0426 87.4178 19.0352 87.4161 19.0284 87.4128C19.0217 87.4094 19.0157 87.4046 19.0111 87.3986L14.2413 81.2813C14.2372 81.2761 14.2342 81.2701 14.2324 81.2637C14.2306 81.2573 14.23 81.2506 14.2308 81.244C14.2316 81.2374 14.2336 81.231 14.2368 81.2252C14.24 81.2194 14.2442 81.2143 14.2494 81.2102C14.2545 81.206 14.2604 81.203 14.2667 81.2012C14.273 81.1993 14.2796 81.1988 14.2861 81.1996C14.2926 81.2003 14.2989 81.2024 14.3047 81.2056C14.3104 81.2089 14.3154 81.2132 14.3195 81.2184L19.0893 87.3357C19.0951 87.3431 19.0988 87.3521 19.0998 87.3616C19.1008 87.3711 19.0992 87.3806 19.0951 87.3892C19.0911 87.3978 19.0847 87.405 19.0767 87.4101C19.0688 87.4152 19.0596 87.4178 19.0502 87.4178Z" fill="white"/>
<path d="M18.6496 78.6427C18.6389 78.6426 18.6286 78.639 18.6201 78.6326L12.5166 74.1082C12.5059 74.1003 12.4987 74.0884 12.4967 74.0751C12.4947 74.0618 12.4979 74.0482 12.5057 74.0374C12.5135 74.0265 12.5252 74.0193 12.5383 74.0172C12.5514 74.0151 12.5648 74.0184 12.5754 74.0264L18.679 78.5508C18.6874 78.5572 18.6936 78.5661 18.6967 78.5762C18.6998 78.5864 18.6997 78.5973 18.6964 78.6074C18.6931 78.6174 18.6867 78.6262 18.6782 78.6324C18.6697 78.6387 18.6595 78.642 18.6491 78.642L18.6496 78.6427Z" fill="white"/>
<path d="M5.6394 84.4523C5.63505 84.4523 5.63072 84.4517 5.62653 84.4506C5.61385 84.447 5.60305 84.4386 5.59649 84.427C5.58993 84.4154 5.58814 84.4017 5.5915 84.3888L7.53445 76.9984C7.53605 76.9918 7.53892 76.9857 7.54288 76.9803C7.54684 76.9749 7.55182 76.9704 7.55752 76.967C7.56322 76.9636 7.56954 76.9613 7.5761 76.9604C7.58266 76.9595 7.58934 76.9599 7.59574 76.9617C7.60213 76.9634 7.60813 76.9664 7.61337 76.9705C7.61861 76.9746 7.62299 76.9798 7.62626 76.9856C7.62953 76.9915 7.63161 76.9979 7.6324 77.0046C7.63319 77.0113 7.63266 77.018 7.63084 77.0245L5.6879 84.4147C5.68505 84.4255 5.67874 84.4351 5.66997 84.4419C5.66119 84.4487 5.65044 84.4524 5.6394 84.4523Z" fill="white"/>
<path d="M74.168 11.6572H16.8217C15.1684 11.6572 13.8281 13.0179 13.8281 14.6963V78.9195C13.8281 80.598 15.1684 81.9586 16.8217 81.9586H74.168C75.8213 81.9586 77.1616 80.598 77.1616 78.9195V14.6963C77.1616 13.0179 75.8213 11.6572 74.168 11.6572Z" fill="white"/>
<path d="M74.1119 81.9742H16.7653C15.9451 81.9732 15.1589 81.642 14.579 81.0533C13.999 80.4646 13.6728 79.6664 13.6719 78.8338V14.6106C13.6728 13.778 13.999 12.9798 14.579 12.3911C15.1589 11.8024 15.9451 11.4712 16.7653 11.4702H74.1119C74.932 11.4712 75.7183 11.8023 76.2982 12.391C76.8782 12.9798 77.2044 13.778 77.2053 14.6106V78.8338C77.2044 79.6664 76.8782 80.4646 76.2982 81.0533C75.7183 81.6421 74.932 81.9732 74.1119 81.9742ZM16.7653 11.6728C15.9981 11.6737 15.2625 11.9835 14.72 12.5343C14.1775 13.085 13.8723 13.8317 13.8714 14.6106V78.8338C13.8723 79.6127 14.1775 80.3594 14.72 80.9101C15.2625 81.4609 15.998 81.7707 16.7653 81.7716H74.1119C74.8791 81.7707 75.6147 81.4609 76.1572 80.9101C76.6997 80.3594 77.0048 79.6127 77.0057 78.8338V14.6106C77.0048 13.8317 76.6996 13.085 76.1571 12.5343C75.6146 11.9835 74.8791 11.6737 74.1119 11.6728H16.7653Z" fill="#6D18EF"/>
<path d="M77.1045 14.6104V16.9594H13.7715V14.6104C13.7715 13.8043 14.0869 13.0313 14.6483 12.4614C15.2097 11.8915 15.9711 11.5713 16.7651 11.5713H74.1109C74.9049 11.5713 75.6663 11.8915 76.2277 12.4614C76.7891 13.0313 77.1045 13.8043 77.1045 14.6104Z" fill="#6D18EF"/>
<path opacity="0.1" d="M24.3325 35.6154C28.3746 35.6154 31.6514 32.2889 31.6514 28.1854C31.6514 24.0819 28.3746 20.7554 24.3325 20.7554C20.2904 20.7554 17.0137 24.0819 17.0137 28.1854C17.0137 32.2889 20.2904 35.6154 24.3325 35.6154Z" fill="#D0F4E6"/>
<path opacity="0.2" d="M24.3331 27.8655C25.737 27.8655 26.8751 26.7101 26.8751 25.2848C26.8751 23.8595 25.737 22.7041 24.3331 22.7041C22.9291 22.7041 21.791 23.8595 21.791 25.2848C21.791 26.7101 22.9291 27.8655 24.3331 27.8655Z" fill="#D0F4E6"/>
<path opacity="0.2" d="M29.8346 33.0847C29.1477 33.8798 28.3014 34.5169 27.3525 34.9533C26.4036 35.3897 25.3738 35.6154 24.3321 35.6153C23.2903 35.6152 22.2606 35.3893 21.3118 34.9527C20.3629 34.5161 19.5168 33.8789 18.8301 33.0837C19.1819 31.8794 19.9077 30.8227 20.8994 30.0713C21.891 29.3199 23.0953 28.9139 24.3327 28.9141C25.5701 28.9142 26.7743 29.3203 27.7658 30.0719C28.7573 30.8235 29.483 31.8803 29.8346 33.0847Z" fill="#D0F4E6"/>
<path opacity="0.2" d="M27.7891 40.6841H17.8689C17.5109 40.6841 17.2207 40.9787 17.2207 41.3421C17.2207 41.7056 17.5109 42.0002 17.8689 42.0002H27.7891C28.1471 42.0002 28.4373 41.7056 28.4373 41.3421C28.4373 40.9787 28.1471 40.6841 27.7891 40.6841Z" fill="#D0F4E6"/>
<path opacity="0.1" d="M51.3599 21.2544H35.7671C35.1849 21.2544 34.7129 21.7336 34.7129 22.3247V24.5445C34.7129 25.1356 35.1849 25.6148 35.7671 25.6148H51.3599C51.9422 25.6148 52.4142 25.1356 52.4142 24.5445V22.3247C52.4142 21.7336 51.9422 21.2544 51.3599 21.2544Z" fill="#D0F4E6"/>
<path opacity="0.2" d="M58.5834 28.0254H35.2118C34.9363 28.0254 34.7129 28.2522 34.7129 28.5319C34.7129 28.8116 34.9363 29.0384 35.2118 29.0384H58.5834C58.8589 29.0384 59.0823 28.8116 59.0823 28.5319C59.0823 28.2522 58.8589 28.0254 58.5834 28.0254Z" fill="#D0F4E6"/>
<path opacity="0.2" d="M58.5834 31.0645H35.2118C34.9363 31.0645 34.7129 31.2912 34.7129 31.571C34.7129 31.8507 34.9363 32.0775 35.2118 32.0775H58.5834C58.8589 32.0775 59.0823 31.8507 59.0823 31.571C59.0823 31.2912 58.8589 31.0645 58.5834 31.0645Z" fill="#D0F4E6"/>
<path opacity="0.2" d="M54.5919 34.1035H35.2118C34.9363 34.1035 34.7129 34.3303 34.7129 34.61C34.7129 34.8898 34.9363 35.1165 35.2118 35.1165H54.5919C54.8675 35.1165 55.0908 34.8898 55.0908 34.61C55.0908 34.3303 54.8675 34.1035 54.5919 34.1035Z" fill="#D0F4E6"/>
<path opacity="0.1" d="M42.5213 43.8989H18.1578C17.6403 43.8989 17.2207 44.3249 17.2207 44.8503V47.2007C17.2207 47.7261 17.6403 48.152 18.1578 48.152H42.5213C43.0389 48.152 43.4584 47.7261 43.4584 47.2007V44.8503C43.4584 44.3249 43.0389 43.8989 42.5213 43.8989Z" fill="#D0F4E6"/>
<path opacity="0.2" d="M57.6602 40.6841H47.74C47.382 40.6841 47.0918 40.9787 47.0918 41.3421C47.0918 41.7056 47.382 42.0002 47.74 42.0002H57.6602C58.0182 42.0002 58.3084 41.7056 58.3084 41.3421C58.3084 40.9787 58.0182 40.6841 57.6602 40.6841Z" fill="#D0F4E6"/>
<path opacity="0.1" d="M72.3924 43.8989H48.0289C47.5113 43.8989 47.0918 44.3249 47.0918 44.8503V47.2007C47.0918 47.7261 47.5113 48.152 48.0289 48.152H72.3924C72.91 48.152 73.3295 47.7261 73.3295 47.2007V44.8503C73.3295 44.3249 72.91 43.8989 72.3924 43.8989Z" fill="#D0F4E6"/>
<path opacity="0.2" d="M27.7891 51.668H17.8689C17.5109 51.668 17.2207 51.9626 17.2207 52.326C17.2207 52.6895 17.5109 52.9841 17.8689 52.9841H27.7891C28.1471 52.9841 28.4373 52.6895 28.4373 52.326C28.4373 51.9626 28.1471 51.668 27.7891 51.668Z" fill="#D0F4E6"/>
<path opacity="0.1" d="M42.5213 54.8828H18.1578C17.6403 54.8828 17.2207 55.3087 17.2207 55.8341V58.1846C17.2207 58.71 17.6403 59.1359 18.1578 59.1359H42.5213C43.0389 59.1359 43.4584 58.71 43.4584 58.1846V55.8341C43.4584 55.3087 43.0389 54.8828 42.5213 54.8828Z" fill="#D0F4E6"/>
<path opacity="0.2" d="M57.6602 51.668H47.74C47.382 51.668 47.0918 51.9626 47.0918 52.326C47.0918 52.6895 47.382 52.9841 47.74 52.9841H57.6602C58.0182 52.9841 58.3084 52.6895 58.3084 52.326C58.3084 51.9626 58.0182 51.668 57.6602 51.668Z" fill="#D0F4E6"/>
<path opacity="0.1" d="M72.3924 54.8828H48.0289C47.5113 54.8828 47.0918 55.3087 47.0918 55.8341V58.1846C47.0918 58.71 47.5113 59.1359 48.0289 59.1359H72.3924C72.91 59.1359 73.3295 58.71 73.3295 58.1846V55.8341C73.3295 55.3087 72.91 54.8828 72.3924 54.8828Z" fill="#D0F4E6"/>
<path opacity="0.2" d="M27.7891 62.6519H17.8689C17.5109 62.6519 17.2207 62.9465 17.2207 63.3099C17.2207 63.6734 17.5109 63.968 17.8689 63.968H27.7891C28.1471 63.968 28.4373 63.6734 28.4373 63.3099C28.4373 62.9465 28.1471 62.6519 27.7891 62.6519Z" fill="#D0F4E6"/>
<path opacity="0.1" d="M42.5213 65.8667H18.1578C17.6403 65.8667 17.2207 66.2926 17.2207 66.818V69.1684C17.2207 69.6939 17.6403 70.1198 18.1578 70.1198H42.5213C43.0389 70.1198 43.4584 69.6939 43.4584 69.1684V66.818C43.4584 66.2926 43.0389 65.8667 42.5213 65.8667Z" fill="#D0F4E6"/>
<path opacity="0.2" d="M57.6602 62.6519H47.74C47.382 62.6519 47.0918 62.9465 47.0918 63.3099C47.0918 63.6734 47.382 63.968 47.74 63.968H57.6602C58.0182 63.968 58.3084 63.6734 58.3084 63.3099C58.3084 62.9465 58.0182 62.6519 57.6602 62.6519Z" fill="#D0F4E6"/>
<path opacity="0.1" d="M72.3924 65.8667H48.0289C47.5113 65.8667 47.0918 66.2926 47.0918 66.818V69.1684C47.0918 69.6939 47.5113 70.1198 48.0289 70.1198H72.3924C72.91 70.1198 73.3295 69.6939 73.3295 69.1684V66.818C73.3295 66.2926 72.91 65.8667 72.3924 65.8667Z" fill="#D0F4E6"/>
<path opacity="0.2" d="M53.0523 73.4331H37.8236C37.2091 73.4331 36.7109 73.9388 36.7109 74.5626V76.6478C36.7109 77.2716 37.2091 77.7774 37.8236 77.7774H53.0523C53.6668 77.7774 54.1649 77.2716 54.1649 76.6478V74.5626C54.1649 73.9388 53.6668 73.4331 53.0523 73.4331Z" fill="#D0F4E6"/>
<path d="M48.096 24.2442L49.7086 26.1777L49.6089 25.8457C49.5787 25.7379 49.59 25.6225 49.6404 25.5228C49.6909 25.4232 49.7768 25.3467 49.8807 25.3088C49.935 25.2912 49.9922 25.2849 50.049 25.2905C50.1057 25.2961 50.1607 25.3133 50.2107 25.3412C50.2607 25.369 50.3045 25.4069 50.3396 25.4525C50.3746 25.4982 50.4002 25.5506 50.4146 25.6066L51.1519 28.4247C51.2449 28.7804 51.1974 29.159 51.0194 29.4796C50.8413 29.8003 50.547 30.0376 50.199 30.1411C49.795 30.2611 49.3649 30.2559 48.9638 30.1262C48.5627 29.9965 48.209 29.7482 47.9478 29.413L46.7674 27.8923C46.7046 27.8146 46.6701 27.7171 46.6699 27.6165C46.6697 27.5159 46.7038 27.4183 46.7663 27.3402C46.8243 27.2709 46.9026 27.2222 46.9897 27.2012C47.0769 27.1803 47.1684 27.1882 47.2508 27.2237C47.2525 27.2171 47.2559 27.211 47.2608 27.2061C47.2656 27.2018 47.2714 27.1988 47.2777 27.1974C47.2839 27.1959 47.2904 27.1961 47.2966 27.1978L47.078 26.9172C47.011 26.835 46.9755 26.7309 46.9782 26.6242C46.9809 26.5175 47.0216 26.4154 47.0926 26.3367C47.1654 26.2613 47.2632 26.2159 47.3671 26.2095C47.471 26.2031 47.5735 26.2361 47.6547 26.3021C47.6553 26.2976 47.6566 26.2933 47.6587 26.2893L47.5689 26.1743C47.5103 26.0954 47.4783 25.9995 47.4775 25.9008C47.4767 25.802 47.5073 25.7057 47.5646 25.6259C47.6348 25.5401 47.7352 25.4855 47.8445 25.4739C47.9537 25.4624 48.0631 25.4947 48.1492 25.564L48.1549 25.5582L47.4773 24.7459C47.4426 24.7042 47.4165 24.6558 47.4008 24.6036C47.3851 24.5514 47.3801 24.4965 47.3859 24.4422C47.3918 24.388 47.4085 24.3355 47.435 24.288C47.4616 24.2405 47.4973 24.199 47.5402 24.166C47.6253 24.1051 47.7301 24.0793 47.8333 24.0938C47.9365 24.1083 48.0304 24.1621 48.096 24.2442Z" fill="#E98862"/>
<path opacity="0.2" d="M48.1318 25.6095C48.1335 25.6139 48.1359 25.6179 48.1389 25.6215L48.8066 26.4031C48.81 26.4071 48.8141 26.4104 48.8187 26.4128C48.8234 26.4151 48.8284 26.4166 48.8336 26.4169C48.8388 26.4173 48.844 26.4167 48.8489 26.415C48.8538 26.4134 48.8584 26.4108 48.8623 26.4073C48.8663 26.4039 48.8695 26.3997 48.8718 26.395C48.8742 26.3903 48.8756 26.3852 48.8759 26.3799C48.8763 26.3747 48.8757 26.3694 48.8741 26.3644C48.8724 26.3594 48.8699 26.3547 48.8665 26.3507L48.1994 25.5694C48.1931 25.5629 48.1849 25.5587 48.1759 25.5575C48.167 25.5563 48.158 25.5582 48.1503 25.5629C48.1426 25.5676 48.1366 25.5748 48.1334 25.5833C48.1303 25.5918 48.13 25.6012 48.1327 25.6099L48.1318 25.6095Z" fill="#0C0C0C"/>
<path opacity="0.2" d="M47.6552 26.321C47.6568 26.3252 47.6591 26.3292 47.662 26.3326L48.1817 26.9506C48.1886 26.958 48.1981 26.9624 48.2082 26.9629C48.2182 26.9634 48.2281 26.96 48.2358 26.9534C48.2434 26.9467 48.2483 26.9374 48.2494 26.9272C48.2504 26.917 48.2476 26.9068 48.2415 26.8987L47.7218 26.2808C47.7158 26.2735 47.7074 26.2687 47.6982 26.2671C47.689 26.2656 47.6795 26.2674 47.6715 26.2723C47.6635 26.2771 47.6575 26.2847 47.6544 26.2937C47.6514 26.3027 47.6517 26.3125 47.6551 26.3213L47.6552 26.321Z" fill="#0C0C0C"/>
<path opacity="0.2" d="M47.2498 27.2507C47.2516 27.2552 47.2541 27.2595 47.2573 27.2631L47.51 27.5492C47.5134 27.5531 47.5176 27.5563 47.5223 27.5586C47.5269 27.5608 47.532 27.5622 47.5371 27.5625C47.5423 27.5628 47.5475 27.562 47.5523 27.5603C47.5572 27.5585 47.5617 27.5558 47.5656 27.5523C47.5694 27.5488 47.5726 27.5446 47.5748 27.5399C47.577 27.5352 47.5783 27.53 47.5786 27.5248C47.5789 27.5195 47.5782 27.5143 47.5765 27.5093C47.5748 27.5044 47.5721 27.4998 47.5687 27.4959L47.3165 27.2097C47.3104 27.2029 47.3021 27.1985 47.2931 27.1972C47.2841 27.1959 47.2749 27.1978 47.2671 27.2025C47.2593 27.2073 47.2534 27.2147 47.2503 27.2234C47.2473 27.2321 47.2473 27.2416 47.2503 27.2503L47.2498 27.2507Z" fill="#0C0C0C"/>
<path d="M67.6286 43.6365L53.55 42.6363C53.0421 42.6002 52.5546 42.4187 52.1441 42.1129C51.7336 41.8071 51.4169 41.3895 51.2306 40.9084L46.7793 29.413L51.7941 27.4116L55.6228 37.2999L68.0043 38.1796L67.6286 43.6365Z" fill="#D0F4E6"/>
<path d="M75.8032 99.1997C75.8032 99.1997 75.3526 101.57 73.166 101.703C70.9794 101.835 71.4536 103.603 71.4536 103.603H79.8096V99.365L75.8032 99.1997Z" fill="#D0F4E6"/>
<path d="M78.3802 55.9506C78.3802 55.9506 78.3539 55.2379 78.3595 56.8546C78.3802 62.8851 78.4832 69.7732 78.7351 73.804C79.14 80.2837 80.178 100.713 80.178 100.713L74.6872 100.666L69.3652 55.7056L78.3802 55.9506Z" fill="#6D18EF"/>
<path d="M66.0278 99.1997C66.0278 99.1997 65.5772 101.57 63.3906 101.703C61.204 101.835 61.6782 103.603 61.6782 103.603H70.0342V99.365L66.0278 99.1997Z" fill="#D0F4E6"/>
<path d="M63.3695 56.4192C63.3695 56.4192 62.8831 77.0298 62.9544 78.0372L64.9964 100.557L70.3965 100.658L69.8703 77.2223C69.8703 77.2223 70.2415 70.7576 71.78 64.7547C72.5673 61.6738 73.0411 58.519 73.1939 55.3398L63.3695 56.4192Z" fill="#6D18EF"/>
<path d="M78.4395 55.9504L78.4574 55.9515C78.4574 55.9515 78.4444 55.5999 78.4395 55.9504Z" fill="#333333"/>
<path d="M62.5959 44.9789C62.7092 46.3294 63.26 54.7556 63.3689 56.4191H78.3738C78.4586 54.9187 78.8392 48.3579 79.1606 45.4239C79.4674 42.6241 80.0695 41.2223 79.6282 40.3946C78.9071 39.0418 76.9368 38.2601 75.5932 38.0754C74.7728 37.9627 73.5389 37.8818 73.5389 37.8818C73.5389 37.8818 73.4344 40.0275 70.9432 40.147C67.5519 40.309 67.7783 37.8818 67.7616 37.8818C67.2121 37.8818 64.013 38.1441 63.3058 38.6969C62.0686 39.6637 62.3555 42.1168 62.5959 44.9789Z" fill="#D0F4E6"/>
<path d="M62.3893 43.2865C62.3765 43.2865 62.3643 43.2815 62.355 43.2727C62.3457 43.2638 62.3401 43.2517 62.3394 43.2387L62.2188 41.0941C62.2181 41.0807 62.2226 41.0675 62.2314 41.0575C62.2402 41.0474 62.2525 41.0414 62.2657 41.0406C62.2789 41.04 62.2918 41.0446 62.3017 41.0535C62.3115 41.0625 62.3175 41.0749 62.3184 41.0883L62.4395 43.2329C62.4402 43.2463 62.4357 43.2594 62.4269 43.2695C62.4181 43.2795 62.4058 43.2856 62.3926 43.2864L62.3893 43.2865Z" fill="#0C0C0C"/>
<path d="M81.6181 56.3307C82.0594 56.3306 82.4942 56.2223 82.8854 56.0149C83.2767 55.8076 83.6128 55.5074 83.8651 55.1398C84.1175 54.7722 84.2786 54.3482 84.3349 53.9038C84.3911 53.4594 84.3407 53.0078 84.1881 52.5874C84.0331 52.1607 80.3989 42.3907 79.7069 40.5806L74.584 42.6877C74.9732 43.7055 76.3824 47.5635 77.5148 50.6714L75.6336 50.4638L75.0415 55.9935L81.3216 56.3143C81.42 56.3252 81.519 56.3306 81.6181 56.3307Z" fill="#D0F4E6"/>
<path d="M65.9746 37.6967C65.9915 37.6944 66.4517 39.4528 70.0437 39.1792C72.5304 38.9901 73.1371 37.2717 73.1938 37.2717C72.9256 37.2138 72.4903 37.1538 72.3711 37.0893C71.9796 36.8758 71.6944 36.6158 71.5508 36.0578C71.4385 35.6214 71.3812 33.9415 71.3812 33.0986L67.5545 33.9716C67.6079 34.9224 67.9812 37.1264 66.6728 37.5165C66.4553 37.581 66.2208 37.6403 65.9746 37.6967Z" fill="#E98862"/>
<path d="M67.6862 35.8406C69.1948 35.9614 71.1326 35.3148 71.5007 33.2717L71.8328 31.428C72.2009 29.3848 71.4422 27.5322 69.5477 27.1804C67.6527 26.8285 65.9379 28.2218 65.5699 30.265L65.4228 31.0812C65.2814 31.8653 64.9948 35.625 67.6862 35.8406Z" fill="#E98862"/>
<path d="M66.2885 33.9648C66.5593 32.5836 66.6834 31.6621 66.669 30.6899C66.2876 30.0111 66.3879 29.2311 66.4746 28.8944C66.212 29.0638 65.9032 29.1442 65.5927 29.124C65.5927 29.124 66.2233 26.5542 68.3667 25.8627C68.7609 25.7069 69.7674 25.5102 71.1039 25.6963C72.2406 25.8545 75.0426 26.7174 75.4429 29.9199V29.9217C75.4562 30.0278 75.7252 32.9785 76.2612 34.3942C76.9822 36.2974 77.9945 36.8887 77.9688 39.0845C77.9358 41.9089 72.821 42.2848 69.7364 42.0736C66.6518 41.8624 64.9293 40.8325 64.9067 38.797C64.8832 36.5164 65.7467 36.7282 66.2885 33.9648Z" fill="#0A0A0A"/>
<path d="M78.6949 45.4809L78.3262 56.418L78.4259 56.4214L78.7946 45.4843L78.6949 45.4809Z" fill="#0C0C0C"/>
<path d="M6.14656 103.806H94.4692C94.4791 103.806 94.4889 103.805 94.4982 103.801C94.5074 103.798 94.5158 103.792 94.5229 103.785C94.5301 103.778 94.5357 103.77 94.5396 103.761C94.5434 103.751 94.5454 103.741 94.5454 103.731C94.5454 103.721 94.5434 103.711 94.5396 103.702C94.5357 103.693 94.5301 103.685 94.5229 103.678C94.5158 103.671 94.5074 103.665 94.4982 103.662C94.4889 103.658 94.4791 103.656 94.4692 103.657H6.14656C6.13668 103.656 6.12683 103.658 6.1176 103.662C6.10837 103.665 6.09994 103.671 6.09282 103.678C6.0857 103.685 6.08004 103.693 6.07617 103.702C6.07231 103.711 6.07031 103.721 6.07031 103.731C6.07031 103.741 6.07231 103.751 6.07617 103.761C6.08004 103.77 6.0857 103.778 6.09282 103.785C6.09994 103.792 6.10837 103.798 6.1176 103.801C6.12683 103.805 6.13668 103.806 6.14656 103.806Z" fill="#6D18EF"/>
<path d="M72.1805 63.062C72.1805 63.062 71.9528 67.4383 71.911 68.4657C71.8134 70.8417 71.7796 73.3018 71.7796 76.091L70.9141 68.779C70.9141 68.779 71.547 66.4875 72.1805 63.062Z" fill="#0A0A0A"/>
</g>
</g>
<defs>
<clipPath id="clip0_405_2382">
<rect width="98" height="109" fill="white" transform="translate(0.111328 0.444336)"/>
</clipPath>
<clipPath id="clip1_405_2382">
<rect width="99.8846" height="97.7241" fill="white" transform="translate(0.111328 6.08203)"/>
</clipPath>
</defs>
</svg>
