<svg width="96" height="103" viewBox="0 0 96 103" fill="none" xmlns="http://www.w3.org/2000/svg">
<path d="M87.8199 29.4717L61.5148 29.4717C61.0148 29.4717 60.5353 29.2815 60.1818 28.9429C59.8283 28.6043 59.6296 28.1451 59.6296 27.6662V9.32667C59.6296 8.84806 59.8282 8.38905 60.1815 8.05062C60.5349 7.71219 61.0142 7.52207 61.514 7.52207L87.8208 7.52207C88.3205 7.52207 88.7998 7.71219 89.1532 8.05062C89.5066 8.38905 89.7051 8.84806 89.7051 9.32667V27.6662C89.7051 28.1451 89.5065 28.6043 89.1529 28.9429C88.7994 29.2815 88.3199 29.4717 87.8199 29.4717Z" fill="white"/>
<path d="M59.5508 27.6659V9.32633C59.5508 8.82771 59.7576 8.34951 60.1258 7.99694C60.4939 7.64436 60.9932 7.44629 61.5139 7.44629H87.8207C88.3413 7.44629 88.8406 7.64436 89.2088 7.99694C89.5769 8.34951 89.7837 8.82771 89.7837 9.32633V27.6659C89.7837 27.9129 89.7329 28.1575 89.6342 28.3857C89.5355 28.6139 89.3909 28.8212 89.2085 28.9959C89.0261 29.1705 88.8096 29.3091 88.5714 29.4036C88.3331 29.4981 88.0777 29.5468 87.8198 29.5468H61.5147C61.2568 29.5468 61.0014 29.4981 60.7632 29.4036C60.5249 29.3091 60.3084 29.1705 60.126 28.9959C59.9436 28.8212 59.799 28.6139 59.7003 28.3857C59.6016 28.1575 59.5508 27.9129 59.5508 27.6659ZM61.5139 7.59716C61.0351 7.59728 60.576 7.77952 60.2375 8.10379C59.899 8.42806 59.7088 8.8678 59.7088 9.32633V27.6659C59.7088 28.1247 59.8991 28.5647 60.2379 28.8892C60.5767 29.2136 61.0362 29.3959 61.5152 29.3959H87.8198C88.2989 29.3959 88.7584 29.2136 89.0971 28.8892C89.4359 28.5647 89.6262 28.1247 89.6262 27.6659V9.32633C89.6262 8.86772 89.436 8.4279 89.0974 8.10362C88.7588 7.77934 88.2995 7.59716 87.8207 7.59716H61.5139Z" fill="#292A2E"/>
<path d="M59.6289 9.32609V10.8542H89.704V9.32609C89.704 8.84748 89.5054 8.38847 89.1521 8.05004C88.7987 7.71161 88.3194 7.52148 87.8197 7.52148H61.5131C61.2656 7.52148 61.0206 7.56816 60.792 7.65885C60.5634 7.74955 60.3557 7.88247 60.1807 8.05005C60.0058 8.21762 59.867 8.41656 59.7723 8.6355C59.6776 8.85445 59.6289 9.08911 59.6289 9.32609Z" fill="#292A2E"/>
<path d="M69.9001 13.3243H68.481C68.4643 13.3243 68.4482 13.3179 68.4364 13.3066C68.4246 13.2953 68.418 13.28 68.418 13.264C68.418 13.248 68.4246 13.2326 68.4364 13.2213C68.4482 13.21 68.4643 13.2036 68.481 13.2036H69.9001C69.9169 13.2036 69.9329 13.21 69.9447 13.2213C69.9565 13.2326 69.9632 13.248 69.9632 13.264C69.9632 13.28 69.9565 13.2953 69.9447 13.3066C69.9329 13.3179 69.9169 13.3243 69.9001 13.3243Z" fill="#292A2E"/>
<path d="M67.4574 13.3243H66.9204C66.9037 13.3243 66.8877 13.3179 66.8759 13.3066C66.8641 13.2953 66.8574 13.28 66.8574 13.264C66.8574 13.248 66.8641 13.2326 66.8759 13.2213C66.8877 13.21 66.9037 13.2036 66.9204 13.2036H67.4574C67.4741 13.2036 67.4902 13.21 67.502 13.2213C67.5138 13.2326 67.5204 13.248 67.5204 13.264C67.5204 13.28 67.5138 13.2953 67.502 13.3066C67.4902 13.3179 67.4741 13.3243 67.4574 13.3243Z" fill="#21082D"/>
<path d="M67.4574 14.4127H66.9204C66.9037 14.4127 66.8877 14.4063 66.8759 14.395C66.8641 14.3837 66.8574 14.3683 66.8574 14.3523C66.8574 14.3363 66.8641 14.321 66.8759 14.3097C66.8877 14.2984 66.9037 14.292 66.9204 14.292H67.4574C67.4741 14.292 67.4902 14.2984 67.502 14.3097C67.5138 14.321 67.5204 14.3363 67.5204 14.3523C67.5204 14.3683 67.5138 14.3837 67.502 14.395C67.4902 14.4063 67.4741 14.4127 67.4574 14.4127Z" fill="#21082D"/>
<path d="M67.4574 15.5016H66.9204C66.9037 15.5016 66.8877 15.4952 66.8759 15.4839C66.8641 15.4726 66.8574 15.4572 66.8574 15.4412C66.8574 15.4252 66.8641 15.4099 66.8759 15.3985C66.8877 15.3872 66.9037 15.3809 66.9204 15.3809H67.4574C67.4741 15.3809 67.4902 15.3872 67.502 15.3985C67.5138 15.4099 67.5204 15.4252 67.5204 15.4412C67.5204 15.4572 67.5138 15.4726 67.502 15.4839C67.4902 15.4952 67.4741 15.5016 67.4574 15.5016Z" fill="#21082D"/>
<path d="M67.4574 16.5899H66.9204C66.9037 16.5899 66.8877 16.5836 66.8759 16.5723C66.8641 16.5609 66.8574 16.5456 66.8574 16.5296C66.8574 16.5136 66.8641 16.4982 66.8759 16.4869C66.8877 16.4756 66.9037 16.4692 66.9204 16.4692H67.4574C67.4741 16.4692 67.4902 16.4756 67.502 16.4869C67.5138 16.4982 67.5204 16.5136 67.5204 16.5296C67.5204 16.5456 67.5138 16.5609 67.502 16.5723C67.4902 16.5836 67.4741 16.5899 67.4574 16.5899Z" fill="#21082D"/>
<path d="M67.4574 17.6788H66.9204C66.9037 17.6788 66.8877 17.6724 66.8759 17.6611C66.8641 17.6498 66.8574 17.6345 66.8574 17.6185C66.8574 17.6024 66.8641 17.5871 66.8759 17.5758C66.8877 17.5645 66.9037 17.5581 66.9204 17.5581H67.4574C67.4741 17.5581 67.4902 17.5645 67.502 17.5758C67.5138 17.5871 67.5204 17.6024 67.5204 17.6185C67.5204 17.6345 67.5138 17.6498 67.502 17.6611C67.4902 17.6724 67.4741 17.6788 67.4574 17.6788Z" fill="#21082D"/>
<path d="M67.4574 18.7677H66.9204C66.9037 18.7677 66.8877 18.7613 66.8759 18.75C66.8641 18.7387 66.8574 18.7233 66.8574 18.7073C66.8574 18.6913 66.8641 18.676 66.8759 18.6646C66.8877 18.6533 66.9037 18.647 66.9204 18.647H67.4574C67.4741 18.647 67.4902 18.6533 67.502 18.6646C67.5138 18.676 67.5204 18.6913 67.5204 18.7073C67.5204 18.7233 67.5138 18.7387 67.502 18.75C67.4902 18.7613 67.4741 18.7677 67.4574 18.7677Z" fill="#21082D"/>
<path d="M67.4574 19.8565H66.9204C66.9037 19.8565 66.8877 19.8502 66.8759 19.8389C66.8641 19.8275 66.8574 19.8122 66.8574 19.7962C66.8574 19.7802 66.8641 19.7648 66.8759 19.7535C66.8877 19.7422 66.9037 19.7358 66.9204 19.7358H67.4574C67.4741 19.7358 67.4902 19.7422 67.502 19.7535C67.5138 19.7648 67.5204 19.7802 67.5204 19.7962C67.5204 19.8122 67.5138 19.8275 67.502 19.8389C67.4902 19.8502 67.4741 19.8565 67.4574 19.8565Z" fill="#21082D"/>
<path d="M67.4574 20.9449H66.9204C66.9037 20.9449 66.8877 20.9386 66.8759 20.9272C66.8641 20.9159 66.8574 20.9006 66.8574 20.8846C66.8574 20.8686 66.8641 20.8532 66.8759 20.8419C66.8877 20.8306 66.9037 20.8242 66.9204 20.8242H67.4574C67.4741 20.8242 67.4902 20.8306 67.502 20.8419C67.5138 20.8532 67.5204 20.8686 67.5204 20.8846C67.5204 20.9006 67.5138 20.9159 67.502 20.9272C67.4902 20.9386 67.4741 20.9449 67.4574 20.9449Z" fill="#21082D"/>
<path d="M67.4574 22.0338H66.9204C66.9037 22.0338 66.8877 22.0274 66.8759 22.0161C66.8641 22.0048 66.8574 21.9894 66.8574 21.9734C66.8574 21.9574 66.8641 21.9421 66.8759 21.9308C66.8877 21.9194 66.9037 21.9131 66.9204 21.9131H67.4574C67.4741 21.9131 67.4902 21.9194 67.502 21.9308C67.5138 21.9421 67.5204 21.9574 67.5204 21.9734C67.5204 21.9894 67.5138 22.0048 67.502 22.0161C67.4902 22.0274 67.4741 22.0338 67.4574 22.0338Z" fill="#21082D"/>
<path d="M67.4574 23.1222H66.9204C66.9037 23.1222 66.8877 23.1158 66.8759 23.1045C66.8641 23.0932 66.8574 23.0778 66.8574 23.0618C66.8574 23.0458 66.8641 23.0305 66.8759 23.0191C66.8877 23.0078 66.9037 23.0015 66.9204 23.0015H67.4574C67.4741 23.0015 67.4902 23.0078 67.502 23.0191C67.5138 23.0305 67.5204 23.0458 67.5204 23.0618C67.5204 23.0778 67.5138 23.0932 67.502 23.1045C67.4902 23.1158 67.4741 23.1222 67.4574 23.1222Z" fill="#21082D"/>
<path d="M67.4574 24.211H66.9204C66.9037 24.211 66.8877 24.2047 66.8759 24.1934C66.8641 24.182 66.8574 24.1667 66.8574 24.1507C66.8574 24.1347 66.8641 24.1193 66.8759 24.108C66.8877 24.0967 66.9037 24.0903 66.9204 24.0903H67.4574C67.4741 24.0903 67.4902 24.0967 67.502 24.108C67.5138 24.1193 67.5204 24.1347 67.5204 24.1507C67.5204 24.1667 67.5138 24.182 67.502 24.1934C67.4902 24.2047 67.4741 24.211 67.4574 24.211Z" fill="#21082D"/>
<path d="M67.4574 25.2994H66.9204C66.9037 25.2994 66.8877 25.293 66.8759 25.2817C66.8641 25.2704 66.8574 25.2551 66.8574 25.2391C66.8574 25.2231 66.8641 25.2077 66.8759 25.1964C66.8877 25.1851 66.9037 25.1787 66.9204 25.1787H67.4574C67.4741 25.1787 67.4902 25.1851 67.502 25.1964C67.5138 25.2077 67.5204 25.2231 67.5204 25.2391C67.5204 25.2551 67.5138 25.2704 67.502 25.2817C67.4902 25.293 67.4741 25.2994 67.4574 25.2994Z" fill="#21082D"/>
<path d="M67.4574 26.3883H66.9204C66.9037 26.3883 66.8877 26.3819 66.8759 26.3706C66.8641 26.3593 66.8574 26.3439 66.8574 26.3279C66.8574 26.3119 66.8641 26.2966 66.8759 26.2853C66.8877 26.2739 66.9037 26.2676 66.9204 26.2676H67.4574C67.4741 26.2676 67.4902 26.2739 67.502 26.2853C67.5138 26.2966 67.5204 26.3119 67.5204 26.3279C67.5204 26.3439 67.5138 26.3593 67.502 26.3706C67.4902 26.3819 67.4741 26.3883 67.4574 26.3883Z" fill="#21082D"/>
<path d="M67.4574 27.4771H66.9204C66.9037 27.4771 66.8877 27.4708 66.8759 27.4595C66.8641 27.4481 66.8574 27.4328 66.8574 27.4168C66.8574 27.4008 66.8641 27.3854 66.8759 27.3741C66.8877 27.3628 66.9037 27.3564 66.9204 27.3564H67.4574C67.4741 27.3564 67.4902 27.3628 67.502 27.3741C67.5138 27.3854 67.5204 27.4008 67.5204 27.4168C67.5204 27.4328 67.5138 27.4481 67.502 27.4595C67.4902 27.4708 67.4741 27.4771 67.4574 27.4771Z" fill="#21082D"/>
<path d="M71.0339 14.4132H69.7407C69.724 14.4132 69.708 14.4068 69.6962 14.3955C69.6844 14.3842 69.6777 14.3688 69.6777 14.3528C69.6777 14.3368 69.6844 14.3215 69.6962 14.3102C69.708 14.2988 69.724 14.2925 69.7407 14.2925H71.0339C71.0506 14.2925 71.0666 14.2988 71.0784 14.3102C71.0902 14.3215 71.0969 14.3368 71.0969 14.3528C71.0969 14.3688 71.0902 14.3842 71.0784 14.3955C71.0666 14.4068 71.0506 14.4132 71.0339 14.4132Z" fill="#292A2E"/>
<path d="M69.9001 20.9449H68.481C68.4643 20.9449 68.4482 20.9386 68.4364 20.9272C68.4246 20.9159 68.418 20.9006 68.418 20.8846C68.418 20.8686 68.4246 20.8532 68.4364 20.8419C68.4482 20.8306 68.4643 20.8242 68.481 20.8242H69.9001C69.9169 20.8242 69.9329 20.8306 69.9447 20.8419C69.9565 20.8532 69.9632 20.8686 69.9632 20.8846C69.9632 20.9006 69.9565 20.9159 69.9447 20.9272C69.9329 20.9386 69.9169 20.9449 69.9001 20.9449Z" fill="#292A2E"/>
<path d="M71.0339 22.0338H69.7407C69.724 22.0338 69.708 22.0274 69.6962 22.0161C69.6844 22.0048 69.6777 21.9894 69.6777 21.9734C69.6777 21.9574 69.6844 21.9421 69.6962 21.9308C69.708 21.9194 69.724 21.9131 69.7407 21.9131H71.0339C71.0506 21.9131 71.0666 21.9194 71.0784 21.9308C71.0902 21.9421 71.0969 21.9574 71.0969 21.9734C71.0969 21.9894 71.0902 22.0048 71.0784 22.0161C71.0666 22.0274 71.0506 22.0338 71.0339 22.0338Z" fill="#292A2E"/>
<path d="M78.3439 15.5016H70.6236C70.6068 15.5016 70.5908 15.4952 70.579 15.4839C70.5672 15.4726 70.5605 15.4572 70.5605 15.4412C70.5605 15.4252 70.5672 15.4099 70.579 15.3985C70.5908 15.3872 70.6068 15.3809 70.6236 15.3809H78.3439C78.3606 15.3809 78.3767 15.3872 78.3885 15.3985C78.4003 15.4099 78.4069 15.4252 78.4069 15.4412C78.4069 15.4572 78.4003 15.4726 78.3885 15.4839C78.3767 15.4952 78.3606 15.5016 78.3439 15.5016Z" fill="#292A2E"/>
<path d="M85.1613 15.5016H79.7095C79.6928 15.5016 79.6768 15.4952 79.6649 15.4839C79.6531 15.4726 79.6465 15.4572 79.6465 15.4412C79.6465 15.4252 79.6531 15.4099 79.6649 15.3985C79.6768 15.3872 79.6928 15.3809 79.7095 15.3809H85.1613C85.178 15.3809 85.194 15.3872 85.2059 15.3985C85.2177 15.4099 85.2243 15.4252 85.2243 15.4412C85.2243 15.4572 85.2177 15.4726 85.2059 15.4839C85.194 15.4952 85.178 15.5016 85.1613 15.5016Z" fill="#0CBC8B"/>
<path d="M88.0857 15.5016H86.4146C86.3979 15.5016 86.3818 15.4952 86.37 15.4839C86.3582 15.4726 86.3516 15.4572 86.3516 15.4412C86.3516 15.4252 86.3582 15.4099 86.37 15.3985C86.3818 15.3872 86.3979 15.3809 86.4146 15.3809H88.0857C88.1024 15.3809 88.1184 15.3872 88.1302 15.3985C88.142 15.4099 88.1487 15.4252 88.1487 15.4412C88.1487 15.4572 88.142 15.4726 88.1302 15.4839C88.1184 15.4952 88.1024 15.5016 88.0857 15.5016Z" fill="#292A2E"/>
<path d="M82.1247 17.6788H70.6236C70.6068 17.6788 70.5908 17.6724 70.579 17.6611C70.5672 17.6498 70.5605 17.6345 70.5605 17.6185C70.5605 17.6024 70.5672 17.5871 70.579 17.5758C70.5908 17.5645 70.6068 17.5581 70.6236 17.5581H82.1247C82.1414 17.5581 82.1574 17.5645 82.1692 17.5758C82.181 17.5871 82.1877 17.6024 82.1877 17.6185C82.1877 17.6345 82.181 17.6498 82.1692 17.6611C82.1574 17.6724 82.1414 17.6788 82.1247 17.6788Z" fill="#292A2E"/>
<path d="M85.1599 17.6788H83.4888C83.4721 17.6788 83.4561 17.6724 83.4442 17.6611C83.4324 17.6498 83.4258 17.6345 83.4258 17.6185C83.4258 17.6024 83.4324 17.5871 83.4442 17.5758C83.4561 17.5645 83.4721 17.5581 83.4888 17.5581H85.1599C85.1766 17.5581 85.1926 17.5645 85.2044 17.5758C85.2163 17.5871 85.2229 17.6024 85.2229 17.6185C85.2229 17.6345 85.2163 17.6498 85.2044 17.6611C85.1926 17.6724 85.1766 17.6788 85.1599 17.6788Z" fill="#21082D"/>
<path d="M72.0427 16.5904H70.6236C70.6068 16.5904 70.5908 16.5841 70.579 16.5727C70.5672 16.5614 70.5605 16.5461 70.5605 16.5301C70.5605 16.5141 70.5672 16.4987 70.579 16.4874C70.5908 16.4761 70.6068 16.4697 70.6236 16.4697H72.0427C72.0594 16.4697 72.0755 16.4761 72.0873 16.4874C72.0991 16.4987 72.1057 16.5141 72.1057 16.5301C72.1057 16.5461 72.0991 16.5614 72.0873 16.5727C72.0755 16.5841 72.0594 16.5904 72.0427 16.5904Z" fill="#0CBC8B"/>
<path d="M81.3791 16.5904H73.4068C73.3901 16.5904 73.374 16.5841 73.3622 16.5727C73.3504 16.5614 73.3438 16.5461 73.3438 16.5301C73.3438 16.5141 73.3504 16.4987 73.3622 16.4874C73.374 16.4761 73.3901 16.4697 73.4068 16.4697H81.3791C81.3958 16.4697 81.4118 16.4761 81.4236 16.4874C81.4354 16.4987 81.4421 16.5141 81.4421 16.5301C81.4421 16.5461 81.4354 16.5614 81.4236 16.5727C81.4118 16.5841 81.3958 16.5904 81.3791 16.5904Z" fill="#21082D"/>
<path d="M88.0971 16.5904H82.897C82.8803 16.5904 82.8643 16.5841 82.8524 16.5727C82.8406 16.5614 82.834 16.5461 82.834 16.5301C82.834 16.5141 82.8406 16.4987 82.8524 16.4874C82.8643 16.4761 82.8803 16.4697 82.897 16.4697H88.0969C88.1136 16.4697 88.1296 16.4761 88.1414 16.4874C88.1532 16.4987 88.1599 16.5141 88.1599 16.5301C88.1599 16.5461 88.1532 16.5614 88.1414 16.5727C88.1296 16.5841 88.1136 16.5904 88.0969 16.5904H88.0971Z" fill="#292A2E"/>
<path d="M78.3439 18.7677H70.6236C70.6068 18.7677 70.5908 18.7613 70.579 18.75C70.5672 18.7387 70.5605 18.7233 70.5605 18.7073C70.5605 18.6913 70.5672 18.676 70.579 18.6646C70.5908 18.6533 70.6068 18.647 70.6236 18.647H78.3439C78.3606 18.647 78.3767 18.6533 78.3885 18.6646C78.4003 18.676 78.4069 18.6913 78.4069 18.7073C78.4069 18.7233 78.4003 18.7387 78.3885 18.75C78.3767 18.7613 78.3606 18.7677 78.3439 18.7677Z" fill="#292A2E"/>
<path d="M82.6408 18.7677H79.7095C79.6928 18.7677 79.6768 18.7613 79.6649 18.75C79.6531 18.7387 79.6465 18.7233 79.6465 18.7073C79.6465 18.6913 79.6531 18.676 79.6649 18.6646C79.6768 18.6533 79.6928 18.647 79.7095 18.647H82.6408C82.6575 18.647 82.6736 18.6533 82.6854 18.6646C82.6972 18.676 82.7038 18.6913 82.7038 18.7073C82.7038 18.7233 82.6972 18.7387 82.6854 18.75C82.6736 18.7613 82.6575 18.7677 82.6408 18.7677Z" fill="#0CBC8B"/>
<path d="M88.0866 18.7677H83.895C83.8783 18.7677 83.8623 18.7613 83.8505 18.75C83.8387 18.7387 83.832 18.7233 83.832 18.7073C83.832 18.6913 83.8387 18.676 83.8505 18.6646C83.8623 18.6533 83.8783 18.647 83.895 18.647H88.0866C88.1033 18.647 88.1194 18.6533 88.1312 18.6646C88.143 18.676 88.1496 18.6913 88.1496 18.7073C88.1496 18.7233 88.143 18.7387 88.1312 18.75C88.1194 18.7613 88.1033 18.7677 88.0866 18.7677Z" fill="#292A2E"/>
<path d="M72.0427 19.856H70.6236C70.6068 19.856 70.5908 19.8497 70.579 19.8384C70.5672 19.8271 70.5605 19.8117 70.5605 19.7957C70.5605 19.7797 70.5672 19.7643 70.579 19.753C70.5908 19.7417 70.6068 19.7354 70.6236 19.7354H72.0427C72.0594 19.7354 72.0755 19.7417 72.0873 19.753C72.0991 19.7643 72.1057 19.7797 72.1057 19.7957C72.1057 19.8117 72.0991 19.8271 72.0873 19.8384C72.0755 19.8497 72.0594 19.856 72.0427 19.856Z" fill="#21082D"/>
<path d="M81.3791 19.856H73.4068C73.3901 19.856 73.374 19.8497 73.3622 19.8384C73.3504 19.8271 73.3438 19.8117 73.3438 19.7957C73.3438 19.7797 73.3504 19.7643 73.3622 19.753C73.374 19.7417 73.3901 19.7354 73.4068 19.7354H81.3791C81.3958 19.7354 81.4118 19.7417 81.4236 19.753C81.4354 19.7643 81.4421 19.7797 81.4421 19.7957C81.4421 19.8117 81.4354 19.8271 81.4236 19.8384C81.4118 19.8497 81.3958 19.856 81.3791 19.856Z" fill="#0CBC8B"/>
<path d="M78.092 24.211H70.3716C70.3549 24.211 70.3389 24.2047 70.327 24.1934C70.3152 24.182 70.3086 24.1667 70.3086 24.1507C70.3086 24.1347 70.3152 24.1193 70.327 24.108C70.3389 24.0967 70.3549 24.0903 70.3716 24.0903H78.092C78.1087 24.0903 78.1247 24.0967 78.1365 24.108C78.1483 24.1193 78.155 24.1347 78.155 24.1507C78.155 24.1667 78.1483 24.182 78.1365 24.1934C78.1247 24.2047 78.1087 24.211 78.092 24.211Z" fill="#292A2E"/>
<path d="M84.9074 24.211H79.4556C79.4389 24.211 79.4229 24.2047 79.411 24.1934C79.3992 24.182 79.3926 24.1667 79.3926 24.1507C79.3926 24.1347 79.3992 24.1193 79.411 24.108C79.4229 24.0967 79.4389 24.0903 79.4556 24.0903H84.9074C84.9241 24.0903 84.9401 24.0967 84.952 24.108C84.9638 24.1193 84.9704 24.1347 84.9704 24.1507C84.9704 24.1667 84.9638 24.182 84.952 24.1934C84.9401 24.2047 84.9241 24.211 84.9074 24.211Z" fill="#21082D"/>
<path d="M74.3112 23.1226H70.3716C70.3549 23.1226 70.3389 23.1163 70.327 23.105C70.3152 23.0937 70.3086 23.0783 70.3086 23.0623C70.3086 23.0463 70.3152 23.0309 70.327 23.0196C70.3389 23.0083 70.3549 23.002 70.3716 23.002H74.3112C74.328 23.002 74.344 23.0083 74.3558 23.0196C74.3676 23.0309 74.3743 23.0463 74.3743 23.0623C74.3743 23.0783 74.3676 23.0937 74.3558 23.105C74.344 23.1163 74.328 23.1226 74.3112 23.1226Z" fill="#0CBC8B"/>
<path d="M81.1281 23.1226H75.6763C75.6596 23.1226 75.6436 23.1163 75.6317 23.105C75.6199 23.0937 75.6133 23.0783 75.6133 23.0623C75.6133 23.0463 75.6199 23.0309 75.6317 23.0196C75.6436 23.0083 75.6596 23.002 75.6763 23.002H81.1281C81.1448 23.002 81.1608 23.0083 81.1727 23.0196C81.1845 23.0309 81.1911 23.0463 81.1911 23.0623C81.1911 23.0783 81.1845 23.0937 81.1727 23.105C81.1608 23.1163 81.1448 23.1226 81.1281 23.1226Z" fill="#21082D"/>
<path d="M87.8452 23.1226H82.645C82.6283 23.1226 82.6123 23.1163 82.6005 23.105C82.5887 23.0937 82.582 23.0783 82.582 23.0623C82.582 23.0463 82.5887 23.0309 82.6005 23.0196C82.6123 23.0083 82.6283 23.002 82.645 23.002H87.8449C87.8616 23.002 87.8777 23.0083 87.8895 23.0196C87.9013 23.0309 87.9079 23.0463 87.9079 23.0623C87.9079 23.0783 87.9013 23.0937 87.8895 23.105C87.8777 23.1163 87.8616 23.1226 87.8449 23.1226H87.8452Z" fill="#292A2E"/>
<path d="M81.8727 26.3883H70.3716C70.3549 26.3883 70.3389 26.3819 70.327 26.3706C70.3152 26.3593 70.3086 26.3439 70.3086 26.3279C70.3086 26.3119 70.3152 26.2966 70.327 26.2853C70.3389 26.2739 70.3549 26.2676 70.3716 26.2676H81.8727C81.8894 26.2676 81.9054 26.2739 81.9173 26.2853C81.9291 26.2966 81.9357 26.3119 81.9357 26.3279C81.9357 26.3439 81.9291 26.3593 81.9173 26.3706C81.9054 26.3819 81.8894 26.3883 81.8727 26.3883Z" fill="#21082D"/>
<path d="M84.9079 26.3883H83.2368C83.2201 26.3883 83.2041 26.3819 83.1923 26.3706C83.1805 26.3593 83.1738 26.3439 83.1738 26.3279C83.1738 26.3119 83.1805 26.2966 83.1923 26.2853C83.2041 26.2739 83.2201 26.2676 83.2368 26.2676H84.9079C84.9246 26.2676 84.9407 26.2739 84.9525 26.2853C84.9643 26.2966 84.9709 26.3119 84.9709 26.3279C84.9709 26.3439 84.9643 26.3593 84.9525 26.3706C84.9407 26.3819 84.9246 26.3883 84.9079 26.3883Z" fill="#292A2E"/>
<path d="M71.7908 25.2999H70.3716C70.3549 25.2999 70.3389 25.2935 70.327 25.2822C70.3152 25.2709 70.3086 25.2556 70.3086 25.2395C70.3086 25.2235 70.3152 25.2082 70.327 25.1969C70.3389 25.1856 70.3549 25.1792 70.3716 25.1792H71.7908C71.8075 25.1792 71.8235 25.1856 71.8353 25.1969C71.8471 25.2082 71.8538 25.2235 71.8538 25.2395C71.8538 25.2556 71.8471 25.2709 71.8353 25.2822C71.8235 25.2935 71.8075 25.2999 71.7908 25.2999Z" fill="#21082D"/>
<path d="M81.1271 25.2999H73.1548C73.1381 25.2999 73.1221 25.2935 73.1103 25.2822C73.0984 25.2709 73.0918 25.2556 73.0918 25.2395C73.0918 25.2235 73.0984 25.2082 73.1103 25.1969C73.1221 25.1856 73.1381 25.1792 73.1548 25.1792H81.1271C81.1438 25.1792 81.1598 25.1856 81.1717 25.1969C81.1835 25.2082 81.1901 25.2235 81.1901 25.2395C81.1901 25.2556 81.1835 25.2709 81.1717 25.2822C81.1598 25.2935 81.1438 25.2999 81.1271 25.2999Z" fill="#292A2E"/>
<path d="M87.8452 25.2999H82.645C82.6283 25.2999 82.6123 25.2935 82.6005 25.2822C82.5887 25.2709 82.582 25.2556 82.582 25.2395C82.582 25.2235 82.5887 25.2082 82.6005 25.1969C82.6123 25.1856 82.6283 25.1792 82.645 25.1792H87.8449C87.8616 25.1792 87.8777 25.1856 87.8895 25.1969C87.9013 25.2082 87.9079 25.2235 87.9079 25.2395C87.9079 25.2556 87.9013 25.2709 87.8895 25.2822C87.8777 25.2935 87.8616 25.2999 87.8449 25.2999H87.8452Z" fill="#0CBC8B"/>
<path d="M78.092 27.4771H70.3716C70.3549 27.4771 70.3389 27.4708 70.327 27.4595C70.3152 27.4481 70.3086 27.4328 70.3086 27.4168C70.3086 27.4008 70.3152 27.3854 70.327 27.3741C70.3389 27.3628 70.3549 27.3564 70.3716 27.3564H78.092C78.1087 27.3564 78.1247 27.3628 78.1365 27.3741C78.1483 27.3854 78.155 27.4008 78.155 27.4168C78.155 27.4328 78.1483 27.4481 78.1365 27.4595C78.1247 27.4708 78.1087 27.4771 78.092 27.4771Z" fill="#0CBC8B"/>
<path d="M82.3869 27.4771H79.4556C79.4389 27.4771 79.4229 27.4708 79.411 27.4595C79.3992 27.4481 79.3926 27.4328 79.3926 27.4168C79.3926 27.4008 79.3992 27.3854 79.411 27.3741C79.4229 27.3628 79.4389 27.3564 79.4556 27.3564H82.3869C82.4036 27.3564 82.4197 27.3628 82.4315 27.3741C82.4433 27.3854 82.4499 27.4008 82.4499 27.4168C82.4499 27.4328 82.4433 27.4481 82.4315 27.4595C82.4197 27.4708 82.4036 27.4771 82.3869 27.4771Z" fill="#292A2E"/>
<path d="M87.8347 27.4771H83.6431C83.6264 27.4771 83.6104 27.4708 83.5985 27.4595C83.5867 27.4481 83.5801 27.4328 83.5801 27.4168C83.5801 27.4008 83.5867 27.3854 83.5985 27.3741C83.6104 27.3628 83.6264 27.3564 83.6431 27.3564H87.8347C87.8514 27.3564 87.8674 27.3628 87.8792 27.3741C87.891 27.3854 87.8977 27.4008 87.8977 27.4168C87.8977 27.4328 87.891 27.4481 87.8792 27.4595C87.8674 27.4708 87.8514 27.4771 87.8347 27.4771Z" fill="#21082D"/>
<path d="M66.3228 28.6421C66.3061 28.6421 66.29 28.6357 66.2782 28.6244C66.2664 28.6131 66.2598 28.5977 66.2598 28.5817V11.4241C66.2598 11.4081 66.2664 11.3928 66.2782 11.3814C66.29 11.3701 66.3061 11.3638 66.3228 11.3638C66.3395 11.3638 66.3555 11.3701 66.3673 11.3814C66.3792 11.3928 66.3858 11.4081 66.3858 11.4241V28.5817C66.3858 28.5977 66.3792 28.6131 66.3673 28.6244C66.3555 28.6357 66.3395 28.6421 66.3228 28.6421Z" fill="#292A2E"/>
<path d="M87.427 10.2767C87.9853 10.2767 88.4379 9.84325 88.4379 9.30853C88.4379 8.77381 87.9853 8.34033 87.427 8.34033C86.8686 8.34033 86.416 8.77381 86.416 9.30853C86.416 9.84325 86.8686 10.2767 87.427 10.2767Z" fill="white"/>
<path d="M63.4401 12.1778H60.7114C60.6947 12.1778 60.6787 12.1715 60.6669 12.1601C60.6551 12.1488 60.6484 12.1335 60.6484 12.1175C60.6484 12.1015 60.6551 12.0861 60.6669 12.0748C60.6787 12.0635 60.6947 12.0571 60.7114 12.0571H63.4401C63.4568 12.0571 63.4729 12.0635 63.4847 12.0748C63.4965 12.0861 63.5031 12.1015 63.5031 12.1175C63.5031 12.1335 63.4965 12.1488 63.4847 12.1601C63.4729 12.1715 63.4568 12.1778 63.4401 12.1778Z" fill="#292A2E"/>
<path d="M62.6181 13.3683H60.7114C60.6947 13.3683 60.6787 13.3619 60.6669 13.3506C60.6551 13.3393 60.6484 13.3239 60.6484 13.3079C60.6484 13.2919 60.6551 13.2766 60.6669 13.2652C60.6787 13.2539 60.6947 13.2476 60.7114 13.2476H62.6181C62.6348 13.2476 62.6508 13.2539 62.6626 13.2652C62.6744 13.2766 62.6811 13.2919 62.6811 13.3079C62.6811 13.3239 62.6744 13.3393 62.6626 13.3506C62.6508 13.3619 62.6348 13.3683 62.6181 13.3683Z" fill="#292A2E"/>
<path d="M64.2948 14.5582H60.7114C60.6947 14.5582 60.6787 14.5518 60.6669 14.5405C60.6551 14.5292 60.6484 14.5139 60.6484 14.4978C60.6484 14.4818 60.6551 14.4665 60.6669 14.4552C60.6787 14.4439 60.6947 14.4375 60.7114 14.4375H64.2948C64.3115 14.4375 64.3276 14.4439 64.3394 14.4552C64.3512 14.4665 64.3578 14.4818 64.3578 14.4978C64.3578 14.5139 64.3512 14.5292 64.3394 14.5405C64.3276 14.5518 64.3115 14.5582 64.2948 14.5582Z" fill="#292A2E"/>
<path d="M64.963 15.7486H61.9712C61.9545 15.7486 61.9385 15.7423 61.9267 15.7309C61.9148 15.7196 61.9082 15.7043 61.9082 15.6883C61.9082 15.6723 61.9148 15.6569 61.9267 15.6456C61.9385 15.6343 61.9545 15.6279 61.9712 15.6279H64.963C64.9797 15.6279 64.9958 15.6343 65.0076 15.6456C65.0194 15.6569 65.026 15.6723 65.026 15.6883C65.026 15.7043 65.0194 15.7196 65.0076 15.7309C64.9958 15.7423 64.9797 15.7486 64.963 15.7486Z" fill="#292A2E"/>
<path d="M63.5163 16.9391H61.9712C61.9545 16.9391 61.9385 16.9327 61.9267 16.9214C61.9148 16.9101 61.9082 16.8947 61.9082 16.8787C61.9082 16.8627 61.9148 16.8474 61.9267 16.836C61.9385 16.8247 61.9545 16.8184 61.9712 16.8184H63.5163C63.533 16.8184 63.549 16.8247 63.5608 16.836C63.5726 16.8474 63.5793 16.8627 63.5793 16.8787C63.5793 16.8947 63.5726 16.9101 63.5608 16.9214C63.549 16.9327 63.533 16.9391 63.5163 16.9391Z" fill="#292A2E"/>
<path d="M64.6999 18.1295H61.9712C61.9545 18.1295 61.9385 18.1231 61.9267 18.1118C61.9148 18.1005 61.9082 18.0851 61.9082 18.0691C61.9082 18.0531 61.9148 18.0378 61.9267 18.0265C61.9385 18.0151 61.9545 18.0088 61.9712 18.0088H64.6999C64.7166 18.0088 64.7326 18.0151 64.7444 18.0265C64.7563 18.0378 64.7629 18.0531 64.7629 18.0691C64.7629 18.0851 64.7563 18.1005 64.7444 18.1118C64.7326 18.1231 64.7166 18.1295 64.6999 18.1295Z" fill="#292A2E"/>
<path d="M62.8154 19.3194H60.7114C60.6947 19.3194 60.6787 19.3131 60.6669 19.3017C60.6551 19.2904 60.6484 19.2751 60.6484 19.2591C60.6484 19.2431 60.6551 19.2277 60.6669 19.2164C60.6787 19.2051 60.6947 19.1987 60.7114 19.1987H62.8154C62.8321 19.1987 62.8482 19.2051 62.86 19.2164C62.8718 19.2277 62.8784 19.2431 62.8784 19.2591C62.8784 19.2751 62.8718 19.2904 62.86 19.3017C62.8482 19.3131 62.8321 19.3194 62.8154 19.3194Z" fill="#292A2E"/>
<path d="M62.0922 20.5094H60.7114C60.6947 20.5094 60.6787 20.503 60.6669 20.4917C60.6551 20.4804 60.6484 20.465 60.6484 20.449C60.6484 20.433 60.6551 20.4177 60.6669 20.4063C60.6787 20.395 60.6947 20.3887 60.7114 20.3887H62.0922C62.1089 20.3887 62.1249 20.395 62.1367 20.4063C62.1485 20.4177 62.1552 20.433 62.1552 20.449C62.1552 20.465 62.1485 20.4804 62.1367 20.4917C62.1249 20.503 62.1089 20.5094 62.0922 20.5094Z" fill="#292A2E"/>
<path d="M67.3722 11.9226V11.9443L68.1598 12.2243C68.1711 12.2287 68.1807 12.2362 68.1874 12.2459C68.1942 12.2556 68.1977 12.267 68.1976 12.2786V12.2991C68.1979 12.3082 68.1957 12.3172 68.1912 12.3252C68.1868 12.3332 68.1804 12.34 68.1724 12.345C68.1645 12.3504 68.1552 12.3538 68.1455 12.3548C68.1358 12.3559 68.1259 12.3546 68.1169 12.351L67.2273 12.0179C67.2162 12.0137 67.2066 12.0063 67.1999 11.9969C67.1932 11.9874 67.1895 11.9763 67.1895 11.9648V11.9033C67.1894 11.8918 67.1929 11.8805 67.1997 11.871C67.2064 11.8615 67.2161 11.8543 67.2273 11.8501L68.1169 11.5158C68.1242 11.5135 68.1318 11.5122 68.1396 11.5122C68.1512 11.5124 68.1626 11.5158 68.1724 11.5219C68.1804 11.5271 68.1869 11.5341 68.1913 11.5423C68.1957 11.5506 68.1979 11.5597 68.1976 11.5689V11.5895C68.1979 11.601 68.1944 11.6123 68.1876 11.6218C68.1809 11.6313 68.1711 11.6386 68.1598 11.6426L67.3722 11.9226Z" fill="#21082D"/>
<path d="M68.9346 11.2694L68.4632 12.6514C68.4594 12.6629 68.4519 12.673 68.4417 12.6801C68.4315 12.6873 68.4192 12.6911 68.4065 12.6912C68.3974 12.6913 68.3884 12.6893 68.3802 12.6853C68.3721 12.6813 68.3651 12.6755 68.3599 12.6683C68.3543 12.6611 68.3504 12.6528 68.3487 12.644C68.347 12.6352 68.3474 12.6262 68.3499 12.6176L68.8212 11.2368C68.8252 11.2251 68.8329 11.2148 68.8433 11.2075C68.8537 11.2001 68.8662 11.196 68.8791 11.1958C68.8882 11.1958 68.8972 11.1978 68.9054 11.2018C68.9135 11.2058 68.9205 11.2116 68.9258 11.2187C68.9314 11.2259 68.9352 11.2342 68.9367 11.243C68.9382 11.2519 68.9375 11.2609 68.9346 11.2694Z" fill="#21082D"/>
<path d="M70.0902 11.9033V11.9648C70.0904 11.9762 70.087 11.9873 70.0805 11.9968C70.074 12.0062 70.0647 12.0136 70.0537 12.0179L69.1627 12.351C69.1539 12.3545 69.1443 12.3558 69.1348 12.3548C69.1253 12.3537 69.1163 12.3503 69.1085 12.345C69.1004 12.3401 69.0938 12.3333 69.0892 12.3253C69.0845 12.3173 69.0821 12.3083 69.082 12.2991V12.2786C69.0819 12.2668 69.0856 12.2553 69.0926 12.2456C69.0996 12.2358 69.1096 12.2284 69.1211 12.2243L69.9088 11.9443V11.9226L69.1211 11.6426C69.1095 11.6389 69.0995 11.6317 69.0925 11.6222C69.0854 11.6126 69.0818 11.6011 69.082 11.5895V11.5689C69.0821 11.5596 69.0845 11.5504 69.0891 11.5422C69.0938 11.534 69.1004 11.527 69.1085 11.5219C69.1183 11.5158 69.1296 11.5125 69.1413 11.5122C69.1486 11.5121 69.1559 11.5134 69.1627 11.5158L70.0537 11.8502C70.0647 11.8543 70.0742 11.8617 70.0807 11.8712C70.0873 11.8807 70.0906 11.8919 70.0902 11.9033Z" fill="#21082D"/>
<path d="M52.2737 0.8125H7.88477V43.3236H52.2737V0.8125Z" fill="#F4F4F4"/>
<path d="M7.88376 0.8125H7.375V43.3236H7.88376V0.8125Z" fill="#F4F4F4"/>
<path opacity="0.05" d="M7.88376 0.8125H7.375V43.3236H7.88376V0.8125Z" fill="#292A2E"/>
<path opacity="0.05" d="M18.6376 30.1062V18.9839H28.1509V25.4458H42.8869V36.8871H49.1499V43.3237H42.8869H41.6803H10.0195V30.1062H18.6376Z" fill="#292A2E"/>
<path opacity="0.34" d="M26.9296 20.1914H20.002V21.3991H26.9296V20.1914Z" fill="#FFFFFA"/>
<path opacity="0.34" d="M26.9296 22.6943H20.002V23.902H26.9296V22.6943Z" fill="#FFFFFA"/>
<path opacity="0.34" d="M26.9296 25.1963H20.002V26.4039H26.9296V25.1963Z" fill="#FFFFFA"/>
<path opacity="0.34" d="M12.5249 31.2783H11.248V32.486H12.5249V31.2783Z" fill="#FFFFFA"/>
<path opacity="0.34" d="M12.5249 33.7808H11.248V34.9884H12.5249V33.7808Z" fill="#FFFFFA"/>
<path opacity="0.34" d="M12.5249 36.2837H11.248V37.4913H12.5249V36.2837Z" fill="#FFFFFA"/>
<path opacity="0.34" d="M14.8882 31.2783H13.6113V32.486H14.8882V31.2783Z" fill="#FFFFFA"/>
<path opacity="0.34" d="M14.8882 33.7808H13.6113V34.9884H14.8882V33.7808Z" fill="#FFFFFA"/>
<path opacity="0.34" d="M14.8882 36.2837H13.6113V37.4913H14.8882V36.2837Z" fill="#FFFFFA"/>
<path opacity="0.34" d="M17.1851 31.2783H15.9082V32.486H17.1851V31.2783Z" fill="#FFFFFA"/>
<path opacity="0.34" d="M17.1851 33.7808H15.9082V34.9884H17.1851V33.7808Z" fill="#FFFFFA"/>
<path opacity="0.34" d="M17.1851 36.2837H15.9082V37.4913H17.1851V36.2837Z" fill="#FFFFFA"/>
<path d="M7.88477 21.8296H16.8166V0.8125H17.5552V21.8296H41.6809V0.8125H42.4196V21.8296H52.2737V22.537H42.4196V43.3236H41.6809V22.537H17.5552V43.3236H16.8166V22.537H7.88477V21.8296Z" fill="white"/>
<path d="M54.0407 43.2725H6.11523V44.6863H54.0407V43.2725Z" fill="#F4F4F4"/>
<path opacity="0.1" d="M54.0407 43.2725H6.11523V44.6863H54.0407V43.2725Z" fill="#292A2E"/>
<path opacity="0.1" d="M6.11583 43.2725H5.42383V44.6863H6.11583V43.2725Z" fill="#292A2E"/>
<path opacity="0.1" d="M6.11583 43.2725H5.42383V44.6863H6.11583V43.2725Z" fill="#292A2E"/>
<path d="M7.37578 2.62256L52.2734 2.62256V1.57144L7.37578 1.57144V2.62256Z" fill="white"/>
<path d="M7.37578 4.58594L52.2734 4.58594V3.53482L7.37578 3.53482V4.58594Z" fill="white"/>
<path d="M7.37578 6.54932L52.2734 6.54932V5.4982L7.37578 5.4982V6.54932Z" fill="white"/>
<path d="M7.37578 8.51221L52.2734 8.51221V7.46109L7.37578 7.46109V8.51221Z" fill="white"/>
<path d="M7.37578 10.4756L52.2734 10.4756V9.42447L7.37578 9.42447V10.4756Z" fill="white"/>
<path d="M12.1436 11.6611H12.8164L12.8164 0.812388H12.1436L12.1436 11.6611Z" fill="white"/>
<path d="M12.4244 13.2193C12.9349 13.2193 13.3488 12.8229 13.3488 12.334C13.3488 11.8451 12.9349 11.4487 12.4244 11.4487C11.9139 11.4487 11.5 11.8451 11.5 12.334C11.5 12.8229 11.9139 13.2193 12.4244 13.2193Z" fill="white"/>
<path d="M7.76704 102.414L7.51953 102.368L11.388 65.5532L11.6355 65.5988L7.76704 102.414Z" fill="#494949"/>
<path d="M22.1713 102.414L21.9238 102.368L25.7921 65.5532L26.0397 65.5988L22.1713 102.414Z" fill="#494949"/>
<path d="M54.011 102.414L54.2585 102.368L50.3901 65.5532L50.1426 65.5988L54.011 102.414Z" fill="#494949"/>
<path d="M39.6066 102.414L39.8541 102.368L35.9858 65.5532L35.7383 65.5988L39.6066 102.414Z" fill="#494949"/>
<path d="M34.4764 49.3504L34.2266 49.3823L36.4864 65.5919L36.7363 65.56L34.4764 49.3504Z" fill="#494949"/>
<path d="M8.53694 49.3504L8.28711 49.3823L10.547 65.5919L10.7968 65.56L8.53694 49.3504Z" fill="#494949"/>
<path d="M36.7142 64.3887H11.343C10.6584 64.3887 10.1035 64.9201 10.1035 65.5757V65.5758C10.1035 66.2314 10.6584 66.7628 11.343 66.7628H36.7142C37.3987 66.7628 37.9536 66.2314 37.9536 65.5758V65.5757C37.9536 64.9201 37.3987 64.3887 36.7142 64.3887Z" fill="#292A2E"/>
<path opacity="0.8" d="M36.7142 64.3887H11.343C10.6584 64.3887 10.1035 64.9201 10.1035 65.5757V65.5758C10.1035 66.2314 10.6584 66.7628 11.343 66.7628H36.7142C37.3987 66.7628 37.9536 66.2314 37.9536 65.5758V65.5757C37.9536 64.9201 37.3987 64.3887 36.7142 64.3887Z" fill="white"/>
<path d="M36.7151 66.8835H11.344C11.1647 66.8835 10.9871 66.8497 10.8214 66.7839C10.6558 66.7182 10.5052 66.6219 10.3785 66.5005C10.2517 66.379 10.1511 66.2349 10.0825 66.0762C10.0138 65.9176 9.97852 65.7475 9.97852 65.5758C9.97852 65.404 10.0138 65.234 10.0825 65.0753C10.1511 64.9167 10.2517 64.7725 10.3785 64.6511C10.5052 64.5297 10.6558 64.4333 10.8214 64.3676C10.9871 64.3019 11.1647 64.2681 11.344 64.2681H36.7151C36.8944 64.2681 37.0719 64.3019 37.2376 64.3676C37.4033 64.4333 37.5538 64.5297 37.6806 64.6511C37.8074 64.7725 37.908 64.9167 37.9766 65.0753C38.0452 65.234 38.0805 65.404 38.0805 65.5758C38.0805 65.7475 38.0452 65.9176 37.9766 66.0762C37.908 66.2349 37.8074 66.379 37.6806 66.5005C37.5538 66.6219 37.4033 66.7182 37.2376 66.7839C37.0719 66.8497 36.8944 66.8835 36.7151 66.8835ZM11.344 64.5095C11.1978 64.5095 11.053 64.537 10.9179 64.5906C10.7828 64.6442 10.6601 64.7228 10.5567 64.8218C10.4533 64.9208 10.3713 65.0383 10.3153 65.1677C10.2594 65.2971 10.2306 65.4357 10.2306 65.5758C10.2306 65.7158 10.2594 65.8545 10.3153 65.9838C10.3713 66.1132 10.4533 66.2308 10.5567 66.3298C10.6601 66.4288 10.7828 66.5073 10.9179 66.5609C11.053 66.6145 11.1978 66.6421 11.344 66.6421H36.7151C36.8613 66.6421 37.0061 66.6145 37.1412 66.5609C37.2762 66.5073 37.399 66.4288 37.5024 66.3298C37.6058 66.2308 37.6878 66.1132 37.7437 65.9838C37.7997 65.8545 37.8285 65.7158 37.8285 65.5758C37.8285 65.4357 37.7997 65.2971 37.7437 65.1677C37.6878 65.0383 37.6058 64.9208 37.5024 64.8218C37.399 64.7228 37.2762 64.6442 37.1412 64.5906C37.0061 64.537 36.8613 64.5095 36.7151 64.5095H11.344Z" fill="#292A2E"/>
<path d="M50.6399 64.3887H25.2687C24.5842 64.3887 24.0293 64.9201 24.0293 65.5757V65.5758C24.0293 66.2314 24.5842 66.7628 25.2687 66.7628H50.6399C51.3245 66.7628 51.8794 66.2314 51.8794 65.5758V65.5757C51.8794 64.9201 51.3245 64.3887 50.6399 64.3887Z" fill="white"/>
<path d="M50.639 66.8835H25.2678C25.0885 66.8835 24.9109 66.8497 24.7453 66.7839C24.5796 66.7182 24.4291 66.6219 24.3023 66.5005C24.1755 66.379 24.0749 66.2349 24.0063 66.0762C23.9377 65.9176 23.9023 65.7475 23.9023 65.5758C23.9023 65.404 23.9377 65.234 24.0063 65.0753C24.0749 64.9167 24.1755 64.7725 24.3023 64.6511C24.4291 64.5297 24.5796 64.4333 24.7453 64.3676C24.9109 64.3019 25.0885 64.2681 25.2678 64.2681H50.639C50.8183 64.2681 50.9959 64.3019 51.1616 64.3676C51.3272 64.4333 51.4778 64.5297 51.6046 64.6511C51.7313 64.7725 51.8319 64.9167 51.9005 65.0753C51.9692 65.234 52.0045 65.404 52.0045 65.5758C52.0045 65.7475 51.9692 65.9176 51.9005 66.0762C51.8319 66.2349 51.7313 66.379 51.6046 66.5005C51.4778 66.6219 51.3272 66.7182 51.1616 66.7839C50.9959 66.8497 50.8183 66.8835 50.639 66.8835ZM25.2678 64.5095C25.1216 64.5095 24.9768 64.537 24.8417 64.5906C24.7066 64.6442 24.5839 64.7228 24.4805 64.8218C24.3771 64.9208 24.2951 65.0383 24.2391 65.1677C24.1832 65.2971 24.1544 65.4357 24.1544 65.5758C24.1544 65.7158 24.1832 65.8545 24.2391 65.9838C24.2951 66.1132 24.3771 66.2308 24.4805 66.3298C24.5839 66.4288 24.7066 66.5073 24.8417 66.5609C24.9768 66.6145 25.1216 66.6421 25.2678 66.6421H50.639C50.7852 66.6421 50.93 66.6145 51.0651 66.5609C51.2002 66.5073 51.3229 66.4288 51.4263 66.3298C51.5297 66.2308 51.6117 66.1132 51.6677 65.9838C51.7236 65.8545 51.7524 65.7158 51.7524 65.5758C51.7524 65.4357 51.7236 65.2971 51.6677 65.1677C51.6117 65.0383 51.5297 64.9208 51.4263 64.8218C51.3229 64.7228 51.2002 64.6442 51.0651 64.5906C50.93 64.537 50.7852 64.5095 50.639 64.5095H25.2678Z" fill="#292A2E"/>
<path d="M33.0873 49.3659H8.48146C8.07915 49.3659 7.6906 49.2257 7.38832 48.9714C7.08605 48.7172 6.89069 48.3663 6.83873 47.9842L5.21113 36.014C5.18071 35.7902 5.20049 35.5628 5.26914 35.3469C5.33779 35.1311 5.45373 34.9317 5.60923 34.7622C5.76474 34.5926 5.95621 34.4568 6.17088 34.3638C6.38555 34.2707 6.61848 34.2226 6.85411 34.2227H31.4597C31.862 34.2227 32.2506 34.3628 32.5528 34.6171C32.8551 34.8713 33.0505 35.2222 33.1024 35.6042L34.7299 47.5746C34.7603 47.7983 34.7406 48.0257 34.672 48.2416C34.6034 48.4574 34.4874 48.6568 34.332 48.8263C34.1765 48.9958 33.9851 49.1317 33.7704 49.2247C33.5558 49.3178 33.3229 49.3659 33.0873 49.3659Z" fill="#292A2E"/>
<path opacity="0.8" d="M33.0873 49.3659H8.48146C8.07915 49.3659 7.6906 49.2257 7.38832 48.9714C7.08605 48.7172 6.89069 48.3663 6.83873 47.9842L5.21113 36.014C5.18071 35.7902 5.20049 35.5628 5.26914 35.3469C5.33779 35.1311 5.45373 34.9317 5.60923 34.7622C5.76474 34.5926 5.95621 34.4568 6.17088 34.3638C6.38555 34.2707 6.61848 34.2226 6.85411 34.2227H31.4597C31.862 34.2227 32.2506 34.3628 32.5528 34.6171C32.8551 34.8713 33.0505 35.2222 33.1024 35.6042L34.7299 47.5746C34.7603 47.7983 34.7406 48.0257 34.672 48.2416C34.6034 48.4574 34.4874 48.6568 34.332 48.8263C34.1765 48.9958 33.9851 49.1317 33.7704 49.2247C33.5558 49.3178 33.3229 49.3659 33.0873 49.3659Z" fill="white"/>
<path d="M33.0863 49.4868H8.48048C8.04783 49.4859 7.63022 49.3347 7.30514 49.0612C6.98006 48.7878 6.76957 48.4107 6.71274 48L5.08526 36.0298C5.05249 35.789 5.07374 35.5442 5.14759 35.3119C5.22145 35.0796 5.3462 34.8651 5.51353 34.6826C5.68085 34.5002 5.8869 34.354 6.11791 34.2539C6.34892 34.1538 6.59957 34.102 6.85313 34.1021H31.4587C31.8914 34.103 32.309 34.2542 32.6341 34.5276C32.9591 34.801 33.1696 35.1781 33.2264 35.5889L34.854 47.5592C34.8867 47.8 34.8654 48.0447 34.7916 48.2769C34.7178 48.5092 34.593 48.7237 34.4257 48.9062C34.2584 49.0886 34.0524 49.2348 33.8214 49.3349C33.5905 49.435 33.3399 49.4868 33.0863 49.4868ZM6.85313 34.3434C6.63545 34.3434 6.42028 34.3879 6.22197 34.4739C6.02366 34.5599 5.84678 34.6854 5.70314 34.842C5.5595 34.9986 5.4524 35.1828 5.38899 35.3823C5.32558 35.5817 5.30732 35.7918 5.33542 35.9985L6.96302 47.9688C7.01178 48.3215 7.19248 48.6453 7.47159 48.8801C7.7507 49.1148 8.10926 49.2446 8.48073 49.2454H33.0863C33.304 49.2454 33.5191 49.2008 33.7174 49.1149C33.9156 49.0289 34.0925 48.9034 34.2361 48.7467C34.3797 48.5901 34.4867 48.4059 34.5501 48.2065C34.6135 48.0071 34.6318 47.7971 34.6037 47.5904L32.9764 35.6201C32.9277 35.2675 32.747 34.9437 32.4679 34.7089C32.1887 34.4742 31.8302 34.3444 31.4587 34.3436L6.85313 34.3434Z" fill="#292A2E"/>
<path d="M34.4764 49.3659H9.87051C9.46822 49.3659 9.07968 49.2256 8.77743 48.9714C8.47517 48.7172 8.27984 48.3663 8.22791 47.9842L6.5998 36.014C6.56938 35.7902 6.58915 35.5628 6.65779 35.347C6.72643 35.1311 6.84235 34.9318 6.99782 34.7623C7.1533 34.5927 7.34474 34.4569 7.55938 34.3638C7.77402 34.2708 8.00692 34.2227 8.24253 34.2227H32.8489C33.2512 34.2227 33.6397 34.3629 33.942 34.6171C34.2442 34.8713 34.4396 35.2222 34.4915 35.6042L36.1191 47.5746C36.1495 47.7983 36.1297 48.0257 36.0611 48.2416C35.9925 48.4574 35.8765 48.6568 35.7211 48.8263C35.5656 48.9958 35.3741 49.1317 35.1595 49.2247C34.9449 49.3178 34.712 49.3659 34.4764 49.3659Z" fill="white"/>
<path d="M34.4769 49.4868H9.87107C9.43844 49.4859 9.02084 49.3347 8.69578 49.0612C8.37072 48.7878 8.16026 48.4107 8.10346 48L6.47585 36.0298C6.44312 35.789 6.4644 35.5443 6.53826 35.312C6.61212 35.0797 6.73687 34.8652 6.90417 34.6828C7.07148 34.5003 7.27749 34.3541 7.50846 34.254C7.73944 34.1539 7.99006 34.1021 8.24359 34.1021H32.8493C33.282 34.103 33.6996 34.2542 34.0247 34.5276C34.3498 34.801 34.5602 35.1781 34.6171 35.5889L36.2447 47.5592C36.2774 47.8 36.2561 48.0447 36.1822 48.2769C36.1084 48.5092 35.9836 48.7237 35.8163 48.9061C35.649 49.0886 35.443 49.2347 35.212 49.3349C34.9811 49.435 34.7305 49.4868 34.4769 49.4868ZM8.24359 34.3434C8.02595 34.3435 7.81083 34.3881 7.61258 34.4741C7.41434 34.5601 7.23753 34.6856 7.09394 34.8423C6.95036 34.9989 6.8433 35.1831 6.77992 35.3825C6.71654 35.5819 6.69829 35.7919 6.72639 35.9986L8.35336 47.9688C8.40217 48.3215 8.58288 48.6452 8.86198 48.88C9.14108 49.1148 9.49961 49.2446 9.87107 49.2454H34.4769C34.6946 49.2454 34.9098 49.2009 35.1081 49.115C35.3064 49.029 35.4833 48.9035 35.6269 48.7469C35.7706 48.5902 35.8777 48.406 35.9411 48.2066C36.0045 48.0072 36.0227 47.7971 35.9946 47.5904L34.367 35.6201C34.3183 35.2674 34.1376 34.9437 33.8585 34.7089C33.5794 34.4742 33.2208 34.3443 32.8493 34.3436L8.24359 34.3434Z" fill="#292A2E"/>
<path d="M53.6043 52.0993L53.3535 52.1235L58.6664 102.495L58.9171 102.47L53.6043 52.0993Z" fill="#494949"/>
<path d="M31.8267 15.8468C31.8267 15.8468 33.4618 14.6649 33.8669 11.9442C34.1806 9.83775 32.1516 11.2024 32.1516 11.2024C32.1516 11.2024 32.3621 9.68351 31.2064 9.83425C30.0508 9.985 29.4043 11.5806 29.4043 11.5806" fill="#0C0C0C"/>
<path d="M25.2335 10.0112C25.2335 10.0112 19.5 10.6003 21.5728 18.0403L22.0801 18.0729L23.11 18.1391" fill="#0C0C0C"/>
<path d="M30.8659 25.8116C30.8407 25.8084 30.561 30.2531 25.1689 29.866C21.436 29.5982 20.1051 25.8053 20.0195 25.8053C20.4221 25.7235 20.9193 25.599 21.1171 25.5564C21.5479 25.4607 21.938 25.2415 22.2355 24.9282C22.5331 24.6149 22.724 24.2223 22.7829 23.8025C22.8921 23.1725 22.7072 19.949 22.7638 19.3115L28.4938 20.5363C28.4138 21.8828 27.8533 25.004 29.817 25.5564C30.1443 25.6478 30.4963 25.7318 30.8659 25.8116Z" fill="#E98862"/>
<path opacity="0.52" d="M28.5738 24.2805C28.4841 24.0035 28.4263 23.7179 28.4014 23.4288C28.3385 22.7691 28.3512 22.1049 28.4392 21.4479C27.2746 21.2973 26.1774 20.837 25.2724 20.1191C25.166 20.4955 24.5809 22.1398 24.7431 22.4974C25.0487 23.1735 26.4875 24.2805 28.5738 24.2805Z" fill="#0C0C0C"/>
<path d="M27.3908 23.4006C25.1302 23.2064 22.4245 21.8386 22.3856 18.8999L22.3503 16.2482C22.3114 13.3096 23.8913 10.9077 26.7806 10.8725C29.6697 10.8373 31.8609 13.1933 31.8998 16.132L31.9154 17.3059C31.9134 17.709 31.8827 18.1116 31.8236 18.5108C31.6753 19.5668 31.4455 21.1724 30.6973 22.2585C29.9905 23.2839 28.8349 23.5246 27.3908 23.4006Z" fill="#E98862"/>
<path d="M28.4398 20.7145C28.9063 20.7348 29.3712 20.6497 29.7971 20.4663C29.8059 20.4627 29.8139 20.4574 29.8206 20.4509C29.8273 20.4443 29.8325 20.4366 29.8361 20.4281C29.8397 20.4196 29.8415 20.4105 29.8414 20.4013C29.8413 20.3921 29.8393 20.3831 29.8355 20.3747C29.8318 20.3662 29.8263 20.3586 29.8195 20.3522C29.8126 20.3458 29.8045 20.3407 29.7956 20.3373C29.7868 20.3339 29.7773 20.3321 29.7677 20.3322C29.7581 20.3323 29.7487 20.3342 29.7399 20.3378C28.8224 20.7126 27.9893 20.6577 27.3307 20.1791C27.3174 20.169 27.3035 20.1596 27.2892 20.151C27.2726 20.1437 27.2538 20.1425 27.2364 20.1478C27.219 20.1531 27.2044 20.1644 27.1953 20.1796C27.1862 20.1947 27.1833 20.2126 27.1873 20.2296C27.1913 20.2467 27.2018 20.2617 27.2167 20.2717C27.222 20.2748 27.2305 20.2812 27.2419 20.29C27.5882 20.5426 28.0053 20.6904 28.4398 20.7145Z" fill="#0C0C0C"/>
<path d="M28.4186 21.3756C28.5029 21.3806 28.5875 21.3787 28.6714 21.3699C28.6906 21.3679 28.7083 21.3588 28.7204 21.3444C28.7325 21.33 28.7382 21.3117 28.7362 21.2933C28.7342 21.275 28.7246 21.2581 28.7095 21.2465C28.6945 21.2349 28.6753 21.2295 28.656 21.2314C28.1511 21.2827 27.9101 21.0617 27.8999 21.0522C27.8862 21.0391 27.8677 21.0318 27.8484 21.0317C27.829 21.0317 27.8105 21.039 27.7968 21.0521C27.7831 21.0651 27.7754 21.0828 27.7754 21.1013C27.7754 21.1197 27.783 21.1375 27.7967 21.1505C27.9705 21.292 28.1903 21.3715 28.4186 21.3756Z" fill="#0C0C0C"/>
<path d="M30.9457 17.8706C31.1423 17.8706 31.3016 17.718 31.3016 17.5298C31.3016 17.3416 31.1423 17.189 30.9457 17.189C30.7492 17.189 30.5898 17.3416 30.5898 17.5298C30.5898 17.718 30.7492 17.8706 30.9457 17.8706Z" fill="#0C0C0C"/>
<path d="M27.4692 17.6621C27.6657 17.6621 27.8251 17.5095 27.8251 17.3213C27.8251 17.1331 27.6657 16.9805 27.4692 16.9805C27.2726 16.9805 27.1133 17.1331 27.1133 17.3213C27.1133 17.5095 27.2726 17.6621 27.4692 17.6621Z" fill="#0C0C0C"/>
<path d="M22.5781 19.793C21.7001 19.8038 20.9764 18.9128 20.965 18.0719C20.9535 17.2311 21.6594 16.7587 22.5374 16.748L22.9972 17.3059L23.3327 19.7838L22.5781 19.793Z" fill="#E98862"/>
<path d="M23.4502 18.4423C23.4502 18.4423 23.7468 14.284 25.0633 14.0272C25.9402 13.8562 28.0666 15.0474 30.0361 14.6876C30.8979 14.5307 31.7159 14.7345 31.7991 15.1243C31.832 15.2787 32.3688 13.0604 31.0195 11.3775C29.9451 10.0372 26.4293 9.65883 24.8298 10.0982C20.4009 11.315 22.3553 16.9314 22.3553 16.9314L22.5528 18.365L23.4502 18.4423Z" fill="#0C0C0C"/>
<path d="M28.9706 19.7338H28.9762C29.2592 19.7311 29.7334 19.6963 29.7315 19.4935C29.7296 19.3255 29.2305 17.5172 29.1735 17.3115C29.168 17.2945 29.1559 17.2801 29.1396 17.2714C29.1233 17.2627 29.1041 17.2604 29.0861 17.265C29.068 17.2696 29.0526 17.2807 29.0429 17.2959C29.0332 17.3112 29.0301 17.3295 29.0342 17.3469C29.2559 18.1478 29.5861 19.3808 29.5874 19.4952C29.5601 19.5435 29.2679 19.5932 28.9748 19.5961C28.9564 19.5965 28.9387 19.6037 28.9256 19.6161C28.9125 19.6286 28.9049 19.6454 28.9043 19.6631C28.9038 19.6808 28.9103 19.698 28.9227 19.7112C28.935 19.7244 28.9521 19.7325 28.9706 19.734V19.7338Z" fill="#0C0C0C"/>
<path d="M29.9356 15.6823C30.233 15.6039 30.5469 15.6039 30.8443 15.6823C30.9903 15.7199 31.1297 15.7783 31.2576 15.8556C31.3841 15.9313 31.5001 16.022 31.6028 16.1255C31.6225 16.1438 31.6339 16.1687 31.6347 16.1949C31.6354 16.2212 31.6254 16.2467 31.6067 16.2659C31.5881 16.2852 31.5623 16.2966 31.535 16.2979C31.5076 16.2992 31.4808 16.2902 31.4603 16.2728L31.4538 16.2674C31.3587 16.1831 31.2528 16.1106 31.1388 16.0515C31.0269 15.9928 30.9063 15.9507 30.7813 15.9265C30.535 15.877 30.2795 15.8907 30.0406 15.9662L30.0305 15.9696C29.9911 15.9829 29.9478 15.9807 29.91 15.9635C29.8723 15.9462 29.8433 15.9153 29.8293 15.8775C29.8154 15.8398 29.8177 15.7983 29.8357 15.7621C29.8537 15.726 29.886 15.6982 29.9254 15.6849L29.9356 15.6823Z" fill="#0C0C0C"/>
<path d="M27.8311 15.8535C27.6049 15.7482 27.3536 15.7021 27.1027 15.7197C26.9754 15.7276 26.85 15.754 26.7309 15.7979C26.6099 15.8419 26.495 15.9003 26.3891 15.9717L26.3823 15.976C26.3596 15.99 26.3321 15.995 26.3056 15.9901C26.2791 15.9852 26.2556 15.9706 26.24 15.9495C26.2244 15.9284 26.2179 15.9024 26.2218 15.8768C26.2257 15.8512 26.2398 15.8281 26.2611 15.8121C26.3773 15.7226 26.5049 15.6475 26.6408 15.5886C26.7784 15.5284 26.9246 15.4883 27.0746 15.4696C27.3802 15.4297 27.6914 15.4697 27.9753 15.5852C28.0137 15.6012 28.0439 15.6312 28.0593 15.6686C28.0747 15.7059 28.0739 15.7476 28.0572 15.7844C28.0405 15.8212 28.0092 15.8501 27.9702 15.8649C27.9312 15.8796 27.8877 15.8788 27.8493 15.8628L27.8406 15.8589L27.8311 15.8535Z" fill="#0C0C0C"/>
<path d="M29.5137 12.8193C30.1636 12.6892 30.5285 11.8412 30.3286 10.9251C30.1288 10.009 29.4399 9.37181 28.79 9.50185C28.1401 9.63189 27.7753 10.4799 27.9751 11.396C28.175 12.3121 28.8638 12.9493 29.5137 12.8193Z" fill="#0C0C0C"/>
<path d="M65.7588 96.1284C65.7588 96.1284 66.4346 99.4828 69.714 99.6698C72.9934 99.8567 72.2824 102.359 72.2824 102.359H59.75V96.3623L65.7588 96.1284Z" fill="#D0F4E6"/>
<path d="M41.9177 94.011C41.9177 94.011 40.9779 97.3066 43.8345 98.8607C46.6911 100.415 44.8997 102.359 44.8997 102.359L33.6543 97.0609L36.4181 91.6802L41.9177 94.011Z" fill="#D0F4E6"/>
<path d="M34.9525 93.0798L44.4357 64.4284H27.246C23.793 64.4284 22.3535 61.6241 22.3535 58.3174C22.3535 55.0106 25.7481 52.1118 29.2009 52.1118H52.4007C54.5067 52.1118 56.8681 53.3453 58.024 55.0314C59.1799 56.7175 58.8674 59.3301 58.03 61.1808L42.844 96.5036" fill="#6D18EF"/>
<path opacity="0.8" d="M34.9525 93.0798L44.4357 64.4284H27.246C23.793 64.4284 22.3535 61.6241 22.3535 58.3174C22.3535 55.0106 25.7481 52.1118 29.2009 52.1118H52.4007C54.5067 52.1118 56.8681 53.3453 58.024 55.0314C59.1799 56.7175 58.8674 59.3301 58.03 61.1808L42.844 96.5036" fill="#6D18EF"/>
<path d="M59.0309 99.2438L43.1743 64.4284L22.3539 64.4271C17.4754 64.0608 15.2411 61.5003 15.3122 58.1943C15.3823 54.9301 17.108 51.7061 20.501 51.7061H48.5631C51.0735 51.7554 53.0485 54.4124 53.9798 56.6454L67.162 97.1124" fill="#6D18EF"/>
<path d="M13.8913 51.746C13.8913 51.746 12.9666 57.5207 14.4323 60.7312C16.262 64.7395 23.1213 64.4271 23.1213 64.4271L22.7348 51.7061L13.8913 51.746Z" fill="#6D18EF"/>
<path d="M54.5755 51.6321L39.8685 48.7135C39.2557 48.5918 38.6848 48.3241 38.2086 47.9352C37.7324 47.5462 37.3664 47.0485 37.1444 46.4881L31.3598 31.8899C31.1837 31.4518 31.0997 30.9847 31.1126 30.5154C31.1256 30.0461 31.2352 29.5838 31.4352 29.1552C31.6352 28.7266 31.9217 28.3401 32.2781 28.0178C32.6346 27.6955 33.054 27.4439 33.5123 27.2773C33.9706 27.1107 34.4588 27.0325 34.9488 27.0471C35.4387 27.0618 35.9209 27.169 36.3674 27.3626C36.814 27.5562 37.2162 27.8324 37.551 28.1754C37.8858 28.5183 38.1466 28.9212 38.3183 29.3609L43.3784 42.1302L56.0861 44.652C56.0861 44.652 54.8306 51.6826 54.5755 51.6321Z" fill="#D0F4E6"/>
<path d="M37.5658 35.5975C37.3961 37.5084 36.1922 49.4301 36.0283 51.7839H13.9015C13.7743 49.661 13.3616 40.648 12.8794 36.4967C12.4193 32.5354 12.2523 30.2748 12.7824 29.0438C13.7173 26.8726 16.0566 26.0913 18.0718 25.83C19.3021 25.6706 21.1528 25.5562 21.1528 25.5562C21.1528 25.5562 21.3096 28.5919 25.0459 28.7609C30.1322 28.9902 29.7925 25.5562 29.8177 25.5562C30.6417 25.5562 35.1269 26.13 36.2484 26.8301C37.8325 27.8189 38.3006 29.1663 38.3191 30.4043C38.3404 31.8298 37.7584 33.4303 37.5658 35.5975Z" fill="#D0F4E6"/>
<path d="M36.6959 45.339H36.6906C36.6824 45.3383 36.6743 45.3361 36.667 45.3325C36.6596 45.3288 36.6531 45.3239 36.6477 45.3178C36.6424 45.3118 36.6383 45.3048 36.6358 45.2972C36.6333 45.2897 36.6323 45.2817 36.633 45.2738L37.2075 38.6654C37.2079 38.6574 37.2101 38.6496 37.2138 38.6425C37.2175 38.6353 37.2227 38.629 37.229 38.6238C37.2354 38.6186 37.2428 38.6148 37.2507 38.6124C37.2587 38.6101 37.2671 38.6093 37.2754 38.6102C37.2836 38.6109 37.2917 38.6131 37.299 38.6167C37.3064 38.6203 37.3129 38.6253 37.3183 38.6314C37.3236 38.6374 37.3277 38.6444 37.3302 38.652C37.3327 38.6595 37.3337 38.6675 37.333 38.6754L36.7586 45.2838C36.7572 45.2988 36.75 45.3128 36.7384 45.323C36.7268 45.3333 36.7117 45.3389 36.6959 45.339Z" fill="#0C0C0C"/>
<path d="M47.2342 49.3049L52.0891 35.012C52.1744 34.7608 52.3406 34.542 52.5637 34.3867C52.7869 34.2315 53.0556 34.1479 53.3314 34.1479H74.3714C74.5776 34.1479 74.7808 34.1947 74.9645 34.2843C75.1482 34.374 75.3072 34.504 75.4283 34.6638C75.5495 34.8236 75.6295 35.0086 75.6617 35.2036C75.6939 35.3986 75.6774 35.5982 75.6136 35.786L69.4984 50.0794C69.4131 50.3306 69.2469 50.5495 69.0238 50.7047C68.8007 50.8599 68.5319 50.9435 68.2562 50.9435H48.4764C48.2702 50.9435 48.0668 50.8968 47.8831 50.8071C47.6993 50.7174 47.5403 50.5873 47.4191 50.4275C47.298 50.2676 47.218 50.0826 47.1859 49.8875C47.1537 49.6924 47.1703 49.4928 47.2342 49.3049Z" fill="#292A2E"/>
<path d="M47.2342 49.3049L52.0891 35.012C52.1744 34.7608 52.3406 34.542 52.5637 34.3867C52.7869 34.2315 53.0556 34.1479 53.3314 34.1479H74.3714C74.5776 34.1479 74.7808 34.1947 74.9645 34.2843C75.1482 34.374 75.3072 34.504 75.4283 34.6638C75.5495 34.8236 75.6295 35.0086 75.6617 35.2036C75.6939 35.3986 75.6774 35.5982 75.6136 35.786L69.4984 50.0794C69.4131 50.3306 69.2469 50.5495 69.0238 50.7047C68.8007 50.8599 68.5319 50.9435 68.2562 50.9435H48.4764C48.2702 50.9435 48.0668 50.8968 47.8831 50.8071C47.6993 50.7174 47.5403 50.5873 47.4191 50.4275C47.298 50.2676 47.218 50.0826 47.1859 49.8875C47.1537 49.6924 47.1703 49.4928 47.2342 49.3049Z" fill="#292A2E"/>
<path d="M51.1954 49.7842H37.9548C37.6249 49.7842 37.3574 50.0403 37.3574 50.3563V50.371C37.3574 50.6869 37.6249 50.9431 37.9548 50.9431H51.1954C51.5253 50.9431 51.7927 50.6869 51.7927 50.371V50.3563C51.7927 50.0403 51.5253 49.7842 51.1954 49.7842Z" fill="#292A2E"/>
<path d="M51.1954 49.7842H37.9548C37.6249 49.7842 37.3574 50.0403 37.3574 50.3563V50.371C37.3574 50.6869 37.6249 50.9431 37.9548 50.9431H51.1954C51.5253 50.9431 51.7927 50.6869 51.7927 50.371V50.3563C51.7927 50.0403 51.5253 49.7842 51.1954 49.7842Z" fill="#292A2E"/>
<path d="M60.7952 45.2293C61.9409 45.2293 62.8697 44.3398 62.8697 43.2426C62.8697 42.1453 61.9409 41.2559 60.7952 41.2559C59.6495 41.2559 58.7207 42.1453 58.7207 43.2426C58.7207 44.3398 59.6495 45.2293 60.7952 45.2293Z" fill="white"/>
<path d="M46.1282 45.9568L42.8237 44.8475L43.2981 44.8162C43.451 44.8031 43.5931 44.735 43.6956 44.6255C43.798 44.5159 43.8533 44.3732 43.8501 44.2262C43.8457 44.1504 43.8252 44.0763 43.7899 44.0083C43.7546 43.9403 43.7052 43.8799 43.6447 43.8308C43.5843 43.7817 43.514 43.7449 43.4382 43.7227C43.3624 43.7005 43.2826 43.6933 43.2038 43.7016L37.3574 44.2966L37.5087 46.0959C37.5558 46.6547 37.7762 47.1873 38.1415 47.6254C38.5068 48.0635 39.0004 48.3872 39.5591 48.5549L42.0909 49.3102C42.2216 49.3519 42.3634 49.349 42.4922 49.3021C42.6211 49.2552 42.729 49.1671 42.7978 49.0527C42.8575 48.9482 42.8809 48.8281 42.8644 48.71C42.8479 48.5918 42.7924 48.4819 42.706 48.396C42.7116 48.3922 42.7163 48.3874 42.7199 48.3818C42.7235 48.3762 42.7258 48.3699 42.7268 48.3634C42.7277 48.3569 42.7273 48.3503 42.7255 48.3439C42.7237 48.3376 42.7205 48.3317 42.7162 48.3265L43.1825 48.4667C43.3281 48.5135 43.4867 48.5056 43.6264 48.4447C43.7662 48.3837 43.8765 48.2742 43.9351 48.1384C43.9831 48.0151 43.9841 47.8796 43.938 47.7558C43.8919 47.6319 43.8016 47.5276 43.6831 47.4612C43.6886 47.4584 43.6934 47.4546 43.6975 47.4501L43.8893 47.5076C44.02 47.5493 44.1618 47.5465 44.2907 47.4996C44.4195 47.4526 44.5274 47.3645 44.5961 47.2501C44.6686 47.1233 44.687 46.9746 44.6476 46.8351C44.6081 46.6956 44.5138 46.5761 44.3844 46.5018C44.3855 46.4981 44.3861 46.4943 44.3862 46.4904L45.7624 46.9523C45.8308 46.976 45.9034 46.9865 45.9761 46.9832C46.0488 46.9798 46.12 46.9627 46.1858 46.9328C46.2515 46.9029 46.3104 46.8609 46.359 46.8091C46.4077 46.7572 46.4451 46.6967 46.4692 46.6309C46.4932 46.5652 46.5034 46.4955 46.4992 46.4259C46.495 46.3564 46.4764 46.2883 46.4445 46.2257C46.4127 46.163 46.3681 46.1071 46.3135 46.061C46.2589 46.0149 46.1953 45.9797 46.1264 45.9573L46.1282 45.9568Z" fill="#E98862"/>
<path opacity="0.2" d="M44.3331 46.5413C44.3267 46.5413 44.3204 46.5402 44.3143 46.5382L42.9833 46.0746C42.9696 46.0698 42.9585 46.06 42.9524 46.0473C42.9462 46.0347 42.9456 46.0202 42.9506 46.0071C42.9556 45.994 42.9659 45.9834 42.9791 45.9775C42.9923 45.9717 43.0074 45.9711 43.0211 45.9759L44.3523 46.4395C44.3644 46.4437 44.3746 46.4518 44.3811 46.4625C44.3875 46.4732 44.3898 46.4858 44.3876 46.4979C44.3853 46.5101 44.3787 46.5211 44.3688 46.5291C44.3589 46.537 44.3464 46.5413 44.3335 46.5413H44.3331Z" fill="#0A0A0A"/>
<path opacity="0.2" d="M43.66 47.4683C43.6537 47.4683 43.6475 47.4673 43.6416 47.4653L42.5924 47.1087C42.5855 47.1066 42.5791 47.1031 42.5736 47.0985C42.568 47.0939 42.5635 47.0883 42.5603 47.082C42.5571 47.0757 42.5552 47.0689 42.5548 47.0619C42.5544 47.0549 42.5554 47.0479 42.5578 47.0413C42.5603 47.0347 42.564 47.0287 42.569 47.0235C42.5739 47.0183 42.5798 47.0142 42.5865 47.0112C42.5931 47.0083 42.6003 47.0066 42.6076 47.0064C42.6149 47.0061 42.6221 47.0073 42.629 47.0098L43.6783 47.3663C43.6904 47.3704 43.7007 47.3786 43.7072 47.3892C43.7138 47.3999 43.7161 47.4125 43.714 47.4247C43.7118 47.4369 43.7052 47.4479 43.6953 47.4559C43.6854 47.4639 43.6729 47.4683 43.66 47.4683Z" fill="#0A0A0A"/>
<path opacity="0.2" d="M42.6732 48.4083C42.6666 48.4083 42.6599 48.4071 42.6537 48.4048L42.1622 48.2258C42.1486 48.2209 42.1377 48.211 42.1317 48.1983C42.1258 48.1856 42.1254 48.1712 42.1306 48.1582C42.1358 48.1452 42.1462 48.1347 42.1594 48.1291C42.1727 48.1234 42.1878 48.123 42.2014 48.128L42.6929 48.307C42.7049 48.3113 42.715 48.3195 42.7213 48.3302C42.7276 48.3409 42.7298 48.3534 42.7275 48.3655C42.7251 48.3775 42.7184 48.3884 42.7086 48.3963C42.6987 48.4041 42.6862 48.4084 42.6734 48.4083H42.6732Z" fill="#0A0A0A"/>
<path d="M39.944 43.2314L26.0814 43.2225L20.837 30.9707L13.0137 34.1208L19.5566 48.6618L19.6205 48.8066C19.9406 49.5134 20.4798 50.1089 21.1651 50.5124C21.8504 50.9159 22.6486 51.1079 23.4516 51.0625L40.1534 50.1176L39.944 43.2314Z" fill="#D0F4E6"/>
<path d="M23.2227 51.1296C22.4455 51.1283 21.6856 50.9102 21.0357 50.502C20.3859 50.0938 19.8743 49.5131 19.5635 48.8309L19.4995 48.6861L13.9238 36.2964L14.0395 36.2481L19.6791 48.7835C19.9956 49.4777 20.5264 50.0626 21.2003 50.4593C21.8742 50.8561 22.6587 51.0457 23.4485 51.0026L40.0891 50.0612L39.8829 43.2924L26.0394 43.2835L22.0066 33.863L22.1233 33.8174L26.1237 43.1628L40.0053 43.1718L40.2187 50.1748L40.1575 50.1783L23.4563 51.123C23.3783 51.1274 23.3 51.1296 23.2227 51.1296Z" fill="#0C0C0C"/>
<path d="M7.80284 52.1004L2.48633 102.471L2.7371 102.495L8.05361 52.1246L7.80284 52.1004Z" fill="#494949"/>
<path d="M29.7696 52.1004L24.4531 102.471L24.7039 102.495L30.0204 52.1246L29.7696 52.1004Z" fill="#494949"/>
<path d="M75.5711 52.0998L75.3203 52.124L80.6332 102.495L80.8839 102.471L75.5711 52.0998Z" fill="#494949"/>
<path d="M80.36 51.1226H3.35881C2.7885 51.1226 2.32617 51.5653 2.32617 52.1115C2.32617 52.6576 2.7885 53.1004 3.35881 53.1004H80.36C80.9303 53.1004 81.3926 52.6576 81.3926 52.1115C81.3926 51.5653 80.9303 51.1226 80.36 51.1226Z" fill="#292A2E"/>
<path opacity="0.8" d="M80.36 51.1226H3.35881C2.7885 51.1226 2.32617 51.5653 2.32617 52.1115C2.32617 52.6576 2.7885 53.1004 3.35881 53.1004H80.36C80.9303 53.1004 81.3926 52.6576 81.3926 52.1115C81.3926 51.5653 80.9303 51.1226 80.36 51.1226Z" fill="white"/>
<path d="M80.361 53.2212H3.3602C3.20704 53.2227 3.05507 53.1952 2.9131 53.1401C2.77113 53.085 2.64198 53.0035 2.5331 52.9003C2.42423 52.7971 2.3378 52.6743 2.27881 52.5389C2.21982 52.4035 2.18945 52.2583 2.18945 52.1116C2.18945 51.9649 2.21982 51.8197 2.27881 51.6843C2.3378 51.5489 2.42423 51.4261 2.5331 51.3229C2.64198 51.2197 2.77113 51.1382 2.9131 51.0831C3.05507 51.0281 3.20704 51.0005 3.3602 51.002H80.361C80.5142 51.0005 80.6662 51.0281 80.8081 51.0831C80.9501 51.1382 81.0793 51.2197 81.1881 51.3229C81.297 51.4261 81.3834 51.5489 81.4424 51.6843C81.5014 51.8197 81.5318 51.9649 81.5318 52.1116C81.5318 52.2583 81.5014 52.4035 81.4424 52.5389C81.3834 52.6743 81.297 52.7971 81.1881 52.9003C81.0793 53.0035 80.9501 53.085 80.8081 53.1401C80.6662 53.1952 80.5142 53.2227 80.361 53.2212ZM3.3602 51.2434C3.24025 51.242 3.12122 51.2635 3.00999 51.3065C2.89876 51.3496 2.79755 51.4133 2.71223 51.494C2.62691 51.5748 2.55917 51.671 2.51294 51.777C2.4667 51.883 2.4429 51.9967 2.4429 52.1116C2.4429 52.2265 2.4667 52.3402 2.51294 52.4462C2.55917 52.5522 2.62691 52.6484 2.71223 52.7292C2.79755 52.8099 2.89876 52.8737 3.00999 52.9167C3.12122 52.9597 3.24025 52.9812 3.3602 52.9798H80.361C80.481 52.9812 80.6 52.9597 80.7113 52.9167C80.8225 52.8737 80.9237 52.8099 81.009 52.7292C81.0943 52.6484 81.1621 52.5522 81.2083 52.4462C81.2545 52.3402 81.2784 52.2265 81.2784 52.1116C81.2784 51.9967 81.2545 51.883 81.2083 51.777C81.1621 51.671 81.0943 51.5748 81.009 51.494C80.9237 51.4133 80.8225 51.3496 80.7113 51.3065C80.6 51.2635 80.481 51.242 80.361 51.2434H3.3602Z" fill="#292A2E"/>
<path d="M80.3612 51.1226H26.1655C25.5951 51.1226 25.1328 51.5653 25.1328 52.1115C25.1328 52.6576 25.5951 53.1004 26.1655 53.1004H80.3612C80.9315 53.1004 81.3938 52.6576 81.3938 52.1115C81.3938 51.5653 80.9315 51.1226 80.3612 51.1226Z" fill="white"/>
<path d="M80.362 53.2212H26.1661C25.8609 53.2181 25.5693 53.0999 25.3546 52.8921C25.14 52.6844 25.0195 52.4039 25.0195 52.1116C25.0195 51.8193 25.14 51.5388 25.3546 51.3311C25.5693 51.1233 25.8609 51.0051 26.1661 51.002H80.362C80.5151 51.0005 80.6671 51.0281 80.8091 51.0831C80.951 51.1382 81.0802 51.2197 81.1891 51.3229C81.2979 51.4261 81.3844 51.5489 81.4434 51.6843C81.5023 51.8197 81.5327 51.9649 81.5327 52.1116C81.5327 52.2583 81.5023 52.4035 81.4434 52.5389C81.3844 52.6743 81.2979 52.7971 81.1891 52.9003C81.0802 53.0035 80.951 53.085 80.8091 53.1401C80.6671 53.1952 80.5151 53.2227 80.362 53.2212ZM26.1661 51.2434C25.9275 51.2461 25.6997 51.3388 25.532 51.5013C25.3642 51.6638 25.2702 51.8831 25.2702 52.1116C25.2702 52.3401 25.3642 52.5594 25.532 52.7219C25.6997 52.8845 25.9275 52.9771 26.1661 52.9798H80.362C80.4819 52.9812 80.6009 52.9597 80.7122 52.9167C80.8234 52.8737 80.9246 52.8099 81.0099 52.7292C81.0953 52.6484 81.163 52.5522 81.2092 52.4462C81.2555 52.3402 81.2793 52.2265 81.2793 52.1116C81.2793 51.9967 81.2555 51.883 81.2092 51.777C81.163 51.671 81.0953 51.5748 81.0099 51.494C80.9246 51.4133 80.8234 51.3496 80.7122 51.3065C80.6009 51.2635 80.4819 51.242 80.362 51.2434H26.1661Z" fill="#292A2E"/>
<path d="M82.4379 86.437C82.4213 86.4371 82.4049 86.434 82.3896 86.4279C82.3743 86.4218 82.3604 86.4129 82.3487 86.4017C82.1712 86.2317 81.8817 83.1118 81.1021 73.8227C80.7832 70.0218 80.4818 66.4317 80.2619 64.2499C80.2463 64.0941 80.1832 64.076 80.1625 64.0701C79.8614 63.983 78.9461 64.6742 78.4351 65.2796C78.414 65.3045 78.3836 65.3204 78.3503 65.3238C78.317 65.3272 78.2838 65.3178 78.2578 65.2976C78.2317 65.2775 78.2152 65.2483 78.2116 65.2164C78.2081 65.1846 78.218 65.1527 78.239 65.1278C78.577 64.7276 79.6784 63.6784 80.2349 63.8388C80.3471 63.8712 80.487 63.9646 80.5128 64.2267C80.733 66.4104 81.0343 70.0015 81.3534 73.8033C81.8271 79.4482 82.3638 85.8432 82.5402 86.246C82.5537 86.264 82.5617 86.2852 82.5635 86.3074C82.5652 86.3295 82.5605 86.3517 82.5499 86.3714C82.5393 86.3912 82.5233 86.4077 82.5035 86.4193C82.4837 86.4309 82.461 86.437 82.4379 86.437Z" fill="#494949"/>
<path d="M79.939 68.2534C82.0302 66.648 82.7234 64.1493 81.4871 62.6723C80.2509 61.1953 77.5535 61.2994 75.4623 62.9047C73.3711 64.5101 72.6779 67.0089 73.9142 68.4858C75.1504 69.9628 77.8478 69.8587 79.939 68.2534Z" fill="#0CBC8B"/>
<path opacity="0.2" d="M79.939 68.2534C82.0302 66.648 82.7234 64.1493 81.4871 62.6723C80.2509 61.1953 77.5535 61.2994 75.4623 62.9047C73.3711 64.5101 72.6779 67.0089 73.9142 68.4858C75.1504 69.9628 77.8478 69.8587 79.939 68.2534Z" fill="white"/>
<path d="M74.5005 68.8616C74.4886 68.8616 74.4768 68.8583 74.4667 68.8522C74.4566 68.846 74.4486 68.8373 74.4435 68.8269C74.4384 68.8165 74.4365 68.805 74.438 68.7936C74.4395 68.7823 74.4444 68.7716 74.452 68.7627L80.4118 61.8797C80.4225 61.8674 80.4378 61.8597 80.4545 61.8582C80.4711 61.8567 80.4877 61.8616 80.5006 61.8718C80.5135 61.8821 80.5216 61.8968 80.5231 61.9127C80.5247 61.9286 80.5195 61.9445 80.5088 61.9569L74.549 68.8399C74.5431 68.8467 74.5357 68.8521 74.5273 68.8559C74.5189 68.8597 74.5098 68.8616 74.5005 68.8616Z" fill="white"/>
<path d="M83.7393 84.9611C83.7192 84.9611 83.6993 84.9565 83.6815 84.9477C83.6636 84.9388 83.6482 84.926 83.6366 84.9103C83.6249 84.8946 83.6174 84.8765 83.6145 84.8574C83.6117 84.8383 83.6137 84.8189 83.6203 84.8007L85.8591 78.635C85.925 78.4538 86.0374 78.2914 86.1858 78.1626C86.3342 78.0338 86.514 77.9427 86.7088 77.8977C86.9035 77.8527 87.1069 77.8552 87.3003 77.905C87.4938 77.9548 87.6711 78.0502 87.816 78.1826L88.9996 79.2654C89.0238 79.2875 89.0378 79.3179 89.0386 79.3499C89.0394 79.3819 89.0268 79.4129 89.0037 79.4361C88.9806 79.4593 88.9489 79.4727 88.9155 79.4734C88.882 79.4742 88.8497 79.4621 88.8255 79.44L87.642 78.3572C87.5276 78.2526 87.3876 78.1773 87.2348 78.138C87.0821 78.0987 86.9215 78.0967 86.7678 78.1322C86.6141 78.1678 86.4721 78.2397 86.3549 78.3414C86.2378 78.443 86.1491 78.5713 86.0971 78.7143L83.8585 84.8801C83.8499 84.9038 83.8338 84.9244 83.8124 84.9389C83.791 84.9534 83.7655 84.9612 83.7393 84.9611Z" fill="#494949"/>
<path d="M92.3064 82.6795C93.8562 81.5047 93.7641 78.9208 92.1007 76.9082C90.4373 74.8956 87.8325 74.2165 86.2827 75.3913C84.7329 76.5662 84.825 79.1501 86.4884 81.1627C88.1518 83.1752 90.7566 83.8544 92.3064 82.6795Z" fill="#0CBC8B"/>
<path d="M81.4222 86.0438C81.3939 86.0438 81.3664 86.0347 81.3442 86.0179C81.3219 86.0011 81.3063 85.9776 81.2997 85.9512L77.5421 70.9074C77.5164 70.8049 77.4617 70.7112 77.384 70.6365C77.3063 70.5618 77.2086 70.5091 77.1016 70.4842C76.9947 70.4592 76.8826 70.463 76.7777 70.4951C76.6729 70.5272 76.5793 70.5863 76.5072 70.6661L75.3491 71.9478C75.3383 71.96 75.3251 71.97 75.3103 71.9772C75.2954 71.9845 75.2792 71.9888 75.2626 71.99C75.246 71.9913 75.2293 71.9893 75.2135 71.9843C75.1977 71.9793 75.1831 71.9714 75.1705 71.961C75.1579 71.9505 75.1476 71.9378 75.1402 71.9235C75.1327 71.9092 75.1284 71.8937 75.1272 71.8778C75.1261 71.8619 75.1283 71.8459 75.1337 71.8308C75.139 71.8157 75.1475 71.8018 75.1585 71.7898L76.3165 70.5082C76.419 70.3948 76.552 70.3108 76.7011 70.2652C76.8502 70.2196 77.0095 70.2143 77.1616 70.2498C77.3136 70.2853 77.4525 70.3603 77.5629 70.4666C77.6733 70.5728 77.751 70.7061 77.7874 70.8519L81.5442 85.8956C81.5517 85.9266 81.5462 85.9593 81.5287 85.9864C81.5112 86.0136 81.4833 86.033 81.4509 86.0404C81.4415 86.0426 81.4318 86.0438 81.4222 86.0438Z" fill="#494949"/>
<path d="M80.0362 75.2897C80.4928 72.7604 79.2842 70.4486 77.3366 70.1261C75.3889 69.8035 73.4399 71.5924 72.9832 74.1216C72.5265 76.6508 73.7351 78.9627 75.6827 79.2852C77.6304 79.6078 79.5795 77.8189 80.0362 75.2897Z" fill="#0CBC8B"/>
<path d="M82.4387 86.4372C82.4335 86.4372 82.4284 86.4369 82.4232 86.4363C82.4068 86.4344 82.3909 86.4294 82.3765 86.4216C82.3621 86.4138 82.3494 86.4033 82.3392 86.3908C82.329 86.3783 82.3215 86.364 82.3171 86.3488C82.3127 86.3335 82.3114 86.3175 82.3134 86.3018L84.7124 67.6478C84.7386 67.4446 84.8255 67.2529 84.9626 67.0959C85.0998 66.9388 85.2814 66.823 85.4856 66.7625C85.6898 66.7019 85.9079 66.699 86.1138 66.7543C86.3196 66.8096 86.5044 66.9207 86.6459 67.0741L89.388 70.0484C89.4101 70.0724 89.4213 70.1038 89.4193 70.1358C89.4172 70.1678 89.4019 70.1976 89.3769 70.2188C89.3518 70.24 89.319 70.2508 89.2856 70.2488C89.2522 70.2468 89.221 70.2322 89.1989 70.2082L86.4569 67.2339C86.3475 67.1153 86.2047 67.0295 86.0456 66.9867C85.8865 66.944 85.7179 66.9461 85.5601 66.993C85.4023 67.0398 85.2619 67.1293 85.1559 67.2507C85.0499 67.3721 84.9828 67.5202 84.9626 67.6773L82.5637 86.3312C82.56 86.3605 82.5452 86.3874 82.5222 86.4069C82.4991 86.4264 82.4695 86.4372 82.4387 86.4372Z" fill="#494949"/>
<path d="M92.1998 71.7011C93.1565 70.0447 92.0309 67.6947 89.6856 66.4523C87.3404 65.21 84.6636 65.5456 83.7069 67.202C82.7502 68.8584 83.8758 71.2083 86.2211 72.4507C88.5663 73.6931 91.2431 73.3575 92.1998 71.7011Z" fill="#0CBC8B"/>
<path opacity="0.2" d="M92.3064 82.6795C93.8562 81.5047 93.7641 78.9208 92.1007 76.9082C90.4373 74.8956 87.8325 74.2165 86.2827 75.3913C84.7329 76.5662 84.825 79.1501 86.4884 81.1627C88.1518 83.1752 90.7566 83.8544 92.3064 82.6795Z" fill="white"/>
<path opacity="0.5" d="M80.0362 75.2897C80.4928 72.7604 79.2842 70.4486 77.3366 70.1261C75.3889 69.8035 73.4399 71.5924 72.9832 74.1216C72.5265 76.6508 73.7351 78.9627 75.6827 79.2852C77.6304 79.6078 79.5795 77.8189 80.0362 75.2897Z" fill="white"/>
<path opacity="0.5" d="M92.1998 71.7011C93.1565 70.0447 92.0309 67.6947 89.6856 66.4523C87.3404 65.21 84.6636 65.5456 83.7069 67.202C82.7502 68.8584 83.8758 71.2083 86.2211 72.4507C88.5663 73.6931 91.2431 73.3575 92.1998 71.7011Z" fill="white"/>
<path d="M85.5074 102.265H79.3705L78.3535 83.4604H86.5243L85.5074 102.265Z" fill="#292A2E"/>
<path opacity="0.3" d="M85.5074 102.265H79.3705L78.3535 83.4604H86.5243L85.5074 102.265Z" fill="white"/>
<path d="M92.3057 82.739C92.2962 82.739 92.2868 82.7369 92.2783 82.733C92.2697 82.729 92.2622 82.7232 92.2563 82.7161L86.2324 75.4279C86.222 75.4154 86.2172 75.3994 86.2192 75.3835C86.2211 75.3676 86.2295 75.3531 86.2426 75.3431C86.2557 75.3332 86.2724 75.3286 86.289 75.3305C86.3056 75.3323 86.3208 75.3404 86.3312 75.353L92.3551 82.6411C92.3625 82.65 92.3671 82.6607 92.3684 82.672C92.3697 82.6833 92.3677 82.6947 92.3625 82.7049C92.3574 82.7152 92.3493 82.7238 92.3393 82.7298C92.3292 82.7358 92.3176 82.739 92.3057 82.739Z" fill="white"/>
<path d="M91.8007 72.285C91.7873 72.2849 91.7743 72.2807 91.7636 72.273L84.0552 66.8826C84.0417 66.8731 84.0326 66.8589 84.03 66.8431C84.0275 66.8273 84.0316 66.8111 84.0414 66.7982C84.0513 66.7853 84.0661 66.7766 84.0826 66.7742C84.0992 66.7717 84.116 66.7756 84.1295 66.7851L91.8379 72.1756C91.8485 72.1832 91.8563 72.1938 91.8603 72.2059C91.8642 72.2179 91.8641 72.2309 91.8599 72.2429C91.8557 72.2549 91.8477 72.2654 91.837 72.2728C91.8262 72.2802 91.8133 72.2842 91.8001 72.2842L91.8007 72.285Z" fill="white"/>
<path d="M75.3696 79.2068C75.3641 79.2067 75.3586 79.206 75.3534 79.2046C75.3372 79.2004 75.3235 79.1904 75.3151 79.1765C75.3068 79.1627 75.3045 79.1463 75.3087 79.1308L77.7626 70.3259C77.7672 70.3108 77.7778 70.2981 77.7921 70.2904C77.8064 70.2827 77.8233 70.2807 77.8392 70.2847C77.855 70.2888 77.8686 70.2986 77.877 70.3121C77.8855 70.3255 77.8881 70.3416 77.8843 70.3569L75.4305 79.1619C75.4269 79.1747 75.419 79.1861 75.408 79.1942C75.397 79.2023 75.3835 79.2067 75.3696 79.2068Z" fill="white"/>
<path d="M88.4697 102.434H0.199545C0.176149 102.434 0.15371 102.425 0.137166 102.409C0.120622 102.393 0.111328 102.372 0.111328 102.349C0.111328 102.327 0.120622 102.306 0.137166 102.29C0.15371 102.274 0.176149 102.265 0.199545 102.265H88.4694C88.4928 102.265 88.5153 102.274 88.5318 102.29C88.5484 102.306 88.5577 102.327 88.5577 102.349C88.5577 102.372 88.5484 102.393 88.5318 102.409C88.5153 102.425 88.4928 102.434 88.4694 102.434H88.4697Z" fill="#292A2E"/>
<g opacity="0.65">
<path d="M88.4697 102.434H0.199545C0.176149 102.434 0.15371 102.425 0.137166 102.409C0.120622 102.393 0.111328 102.372 0.111328 102.349C0.111328 102.327 0.120622 102.306 0.137166 102.29C0.15371 102.274 0.176149 102.265 0.199545 102.265H88.4694C88.4928 102.265 88.5153 102.274 88.5318 102.29C88.5484 102.306 88.5577 102.327 88.5577 102.349C88.5577 102.372 88.5484 102.393 88.5318 102.409C88.5153 102.425 88.4928 102.434 88.4694 102.434H88.4697Z" fill="#292A2E"/>
</g>
</svg>
