<svg width="40" height="40" viewBox="0 0 40 40" fill="none" xmlns="http://www.w3.org/2000/svg">
<path d="M32.9198 25.495C30.9114 25.495 28.9683 25.1684 27.1558 24.5806C26.5843 24.3846 25.9475 24.5316 25.5067 24.9724L22.9431 28.1892C18.3221 25.9848 13.9951 21.821 11.6927 17.0368L14.8768 14.3263C15.3177 13.8691 15.4483 13.2323 15.2687 12.6608C14.6645 10.8483 14.3543 8.9052 14.3543 6.8968C14.3543 6.01506 13.6195 5.28027 12.7378 5.28027H7.08811C6.20637 5.28027 5.14502 5.67216 5.14502 6.8968C5.14502 22.066 17.767 34.6716 32.9198 34.6716C34.0791 34.6716 34.5363 33.6429 34.5363 32.7448V27.1115C34.5363 26.2297 33.8015 25.495 32.9198 25.495Z" fill="black"/>
</svg>
