<svg width="238" height="170" viewBox="0 0 238 170" fill="none" xmlns="http://www.w3.org/2000/svg">
<path d="M152.262 49.5069C157.426 49.5069 161.613 45.3177 161.613 40.1499C161.613 34.9822 157.426 30.793 152.262 30.793C147.097 30.793 142.91 34.9822 142.91 40.1499C142.91 45.3177 147.097 49.5069 152.262 49.5069Z" fill="#D0F4E6"/>
<path d="M147.879 39.2634C147.639 39.2635 147.403 39.1931 147.202 39.0609C147.001 38.9287 146.843 38.7404 146.748 38.5194C146.58 38.1282 142.665 28.7802 146.917 15.067C151.522 0.212893 167.564 0.0400391 167.725 0.0400391C168.052 0.0400391 168.365 0.169812 168.596 0.400804C168.827 0.631797 168.956 0.945088 168.956 1.27176C168.956 1.59843 168.827 1.91173 168.596 2.14272C168.365 2.37371 168.052 2.50348 167.725 2.50348C167.14 2.50348 153.328 2.69687 149.266 15.7962C145.281 28.6472 148.969 37.4552 149.007 37.5427C149.088 37.73 149.121 37.9345 149.103 38.1378C149.085 38.3411 149.017 38.5368 148.905 38.7073C148.793 38.8779 148.641 39.0179 148.461 39.1148C148.282 39.2117 148.081 39.2625 147.877 39.2626L147.879 39.2634Z" fill="#D0F4E6"/>
<path d="M148.876 49.5064C154.041 49.5064 158.227 45.3172 158.227 40.1495C158.227 34.9817 154.041 30.7925 148.876 30.7925C143.711 30.7925 139.525 34.9817 139.525 40.1495C139.525 45.3172 143.711 49.5064 148.876 49.5064Z" fill="#D0F4E6"/>
<path opacity="0.3" d="M148.876 49.5064C154.041 49.5064 158.227 45.3172 158.227 40.1495C158.227 34.9817 154.041 30.7925 148.876 30.7925C143.711 30.7925 139.525 34.9817 139.525 40.1495C139.525 45.3172 143.711 49.5064 148.876 49.5064Z" fill="white"/>
<path d="M151.12 49.5064C156.284 49.5064 160.471 45.3172 160.471 40.1495C160.471 34.9817 156.284 30.7925 151.12 30.7925C145.955 30.7925 141.768 34.9817 141.768 40.1495C141.768 45.3172 145.955 49.5064 151.12 49.5064Z" fill="#D0F4E6"/>
<path d="M195.23 23.3135C195.23 23.3135 198.235 37.7185 201.823 42.0767C212.153 54.6226 216.687 69.6936 209.274 78.8863C201.862 88.079 150.223 95.5039 143.622 77.5499C138.066 62.4346 144.026 59.7581 144.099 46.6608C144.132 40.7341 144.951 28.2354 144.951 28.2354" fill="#0A0A0A"/>
<path d="M152.073 69.9288C152.167 69.9165 153.214 87.3084 173.407 85.7921C187.386 84.7443 192.37 69.9029 192.693 69.9029C191.185 69.5827 188.648 69.1163 187.978 68.7591C185.777 67.5754 183.054 66.3441 182.344 62.0667C181.933 59.6033 182.629 46.9896 182.415 44.4941L160.957 49.2864C161.257 54.554 163.356 66.7665 156.001 68.9278C154.775 69.2879 153.457 69.6167 152.073 69.9288Z" fill="#E98862"/>
<path opacity="0.5" d="M160.655 63.9394C160.991 62.8556 161.207 61.7382 161.3 60.6072C161.536 58.0262 161.489 55.4271 161.16 52.8564C165.521 52.2675 169.629 50.4664 173.018 47.6577C173.417 49.13 175.608 55.5637 175.001 56.963C173.855 59.6083 168.466 63.9394 160.655 63.9394Z" fill="#0C0C0C"/>
<path d="M164.475 60.1192C172.969 59.7998 183.364 54.9805 184.105 43.5053L184.775 33.1515C185.516 21.6768 180.094 11.9848 169.296 11.286C158.498 10.588 149.826 19.3673 149.085 30.8424L148.788 35.4261C148.504 39.8307 149.321 60.6879 164.475 60.1192Z" fill="#E98862"/>
<path opacity="0.1" d="M167.83 44.7628C169.232 44.7414 170.355 43.89 170.34 42.8611C170.324 41.8322 169.175 41.0155 167.773 41.0369C166.371 41.0583 165.247 41.9098 165.263 42.9386C165.279 43.9675 166.428 44.7842 167.83 44.7628Z" fill="#0C0C0C"/>
<path opacity="0.1" d="M152.705 42.6791C152.718 43.7055 151.594 44.5575 150.193 44.5809C149.95 44.5843 149.708 44.5627 149.47 44.5164C149.244 43.3196 149.084 42.1601 148.974 41.0815C149.344 40.9341 149.739 40.8571 150.137 40.8545C151.54 40.8311 152.689 41.6477 152.705 42.6791Z" fill="#0C0C0C"/>
<path d="M152.323 34.95C153.057 34.95 153.651 34.355 153.651 33.621C153.651 32.887 153.057 32.292 152.323 32.292C151.59 32.292 150.995 32.887 150.995 33.621C150.995 34.355 151.59 34.95 152.323 34.95Z" fill="#0C0C0C"/>
<path d="M165.466 35.9325C166.2 35.9325 166.795 35.3374 166.795 34.6034C166.795 33.8694 166.2 33.2744 165.466 33.2744C164.733 33.2744 164.138 33.8694 164.138 34.6034C164.138 35.3374 164.733 35.9325 165.466 35.9325Z" fill="#0C0C0C"/>
<path opacity="0.5" d="M159.224 44.9819H159.203C158.765 44.9501 158.33 44.8945 157.898 44.8152C157.253 44.6921 156.399 44.4613 156.437 43.8877C156.478 43.2337 158.724 36.295 158.981 35.5059C159.005 35.4395 159.054 35.3851 159.118 35.3542C159.181 35.3233 159.254 35.3182 159.322 35.34C159.389 35.3619 159.445 35.4089 159.478 35.4713C159.512 35.5337 159.52 35.6066 159.5 35.6746C158.542 38.6308 157.01 43.4829 156.982 43.923C157.076 44.1136 158.153 44.3656 159.239 44.4363C159.309 44.4415 159.374 44.4735 159.421 44.5256C159.468 44.5777 159.494 44.6459 159.492 44.7161C159.49 44.7864 159.461 44.8532 159.411 44.9027C159.362 44.9523 159.295 44.9808 159.225 44.9823L159.224 44.9819Z" fill="#0C0C0C"/>
<path opacity="0.5" d="M161.382 49.631C159.633 49.62 157.912 49.1981 156.356 48.3993C156.324 48.3835 156.295 48.3615 156.272 48.3346C156.248 48.3077 156.23 48.2764 156.218 48.2425C156.195 48.174 156.199 48.0989 156.231 48.0338C156.263 47.9688 156.319 47.919 156.388 47.8956C156.456 47.8721 156.531 47.8768 156.596 47.9086C159.952 49.5509 163.08 49.4984 165.639 47.7567C165.69 47.7199 165.744 47.6857 165.799 47.6545C165.863 47.6252 165.936 47.6219 166.003 47.6453C166.07 47.6687 166.125 47.717 166.156 47.7801C166.188 47.8431 166.194 47.916 166.174 47.9835C166.153 48.051 166.107 48.1079 166.045 48.1422C166.025 48.1537 165.992 48.1767 165.945 48.2088C164.599 49.1266 163.011 49.6218 161.382 49.631Z" fill="#0C0C0C"/>
<path d="M193.517 35.628L183.844 35.0577C176.324 33.0393 172.631 20.8974 172.631 20.8974C172.631 20.8974 166.615 30.4552 144.934 28.2258C144.934 28.2258 143.877 -2.14357 176.107 2.99845C186.471 4.65225 194.947 13.7616 195.714 27.4091C196.251 36.9734 193.517 35.628 193.517 35.628Z" fill="#0A0A0A"/>
<path d="M183.209 46.9577C186.491 47.1704 189.377 43.8295 189.589 40.5462C189.801 37.2628 187.259 35.2801 183.977 35.0679L182.144 37.1585L180.387 46.7754L183.209 46.9577Z" fill="#E98862"/>
<path d="M156.015 30.6153C155.139 30.1576 154.158 29.94 153.171 29.9846C152.675 30.004 152.184 30.0979 151.716 30.2634C151.244 30.4281 150.794 30.6514 150.377 30.9281L150.364 30.9363C150.317 30.9648 150.261 30.974 150.208 30.9619C150.155 30.9497 150.109 30.9173 150.079 30.8715C150.05 30.8256 150.039 30.77 150.05 30.7166C150.061 30.6631 150.092 30.616 150.137 30.5853C150.576 30.2718 151.053 30.015 151.556 29.8208C152.063 29.6229 152.596 29.5022 153.138 29.4628C154.236 29.3764 155.336 29.5863 156.325 30.0705C156.4 30.1076 156.456 30.1729 156.483 30.2518C156.509 30.3307 156.503 30.4169 156.466 30.4913C156.429 30.5657 156.363 30.6223 156.285 30.6487C156.206 30.675 156.12 30.6689 156.045 30.6317L156.037 30.6276L156.015 30.6153Z" fill="#0C0C0C"/>
<path d="M164.784 30.644C165.826 30.2868 166.944 30.2159 168.022 30.4387C168.555 30.5452 169.07 30.7312 169.547 30.9905C170.023 31.2459 170.464 31.5601 170.86 31.9258C170.901 31.962 170.925 32.0124 170.929 32.0663C170.933 32.1202 170.915 32.1735 170.881 32.2149C170.846 32.2564 170.797 32.2828 170.743 32.2886C170.689 32.2944 170.635 32.2791 170.593 32.246L170.58 32.2362C170.201 31.9096 169.782 31.632 169.334 31.4097C168.89 31.1872 168.415 31.033 167.925 30.9523C166.951 30.785 165.951 30.8786 165.025 31.2237L165.003 31.2327C164.964 31.2477 164.923 31.255 164.882 31.2542C164.841 31.2533 164.8 31.2444 164.763 31.2278C164.725 31.2113 164.691 31.1875 164.662 31.1577C164.634 31.128 164.611 31.093 164.596 31.0546C164.581 31.0162 164.574 30.9752 164.575 30.934C164.576 30.8928 164.585 30.8522 164.601 30.8144C164.618 30.7767 164.642 30.7426 164.671 30.714C164.701 30.6855 164.736 30.6631 164.775 30.6481L164.784 30.644Z" fill="#0C0C0C"/>
<path opacity="0.52" d="M161.33 52.2223C161.014 52.225 160.698 52.201 160.386 52.1504C160.35 52.1448 160.317 52.1322 160.286 52.1135C160.255 52.0947 160.229 52.0701 160.208 52.0411C160.187 52.012 160.172 51.9792 160.163 51.9443C160.155 51.9094 160.154 51.8732 160.159 51.8378C160.165 51.8023 160.177 51.7684 160.196 51.7378C160.215 51.7072 160.239 51.6807 160.268 51.6596C160.297 51.6385 160.33 51.6234 160.365 51.615C160.4 51.6067 160.436 51.6053 160.472 51.6109C162.349 51.9098 163.296 51.0907 163.335 51.0558C163.389 51.0073 163.46 50.982 163.532 50.9857C163.604 50.9894 163.672 51.0216 163.721 51.0753C163.769 51.1291 163.795 51.1999 163.791 51.2722C163.787 51.3446 163.755 51.4125 163.701 51.4611C163.022 51.9813 162.184 52.2503 161.33 52.2223Z" fill="#0C0C0C"/>
<path d="M183.95 34.9142C177.297 33.4102 174.605 29.3156 173.518 26.1451C172.806 24.0292 172.544 21.7877 172.748 19.5645L172.953 19.592C172.753 21.7862 173.013 23.9981 173.716 26.086C174.787 29.2039 177.44 33.23 183.997 34.7142L183.95 34.9142Z" fill="#0C0C0C"/>
<path d="M81.6417 76.6239L75.0572 64.2003C74.9124 63.9274 74.7124 63.6877 74.4699 63.4964C74.2275 63.3051 73.9479 63.1665 73.6489 63.0892C73.35 63.012 73.0383 62.9979 72.7336 63.0478C72.4289 63.0977 72.1379 63.2105 71.8792 63.3791C71.411 63.7051 71.0804 64.1934 70.9515 64.7494C70.8227 65.3053 70.9046 65.8893 71.1816 66.3882L72.5935 69.0521L64.3107 62.714C63.4022 61.993 61.8265 61.69 61.0855 62.7633C60.7736 63.1576 60.6044 63.6461 60.6055 64.149C60.6066 64.6519 60.778 65.1397 61.0916 65.5326C61.0829 65.5396 61.0746 65.5473 61.067 65.5556C61.0617 65.563 61.0605 65.5716 61.0559 65.579L59.6551 64.4651C59.3955 64.2594 59.0932 64.1142 58.7704 64.0401C58.4476 63.966 58.1124 63.965 57.7891 64.037C57.4658 64.109 57.1627 64.2523 56.9018 64.4564C56.6409 64.6605 56.4288 64.9203 56.281 65.2169C56.0576 65.6886 56.0029 66.2226 56.1259 66.7299C56.2489 67.2371 56.5422 67.6867 56.9568 68.0034L57.5534 68.4764C57.5476 68.5001 57.5461 68.5245 57.5489 68.5487C57.072 68.3227 56.5304 68.2738 56.0208 68.4107C55.5112 68.5476 55.0669 68.8613 54.7673 69.2959C54.4535 69.7812 54.3341 70.3671 54.433 70.9366C54.5319 71.506 54.8417 72.0173 55.3007 72.3683L56.7816 73.5429C56.7489 73.541 56.7162 73.5469 56.6863 73.5602C56.6564 73.5735 56.6301 73.5937 56.6096 73.6193C56.587 73.6508 56.5739 73.6881 56.5719 73.7268C56.0912 73.6437 55.5966 73.7208 55.1641 73.9463C54.7315 74.1718 54.3849 74.5332 54.1776 74.975C53.9694 75.4435 53.9252 75.9686 54.0523 76.4653C54.1795 76.962 54.4704 77.4012 54.878 77.7119L67.3738 87.6235C69.1219 89.0101 71.244 89.8426 73.4681 90.0145C75.6922 90.1864 77.917 89.6898 79.8572 88.5884C81.53 87.6387 82.7669 86.0739 83.3051 84.2262C83.8433 82.3786 83.6403 80.3938 82.7393 78.6936L81.6417 76.6239Z" fill="#E98862"/>
<g opacity="0.2">
<path d="M69.2595 71.846C69.2259 71.8877 69.1773 71.9147 69.1241 71.9211C69.0709 71.9274 69.0173 71.9127 68.9748 71.88L61.1055 65.8425C61.0841 65.8261 61.0662 65.8057 61.0527 65.7823C61.0392 65.7589 61.0304 65.7331 61.0269 65.7064C61.0234 65.6797 61.0252 65.6525 61.0321 65.6264C61.0391 65.6004 61.0511 65.5759 61.0675 65.5545C61.084 65.5331 61.1044 65.5152 61.1278 65.5017C61.1511 65.4882 61.1769 65.4794 61.2036 65.4759C61.2303 65.4724 61.2575 65.4741 61.2835 65.4811C61.3096 65.4881 61.334 65.5001 61.3554 65.5166L69.2247 71.5544C69.2677 71.5876 69.2958 71.6365 69.3029 71.6903C69.31 71.7442 69.2954 71.7987 69.2624 71.8418L69.2595 71.846Z" fill="#0C0C0C"/>
</g>
<g opacity="0.2">
<path d="M66.6939 75.3923C66.6603 75.4341 66.6117 75.4611 66.5584 75.4674C66.5052 75.4738 66.4516 75.4591 66.4091 75.4264L57.6281 68.6885C57.585 68.6554 57.5568 68.6066 57.5496 68.5527C57.5425 68.4988 57.557 68.4443 57.5899 68.4011C57.6242 68.3596 57.6728 68.3327 57.7261 68.3256C57.7793 68.3185 57.8333 68.3318 57.8772 68.3629L66.6594 75.0992C66.7025 75.1323 66.7307 75.1811 66.7379 75.235C66.745 75.2889 66.7305 75.3434 66.6976 75.3866L66.6939 75.3923Z" fill="#0C0C0C"/>
</g>
<g opacity="0.2">
<path d="M63.9378 79.2492C63.9042 79.291 63.8556 79.3179 63.8023 79.3243C63.7491 79.3307 63.6955 79.3159 63.653 79.2833L56.6475 73.9085C56.6043 73.8753 56.576 73.8263 56.5689 73.7723C56.5618 73.7183 56.5764 73.6637 56.6095 73.6204C56.6427 73.5772 56.6916 73.5489 56.7456 73.5418C56.7996 73.5347 56.8542 73.5493 56.8974 73.5825L63.9025 78.9585C63.9456 78.9916 63.9738 79.0404 63.981 79.0943C63.9881 79.1482 63.9736 79.2027 63.9407 79.2459L63.9378 79.2492Z" fill="#0C0C0C"/>
</g>
<path d="M128.542 77.3125L107.25 114.655L85.4897 74.8979L59.4856 89.4257L94.494 150.979C95.6276 152.957 97.2086 154.641 99.1102 155.897C102.3 157.989 106.189 158.727 109.923 157.949C113.657 157.172 116.929 154.942 119.019 151.75L119.199 151.476L156.539 94.4614L128.542 77.3125Z" fill="#D0F4E6"/>
<path d="M81.6415 76.6239L75.057 64.2003C74.9122 63.9274 74.7122 63.6877 74.4698 63.4964C74.2273 63.3052 73.9477 63.1665 73.6488 63.0892C73.3498 63.012 73.0381 62.9979 72.7334 63.0478C72.4287 63.0977 72.1377 63.2106 71.879 63.3792C71.4108 63.7051 71.0803 64.1934 70.9514 64.7494C70.8225 65.3053 70.9045 65.8893 71.1815 66.3883L72.5934 69.0521L74.7887 73.8623" fill="#E98862"/>
<path d="M173.784 81.4449C187.772 80.7852 188.361 68.9048 188.361 68.9048C188.361 68.9048 195.293 69.3527 199.9 69.9768C207.444 70.9979 212.42 73.5574 216.381 77.5199C220.064 81.2064 222.307 85.1943 219.934 110.658C218.216 129.092 219.425 169.649 219.425 169.649H135C135 169.649 129.937 116.494 129.231 108.194C127.885 92.3506 122.369 83.4202 130.078 75.2588C135.669 69.34 150.102 68.9048 155.912 68.9056C156.007 68.9056 154.733 82.3437 173.784 81.4449Z" fill="#D0F4E6"/>
<path d="M129.723 105.545C129.72 105.49 129.695 105.44 129.654 105.403C129.613 105.367 129.559 105.349 129.505 105.352C129.45 105.356 129.4 105.381 129.364 105.422C129.328 105.463 129.309 105.516 129.313 105.571L131.029 133.009C131.033 133.058 131.053 133.104 131.088 133.14C131.123 133.175 131.169 133.196 131.218 133.2C131.228 133.201 131.237 133.201 131.247 133.2C131.274 133.199 131.3 133.192 131.324 133.18C131.349 133.168 131.37 133.151 131.388 133.131C131.406 133.111 131.42 133.087 131.428 133.062C131.437 133.036 131.441 133.009 131.439 132.982" fill="#0C0C0C"/>
<path d="M148.324 145.598L134.667 142.277C134.367 142.204 134.055 142.195 133.751 142.249C133.447 142.303 133.158 142.42 132.901 142.593C132.645 142.765 132.428 142.989 132.262 143.25C132.097 143.511 131.988 143.804 131.943 144.11C131.875 144.676 132.021 145.248 132.351 145.713C132.681 146.179 133.172 146.505 133.729 146.628L136.657 147.34L126.421 149.331C125.28 149.532 124.007 150.51 124.317 151.777C124.405 152.272 124.658 152.723 125.034 153.056C125.411 153.389 125.889 153.585 126.391 153.611C126.39 153.622 126.39 153.633 126.391 153.644C126.391 153.653 126.399 153.66 126.401 153.669L124.64 153.979C124.314 154.037 124.005 154.167 123.736 154.359C123.466 154.551 123.243 154.802 123.082 155.091C122.921 155.381 122.827 155.703 122.806 156.034C122.786 156.365 122.839 156.696 122.963 157.003C123.167 157.484 123.53 157.879 123.99 158.124C124.451 158.368 124.982 158.447 125.494 158.347L126.243 158.215C126.257 158.235 126.274 158.252 126.294 158.266C125.809 158.473 125.412 158.846 125.177 159.318C124.941 159.79 124.88 160.331 125.006 160.844C125.16 161.401 125.519 161.88 126.01 162.184C126.501 162.489 127.089 162.596 127.656 162.486L129.518 162.158C129.494 162.181 129.477 162.209 129.467 162.24C129.457 162.271 129.455 162.304 129.461 162.337C129.469 162.375 129.488 162.41 129.516 162.437C129.135 162.741 128.864 163.162 128.745 163.636C128.627 164.109 128.667 164.608 128.859 165.057C129.071 165.524 129.434 165.905 129.89 166.14C130.346 166.375 130.867 166.448 131.37 166.35L147.074 163.578C149.271 163.19 151.302 162.155 152.907 160.605C154.512 159.055 155.618 157.06 156.082 154.877C156.483 152.994 156.134 151.03 155.111 149.401C154.087 147.771 152.468 146.605 150.599 146.151L148.324 145.598Z" fill="#E98862"/>
<g opacity="0.2">
<path d="M136.533 151.691C136.542 151.744 136.53 151.799 136.499 151.843C136.468 151.887 136.422 151.917 136.369 151.927L126.632 153.808C126.606 153.813 126.578 153.813 126.552 153.807C126.526 153.802 126.501 153.791 126.478 153.776C126.456 153.761 126.437 153.742 126.422 153.719C126.407 153.697 126.397 153.671 126.392 153.645C126.387 153.618 126.387 153.591 126.392 153.565C126.398 153.538 126.408 153.513 126.423 153.491C126.439 153.469 126.458 153.45 126.48 153.435C126.503 153.42 126.528 153.41 126.555 153.405L136.291 151.524C136.318 151.519 136.345 151.519 136.372 151.524C136.398 151.53 136.423 151.54 136.446 151.556C136.468 151.571 136.487 151.591 136.502 151.613C136.517 151.636 136.527 151.661 136.532 151.688L136.533 151.691Z" fill="#0C0C0C"/>
</g>
<g opacity="0.2">
<path d="M137.482 155.965C137.491 156.018 137.479 156.073 137.448 156.117C137.417 156.161 137.371 156.191 137.318 156.201L126.452 158.3C126.425 158.305 126.398 158.305 126.371 158.299C126.345 158.294 126.32 158.283 126.298 158.268C126.275 158.252 126.256 158.233 126.241 158.21C126.227 158.188 126.217 158.162 126.212 158.136C126.203 158.082 126.215 158.028 126.246 157.983C126.276 157.938 126.323 157.907 126.376 157.895L137.242 155.797C137.269 155.792 137.296 155.792 137.322 155.797C137.349 155.803 137.374 155.814 137.396 155.829C137.418 155.844 137.438 155.864 137.452 155.886C137.467 155.909 137.477 155.934 137.482 155.961V155.965Z" fill="#0C0C0C"/>
</g>
<g opacity="0.2">
<path d="M138.533 160.588C138.542 160.641 138.53 160.695 138.499 160.74C138.468 160.784 138.421 160.814 138.369 160.824L129.701 162.498C129.675 162.503 129.647 162.503 129.621 162.498C129.595 162.492 129.569 162.482 129.547 162.467C129.525 162.452 129.506 162.432 129.491 162.41C129.476 162.387 129.466 162.362 129.461 162.336C129.455 162.309 129.456 162.282 129.461 162.255C129.466 162.229 129.477 162.204 129.492 162.182C129.507 162.159 129.526 162.14 129.549 162.125C129.571 162.11 129.597 162.1 129.623 162.095L138.291 160.421C138.317 160.416 138.345 160.416 138.371 160.421C138.398 160.427 138.423 160.437 138.445 160.453C138.468 160.468 138.487 160.488 138.501 160.51C138.516 160.533 138.526 160.558 138.531 160.585L138.533 160.588Z" fill="#0C0C0C"/>
</g>
<path d="M146.963 168.953L220.346 169.353C222.709 169.611 225.1 169.317 227.331 168.494C229.562 167.672 231.572 166.343 233.203 164.613C234.835 162.882 236.043 160.797 236.734 158.521C237.425 156.245 237.579 153.839 237.185 151.493L220.836 85.9659C220.512 83.9626 219.795 82.0433 218.726 80.3183C217.658 78.5933 216.259 77.0968 214.61 75.9147C212.961 74.7326 211.095 73.8883 209.12 73.4303C207.144 72.9724 205.097 72.9098 203.097 73.2462C201.096 73.5827 199.182 74.3115 197.465 75.3907C195.747 76.4699 194.26 77.8783 193.088 79.5348C191.916 81.1913 191.083 83.0632 190.637 85.043C190.191 87.0227 190.14 89.0712 190.488 91.0705L203.026 140.436L147.318 142.269L146.963 168.953Z" fill="#D0F4E6"/>
<path d="M212.618 140.229C212.669 140.229 212.719 140.209 212.756 140.174C212.794 140.139 212.817 140.091 212.821 140.039C212.825 139.988 212.809 139.937 212.777 139.896C212.745 139.856 212.699 139.829 212.648 139.821L203.144 140.167C203.118 140.162 203.09 140.163 203.064 140.169C203.038 140.176 203.013 140.187 202.991 140.203C202.969 140.22 202.951 140.24 202.937 140.263C202.924 140.286 202.915 140.312 202.911 140.339C202.903 140.393 202.917 140.448 202.949 140.491C202.981 140.535 203.03 140.564 203.084 140.572L212.587 140.227C212.597 140.229 212.608 140.229 212.618 140.229Z" fill="#0C0C0C"/>
<path d="M218.211 169.649C218.265 169.652 218.319 169.634 218.36 169.598C218.401 169.562 218.426 169.511 218.43 169.457C218.433 169.402 218.415 169.349 218.379 169.308C218.343 169.267 218.292 169.242 218.238 169.238L147.393 168.796L147.704 142.519L203.078 140.572C203.11 140.576 203.142 140.573 203.173 140.562C203.203 140.552 203.231 140.534 203.253 140.511C203.275 140.488 203.292 140.46 203.301 140.429C203.311 140.398 203.313 140.366 203.307 140.334L197.269 110.662C197.265 110.635 197.255 110.609 197.241 110.586C197.227 110.563 197.208 110.543 197.186 110.528C197.164 110.512 197.139 110.501 197.113 110.495C197.086 110.489 197.059 110.489 197.032 110.494C196.979 110.503 196.931 110.533 196.899 110.577C196.868 110.621 196.855 110.676 196.864 110.73L202.855 140.127L147.548 142.083C147.52 142.079 147.493 142.081 147.466 142.089C147.44 142.096 147.415 142.108 147.394 142.125C147.372 142.142 147.354 142.163 147.341 142.187C147.328 142.211 147.319 142.238 147.317 142.265L146.962 168.952C146.956 169.006 146.971 169.059 147.004 169.101C147.037 169.144 147.086 169.171 147.139 169.178L218.183 169.647C218.192 169.648 218.202 169.649 218.211 169.649Z" fill="#0C0C0C"/>
<path d="M112.398 161.938L92.3233 100.192C91.9706 99.1075 91.2837 98.162 90.3611 97.4915C89.4385 96.821 88.3275 96.4599 87.1872 96.46H5.40143C4.54889 96.4599 3.70845 96.6618 2.94885 97.0491C2.18925 97.4364 1.53207 97.9982 1.03106 98.6884C0.530053 99.3786 0.199441 100.178 0.066286 101.02C-0.0668692 101.863 0.00120309 102.725 0.264939 103.536L20.3398 165.282C20.6925 166.367 21.3794 167.313 22.302 167.983C23.2246 168.654 24.3356 169.015 25.4759 169.015H107.262C108.114 169.015 108.955 168.813 109.714 168.426C110.474 168.038 111.131 167.476 111.632 166.786C112.133 166.096 112.464 165.297 112.597 164.454C112.73 163.612 112.662 162.75 112.398 161.938Z" fill="#21082D"/>
<path d="M150.77 164.008H96.0229C94.6587 164.008 93.5527 165.115 93.5527 166.48V166.543C93.5527 167.908 94.6587 169.015 96.0229 169.015H150.77C152.134 169.015 153.24 167.908 153.24 166.543V166.48C153.24 165.115 152.134 164.008 150.77 164.008Z" fill="#292A2E"/>
<path d="M55.1009 143.101C59.8383 143.101 63.6788 139.258 63.6788 134.518C63.6788 129.777 59.8383 125.935 55.1009 125.935C50.3634 125.935 46.5229 129.777 46.5229 134.518C46.5229 139.258 50.3634 143.101 55.1009 143.101Z" fill="white"/>
<path d="M188.787 38.7456C188.461 38.7456 188.148 38.6158 187.917 38.3848C187.686 38.1538 187.556 37.8405 187.556 37.5138V23.4829C187.556 16.343 185.581 10.6857 181.845 7.12274C178.303 3.74536 173.221 2.19216 166.745 2.50296C166.583 2.51161 166.421 2.48814 166.268 2.43391C166.115 2.37967 165.974 2.29575 165.854 2.18694C165.733 2.07814 165.636 1.9466 165.566 1.7999C165.497 1.6532 165.457 1.49423 165.449 1.33211C165.442 1.17 165.466 1.00795 165.521 0.855266C165.576 0.702585 165.661 0.562285 165.77 0.442434C165.879 0.322583 166.011 0.225543 166.158 0.156891C166.305 0.088238 166.464 0.0493271 166.626 0.0423941C173.803 -0.304541 179.497 1.4794 183.545 5.3388C187.781 9.37844 190.02 15.6524 190.02 23.4825V37.5134C190.02 37.6753 189.988 37.8357 189.926 37.9853C189.864 38.1349 189.774 38.2708 189.659 38.3852C189.545 38.4997 189.409 38.5904 189.259 38.6522C189.109 38.7141 188.949 38.7458 188.787 38.7456Z" fill="#D0F4E6"/>
<path d="M186.947 49.5069C192.112 49.5069 196.299 45.3177 196.299 40.1499C196.299 34.9822 192.112 30.793 186.947 30.793C181.783 30.793 177.596 34.9822 177.596 40.1499C177.596 45.3177 181.783 49.5069 186.947 49.5069Z" fill="#D0F4E6"/>
<path d="M187.308 47.1595C187.243 47.112 187.169 47.078 187.09 47.0592C187.011 47.0405 186.93 47.0374 186.85 47.0503C186.77 47.0631 186.694 47.0915 186.625 47.1339C186.556 47.1763 186.496 47.2319 186.449 47.2974L185.734 48.2865C184.857 49.4956 183.706 50.4801 182.377 51.1596C181.047 51.8391 179.575 52.1943 178.082 52.1964H166.697V51.9554C166.697 51.6287 166.568 51.3154 166.337 51.0844C166.106 50.8534 165.793 50.7237 165.466 50.7237H161.613C161.287 50.7237 160.974 50.8534 160.743 51.0844C160.512 51.3154 160.382 51.6287 160.382 51.9554V53.7586C160.382 54.0853 160.512 54.3986 160.743 54.6296C160.974 54.8606 161.287 54.9903 161.613 54.9903H165.466C165.793 54.9903 166.106 54.8606 166.337 54.6296C166.568 54.3986 166.697 54.0853 166.697 53.7586V53.4302H178.082C179.77 53.4278 181.433 53.0262 182.936 52.2582C184.439 51.4901 185.739 50.3774 186.731 49.0107L187.446 48.0217C187.494 47.9561 187.528 47.8817 187.547 47.8028C187.566 47.7239 187.569 47.642 187.557 47.5619C187.544 47.4818 187.515 47.405 187.473 47.3359C187.43 47.2669 187.374 47.2069 187.308 47.1595Z" fill="#D0F4E6"/>
<path d="M189.191 49.5069C194.356 49.5069 198.542 45.3177 198.542 40.1499C198.542 34.9822 194.356 30.793 189.191 30.793C184.026 30.793 179.84 34.9822 179.84 40.1499C179.84 45.3177 184.026 49.5069 189.191 49.5069Z" fill="#D0F4E6"/>
<path opacity="0.3" d="M189.191 49.5069C194.356 49.5069 198.542 45.3177 198.542 40.1499C198.542 34.9822 194.356 30.793 189.191 30.793C184.026 30.793 179.84 34.9822 179.84 40.1499C179.84 45.3177 184.026 49.5069 189.191 49.5069Z" fill="white"/>
</svg>
