<svg width="238" height="170" viewBox="0 0 238 170" fill="none" xmlns="http://www.w3.org/2000/svg">
<path d="M152.262 49.5069C157.426 49.5069 161.613 45.3177 161.613 40.1499C161.613 34.9822 157.426 30.793 152.262 30.793C147.097 30.793 142.91 34.9822 142.91 40.1499C142.91 45.3177 147.097 49.5069 152.262 49.5069Z" fill="#D0F4E6"/>
<path d="M147.88 39.2634C147.639 39.2635 147.404 39.1931 147.203 39.0609C147.002 38.9287 146.844 38.7404 146.749 38.5194C146.58 38.1282 142.666 28.7802 146.917 15.067C151.523 0.212893 167.565 0.0400391 167.726 0.0400391C168.052 0.0400391 168.366 0.169812 168.596 0.400804C168.827 0.631797 168.957 0.945088 168.957 1.27176C168.957 1.59843 168.827 1.91173 168.596 2.14272C168.366 2.37371 168.052 2.50348 167.726 2.50348C167.14 2.50348 153.328 2.69687 149.266 15.7962C145.282 28.6472 148.969 37.4552 149.007 37.5427C149.088 37.73 149.121 37.9345 149.103 38.1378C149.086 38.3411 149.018 38.5368 148.906 38.7073C148.794 38.8779 148.641 39.0179 148.462 39.1148C148.282 39.2117 148.081 39.2625 147.878 39.2626L147.88 39.2634Z" fill="#D0F4E6"/>
<path d="M148.877 49.5064C154.041 49.5064 158.228 45.3172 158.228 40.1495C158.228 34.9817 154.041 30.7925 148.877 30.7925C143.712 30.7925 139.525 34.9817 139.525 40.1495C139.525 45.3172 143.712 49.5064 148.877 49.5064Z" fill="#D0F4E6"/>
<path opacity="0.3" d="M148.877 49.5064C154.041 49.5064 158.228 45.3172 158.228 40.1495C158.228 34.9817 154.041 30.7925 148.877 30.7925C143.712 30.7925 139.525 34.9817 139.525 40.1495C139.525 45.3172 143.712 49.5064 148.877 49.5064Z" fill="white"/>
<path d="M151.121 49.5064C156.286 49.5064 160.472 45.3172 160.472 40.1495C160.472 34.9817 156.286 30.7925 151.121 30.7925C145.956 30.7925 141.77 34.9817 141.77 40.1495C141.77 45.3172 145.956 49.5064 151.121 49.5064Z" fill="#D0F4E6"/>
<path d="M195.231 23.3135C195.231 23.3135 198.235 37.7185 201.823 42.0767C212.154 54.6226 216.687 69.6936 209.275 78.8863C201.862 88.079 150.224 95.5039 143.622 77.5499C138.066 62.4346 144.027 59.7581 144.1 46.6608C144.132 40.7341 144.952 28.2354 144.952 28.2354" fill="#0A0A0A"/>
<path d="M152.072 69.9288C152.167 69.9165 153.214 87.3084 173.407 85.7921C187.386 84.7443 192.37 69.9029 192.692 69.9029C191.185 69.5827 188.647 69.1163 187.978 68.7591C185.777 67.5754 183.054 66.3441 182.343 62.0667C181.933 59.6033 182.629 46.9896 182.415 44.4941L160.957 49.2864C161.257 54.554 163.355 66.7665 156 68.9278C154.775 69.2879 153.456 69.6167 152.072 69.9288Z" fill="#E98862"/>
<path opacity="0.5" d="M160.654 63.9394C160.99 62.8556 161.207 61.7382 161.3 60.6072C161.536 58.0262 161.489 55.4271 161.159 52.8564C165.52 52.2675 169.629 50.4664 173.018 47.6577C173.417 49.13 175.608 55.5637 175.001 56.963C173.855 59.6083 168.466 63.9394 160.654 63.9394Z" fill="#0C0C0C"/>
<path d="M164.475 60.1192C172.969 59.7998 183.364 54.9805 184.106 43.5053L184.775 33.1515C185.516 21.6768 180.094 11.9848 169.296 11.286C158.499 10.588 149.826 19.3673 149.085 30.8424L148.789 35.4261C148.504 39.8307 149.321 60.6879 164.475 60.1192Z" fill="#E98862"/>
<path opacity="0.1" d="M167.83 44.7628C169.232 44.7414 170.355 43.89 170.34 42.8611C170.324 41.8322 169.175 41.0155 167.773 41.0369C166.371 41.0583 165.247 41.9098 165.263 42.9386C165.279 43.9675 166.428 44.7842 167.83 44.7628Z" fill="#0C0C0C"/>
<path opacity="0.1" d="M152.706 42.6791C152.718 43.7055 151.595 44.5575 150.193 44.5809C149.951 44.5843 149.709 44.5627 149.471 44.5164C149.244 43.3196 149.084 42.1601 148.975 41.0815C149.345 40.9341 149.739 40.8571 150.138 40.8545C151.541 40.8311 152.69 41.6477 152.706 42.6791Z" fill="#0C0C0C"/>
<path d="M152.324 34.95C153.058 34.95 153.653 34.355 153.653 33.621C153.653 32.887 153.058 32.292 152.324 32.292C151.591 32.292 150.996 32.887 150.996 33.621C150.996 34.355 151.591 34.95 152.324 34.95Z" fill="#0C0C0C"/>
<path d="M165.467 35.9325C166.2 35.9325 166.795 35.3374 166.795 34.6034C166.795 33.8694 166.2 33.2744 165.467 33.2744C164.733 33.2744 164.139 33.8694 164.139 34.6034C164.139 35.3374 164.733 35.9325 165.467 35.9325Z" fill="#0C0C0C"/>
<path opacity="0.5" d="M159.224 44.9819H159.203C158.765 44.9501 158.33 44.8945 157.898 44.8152C157.253 44.6921 156.399 44.4613 156.437 43.8877C156.478 43.2337 158.724 36.295 158.981 35.5059C159.005 35.4395 159.054 35.3851 159.118 35.3542C159.181 35.3233 159.254 35.3182 159.322 35.34C159.389 35.3619 159.445 35.4089 159.478 35.4713C159.512 35.5337 159.52 35.6066 159.5 35.6746C158.542 38.6308 157.01 43.4829 156.982 43.923C157.076 44.1136 158.153 44.3656 159.239 44.4363C159.309 44.4415 159.374 44.4735 159.421 44.5256C159.468 44.5777 159.494 44.6459 159.492 44.7161C159.49 44.7864 159.461 44.8532 159.411 44.9027C159.362 44.9523 159.295 44.9808 159.225 44.9823L159.224 44.9819Z" fill="#0C0C0C"/>
<path opacity="0.5" d="M161.384 49.631C159.635 49.62 157.914 49.1981 156.358 48.3993C156.326 48.3835 156.297 48.3615 156.273 48.3346C156.25 48.3077 156.231 48.2764 156.22 48.2425C156.196 48.174 156.201 48.0989 156.233 48.0338C156.265 47.9688 156.321 47.919 156.39 47.8956C156.458 47.8721 156.533 47.8768 156.598 47.9086C159.953 49.5509 163.081 49.4984 165.64 47.7567C165.692 47.7199 165.746 47.6857 165.801 47.6545C165.865 47.6252 165.938 47.6219 166.005 47.6453C166.071 47.6687 166.126 47.717 166.158 47.7801C166.19 47.8431 166.196 47.916 166.175 47.9835C166.155 48.051 166.109 48.1079 166.047 48.1422C166.027 48.1537 165.993 48.1767 165.947 48.2088C164.601 49.1266 163.012 49.6218 161.384 49.631Z" fill="#0C0C0C"/>
<path d="M193.517 35.628L183.844 35.0577C176.324 33.0393 172.631 20.8974 172.631 20.8974C172.631 20.8974 166.615 30.4552 144.934 28.2258C144.934 28.2258 143.877 -2.14357 176.107 2.99845C186.471 4.65225 194.947 13.7616 195.714 27.4091C196.251 36.9734 193.517 35.628 193.517 35.628Z" fill="#0A0A0A"/>
<path d="M183.21 46.9577C186.493 47.1704 189.379 43.8295 189.591 40.5462C189.803 37.2628 187.26 35.2801 183.979 35.0679L182.145 37.1585L180.389 46.7754L183.21 46.9577Z" fill="#E98862"/>
<path d="M156.016 30.6153C155.14 30.1576 154.159 29.94 153.172 29.9846C152.676 30.004 152.185 30.0979 151.717 30.2634C151.245 30.4281 150.795 30.6514 150.378 30.9281L150.365 30.9363C150.318 30.9648 150.262 30.974 150.209 30.9619C150.156 30.9497 150.11 30.9173 150.08 30.8715C150.051 30.8256 150.04 30.77 150.051 30.7166C150.062 30.6631 150.093 30.616 150.138 30.5853C150.577 30.2718 151.054 30.015 151.557 29.8208C152.064 29.6229 152.597 29.5022 153.139 29.4628C154.237 29.3764 155.337 29.5863 156.326 30.0705C156.401 30.1076 156.457 30.1729 156.484 30.2518C156.51 30.3307 156.504 30.4169 156.467 30.4913C156.43 30.5657 156.364 30.6223 156.286 30.6487C156.207 30.675 156.121 30.6689 156.046 30.6317L156.038 30.6276L156.016 30.6153Z" fill="#0C0C0C"/>
<path d="M164.785 30.644C165.827 30.2868 166.945 30.2159 168.023 30.4387C168.557 30.5452 169.071 30.7312 169.549 30.9905C170.024 31.2459 170.465 31.5601 170.862 31.9258C170.902 31.962 170.926 32.0124 170.93 32.0663C170.934 32.1202 170.916 32.1735 170.882 32.2149C170.847 32.2564 170.798 32.2828 170.744 32.2886C170.69 32.2944 170.636 32.2791 170.594 32.246L170.581 32.2362C170.202 31.9096 169.783 31.632 169.335 31.4097C168.891 31.1872 168.416 31.033 167.926 30.9523C166.953 30.785 165.952 30.8786 165.026 31.2237L165.004 31.2327C164.966 31.2477 164.925 31.255 164.883 31.2542C164.842 31.2533 164.802 31.2444 164.764 31.2278C164.726 31.2113 164.692 31.1875 164.664 31.1577C164.635 31.128 164.613 31.093 164.598 31.0546C164.583 31.0162 164.575 30.9752 164.576 30.934C164.577 30.8928 164.586 30.8522 164.603 30.8144C164.619 30.7767 164.643 30.7426 164.673 30.714C164.702 30.6855 164.737 30.6631 164.776 30.6481L164.785 30.644Z" fill="#0C0C0C"/>
<path opacity="0.52" d="M161.33 52.2223C161.014 52.225 160.698 52.201 160.386 52.1504C160.351 52.1448 160.317 52.1322 160.286 52.1135C160.256 52.0947 160.229 52.0701 160.208 52.0411C160.187 52.012 160.172 51.9792 160.164 51.9443C160.155 51.9094 160.154 51.8732 160.16 51.8378C160.165 51.8023 160.178 51.7684 160.197 51.7378C160.215 51.7072 160.24 51.6807 160.269 51.6596C160.298 51.6385 160.331 51.6234 160.366 51.615C160.401 51.6067 160.437 51.6053 160.472 51.6109C162.35 51.9098 163.296 51.0907 163.336 51.0558C163.389 51.0073 163.46 50.982 163.533 50.9857C163.605 50.9894 163.673 51.0216 163.721 51.0753C163.77 51.1291 163.795 51.1999 163.791 51.2722C163.788 51.3446 163.755 51.4125 163.702 51.4611C163.023 51.9813 162.185 52.2503 161.33 52.2223Z" fill="#0C0C0C"/>
<path d="M183.95 34.9142C177.297 33.4102 174.605 29.3156 173.519 26.1451C172.807 24.0292 172.545 21.7877 172.749 19.5645L172.954 19.592C172.754 21.7862 173.014 23.9981 173.717 26.086C174.788 29.2039 177.441 33.23 183.998 34.7142L183.95 34.9142Z" fill="#0C0C0C"/>
<path d="M81.641 76.6239L75.0564 64.2003C74.9116 63.9274 74.7117 63.6877 74.4692 63.4964C74.2268 63.3051 73.9471 63.1665 73.6482 63.0892C73.3493 63.012 73.0375 62.9979 72.7328 63.0478C72.4281 63.0977 72.1372 63.2105 71.8784 63.3791C71.4103 63.7051 71.0797 64.1934 70.9508 64.7494C70.8219 65.3053 70.9039 65.8893 71.1809 66.3882L72.5928 69.0521L64.3099 62.714C63.4015 61.993 61.8258 61.69 61.0847 62.7633C60.7728 63.1576 60.6036 63.6461 60.6047 64.149C60.6059 64.6519 60.7772 65.1397 61.0909 65.5326C61.0821 65.5396 61.0739 65.5473 61.0663 65.5556C61.061 65.563 61.0597 65.5716 61.0552 65.579L59.6543 64.4651C59.3947 64.2594 59.0925 64.1142 58.7697 64.0401C58.4469 63.966 58.1116 63.965 57.7884 64.037C57.4651 64.109 57.162 64.2523 56.9011 64.4564C56.6402 64.6605 56.4281 64.9203 56.2802 65.2169C56.0569 65.6886 56.0022 66.2226 56.1252 66.7299C56.2482 67.2371 56.5415 67.6867 56.956 68.0034L57.5527 68.4764C57.5469 68.5001 57.5453 68.5245 57.5481 68.5487C57.0713 68.3227 56.5296 68.2738 56.02 68.4107C55.5105 68.5476 55.0661 68.8613 54.7665 69.2959C54.4528 69.7812 54.3334 70.3671 54.4323 70.9366C54.5312 71.506 54.841 72.0173 55.2999 72.3683L56.7808 73.5429C56.7482 73.541 56.7155 73.5469 56.6856 73.5602C56.6557 73.5735 56.6294 73.5937 56.6089 73.6193C56.5862 73.6508 56.5731 73.6881 56.5711 73.7268C56.0905 73.6437 55.5959 73.7208 55.1633 73.9463C54.7308 74.1718 54.3842 74.5332 54.1769 74.975C53.9686 75.4435 53.9245 75.9686 54.0516 76.4653C54.1787 76.962 54.4697 77.4012 54.8773 77.7119L67.373 87.6235C69.1212 89.0101 71.2433 89.8426 73.4674 90.0145C75.6915 90.1864 77.9162 89.6898 79.8564 88.5884C81.5293 87.6387 82.7662 86.0739 83.3044 84.2262C83.8426 82.3786 83.6396 80.3938 82.7386 78.6936L81.641 76.6239Z" fill="#E98862"/>
<g opacity="0.2">
<path d="M69.2598 71.846C69.2262 71.8877 69.1776 71.9147 69.1243 71.9211C69.0711 71.9274 69.0175 71.9127 68.975 71.88L61.1057 65.8425C61.0843 65.8261 61.0664 65.8057 61.0529 65.7823C61.0394 65.7589 61.0307 65.7331 61.0272 65.7064C61.0236 65.6797 61.0254 65.6525 61.0324 65.6264C61.0393 65.6004 61.0514 65.5759 61.0678 65.5545C61.0842 65.5331 61.1047 65.5152 61.128 65.5017C61.1514 65.4882 61.1771 65.4794 61.2039 65.4759C61.2306 65.4724 61.2577 65.4741 61.2838 65.4811C61.3098 65.4881 61.3342 65.5001 61.3556 65.5166L69.2249 71.5544C69.2679 71.5876 69.2961 71.6365 69.3031 71.6903C69.3102 71.7442 69.2957 71.7987 69.2627 71.8418L69.2598 71.846Z" fill="#0C0C0C"/>
</g>
<g opacity="0.2">
<path d="M66.6929 75.3923C66.6593 75.4341 66.6107 75.4611 66.5575 75.4674C66.5042 75.4738 66.4507 75.4591 66.4081 75.4264L57.6271 68.6885C57.584 68.6554 57.5558 68.6066 57.5487 68.5527C57.5415 68.4988 57.556 68.4443 57.589 68.4011C57.6232 68.3596 57.6718 68.3327 57.7251 68.3256C57.7784 68.3185 57.8323 68.3318 57.8762 68.3629L66.6584 75.0992C66.7015 75.1323 66.7297 75.1811 66.7369 75.235C66.744 75.2889 66.7296 75.3434 66.6966 75.3866L66.6929 75.3923Z" fill="#0C0C0C"/>
</g>
<g opacity="0.2">
<path d="M63.9371 79.2492C63.9034 79.291 63.8548 79.3179 63.8016 79.3243C63.7484 79.3307 63.6948 79.3159 63.6523 79.2833L56.6468 73.9085C56.6036 73.8753 56.5753 73.8263 56.5682 73.7723C56.5611 73.7183 56.5757 73.6637 56.6088 73.6204C56.6419 73.5772 56.6909 73.5489 56.7449 73.5418C56.7988 73.5347 56.8534 73.5493 56.8967 73.5825L63.9018 78.9585C63.9449 78.9916 63.9731 79.0404 63.9802 79.0943C63.9874 79.1482 63.9729 79.2027 63.9399 79.2459L63.9371 79.2492Z" fill="#0C0C0C"/>
</g>
<path d="M128.543 77.3125L107.251 114.655L85.4905 74.8979L59.4863 89.4257L94.4947 150.979C95.6283 152.957 97.2093 154.641 99.1109 155.897C102.301 157.989 106.19 158.727 109.924 157.949C113.657 157.172 116.929 154.942 119.02 151.75L119.2 151.476L156.54 94.4614L128.543 77.3125Z" fill="#D0F4E6"/>
<path d="M81.6423 76.6239L75.0577 64.2003C74.9129 63.9274 74.713 63.6877 74.4705 63.4964C74.2281 63.3052 73.9485 63.1665 73.6495 63.0892C73.3506 63.012 73.0388 62.9979 72.7341 63.0478C72.4294 63.0977 72.1385 63.2106 71.8797 63.3792C71.4116 63.7051 71.081 64.1934 70.9521 64.7494C70.8232 65.3053 70.9052 65.8893 71.1822 66.3883L72.5941 69.0521L74.7894 73.8623" fill="#E98862"/>
<path d="M173.783 81.4449C187.772 80.7852 188.361 68.9048 188.361 68.9048C188.361 68.9048 195.292 69.3527 199.9 69.9768C207.444 70.9979 212.42 73.5574 216.38 77.5199C220.064 81.2064 222.307 85.1943 219.934 110.658C218.215 129.092 219.424 169.649 219.424 169.649H134.999C134.999 169.649 129.937 116.494 129.231 108.194C127.884 92.3506 122.369 83.4202 130.078 75.2588C135.669 69.34 150.102 68.9048 155.911 68.9056C156.006 68.9056 154.732 82.3437 173.783 81.4449Z" fill="#D0F4E6"/>
<path d="M129.723 105.545C129.72 105.49 129.695 105.44 129.654 105.403C129.613 105.367 129.56 105.349 129.505 105.352C129.451 105.356 129.4 105.381 129.364 105.422C129.328 105.463 129.309 105.516 129.313 105.571L131.03 133.009C131.033 133.058 131.054 133.104 131.088 133.14C131.123 133.175 131.169 133.196 131.218 133.2C131.228 133.201 131.238 133.201 131.247 133.2C131.274 133.199 131.3 133.192 131.325 133.18C131.349 133.168 131.371 133.151 131.388 133.131C131.406 133.111 131.42 133.087 131.429 133.062C131.437 133.036 131.441 133.009 131.439 132.982" fill="#0C0C0C"/>
<path d="M148.324 145.598L134.668 142.277C134.368 142.204 134.056 142.195 133.752 142.249C133.448 142.303 133.158 142.42 132.902 142.593C132.646 142.765 132.428 142.989 132.263 143.25C132.098 143.511 131.989 143.804 131.943 144.11C131.876 144.676 132.022 145.248 132.352 145.713C132.682 146.179 133.173 146.505 133.729 146.628L136.658 147.34L126.422 149.331C125.28 149.532 124.008 150.51 124.318 151.777C124.406 152.272 124.658 152.723 125.035 153.056C125.412 153.389 125.89 153.585 126.392 153.611C126.391 153.622 126.391 153.633 126.392 153.644C126.392 153.653 126.399 153.66 126.402 153.669L124.641 153.979C124.315 154.037 124.006 154.167 123.736 154.359C123.467 154.551 123.243 154.802 123.083 155.091C122.922 155.381 122.828 155.703 122.807 156.034C122.786 156.365 122.84 156.696 122.963 157.003C123.167 157.484 123.53 157.879 123.991 158.124C124.452 158.368 124.983 158.447 125.495 158.347L126.244 158.215C126.258 158.235 126.275 158.252 126.295 158.266C125.809 158.473 125.413 158.846 125.177 159.318C124.941 159.79 124.881 160.331 125.007 160.844C125.161 161.401 125.519 161.88 126.011 162.184C126.502 162.489 127.09 162.596 127.657 162.486L129.518 162.158C129.495 162.181 129.478 162.209 129.468 162.24C129.458 162.271 129.456 162.304 129.461 162.337C129.47 162.375 129.489 162.41 129.517 162.437C129.135 162.741 128.865 163.162 128.746 163.636C128.627 164.109 128.667 164.608 128.86 165.057C129.072 165.524 129.435 165.905 129.891 166.14C130.346 166.375 130.868 166.448 131.37 166.35L147.075 163.578C149.271 163.19 151.303 162.155 152.908 160.605C154.513 159.055 155.618 157.06 156.083 154.877C156.484 152.994 156.135 151.03 155.111 149.401C154.088 147.771 152.469 146.605 150.6 146.151L148.324 145.598Z" fill="#E98862"/>
<g opacity="0.2">
<path d="M136.533 151.691C136.542 151.744 136.53 151.799 136.5 151.843C136.469 151.887 136.422 151.917 136.369 151.927L126.633 153.808C126.606 153.813 126.579 153.813 126.553 153.807C126.526 153.802 126.501 153.791 126.479 153.776C126.456 153.761 126.437 153.742 126.423 153.719C126.408 153.697 126.397 153.671 126.392 153.645C126.387 153.618 126.387 153.591 126.393 153.565C126.398 153.538 126.409 153.513 126.424 153.491C126.439 153.469 126.458 153.45 126.481 153.435C126.503 153.42 126.529 153.41 126.555 153.405L136.292 151.524C136.318 151.519 136.346 151.519 136.372 151.524C136.399 151.53 136.424 151.54 136.446 151.556C136.468 151.571 136.488 151.591 136.502 151.613C136.517 151.636 136.527 151.661 136.532 151.688L136.533 151.691Z" fill="#0C0C0C"/>
</g>
<g opacity="0.2">
<path d="M137.482 155.965C137.491 156.018 137.479 156.073 137.448 156.117C137.417 156.161 137.371 156.191 137.318 156.201L126.452 158.3C126.425 158.305 126.398 158.305 126.371 158.299C126.345 158.294 126.32 158.283 126.298 158.268C126.275 158.252 126.256 158.233 126.241 158.21C126.227 158.188 126.217 158.162 126.212 158.136C126.203 158.082 126.215 158.028 126.246 157.983C126.276 157.938 126.323 157.907 126.376 157.895L137.242 155.797C137.269 155.792 137.296 155.792 137.322 155.797C137.349 155.803 137.374 155.814 137.396 155.829C137.418 155.844 137.438 155.864 137.452 155.886C137.467 155.909 137.477 155.934 137.482 155.961V155.965Z" fill="#0C0C0C"/>
</g>
<g opacity="0.2">
<path d="M138.533 160.588C138.542 160.641 138.53 160.695 138.499 160.74C138.468 160.784 138.422 160.814 138.369 160.824L129.701 162.498C129.675 162.503 129.648 162.503 129.621 162.498C129.595 162.492 129.57 162.482 129.547 162.467C129.525 162.452 129.506 162.432 129.491 162.41C129.476 162.387 129.466 162.362 129.461 162.336C129.456 162.309 129.456 162.282 129.461 162.255C129.467 162.229 129.477 162.204 129.492 162.182C129.507 162.159 129.527 162.14 129.549 162.125C129.572 162.11 129.597 162.1 129.623 162.095L138.291 160.421C138.318 160.416 138.345 160.416 138.371 160.421C138.398 160.427 138.423 160.437 138.445 160.453C138.468 160.468 138.487 160.488 138.502 160.51C138.516 160.533 138.527 160.558 138.531 160.585L138.533 160.588Z" fill="#0C0C0C"/>
</g>
<path d="M146.963 168.953L220.345 169.353C222.709 169.611 225.1 169.317 227.33 168.494C229.561 167.672 231.571 166.343 233.203 164.613C234.834 162.882 236.043 160.797 236.733 158.521C237.424 156.245 237.579 153.839 237.184 151.493L220.836 85.9659C220.511 83.9626 219.794 82.0433 218.726 80.3183C217.657 78.5933 216.258 77.0968 214.61 75.9147C212.961 74.7326 211.095 73.8883 209.119 73.4303C207.143 72.9724 205.096 72.9098 203.096 73.2462C201.096 73.5827 199.182 74.3115 197.464 75.3907C195.747 76.4699 194.259 77.8783 193.087 79.5348C191.916 81.1913 191.083 83.0632 190.636 85.043C190.19 87.0227 190.14 89.0712 190.488 91.0705L203.026 140.436L147.318 142.269L146.963 168.953Z" fill="#D0F4E6"/>
<path d="M212.617 140.229C212.669 140.229 212.718 140.209 212.756 140.174C212.793 140.139 212.816 140.091 212.82 140.039C212.824 139.988 212.808 139.937 212.776 139.896C212.744 139.856 212.698 139.829 212.647 139.821L203.144 140.167C203.117 140.162 203.09 140.163 203.063 140.169C203.037 140.176 203.012 140.187 202.99 140.203C202.969 140.22 202.95 140.24 202.937 140.263C202.923 140.286 202.914 140.312 202.91 140.339C202.902 140.393 202.916 140.448 202.948 140.491C202.981 140.535 203.029 140.564 203.083 140.572L212.586 140.227C212.597 140.229 212.607 140.229 212.617 140.229Z" fill="#0C0C0C"/>
<path d="M218.212 169.649C218.266 169.652 218.32 169.634 218.36 169.598C218.401 169.562 218.426 169.511 218.43 169.457C218.434 169.402 218.415 169.349 218.379 169.308C218.343 169.267 218.293 169.242 218.238 169.238L147.393 168.796L147.704 142.519L203.079 140.572C203.11 140.576 203.143 140.573 203.173 140.562C203.204 140.552 203.231 140.534 203.253 140.511C203.276 140.488 203.292 140.46 203.302 140.429C203.311 140.398 203.313 140.366 203.308 140.334L197.269 110.662C197.265 110.635 197.256 110.609 197.241 110.586C197.227 110.563 197.209 110.543 197.187 110.528C197.165 110.512 197.14 110.501 197.113 110.495C197.087 110.489 197.059 110.489 197.033 110.494C196.979 110.503 196.931 110.533 196.9 110.577C196.868 110.621 196.856 110.676 196.865 110.73L202.855 140.127L147.548 142.083C147.521 142.079 147.493 142.081 147.467 142.089C147.44 142.096 147.416 142.108 147.394 142.125C147.373 142.142 147.355 142.163 147.342 142.187C147.328 142.211 147.32 142.238 147.317 142.265L146.962 168.952C146.956 169.006 146.972 169.059 147.005 169.101C147.038 169.144 147.086 169.171 147.139 169.178L218.183 169.647C218.193 169.648 218.202 169.649 218.212 169.649Z" fill="#0C0C0C"/>
<path d="M112.398 161.938L92.3233 100.192C91.9706 99.1075 91.2837 98.162 90.3611 97.4915C89.4385 96.821 88.3275 96.4599 87.1872 96.46H5.40143C4.54889 96.4599 3.70845 96.6618 2.94885 97.0491C2.18925 97.4364 1.53207 97.9982 1.03106 98.6884C0.530053 99.3786 0.199441 100.178 0.066286 101.02C-0.0668692 101.863 0.00120309 102.725 0.264939 103.536L20.3398 165.282C20.6925 166.367 21.3794 167.313 22.302 167.983C23.2246 168.654 24.3356 169.015 25.4759 169.015H107.262C108.114 169.015 108.955 168.813 109.714 168.426C110.474 168.038 111.131 167.476 111.632 166.786C112.133 166.096 112.464 165.297 112.597 164.454C112.73 163.612 112.662 162.75 112.398 161.938Z" fill="url(#paint0_linear_413_139)"/>
<path d="M150.77 164.008H96.0229C94.6587 164.008 93.5527 165.115 93.5527 166.48V166.543C93.5527 167.908 94.6587 169.015 96.0229 169.015H150.77C152.134 169.015 153.24 167.908 153.24 166.543V166.48C153.24 165.115 152.134 164.008 150.77 164.008Z" fill="#292A2E"/>
<path d="M55.1013 143.101C59.8388 143.101 63.6793 139.258 63.6793 134.518C63.6793 129.777 59.8388 125.935 55.1013 125.935C50.3639 125.935 46.5234 129.777 46.5234 134.518C46.5234 139.258 50.3639 143.101 55.1013 143.101Z" fill="white"/>
<path d="M188.787 38.7456C188.46 38.7456 188.147 38.6158 187.916 38.3848C187.685 38.1538 187.556 37.8405 187.556 37.5138V23.4829C187.556 16.343 185.58 10.6857 181.844 7.12274C178.302 3.74536 173.22 2.19216 166.744 2.50296C166.582 2.51161 166.42 2.48814 166.267 2.43391C166.114 2.37967 165.973 2.29575 165.853 2.18694C165.733 2.07814 165.635 1.9466 165.566 1.7999C165.496 1.6532 165.456 1.49423 165.449 1.33211C165.441 1.17 165.465 1.00795 165.52 0.855266C165.575 0.702585 165.66 0.562285 165.769 0.442434C165.879 0.322583 166.011 0.225543 166.158 0.156891C166.305 0.088238 166.464 0.0493271 166.626 0.0423941C173.803 -0.304541 179.496 1.4794 183.544 5.3388C187.78 9.37844 190.019 15.6524 190.019 23.4825V37.5134C190.019 37.6753 189.987 37.8357 189.926 37.9853C189.864 38.1349 189.773 38.2708 189.658 38.3852C189.544 38.4997 189.408 38.5904 189.258 38.6522C189.109 38.7141 188.948 38.7458 188.787 38.7456Z" fill="#D0F4E6"/>
<path d="M186.947 49.5069C192.112 49.5069 196.298 45.3177 196.298 40.1499C196.298 34.9822 192.112 30.793 186.947 30.793C181.782 30.793 177.596 34.9822 177.596 40.1499C177.596 45.3177 181.782 49.5069 186.947 49.5069Z" fill="#D0F4E6"/>
<path d="M187.309 47.1595C187.243 47.112 187.169 47.078 187.091 47.0592C187.012 47.0405 186.93 47.0374 186.851 47.0503C186.771 47.0631 186.694 47.0915 186.625 47.1339C186.557 47.1763 186.497 47.2319 186.449 47.2974L185.734 48.2865C184.857 49.4956 183.707 50.4801 182.377 51.1596C181.047 51.8391 179.576 52.1943 178.083 52.1964H166.698V51.9554C166.698 51.6287 166.568 51.3154 166.337 51.0844C166.106 50.8534 165.793 50.7237 165.467 50.7237H161.614C161.287 50.7237 160.974 50.8534 160.743 51.0844C160.513 51.3154 160.383 51.6287 160.383 51.9554V53.7586C160.383 54.0853 160.513 54.3986 160.743 54.6296C160.974 54.8606 161.287 54.9903 161.614 54.9903H165.467C165.793 54.9903 166.106 54.8606 166.337 54.6296C166.568 54.3986 166.698 54.0853 166.698 53.7586V53.4302H178.083C179.77 53.4278 181.434 53.0262 182.937 52.2582C184.44 51.4901 185.74 50.3774 186.731 49.0107L187.447 48.0217C187.495 47.9561 187.529 47.8817 187.548 47.8028C187.567 47.7239 187.57 47.642 187.557 47.5619C187.544 47.4818 187.516 47.405 187.473 47.3359C187.431 47.2669 187.375 47.2069 187.309 47.1595Z" fill="#D0F4E6"/>
<path d="M189.191 49.5069C194.356 49.5069 198.543 45.3177 198.543 40.1499C198.543 34.9822 194.356 30.793 189.191 30.793C184.027 30.793 179.84 34.9822 179.84 40.1499C179.84 45.3177 184.027 49.5069 189.191 49.5069Z" fill="#D0F4E6"/>
<path opacity="0.3" d="M189.191 49.5069C194.356 49.5069 198.543 45.3177 198.543 40.1499C198.543 34.9822 194.356 30.793 189.191 30.793C184.027 30.793 179.84 34.9822 179.84 40.1499C179.84 45.3177 184.027 49.5069 189.191 49.5069Z" fill="white"/>
<defs>
<linearGradient id="paint0_linear_413_139" x1="112.663" y1="132.737" x2="0" y2="132.737" gradientUnits="userSpaceOnUse">
<stop stop-color="#8D2AF0"/>
<stop offset="1" stop-color="#B117BD"/>
</linearGradient>
</defs>
</svg>
