<svg width="50" height="75" viewBox="0 0 50 75" fill="none" xmlns="http://www.w3.org/2000/svg">
<g clip-path="url(#clip0_440_216)">
<path d="M25 37.5C25 34.1848 26.317 31.0054 28.6612 28.6612C31.0054 26.317 34.1848 25 37.5 25C40.8152 25 43.9946 26.317 46.3388 28.6612C48.683 31.0054 50 34.1848 50 37.5C50 40.8152 48.683 43.9946 46.3388 46.3388C43.9946 48.683 40.8152 50 37.5 50C34.1848 50 31.0054 48.683 28.6612 46.3388C26.317 43.9946 25 40.8152 25 37.5V37.5Z" fill="#1ABCFE"/>
<path d="M0 62.5C0 59.1848 1.31696 56.0054 3.66117 53.6612C6.00537 51.317 9.18479 50 12.5 50H25V62.5C25 65.8152 23.683 68.9946 21.3388 71.3388C18.9946 73.683 15.8152 75 12.5 75C9.18479 75 6.00537 73.683 3.66117 71.3388C1.31696 68.9946 0 65.8152 0 62.5H0Z" fill="#0ACF83"/>
<path d="M25 0V25H37.5C40.8152 25 43.9946 23.683 46.3388 21.3388C48.683 18.9946 50 15.8152 50 12.5C50 9.18479 48.683 6.00537 46.3388 3.66117C43.9946 1.31696 40.8152 0 37.5 0L25 0Z" fill="#FF7262"/>
<path d="M0 12.5C0 15.8152 1.31696 18.9946 3.66117 21.3388C6.00537 23.683 9.18479 25 12.5 25H25V0H12.5C9.18479 0 6.00537 1.31696 3.66117 3.66117C1.31696 6.00537 0 9.18479 0 12.5H0Z" fill="#F24E1E"/>
<path d="M0 37.5C0 40.8152 1.31696 43.9946 3.66117 46.3388C6.00537 48.683 9.18479 50 12.5 50H25V25H12.5C9.18479 25 6.00537 26.317 3.66117 28.6612C1.31696 31.0054 0 34.1848 0 37.5H0Z" fill="#A259FF"/>
</g>
<defs>
<clipPath id="clip0_440_216">
<rect width="50" height="75" fill="white"/>
</clipPath>
</defs>
</svg>
