<svg width="37" height="37" viewBox="0 0 37 37" fill="none" xmlns="http://www.w3.org/2000/svg">
<path d="M16.2314 0.358983C7.93458 1.28735 1.26106 8.15729 0.359237 16.5126C-0.54259 25.2393 4.32728 33.0376 11.7223 36.0084C12.2634 36.194 12.8044 35.8227 12.8044 35.08V32.1092C12.8044 32.1092 12.083 32.2949 11.1812 32.2949C8.65605 32.2949 7.57385 30.0668 7.39349 28.7671C7.21312 28.0244 6.85239 27.4674 6.3113 26.9104C5.7702 26.7247 5.58983 26.7247 5.58983 26.539C5.58983 26.1677 6.13093 26.1677 6.3113 26.1677C7.39349 26.1677 8.29531 27.4674 8.65605 28.0244C9.55787 29.5098 10.6401 29.8811 11.1812 29.8811C11.9026 29.8811 12.4437 29.6955 12.8044 29.5098C12.9848 28.2101 13.5259 26.9104 14.6081 26.1677C10.4597 25.2393 7.39349 22.8255 7.39349 18.7407C7.39349 16.6983 8.29531 14.6559 9.55787 13.1705C9.37751 12.7991 9.19714 11.8708 9.19714 10.571C9.19714 9.82835 9.19714 8.89998 9.55787 8.15729C9.55787 7.78594 9.9186 7.60027 10.099 7.60027H10.2793C11.1812 7.78594 12.9848 8.34296 14.6081 10.014C15.6903 9.64268 16.9529 9.45701 18.2154 9.45701C19.478 9.45701 20.7405 9.64268 21.8227 10.014C23.446 8.34296 25.43 7.78594 26.3319 7.60027H26.5122C26.873 7.60027 27.0533 7.78594 27.2337 8.15729C27.2337 8.89998 27.2337 9.82835 27.2337 10.571C27.2337 12.0564 27.0533 12.7991 26.873 13.1705C28.1355 14.6559 29.0373 16.5126 29.0373 18.7407C29.0373 22.8255 25.9711 25.2393 21.8227 26.1677C22.9049 27.096 23.6264 28.7671 23.6264 30.4382V35.2657C23.6264 35.8227 24.1675 36.3797 24.8889 36.194C31.5625 33.4089 36.252 26.7247 36.252 18.9264C36.252 7.78594 27.0533 -0.940734 16.2314 0.358983Z" fill="white"/>
</svg>
