<svg width="96" height="96" viewBox="0 0 96 96" fill="none" xmlns="http://www.w3.org/2000/svg">
<path d="M79.5201 8.00003H16.4401C14.0401 8.00003 12.2001 10.08 12.4801 12.44L19.6801 77.32C19.8401 78.92 21.0001 80.28 22.5601 80.72L46.8801 87.68C47.6001 87.88 48.3601 87.88 49.0801 87.68L73.4001 80.72C74.9601 80.28 76.0801 78.92 76.2801 77.32L83.4801 12.44C83.5464 11.8815 83.4933 11.3153 83.3243 10.7788C83.1554 10.2424 82.8744 9.74792 82.5001 9.32818C82.1257 8.90844 81.6665 8.57299 81.1527 8.34402C80.639 8.11506 80.0825 7.99781 79.5201 8.00003ZM65.0001 30H34.3601L35.6801 42H63.0001C63.8401 42 64.6401 42.36 65.2401 43C65.8001 43.64 66.0801 44.48 66.0001 45.32L64.0001 65.32C63.8801 66.56 63.0401 67.56 61.8401 67.92L47.8401 71.92C47.2912 72.0774 46.709 72.0774 46.1601 71.92L32.1601 67.92C31.537 67.7383 30.9896 67.3593 30.6001 66.84C30.2106 66.3207 30.0001 65.6891 30.0001 65.04V57.04C30.0001 55.4 31.3601 54.04 33.0001 54.04C34.6401 54.04 36.0001 55.4 36.0001 57.04V62.76L47.0001 65.92L58.2001 62.72L59.6801 48.04H33.0001C31.4801 48.04 30.2001 46.88 30.0001 45.36L28.0001 27.36C27.9201 26.52 28.1601 25.68 28.7601 25.04C29.0419 24.7249 29.3872 24.4729 29.7732 24.3006C30.1593 24.1283 30.5774 24.0395 31.0001 24.04H65.0001C66.6401 24.04 68.0001 25.4 68.0001 27.04C68.0001 28.68 66.6401 30 65.0001 30Z" fill="#F18F34"/>
</svg>
