<svg width="96" height="96" viewBox="0 0 96 96" fill="none" xmlns="http://www.w3.org/2000/svg">
<path d="M79.5201 8.00003H16.4401C14.0401 8.00003 12.2001 10.08 12.4801 12.44L19.6801 77.32C19.8401 78.92 21.0001 80.28 22.5601 80.72L46.8801 87.68C47.6001 87.88 48.3601 87.88 49.0801 87.68L73.4001 80.72C74.9601 80.28 76.0801 78.92 76.2801 77.32L83.4801 12.44C83.5464 11.8815 83.4933 11.3153 83.3243 10.7788C83.1554 10.2424 82.8744 9.74792 82.5001 9.32818C82.1257 8.90844 81.6665 8.57299 81.1527 8.34402C80.639 8.11506 80.0825 7.99781 79.5201 8.00003ZM45.4801 63.96C45.4801 64.92 45.0401 65.8 44.2801 66.36C43.9093 66.6429 43.4767 66.8339 43.0178 66.9173C42.5589 67.0008 42.0868 66.9743 41.6401 66.84L29.1601 63.24C28.7807 63.1316 28.4266 62.949 28.1183 62.7028C27.81 62.4566 27.5535 62.1517 27.3638 61.8057C27.1741 61.4598 27.0549 61.0796 27.013 60.6873C26.9712 60.295 27.0076 59.8982 27.1201 59.52C27.5601 57.92 29.2401 57.04 30.8401 57.48L39.4801 59.96V28.04C39.4801 26.4 40.8401 25.04 42.4801 25.04C44.1201 25.04 45.4801 26.4 45.4801 28.04V63.96ZM69.0001 60.4C69.0001 61.76 68.0801 62.96 66.7201 63.32L52.3201 66.92C52.0801 67 51.8401 67 51.6001 67C50.2401 67 49.0401 66.08 48.6801 64.72C48.2801 63.12 49.2401 61.48 50.8801 61.08L63.0001 58.04V51.24L53.8401 52.56C53.4117 52.624 52.9745 52.5926 52.5597 52.4681C52.1448 52.3437 51.7626 52.1292 51.4401 51.84C51.1157 51.5549 50.8553 51.2043 50.676 50.8114C50.4968 50.4184 50.4027 49.9919 50.4001 49.56V29.76C50.4001 28.28 51.4801 27 52.9601 26.8L65.5601 25C67.2001 24.76 68.7201 25.92 68.9601 27.56C69.2001 29.2 68.0401 30.72 66.4001 30.96L56.3601 32.4V46.12L65.5201 44.8C66.4001 44.68 67.2401 44.92 67.9201 45.52C68.5601 46.08 68.9601 46.92 68.9601 47.8V60.4H69.0001Z" fill="#F9E322"/>
</svg>
