<svg width="2445" height="2445" viewBox="0 0 2445 2445" fill="none" xmlns="http://www.w3.org/2000/svg">
<path d="M1814.57 2292.11C1805.51 2296.9 1806.01 2298.84 1815.08 2294.25C1817.74 2293.11 1820.15 2291.49 1822.21 2289.46C1822.21 2287.83 1822.01 2288.04 1814.57 2292.11ZM1832.71 2282.54C1828.43 2285.9 1828.43 2286.1 1833.62 2283.45C1836.47 2282.03 1838.92 2280.4 1838.92 2279.89C1838.92 2277.95 1837.7 2278.46 1832.71 2282.54ZM1844.62 2275.3C1840.35 2278.66 1840.35 2278.87 1845.54 2276.22C1848.39 2274.79 1850.84 2273.16 1850.84 2272.65C1850.84 2270.72 1849.62 2271.23 1844.62 2275.3ZM1856.54 2268.17C1852.27 2271.53 1852.27 2271.74 1857.46 2269.09C1860.31 2267.66 1862.76 2266.03 1862.76 2265.52C1862.76 2263.59 1861.54 2264.1 1856.54 2268.17ZM1873.05 2257.47C1864.69 2262.77 1862.05 2266.34 1869.48 2262.26C1874.78 2259.21 1883.34 2252.69 1881.91 2252.48C1878.79 2253.82 1875.81 2255.5 1873.05 2257.47ZM1142.31 0.363501C1137.01 0.872869 1120.3 2.50285 1105.23 3.72533C758.041 35.0005 432.759 222.346 226.771 510.343C112.892 668.415 38.8716 851.649 11.0023 1044.47C1.22248 1111.6 0 1131.47 0 1222.54C0 1313.62 1.22248 1333.38 11.0023 1400.62C77.4239 1859.66 404.132 2245.35 847.181 2388.28C926.54 2413.85 1010.18 2431.27 1105.23 2441.76C1142.31 2445.84 1302.35 2445.84 1339.43 2441.76C1503.55 2423.63 1642.71 2382.98 1779.83 2313C1800.82 2302.2 1804.89 2299.34 1802.04 2297C1735.06 2208.5 1668.71 2119.53 1602.98 2030.09L1407.49 1766.04L1162.58 1403.57C1081.15 1282.28 998.939 1161.53 915.945 1041.31C915.028 1041.1 914.01 1202.17 913.602 1398.78C912.889 1743.11 912.685 1756.97 908.305 1765.12C904.147 1774.64 896.696 1782.35 887.319 1786.82C879.678 1790.69 872.955 1791.4 836.891 1791.4H795.531L784.528 1784.48C777.74 1780.2 772.218 1774.18 768.534 1767.06L763.542 1756.26L764.052 1277.15L764.765 797.83L772.202 788.559C777.198 782.689 783.201 777.756 789.928 773.992C799.708 769.203 803.579 768.694 844.939 768.694C893.737 768.694 901.785 770.63 914.519 784.485C1013.66 932.022 1111.97 1080.12 1209.44 1228.76C1368.16 1469.38 1585.05 1797.92 1691.71 1959.29L1885.27 2252.48L1895.05 2246.06C1988.19 2184.11 2072.64 2110.01 2146.17 2025.71C2300.2 1849.44 2400.09 1632.46 2433.86 1400.82C2443.64 1333.69 2444.86 1313.82 2444.86 1222.74C2444.86 1131.67 2443.64 1111.91 2433.86 1044.67C2367.44 585.627 2040.73 199.934 1597.68 57.0052C1514.89 30.6452 1429.62 12.793 1343.2 3.72533C1320.28 1.38224 1162.28 -1.26648 1142.51 0.669122L1142.31 0.363501ZM1642.71 739.762C1648.41 742.625 1653.48 746.596 1657.62 751.441C1661.77 756.286 1664.91 761.909 1666.86 767.981C1668.79 774.195 1669.2 907.038 1668.79 1206.44L1668.08 1636.15L1592.28 1520.01L1516.29 1403.88V1091.53C1516.29 889.618 1517.2 776.131 1518.63 770.63C1520.36 764.281 1523.34 758.342 1527.4 753.163C1531.46 747.984 1536.51 743.67 1542.26 740.475C1552.04 735.483 1555.61 734.974 1593.2 734.974C1628.55 734.974 1634.77 735.483 1642.71 739.762Z" fill="black"/>
</svg>
