<svg width="94" height="96" viewBox="0 0 94 96" fill="none" xmlns="http://www.w3.org/2000/svg">
<path d="M66.9218 0C63.1865 0.033002 59.4843 0.564035 55.8901 1.6081L55.6411 1.6891C53.3879 1.29608 51.0928 1.08007 48.8126 1.03206C44.0934 0.951059 40.0431 2.09113 36.7789 3.99925C33.5597 2.89218 26.8873 0.951059 19.8549 1.34408C14.9676 1.6081 9.62122 3.09319 5.64897 7.28145C1.71273 11.4547 -0.378398 17.9231 0.0566292 26.7377C0.179637 29.1588 0.869679 33.1101 2.02475 38.2494C3.16482 43.3767 4.77592 49.3771 6.79205 54.8614C8.80817 60.3307 11.0073 65.251 14.4485 68.5933C16.1646 70.2644 18.5408 71.6894 21.3369 71.5664C23.2931 71.4854 25.0572 70.6274 26.5903 69.3613C27.3373 70.3454 28.1384 70.7654 28.8554 71.1584C29.7795 71.6594 30.6525 72.0015 31.5766 72.2235C33.2327 72.6435 36.0619 73.1925 39.3741 72.6285C40.4991 72.4395 41.6872 72.0675 42.8753 71.5514C42.9233 72.8625 42.9713 74.1586 43.0163 75.4727C43.1873 79.6129 43.3013 83.4412 44.5314 86.8014C44.7354 87.3504 45.2844 90.1616 47.4386 92.6607C49.6107 95.1599 53.826 96.708 58.6563 95.6759C62.0495 94.9559 66.3757 93.6448 69.2529 89.5526C72.0971 85.5203 73.3782 79.7239 73.6302 70.3154C73.6902 69.7993 73.7712 69.3793 73.8462 68.9713L74.5182 69.0343H74.5992C78.2235 69.1903 82.1627 68.6743 85.4599 67.1412C88.3641 65.7971 90.5692 64.438 92.1773 62.0168C92.5704 61.4198 93.0204 60.6878 93.1344 59.4367C93.2574 58.2036 92.5374 56.2475 91.3493 55.3444C88.9761 53.5323 87.476 54.2194 85.8649 54.5644C84.2898 54.9094 82.6757 55.0924 81.0676 55.1404C85.6909 47.3609 89.0031 39.0804 90.8963 31.763C92.0213 27.4337 92.6484 23.4495 92.6934 19.9662C92.7564 16.483 92.4623 13.4048 90.3802 10.7347C83.8488 2.40615 74.6742 0.0900056 67.5818 0.0150009C67.3628 0.0150009 67.1468 0.0150009 66.9248 0.0150009L66.9218 0ZM66.7327 2.56516C73.4382 2.50216 82.0127 4.37727 88.1691 12.2498C89.5612 14.0169 89.9692 16.594 89.9212 19.7832C89.8732 22.9724 89.2822 26.7677 88.2021 30.9409C86.126 39.0384 82.1687 48.441 76.6244 56.8985C76.8134 57.0395 77.0294 57.1625 77.2484 57.2435C78.4035 57.7266 81.0436 58.1316 86.324 57.0545C87.6531 56.7695 88.6251 56.5865 89.6392 57.3516C90.1402 57.7716 90.4042 58.3986 90.3712 59.0557C90.3112 59.5387 90.1402 60.0067 89.8402 60.3997C88.8231 61.9268 86.813 63.3849 84.2328 64.588C81.9527 65.6471 78.6675 66.1961 75.7813 66.2291C74.3142 66.2441 72.9701 66.1331 71.8241 65.7731L71.7641 65.7611C71.323 69.9943 70.312 78.3709 69.6519 82.1811C69.1239 85.2563 68.1998 87.7134 66.4357 89.5406C64.6686 91.3857 62.1845 92.4777 58.8243 93.1978C54.669 94.0888 51.6508 93.1348 49.7007 91.4937C47.7506 89.8526 46.8565 87.6654 46.3255 86.3363C45.9535 85.4153 45.7645 84.2272 45.5784 82.6311C45.3894 81.038 45.2664 79.0999 45.1704 76.8978C45.0474 73.5376 44.9994 70.1774 45.0474 66.8021C43.3163 68.3982 41.1592 69.4423 38.843 69.8503C36.0799 70.3184 33.6257 69.8503 32.1586 69.4903C31.4386 69.3013 30.7335 69.0373 30.0795 68.6773C29.3924 68.3172 28.7504 67.9122 28.3154 67.0962C28.0634 66.6281 27.9884 66.0851 28.0964 65.5691C28.2194 65.038 28.5314 64.585 28.9574 64.24C29.7525 63.5949 30.8025 63.2409 32.3776 62.9109C35.2548 62.3139 36.2689 61.9118 36.8779 61.4228C37.3939 61.0178 37.991 60.1747 39.017 58.9387C39.017 58.8937 39.017 58.8306 39.002 58.7826C37.1449 58.7226 35.3298 58.2396 33.6887 57.3456C33.0977 57.9696 30.0165 61.2218 26.2843 65.7221C24.7212 67.5942 22.987 68.6743 21.1449 68.7553C19.3178 68.8303 17.6557 67.9122 16.2516 66.5501C13.4405 63.814 11.1873 59.1097 9.2342 53.7963C7.28108 48.483 5.70298 42.5636 4.56291 37.5323C3.43784 32.483 2.7658 28.4208 2.66979 26.4676C2.24976 18.1391 4.20289 12.5318 7.54509 8.98256C10.8873 5.43334 15.4686 4.10725 19.9389 3.84324C27.9554 3.39021 35.5788 6.18638 37.1119 6.78042C40.0791 4.7643 43.9073 3.51622 48.6896 3.59122C50.9578 3.62422 53.2049 3.91824 55.4101 4.46728L55.4911 4.41927C56.4601 4.09225 57.4442 3.79524 58.4432 3.57922C61.1644 2.93418 63.9426 2.60716 66.7238 2.56216L66.7327 2.56516ZM67.3418 5.23532H66.7508C64.4706 5.26233 62.1695 5.53234 59.9373 6.01537C64.9206 8.22051 68.6859 11.6077 71.341 15.0159C73.1862 17.3591 74.7012 19.9362 75.8563 22.6874C76.3123 23.7525 76.6094 24.6405 76.7654 25.3276C76.8584 25.6726 76.9064 25.9666 76.9364 26.2636C76.9364 26.4196 76.9514 26.5786 76.8734 26.8427C76.8734 26.8577 76.8584 26.8907 76.8584 26.9057C76.9874 30.4069 76.1113 32.777 75.9973 36.1222C75.9223 38.5464 76.5464 41.3906 76.7024 44.4988C76.8434 47.4179 76.4864 50.6221 74.5932 53.7783C74.7493 53.9673 74.8903 54.1534 75.0463 54.3574C80.0626 46.4489 83.6868 37.7153 85.6099 30.2599C86.642 26.2426 87.185 22.6034 87.233 19.7322C87.281 16.855 86.75 14.7609 86.06 13.8879C80.6836 7.02644 73.4202 5.27433 67.3388 5.23232L67.3418 5.23532ZM48.1676 6.26439C43.4513 6.27939 40.0581 7.70448 37.4839 9.84361C34.8228 12.0637 33.0437 15.0789 31.8886 18.1871C30.4965 21.8594 30.0135 25.4206 29.8245 27.8447L29.8875 27.8117C31.3126 27.0167 33.1847 26.2036 35.2008 25.7506C37.2019 25.2796 39.3741 25.1386 41.3242 25.9066C43.2953 26.6537 44.9034 28.4508 45.4974 31.1539C48.3146 44.1867 44.6244 49.032 43.2653 52.6863C42.7493 54.0154 42.2962 55.3594 41.9362 56.7335C42.1072 56.7005 42.2812 56.6525 42.4523 56.6375C43.4213 56.5625 44.1684 56.8745 44.6094 57.0605C45.9865 57.6366 46.9225 58.8246 47.4386 60.1837C47.5616 60.5438 47.6546 60.9158 47.7176 61.3238C47.7656 61.4798 47.7986 61.6508 47.7986 61.8248C47.6426 66.8081 47.6546 71.7944 47.8436 76.7778C47.9396 78.9349 48.0806 80.825 48.2516 82.3251C48.4226 83.8102 48.6566 84.9503 48.8157 85.3403C49.3287 86.6214 50.0787 88.2925 51.4408 89.4325C52.7849 90.5756 54.72 91.3257 58.2692 90.5756C61.3444 89.9036 63.2375 88.9945 64.5006 87.6834C65.7697 86.3544 66.5167 84.5272 66.9998 81.7311C67.7348 77.5278 69.1869 65.3381 69.3609 63.0579C69.2859 61.3208 69.5319 59.9947 70.096 58.9777C70.657 57.9456 71.5331 57.3066 72.3011 56.9615C72.6731 56.7905 73.0331 56.6825 73.3302 56.5865C73.0182 56.1515 72.6911 55.7135 72.3611 55.2904C71.269 53.9613 70.36 52.4793 69.6879 50.9012C69.3759 50.2411 69.0309 49.5841 68.6559 48.96C68.1278 48.009 67.4558 46.8029 66.7508 45.4438C65.3437 42.7556 63.8136 39.4764 63.0155 36.2873C62.2205 33.0981 62.1125 29.8038 64.1436 27.4907C65.9407 25.4266 69.1119 24.5715 73.8432 25.0546C73.7022 24.6315 73.6272 24.2715 73.3902 23.7255C72.3131 21.1933 70.906 18.8172 69.2169 16.66C65.1997 11.5207 58.6833 6.4234 48.6386 6.25239L48.1676 6.26439ZM21.607 6.4684C21.1059 6.4684 20.5899 6.4834 20.0919 6.5164C16.0446 6.75342 12.2314 7.92049 9.49521 10.8127C6.76204 13.7199 4.96793 18.4541 5.35496 26.3146C5.43596 27.8147 6.075 31.97 7.18207 36.9233C8.29514 41.8796 9.87024 47.709 11.7634 52.8633C13.6505 58.0026 15.9366 62.4879 18.1237 64.612C19.2158 65.6591 20.1669 66.0971 21.0279 66.0671C21.889 66.0191 22.936 65.5181 24.2171 63.988C26.5453 61.1768 28.9544 58.4556 31.4536 55.8005C27.8563 52.6593 26.0922 47.913 26.7973 43.1907C27.2023 40.2385 27.2653 37.4693 27.2023 35.2822C27.1573 33.1581 27.0133 31.754 27.0133 30.8629C27.0133 30.8299 27.0133 30.8149 27.0133 30.7819V30.7669L26.9983 30.7399C26.9983 26.1286 27.8143 21.5683 29.3744 17.2391C30.4995 14.2509 32.1586 11.2387 34.6548 8.78154C32.2036 7.96849 27.8413 6.75342 23.1251 6.5164C22.624 6.4834 22.105 6.4684 21.607 6.4684ZM71.2 27.5927C68.4849 27.6407 66.9668 28.3458 66.1567 29.2488C65.0286 30.5479 64.9206 32.828 65.6257 35.6422C66.3247 38.4534 67.7828 41.5946 69.1419 44.2077C69.8139 45.5188 70.471 46.6919 70.999 47.643C71.5481 48.612 71.9381 49.2841 72.1721 49.8781C72.3911 50.4091 72.6431 50.8772 72.8921 51.3152C73.9392 49.095 74.1282 46.9229 74.0172 44.6428C73.8762 41.8316 73.2222 38.9544 73.3302 36.0502C73.4412 32.642 74.1132 30.4219 74.1612 27.7967C73.1892 27.6737 72.1901 27.5927 71.206 27.5927H71.2ZM38.264 28.0667C37.4359 28.0667 36.6079 28.1747 35.7948 28.3638C34.1837 28.7568 32.6386 29.3478 31.1836 30.1609C30.7005 30.4249 30.2325 30.7249 29.7945 31.0699L29.6985 31.1449C29.7315 31.742 29.8395 33.1461 29.8875 35.2402C29.9355 37.5203 29.8875 40.4245 29.4524 43.5687C28.4834 50.4121 33.4517 56.0705 39.2811 56.0855C39.6261 54.6784 40.1841 53.2533 40.7481 51.7562C42.3712 47.3789 45.5604 44.1927 42.8723 31.724C42.4373 29.6928 41.5612 28.8648 40.3551 28.3968C39.6831 28.1597 38.984 28.0517 38.264 28.0697V28.0667ZM69.937 28.8768H70.141C70.39 28.8918 70.642 28.9098 70.858 28.9698C71.062 29.0178 71.251 29.0808 71.407 29.1888C71.5631 29.2818 71.6711 29.4378 71.7041 29.6238V29.6568C71.7041 29.8458 71.6561 30.0319 71.5631 30.2059C71.44 30.4219 71.299 30.6259 71.128 30.7969C70.72 31.2499 70.171 31.55 69.5799 31.64C69.0009 31.721 68.4249 31.565 67.9388 31.2349C67.7498 31.0909 67.5638 30.9349 67.4228 30.7639C67.2818 30.6229 67.2038 30.4369 67.1708 30.2479C67.1588 30.0649 67.2038 29.8759 67.3268 29.7348C67.4708 29.5908 67.6268 29.4678 67.7978 29.3748C68.1848 29.1558 68.7009 28.9998 69.2979 28.9188C69.5139 28.8918 69.7329 28.8738 69.937 28.8588V28.8768ZM38.651 29.5488C38.855 29.5488 39.092 29.5638 39.3111 29.5938C39.9351 29.6898 40.4661 29.8458 40.8862 30.0949C41.0902 30.1909 41.2792 30.3469 41.4172 30.5179C41.5732 30.7069 41.6482 30.9379 41.6362 31.1899C41.5882 31.4209 41.4922 31.643 41.3362 31.814C41.1652 32.018 40.9792 32.189 40.7602 32.33C40.2441 32.705 39.6051 32.861 38.963 32.783C38.318 32.675 37.727 32.363 37.2919 31.88C37.1029 31.676 36.9469 31.4569 36.8209 31.2229C36.6799 31.0039 36.6199 30.7549 36.6499 30.5029C36.7129 30.0829 37.0729 29.8458 37.4179 29.7228C37.811 29.5938 38.231 29.5518 38.651 29.5668V29.5488ZM74.8903 58.9236H74.8753C74.2992 59.1427 73.8162 59.2237 73.4082 59.4127C72.9881 59.5687 72.6551 59.8807 72.4571 60.2677C72.1901 60.7238 71.9891 61.5368 72.0491 62.9229C72.2201 63.0519 72.4241 63.1419 72.6461 63.2079C73.3182 63.4119 74.4732 63.5529 75.7543 63.5349C78.3015 63.5019 81.4427 62.9109 83.1138 62.1279C84.4729 61.5038 85.7539 60.6608 86.879 59.6767C81.3017 60.8168 78.1635 60.5197 76.2223 59.7247C75.7543 59.5207 75.2983 59.2537 74.8903 58.9236ZM42.7643 59.2987H42.6833C42.4673 59.3137 42.1672 59.3947 41.5582 60.0517C40.1661 61.6118 39.6831 62.5959 38.543 63.5049C37.3879 64.426 35.9028 64.912 32.9177 65.5211C31.9816 65.7101 31.4326 65.9261 31.0725 66.0971C31.1806 66.1931 31.1806 66.2261 31.3516 66.3011C31.7926 66.5531 32.3506 66.7571 32.8067 66.8801C34.0877 67.1922 36.1789 67.5672 38.384 67.1922C40.5711 66.8171 42.8513 65.7671 44.8074 63.0369C45.1524 62.5689 45.1794 61.8638 44.9004 61.1138C44.6214 60.3817 44.0093 59.7247 43.5893 59.5537C43.3223 59.4247 43.0403 59.3497 42.7613 59.3017L42.7643 59.2987Z" fill="#457D9D"/>
</svg>
