<svg width="96" height="96" viewBox="0 0 96 96" fill="none" xmlns="http://www.w3.org/2000/svg">
<path d="M60.08 8.91608C52.08 7.67608 43.92 7.67608 35.92 8.91608C32.64 9.43608 30.24 12.2361 30.24 15.5161V30.2361H15.52C12.24 30.2361 9.43999 32.6361 8.91999 35.9161C7.67999 43.9161 7.67999 52.0761 8.91999 60.0761C9.43999 63.3561 12.24 65.7561 15.52 65.7561H22.24C23.36 65.7561 24.24 64.8761 24.24 63.7561V56.8761C24.24 48.6761 30.92 41.9961 39.12 41.9961H56.88C58.48 41.9961 59.76 40.7161 59.76 39.1161V26.2361C59.76 25.1161 60.64 24.2361 61.76 24.2361H63.76C64.88 24.2361 65.76 23.3561 65.76 22.2361V15.5161C65.76 12.2361 63.36 9.43608 60.08 8.91608ZM41.32 22.3161C39.68 22.3161 38.12 20.7561 38.12 19.1161C38.12 17.4361 39.68 15.8761 41.32 15.8761C42.12 15.8761 43 16.2361 43.56 16.7961C44.16 17.3561 44.56 18.2761 44.56 19.1161C44.56 20.7561 43 22.3161 41.32 22.3161Z" fill="#3186C4"/>
<path d="M87.08 35.9161C86.56 32.6361 83.76 30.2361 80.48 30.2361H67.76C66.64 30.2361 65.76 31.1161 65.76 32.2361V39.1161C65.76 43.9961 61.8 47.9961 56.88 47.9961H39.12C34.2 47.9961 30.24 51.9561 30.24 56.8761V80.4761C30.24 83.7561 32.64 86.5561 35.92 87.0761C43.92 88.3161 52.08 88.3161 60.08 87.0761C63.36 86.5561 65.76 83.7561 65.76 80.4761V65.7561H80.48C83.76 65.7561 86.56 63.3561 87.08 60.0761C88.32 52.0761 88.32 43.9161 87.08 35.9161ZM54.68 80.1161C53.04 80.1161 51.44 78.5561 51.44 76.8761C51.44 75.1961 53 73.6361 54.68 73.6361C55.44 73.6361 56.36 73.9961 56.92 74.5161C57.52 75.0761 57.92 76.0361 57.92 76.8361C57.88 78.5561 56.32 80.1161 54.68 80.1161Z" fill="#ECEF5B"/>
</svg>
