<svg width="36" height="36" viewBox="0 0 36 36" fill="none" xmlns="http://www.w3.org/2000/svg">
<path d="M35.3424 0.0715826C33.8753 0.937788 31.3787 2.56221 30.1241 2.87269C30.0755 2.88844 30.0359 2.90869 29.9891 2.92444C28.5257 1.12003 26.5204 0.00183587 24.301 0.00183587C19.8279 0.00183587 16.2009 4.53535 16.2009 10.1263C16.2009 10.4211 16.1811 10.9633 16.2009 11.2513C10.4084 11.2513 6.17829 7.47371 3.01203 2.61845C2.58903 1.96599 2.13902 2.30572 2.04542 2.76919C1.83481 3.81764 1.76281 5.5703 1.76281 6.82124C1.76281 9.97333 3.73385 13.0692 6.8029 14.9883C6.23769 15.1706 5.61488 15.3011 4.96687 15.3011C4.20365 15.3011 3.32524 15.0513 2.55663 14.5473C2.27222 14.3606 1.65841 14.4124 1.84021 15.3213C2.56923 18.9639 5.89568 21.522 8.86753 22.2667C8.19252 22.7639 6.7525 22.6627 6.09008 22.6627C5.84528 22.6627 4.99387 22.5907 4.44306 22.5052C3.94085 22.4287 3.16864 22.5907 3.81485 23.8146C5.20267 26.4402 8.34192 28.0894 11.0438 28.1524C8.55613 30.5913 4.48806 31.4822 0.590994 31.4822C-0.197419 31.4597 -0.157818 32.5824 0.477592 32.9987C3.35224 34.8841 8.06112 36 11.4254 36C24.7996 36 32.4011 23.2589 32.4011 11.249C32.4011 11.0555 32.3975 10.6505 32.3921 10.2433C32.3921 10.2028 32.4011 10.1646 32.4011 10.1241C32.4011 10.0633 32.3867 10.0048 32.3867 9.94408C32.3813 9.63809 32.3759 9.35236 32.3705 9.20387C33.4307 8.24767 35.0544 6.58725 35.8752 5.31606C36.1542 4.88409 35.9292 4.35986 35.5494 4.52411C34.572 4.94933 32.8817 5.77279 31.8233 5.93028C33.9419 4.17762 34.9896 2.6522 35.8896 0.958038C36.1974 0.379817 35.8122 -0.207403 35.3424 0.0715826Z" fill="#F8F8F8"/>
</svg>
