<svg width="255" height="546" viewBox="0 0 255 546" fill="none" xmlns="http://www.w3.org/2000/svg">
<path d="M159.921 275.102C126.88 275.102 100.094 283.91 100.094 294.775V318.196H219.749V294.775C219.749 283.91 192.964 275.102 159.921 275.102Z" fill="#D0F4E6"/>
<path opacity="0.49" d="M159.921 275.102C126.88 275.102 100.094 283.91 100.094 294.775V318.196H219.749V294.775C219.749 283.91 192.964 275.102 159.921 275.102Z" fill="white"/>
<path opacity="0.49" d="M203.451 294.777V318.195H100.093V294.777C100.093 284.819 122.588 276.59 151.772 275.289C180.958 276.59 203.451 284.819 203.451 294.777Z" fill="white"/>
<path d="M219.749 545.769H221.757L219.749 316.118L217.758 318.08L219.178 478.498L148.298 479.674L146.868 318.064L144.877 318.08L146.308 479.708L103.52 480.418L102.084 318.064L100.093 316.135L102.101 545.769L104.074 545.753L103.537 482.364L146.324 481.653L146.868 545.769L148.859 545.753L148.315 481.62L219.195 480.443L219.749 545.769Z" fill="#D0F4E6"/>
<path d="M39.2881 511.387C39.2881 511.387 35.7299 529.408 18.4613 530.412C1.19274 531.417 4.93739 544.859 4.93739 544.859H70.928V512.643L39.2881 511.387Z" fill="#D0F4E6"/>
<path d="M76.938 457.183C76.938 457.183 81.8864 474.888 66.8455 483.237C51.8045 491.587 61.2368 502.033 61.2368 502.033L120.45 473.569L105.896 444.662L76.938 457.183Z" fill="#D0F4E6"/>
<path d="M70.6732 468.884L26.0561 304.391C22.6718 286.219 27.7668 278.342 35.6177 270.691C49.4111 257.247 106.567 228.634 106.567 228.634L175.135 228.452C193.318 228.452 211.19 245.969 211.19 263.734C211.19 281.499 192.707 296.566 174.525 296.566L90.0891 304.8L112.978 455.416L70.6732 468.884Z" fill="#262626"/>
<path d="M112.977 455.414L103.966 396.119L58.3164 423.329L70.6731 468.884L112.977 455.414Z" fill="#0C0C0C"/>
<path d="M123.324 261.922C123.324 261.922 94.5 268.198 65.9524 296.092C48.644 313.005 50.0634 343.61 52.66 402.474L81.0132 361.553L112.112 306.749L123.324 261.922Z" fill="#0C0C0C"/>
<path d="M223.127 228.433L176.56 228.219L176.543 228.818H162.442C162.442 228.818 127.121 260.574 98.686 280.586C78.0019 295.141 65.3838 309.018 64.2922 324.143C61.6305 361.012 31.6111 518.253 31.6111 518.253L76.7895 524.938L116.437 337.022C116.437 337.022 178.429 309.095 192.769 299.379C206.272 290.228 215.809 286.69 220.278 276.703C227.995 259.455 223.127 228.433 223.127 228.433Z" fill="#262626"/>
<path d="M170.885 239.894L95.3416 240.872L137.718 265.602L172.978 247.81C173.828 247.364 174.5 246.653 174.886 245.79C175.273 244.927 175.352 243.962 175.111 243.049C174.869 242.137 174.322 241.33 173.556 240.758C172.789 240.186 171.849 239.882 170.885 239.894Z" fill="#292A2E"/>
<path opacity="0.2" d="M170.885 239.894L95.3416 240.872L137.718 265.602L172.978 247.81C173.828 247.364 174.5 246.653 174.886 245.79C175.273 244.927 175.352 243.962 175.111 243.049C174.869 242.137 174.322 241.33 173.556 240.758C172.789 240.186 171.849 239.882 170.885 239.894Z" fill="white"/>
<path d="M95.7741 107.47L74.4066 175.119L31.6084 229.871L56.6091 257.914L107.526 202.385C109.871 200.574 111.706 198.208 112.858 195.512L113.651 193.636L143.061 124.105L95.7741 107.47Z" fill="#D0F4E6"/>
<path d="M128.69 35.6627C128.69 35.6627 120.08 29.3083 117.947 14.6933C116.295 3.37669 126.979 10.7082 126.979 10.7082C126.979 10.7082 125.871 2.54803 131.956 3.35789C138.041 4.16774 141.445 12.7397 141.445 12.7397" fill="#0C0C0C"/>
<path d="M163.403 4.31299C163.403 4.31299 193.592 7.47525 182.679 47.4481L180.008 47.6232L174.585 47.9785" fill="#0C0C0C"/>
<path d="M133.747 89.1937C133.879 89.1768 135.352 113.055 163.741 110.976C183.397 109.537 190.405 89.1599 190.855 89.1599C188.736 88.7197 186.117 88.0518 185.077 87.8229C182.808 87.3086 180.754 86.1315 179.186 84.4483C177.619 82.7651 176.614 80.6556 176.304 78.4003C175.729 75.0156 176.702 57.6981 176.404 54.2732L146.236 60.8532C146.658 68.0868 149.608 84.8552 139.268 87.8229C137.546 88.3131 135.692 88.767 133.747 89.1937Z" fill="#E98862"/>
<path opacity="0.52" d="M145.813 80.97C146.286 79.4816 146.59 77.9472 146.721 76.3942C147.052 72.8503 146.986 69.2816 146.522 65.7519C152.655 64.9444 158.433 62.4722 163.199 58.6162C163.76 60.6379 166.841 69.4718 165.986 71.3898C164.375 75.0208 156.797 80.97 145.813 80.97Z" fill="#0C0C0C"/>
<path d="M152.04 76.2437C163.943 75.2005 178.19 67.8521 178.396 52.0641L178.581 37.8186C178.786 22.0313 170.466 9.12739 155.254 8.93806C140.041 8.74937 128.503 21.4062 128.297 37.1942L128.216 43.5006C128.226 45.6665 128.387 47.8292 128.699 49.9736C129.479 55.6472 130.689 64.2729 134.63 70.1079C138.351 75.6167 144.436 76.9096 152.04 76.2437Z" fill="#E98862"/>
<path opacity="0.52" d="M146.518 61.8129C144.061 61.9216 141.613 61.4648 139.37 60.4791C139.279 60.4387 139.207 60.3648 139.171 60.2733C139.134 60.1819 139.136 60.0801 139.175 59.9898C139.215 59.8995 139.289 59.8278 139.382 59.7902C139.474 59.7526 139.578 59.752 139.672 59.7886C144.503 61.8019 148.89 61.5075 152.358 58.9365C152.428 58.8825 152.501 58.8321 152.576 58.7855C152.663 58.7454 152.763 58.7388 152.855 58.767C152.947 58.7952 153.024 58.8562 153.072 58.9378C153.121 59.0194 153.135 59.1157 153.114 59.2076C153.093 59.2995 153.037 59.3803 152.958 59.4339C152.93 59.4507 152.885 59.4851 152.825 59.5318C151.002 60.8888 148.806 61.6831 146.518 61.8129Z" fill="#0C0C0C"/>
<path opacity="0.52" d="M146.63 65.3693C146.186 65.3961 145.741 65.3857 145.299 65.3382C145.249 65.333 145.2 65.3182 145.156 65.2947C145.112 65.2712 145.073 65.2393 145.041 65.2011C145.009 65.1628 144.986 65.1187 144.972 65.0715C144.957 65.0243 144.953 64.9748 144.958 64.9258C144.963 64.8769 144.978 64.8294 145.003 64.7862C145.027 64.7429 145.059 64.7047 145.098 64.6738C145.138 64.6428 145.183 64.6197 145.231 64.6058C145.279 64.5919 145.33 64.5874 145.38 64.5926C148.038 64.8681 149.308 63.6783 149.362 63.6271C149.433 63.5567 149.531 63.517 149.633 63.5169C149.735 63.5168 149.832 63.5562 149.904 63.6264C149.976 63.6967 150.017 63.792 150.017 63.8915C150.017 63.991 149.977 64.0864 149.905 64.1568C148.99 64.9185 147.832 65.347 146.63 65.3693Z" fill="#0C0C0C"/>
<path d="M133.321 46.5364C134.356 46.5364 135.195 45.7166 135.195 44.7053C135.195 43.6941 134.356 42.8743 133.321 42.8743C132.286 42.8743 131.447 43.6941 131.447 44.7053C131.447 45.7166 132.286 46.5364 133.321 46.5364Z" fill="#0C0C0C"/>
<path d="M151.629 45.414C152.664 45.414 153.503 44.5942 153.503 43.583C153.503 42.5717 152.664 41.7519 151.629 41.7519C150.594 41.7519 149.755 42.5717 149.755 43.583C149.755 44.5942 150.594 45.414 151.629 45.414Z" fill="#0C0C0C"/>
<path d="M177.388 56.8655C182.012 56.9232 185.822 52.1367 185.882 47.6193C185.943 43.1018 182.225 40.564 177.602 40.5069L175.181 43.5039L173.415 56.8162L177.388 56.8655Z" fill="#E98862"/>
<path d="M172.788 49.6034C172.788 49.6034 171.228 27.2639 164.294 25.8841C159.677 24.9653 148.48 31.3651 138.109 29.4322C133.572 28.5893 129.265 29.6838 128.827 31.7781C128.653 32.6074 125.827 20.6904 132.932 11.649C138.589 4.45176 157.101 2.41577 165.523 4.77596C188.844 11.3132 178.554 41.4867 178.554 41.4867L177.514 49.1884L172.788 49.6034Z" fill="#0C0C0C"/>
<g opacity="0.52">
<path d="M143.723 56.5413C143.713 56.5419 143.704 56.5419 143.694 56.5413C142.204 56.527 139.706 56.3397 139.716 55.251C139.727 54.3484 142.355 44.6334 142.655 43.5285C142.68 43.4334 142.744 43.3522 142.831 43.3028C142.918 43.2533 143.022 43.2397 143.119 43.2649C143.216 43.2901 143.299 43.352 143.35 43.4371C143.401 43.5222 143.414 43.6234 143.389 43.7185C142.221 48.0213 140.482 54.6454 140.475 55.2601C140.619 55.5194 142.158 55.7866 143.701 55.8021C143.798 55.8042 143.891 55.8426 143.96 55.9096C144.029 55.9765 144.069 56.0669 144.072 56.1619C144.075 56.2569 144.04 56.3494 143.975 56.4203C143.91 56.4911 143.82 56.5349 143.723 56.5426V56.5413Z" fill="#0C0C0C"/>
</g>
<path d="M138.641 34.777C137.075 34.3559 135.421 34.3559 133.856 34.777C133.087 34.9791 132.353 35.293 131.68 35.7081C131.013 36.1146 130.403 36.6017 129.861 37.1579C129.762 37.257 129.705 37.3898 129.703 37.5288C129.701 37.6678 129.753 37.8022 129.85 37.9041C129.947 38.006 130.08 38.0675 130.222 38.0759C130.364 38.0842 130.504 38.0388 130.613 37.949L130.646 37.9204C131.147 37.467 131.705 37.0773 132.305 36.7604C132.895 36.445 133.529 36.2185 134.188 36.0887C135.485 35.8231 136.83 35.8967 138.088 36.302L138.14 36.3202C138.346 36.385 138.57 36.3689 138.764 36.2751C138.958 36.1813 139.106 36.0173 139.179 35.818C139.251 35.6187 139.24 35.3998 139.15 35.2078C139.059 35.0158 138.896 34.8659 138.694 34.7899L138.641 34.777Z" fill="#0C0C0C"/>
<path d="M149.727 35.6958C150.919 35.1301 152.242 34.8821 153.564 34.9767C154.234 35.0192 154.894 35.1609 155.52 35.3969C156.158 35.6332 156.763 35.9469 157.321 36.3306L157.357 36.3539C157.476 36.4293 157.621 36.4566 157.761 36.4301C157.901 36.4036 158.025 36.3254 158.107 36.2117C158.19 36.0981 158.224 35.9577 158.203 35.82C158.182 35.6824 158.107 35.5579 157.994 35.4727C157.382 34.992 156.71 34.5887 155.995 34.2725C155.271 33.9489 154.501 33.7334 153.711 33.6332C152.102 33.4189 150.463 33.6333 148.969 34.2537C148.869 34.2963 148.778 34.3577 148.702 34.4346C148.626 34.5114 148.566 34.602 148.526 34.7014C148.486 34.8007 148.467 34.9068 148.469 35.0136C148.471 35.1203 148.494 35.2257 148.538 35.3236C148.626 35.5214 148.79 35.6769 148.996 35.7559C149.097 35.795 149.206 35.8142 149.315 35.8124C149.424 35.8105 149.532 35.7876 149.632 35.7451L149.679 35.7237L149.727 35.6958Z" fill="#0C0C0C"/>
<path d="M148.968 11.7508C150.021 6.82931 148.099 2.27328 144.677 1.57467C141.255 0.876065 137.628 4.29943 136.576 9.22094C135.523 14.1425 137.445 18.6984 140.867 19.3971C144.289 20.0957 147.916 16.6723 148.968 11.7508Z" fill="#0C0C0C"/>
<path d="M98.471 141.677C99.3655 151.942 105.704 215.99 106.567 228.636H223.076C223.745 217.231 226.751 167.361 229.29 145.056C231.713 123.774 235.109 114.09 232.318 107.477C227.396 95.8119 211.727 90.6033 201.117 89.1995C194.638 88.3423 184.893 87.7283 184.893 87.7283C184.893 87.7283 184.068 104.038 164.394 104.945C137.611 106.177 139.401 87.7283 139.268 87.7283C134.929 87.7283 111.312 90.8114 105.406 94.5722C97.0655 99.8839 94.6003 107.123 94.5027 113.774C94.3912 121.434 97.4584 130.032 98.471 141.677Z" fill="#D0F4E6"/>
<path d="M104.379 203.396C104.296 203.396 104.215 203.366 104.154 203.311C104.093 203.256 104.054 203.181 104.047 203.1L99.6329 153.77C99.6251 153.684 99.6525 153.599 99.709 153.533C99.7655 153.467 99.8465 153.426 99.9341 153.418C99.9777 153.414 100.022 153.418 100.064 153.431C100.105 153.443 100.144 153.464 100.178 153.491C100.211 153.519 100.239 153.553 100.259 153.591C100.279 153.629 100.291 153.67 100.294 153.713L104.708 203.044C104.716 203.129 104.688 203.214 104.632 203.28C104.575 203.346 104.494 203.387 104.407 203.395C104.397 203.396 104.388 203.396 104.379 203.396Z" fill="#0C0C0C"/>
<path d="M112.827 232.05L128.825 219.368L126.133 220.112C125.259 220.335 124.331 220.225 123.536 219.805C122.742 219.386 122.14 218.687 121.853 217.85C121.72 217.413 121.679 216.954 121.734 216.502C121.788 216.049 121.936 215.612 122.169 215.217C122.402 214.823 122.715 214.478 123.089 214.205C123.463 213.933 123.889 213.737 124.343 213.631L157.951 205.644L160.843 216.104C161.741 219.353 161.627 222.789 160.513 225.974C159.4 229.158 157.338 231.945 154.593 233.977L142.14 243.16C141.503 243.649 140.712 243.907 139.902 243.892C139.092 243.877 138.312 243.589 137.694 243.077C137.146 242.602 136.767 241.969 136.613 241.269C136.46 240.569 136.539 239.839 136.84 239.186C136.786 239.171 136.738 239.141 136.7 239.101C136.666 239.062 136.643 239.015 136.633 238.965C136.622 238.915 136.624 238.863 136.639 238.814L134.345 240.511C133.637 241.058 132.742 241.322 131.841 241.249C130.941 241.176 130.103 240.771 129.496 240.118C128.975 239.515 128.688 238.752 128.686 237.963C128.683 237.173 128.966 236.409 129.484 235.803C129.448 235.798 129.413 235.786 129.381 235.769L128.439 236.466C127.801 236.955 127.011 237.214 126.201 237.199C125.39 237.184 124.611 236.896 123.993 236.383C123.327 235.808 122.916 235.003 122.845 234.137C122.774 233.272 123.049 232.413 123.612 231.741C123.598 231.723 123.587 231.702 123.579 231.681L116.916 236.962C116.586 237.224 116.206 237.42 115.798 237.538C115.391 237.657 114.963 237.695 114.54 237.652C114.117 237.609 113.707 237.485 113.333 237.287C112.959 237.089 112.629 236.821 112.361 236.499C112.093 236.176 111.893 235.805 111.772 235.406C111.65 235.008 111.611 234.59 111.655 234.177C111.699 233.764 111.826 233.363 112.029 232.997C112.231 232.632 112.505 232.309 112.836 232.048L112.827 232.05Z" fill="#E98862"/>
<path opacity="0.2" d="M123.977 231.87C124.012 231.858 124.045 231.839 124.073 231.816L130.484 226.613C130.516 226.586 130.543 226.554 130.563 226.517C130.583 226.48 130.595 226.44 130.599 226.399C130.602 226.358 130.598 226.316 130.585 226.277C130.573 226.237 130.552 226.201 130.525 226.169C130.498 226.137 130.465 226.111 130.427 226.091C130.39 226.072 130.349 226.06 130.307 226.057C130.264 226.053 130.222 226.057 130.181 226.07C130.141 226.082 130.104 226.102 130.071 226.128L123.661 231.331C123.603 231.378 123.564 231.444 123.55 231.517C123.537 231.59 123.55 231.665 123.588 231.73C123.625 231.794 123.685 231.843 123.756 231.869C123.827 231.895 123.905 231.895 123.977 231.87Z" fill="#0A0A0A"/>
<path opacity="0.2" d="M129.626 235.8C129.66 235.788 129.692 235.77 129.721 235.747L134.791 231.696C134.857 231.643 134.899 231.567 134.908 231.484C134.917 231.4 134.891 231.317 134.837 231.253C134.783 231.188 134.705 231.147 134.619 231.138C134.534 231.13 134.449 231.155 134.383 231.208L129.313 235.259C129.253 235.306 129.213 235.372 129.199 235.445C129.185 235.518 129.198 235.594 129.235 235.659C129.273 235.724 129.333 235.773 129.404 235.799C129.476 235.825 129.554 235.825 129.626 235.8Z" fill="#0A0A0A"/>
<path opacity="0.2" d="M137.047 239.197C137.084 239.184 137.119 239.164 137.149 239.139L139.497 237.171C139.529 237.144 139.556 237.112 139.575 237.075C139.594 237.038 139.606 236.998 139.609 236.956C139.612 236.915 139.607 236.874 139.594 236.834C139.581 236.795 139.56 236.759 139.532 236.727C139.505 236.696 139.471 236.67 139.433 236.652C139.396 236.633 139.354 236.622 139.312 236.618C139.27 236.615 139.228 236.62 139.187 236.633C139.147 236.646 139.11 236.666 139.078 236.693L136.729 238.661C136.672 238.709 136.634 238.775 136.621 238.848C136.609 238.92 136.623 238.995 136.661 239.058C136.698 239.122 136.758 239.17 136.828 239.196C136.899 239.221 136.976 239.221 137.047 239.197Z" fill="#0A0A0A"/>
<path d="M254.219 200.987L254.097 200.455L232.831 108.549L190.759 117.841L207.357 189.58L140.867 205.545L149.05 242.204L237.656 225.691C237.855 225.652 238.151 225.594 238.352 225.549C241.045 224.955 243.591 223.847 245.846 222.291C248.1 220.735 250.019 218.76 251.492 216.479C252.966 214.198 253.965 211.656 254.433 208.998C254.901 206.34 254.828 203.618 254.219 200.987Z" fill="#D0F4E6"/>
<path d="M140.542 205.614C140.524 205.532 140.54 205.446 140.586 205.375C140.632 205.304 140.704 205.253 140.787 205.233L206.982 189.347L196.219 142.898C196.207 142.855 196.204 142.811 196.21 142.768C196.216 142.724 196.231 142.682 196.254 142.644C196.277 142.607 196.307 142.574 196.344 142.548C196.38 142.522 196.421 142.504 196.465 142.494C196.509 142.484 196.554 142.484 196.599 142.492C196.643 142.499 196.685 142.516 196.722 142.54C196.76 142.565 196.792 142.596 196.816 142.633C196.841 142.67 196.858 142.711 196.865 142.754L207.701 189.514C207.72 189.597 207.706 189.685 207.66 189.758C207.615 189.831 207.541 189.883 207.456 189.903L141.257 205.789C141.257 205.789 141.701 207.68 141.826 208.318C141.836 208.401 141.812 208.484 141.758 208.55C141.705 208.616 141.628 208.658 141.543 208.667C141.458 208.677 141.372 208.653 141.305 208.601C141.238 208.549 141.195 208.474 141.185 208.391C141.032 207.691 140.542 205.614 140.542 205.614Z" fill="#0C0C0C"/>
<path d="M143.137 256.806L117.572 180.02C117.123 178.67 116.248 177.494 115.073 176.66C113.898 175.827 112.483 175.377 111.031 175.378H6.8785C5.79279 175.378 4.72249 175.629 3.75515 176.11C2.7878 176.592 1.95089 177.291 1.31288 178.149C0.674874 179.007 0.253897 180.001 0.0843682 181.049C-0.0851602 182.097 0.001582 183.169 0.337507 184.178L25.9029 260.964C26.3522 262.313 27.2269 263.489 28.4019 264.323C29.5769 265.157 30.9918 265.606 32.444 265.606H136.596C137.681 265.606 138.751 265.354 139.719 264.873C140.686 264.391 141.523 263.692 142.161 262.834C142.799 261.976 143.22 260.982 143.389 259.934C143.559 258.886 143.472 257.814 143.137 256.806Z" fill="#292A2E"/>
<path opacity="0.2" d="M143.137 256.806L117.572 180.02C117.123 178.67 116.248 177.494 115.073 176.66C113.898 175.827 112.483 175.377 111.031 175.378H6.8785C5.79279 175.378 4.72249 175.629 3.75515 176.11C2.7878 176.592 1.95089 177.291 1.31288 178.149C0.674874 179.007 0.253897 180.001 0.0843682 181.049C-0.0851602 182.097 0.001582 183.169 0.337507 184.178L25.9029 260.964C26.3522 262.313 27.2269 263.489 28.4019 264.323C29.5769 265.157 30.9918 265.606 32.444 265.606H136.596C137.681 265.606 138.751 265.354 139.719 264.873C140.686 264.391 141.523 263.692 142.161 262.834C142.799 261.976 143.22 260.982 143.389 259.934C143.559 258.886 143.472 257.814 143.137 256.806Z" fill="white"/>
<path d="M68.7368 231.165C74.7696 231.165 79.6602 226.386 79.6602 220.492C79.6602 214.597 74.7696 209.818 68.7368 209.818C62.704 209.818 57.8135 214.597 57.8135 220.492C57.8135 226.386 62.704 231.165 68.7368 231.165Z" fill="white"/>
</svg>
