<svg width="101" height="101" viewBox="0 0 101 101" fill="none" xmlns="http://www.w3.org/2000/svg">
<path d="M61.1439 30.4021L47.1265 36.558L43.0225 27.2131L68.721 15.9272C69.6496 15.5182 70.3781 14.7574 70.7465 13.812C71.115 12.8665 71.0933 11.8135 70.6864 10.8839L66.5824 1.539L61.91 3.59099L65.5009 11.7678L39.8025 23.0537C38.8738 23.4627 38.1454 24.2235 37.7769 25.1689C37.4085 26.1144 37.4301 27.1674 37.8371 28.097L42.4541 38.61L28.4367 44.7659C23.484 46.9477 19.599 51.0048 17.634 56.0474C15.6689 61.09 15.7843 66.7061 17.9548 71.6637L24.4284 86.4042C25.9802 89.9271 28.8661 92.6905 32.4529 94.0883C36.0397 95.486 40.0345 95.4039 43.5609 93.86L43.8237 93.7446C45.7743 92.8911 47.5127 91.6179 48.9151 90.0157C50.3175 88.4136 51.3493 86.5219 51.9371 84.4755L55.5768 71.8622L62.6772 68.744L74.7574 75.3636C77.4166 76.8205 80.4651 77.4083 83.4752 77.0446C86.4854 76.6809 89.3062 75.384 91.5419 73.3358C93.7776 71.2876 95.3159 68.5909 95.9412 65.624C96.5664 62.6571 96.2471 59.5689 95.0281 56.7926L88.0416 40.884C85.8599 35.9313 81.8027 32.0463 76.7601 30.0812C71.7176 28.1162 66.1014 28.2316 61.1439 30.4021ZM90.3557 58.8446C91.1464 60.6452 91.3535 62.6481 90.948 64.5724C90.5425 66.4966 89.5447 68.2457 88.0947 69.574C86.6447 70.9024 84.8151 71.7435 82.8628 71.9793C80.9104 72.215 78.9333 71.8336 77.2087 70.8886L62.9249 63.0616L51.3355 68.1512L47.0332 83.0609C46.6521 84.388 45.983 85.6147 45.0736 86.6537C44.1643 87.6926 43.037 88.5183 41.7721 89.072L41.5093 89.1874C39.2223 90.1888 36.6315 90.2422 34.3052 89.3357C31.979 88.4293 30.1073 86.637 29.1008 84.3522L22.6273 69.6117C20.9994 65.8935 20.9128 61.6814 22.3866 57.8995C23.8604 54.1175 26.7742 51.0747 30.4887 49.4384L63.1958 35.0745C66.914 33.4466 71.1261 33.36 74.9081 34.8338C78.69 36.3076 81.7329 39.2214 83.3691 42.9359L90.3557 58.8446Z" fill="#F4D0E1"/>
<path d="M69.7782 40.5442L65.1057 42.5962L67.1577 47.2686L71.8301 45.2167L69.7782 40.5442Z" fill="#F4D0E1"/>
<path d="M74.908 52.2253L70.2356 54.2773L72.2876 58.9498L76.96 56.8978L74.908 52.2253Z" fill="#F4D0E1"/>
<path d="M66.5025 48.9498L61.8301 51.0017L63.8821 55.6742L68.5545 53.6222L66.5025 48.9498Z" fill="#F4D0E1"/>
<path d="M78.1837 43.8198L73.5112 45.8718L75.5632 50.5442L80.2357 48.4922L78.1837 43.8198Z" fill="#F4D0E1"/>
<path d="M34.7347 55.9341L30.0622 57.986L32.6272 63.8266L26.7867 66.3916L28.8386 71.064L34.6792 68.499L37.2442 74.3396L41.9166 72.2876L39.3516 66.4471L45.1922 63.8821L43.1402 59.2096L37.2997 61.7746L34.7347 55.9341Z" fill="#F4D0E1"/>
</svg>
